<?xml version="1.0" encoding="us-ascii" standalone="no"?><svg xmlns="http://www.w3.org/2000/svg" xmlns:xlink="http://www.w3.org/1999/xlink" contentStyleType="text/css" height="218px" preserveAspectRatio="none" style="width:197px;height:218px;background:#FFFFFF;" version="1.1" viewBox="0 0 197 218" width="197px" zoomAndPan="magnify"><defs/><g><!--class Appender--><g id="elem_Appender"><rect codeLine="1" fill="#F1F1F1" height="80.5938" id="Appender" rx="2.5" ry="2.5" style="stroke:#181818;stroke-width:0.5;" width="171" x="13" y="7"/><ellipse cx="60.25" cy="23" fill="#ADD1B2" rx="11" ry="11" style="stroke:#181818;stroke-width:1.0;"/><path d="M63.2188,28.6406 Q62.6406,28.9375 62,29.0781 Q61.3594,29.2344 60.6563,29.2344 Q58.1563,29.2344 56.8281,27.5938 Q55.5156,25.9375 55.5156,22.8125 Q55.5156,19.6875 56.8281,18.0313 Q58.1563,16.375 60.6563,16.375 Q61.3594,16.375 62,16.5313 Q62.6563,16.6875 63.2188,16.9844 L63.2188,19.7031 Q62.5938,19.125 62,18.8594 Q61.4063,18.5781 60.7813,18.5781 Q59.4375,18.5781 58.75,19.6563 Q58.0625,20.7188 58.0625,22.8125 Q58.0625,24.9063 58.75,25.9844 Q59.4375,27.0469 60.7813,27.0469 Q61.4063,27.0469 62,26.7813 Q62.5938,26.5 63.2188,25.9219 L63.2188,28.6406 Z " fill="#000000"/><text fill="#000000" font-family="sans-serif" font-size="14" lengthAdjust="spacing" textLength="68" x="80.75" y="27.8467">Appender</text><line style="stroke:#181818;stroke-width:0.5;" x1="14" x2="183" y1="39" y2="39"/><text fill="#000000" font-family="sans-serif" font-size="14" lengthAdjust="spacing" textLength="90" x="19" y="55.9951">Layout layout</text><line style="stroke:#181818;stroke-width:0.5;" x1="14" x2="183" y1="63.2969" y2="63.2969"/><text fill="#000000" font-family="sans-serif" font-size="14" lengthAdjust="spacing" textLength="159" x="19" y="80.292">void append(LogEvent)</text></g><!--class Layout--><g id="elem_Layout"><rect codeLine="8" fill="#F1F1F1" height="64.2969" id="Layout" rx="2.5" ry="2.5" style="stroke:#181818;stroke-width:2.0;" width="183" x="7" y="147.59"/><ellipse cx="71.75" cy="163.59" fill="#ADD1B2" rx="11" ry="11" style="stroke:#181818;stroke-width:1.0;"/><path d="M74.7188,169.2306 Q74.1406,169.5275 73.5,169.6681 Q72.8594,169.8244 72.1563,169.8244 Q69.6563,169.8244 68.3281,168.1837 Q67.0156,166.5275 67.0156,163.4025 Q67.0156,160.2775 68.3281,158.6212 Q69.6563,156.965 72.1563,156.965 Q72.8594,156.965 73.5,157.1212 Q74.1563,157.2775 74.7188,157.5744 L74.7188,160.2931 Q74.0938,159.715 73.5,159.4494 Q72.9063,159.1681 72.2813,159.1681 Q70.9375,159.1681 70.25,160.2462 Q69.5625,161.3087 69.5625,163.4025 Q69.5625,165.4962 70.25,166.5744 Q70.9375,167.6369 72.2813,167.6369 Q72.9063,167.6369 73.5,167.3712 Q74.0938,167.09 74.7188,166.5119 L74.7188,169.2306 Z " fill="#000000"/><text fill="#000000" font-family="sans-serif" font-size="14" lengthAdjust="spacing" textLength="45" x="92.25" y="168.4367">Layout</text><line style="stroke:#181818;stroke-width:2.0;" x1="8" x2="189" y1="179.59" y2="179.59"/><line style="stroke:#181818;stroke-width:2.0;" x1="8" x2="189" y1="187.59" y2="187.59"/><text fill="#000000" font-family="sans-serif" font-size="14" lengthAdjust="spacing" textLength="171" x="13" y="204.5851">byte[] encode(LogEvent)</text></g><!--link Appender to Layout--><g id="link_Appender_Layout"><path codeLine="6" d="M98.5,87.79 C98.5,106.83 98.5,123.37 98.5,141.24 " fill="none" id="Appender-to-Layout" style="stroke:#008000;stroke-width:6.0;"/><polygon fill="#008000" points="98.5,147.24,102.5,138.24,98.5,142.24,94.5,138.24,98.5,147.24" style="stroke:#008000;stroke-width:6.0;"/></g><!--SRC=[Iyv9B2vMS2meICrBIIrIgEPIKF19hCmlBL780LD0Vbb-Pef28bY5Xaz-kcjPQbw99bSj5nTSbswqSdfHQcgUJab6Pd9sNcfniQrPhAuTr2GkhcIm9L1pbNCoyrBral9pKi2s9LMMf4R7AgJc9UUdf2AR3m00]--></g></svg>