<?xml version="1.0" encoding="us-ascii" standalone="no"?><svg xmlns="http://www.w3.org/2000/svg" xmlns:xlink="http://www.w3.org/1999/xlink" contentStyleType="text/css" height="300px" preserveAspectRatio="none" style="width:649px;height:300px;background:#FFFFFF;" version="1.1" viewBox="0 0 649 300" width="649px" zoomAndPan="magnify"><defs/><g><!--class LoggerContext--><g id="elem_LoggerContext"><rect codeLine="1" fill="#F1F1F1" height="96.8906" id="LoggerContext" rx="2.5" ry="2.5" style="stroke:#181818;stroke-width:2.0;" width="228" x="218" y="7"/><ellipse cx="276.75" cy="23" fill="#ADD1B2" rx="11" ry="11" style="stroke:#181818;stroke-width:1.0;"/><path d="M279.7188,28.6406 Q279.1406,28.9375 278.5,29.0781 Q277.8594,29.2344 277.1563,29.2344 Q274.6563,29.2344 273.3281,27.5938 Q272.0156,25.9375 272.0156,22.8125 Q272.0156,19.6875 273.3281,18.0313 Q274.6563,16.375 277.1563,16.375 Q277.8594,16.375 278.5,16.5313 Q279.1563,16.6875 279.7188,16.9844 L279.7188,19.7031 Q279.0938,19.125 278.5,18.8594 Q277.9063,18.5781 277.2813,18.5781 Q275.9375,18.5781 275.25,19.6563 Q274.5625,20.7188 274.5625,22.8125 Q274.5625,24.9063 275.25,25.9844 Q275.9375,27.0469 277.2813,27.0469 Q277.9063,27.0469 278.5,26.7813 Q279.0938,26.5 279.7188,25.9219 L279.7188,28.6406 Z " fill="#000000"/><text fill="#000000" font-family="sans-serif" font-size="14" lengthAdjust="spacing" textLength="102" x="297.25" y="27.8467">LoggerContext</text><line style="stroke:#181818;stroke-width:2.0;" x1="219" x2="445" y1="39" y2="39"/><text fill="#000000" font-family="sans-serif" font-size="14" lengthAdjust="spacing" textLength="138" x="224" y="55.9951">Configuration config</text><text fill="#000000" font-family="sans-serif" font-size="14" lengthAdjust="spacing" textLength="114" x="224" y="72.292">Logger[] loggers</text><line style="stroke:#181818;stroke-width:2.0;" x1="219" x2="445" y1="79.5938" y2="79.5938"/><text fill="#000000" font-family="sans-serif" font-size="14" lengthAdjust="spacing" textLength="216" x="224" y="96.5889">Logger getLogger(String name)</text></g><!--class Configuration--><g id="elem_Configuration"><rect codeLine="11" fill="#F1F1F1" height="129.4844" id="Configuration" rx="2.5" ry="2.5" style="stroke:#181818;stroke-width:0.5;" width="316" x="7" y="163.89"/><ellipse cx="114.75" cy="179.89" fill="#ADD1B2" rx="11" ry="11" style="stroke:#181818;stroke-width:1.0;"/><path d="M117.7188,185.5306 Q117.1406,185.8275 116.5,185.9681 Q115.8594,186.1244 115.1563,186.1244 Q112.6563,186.1244 111.3281,184.4838 Q110.0156,182.8275 110.0156,179.7025 Q110.0156,176.5775 111.3281,174.9213 Q112.6563,173.265 115.1563,173.265 Q115.8594,173.265 116.5,173.4213 Q117.1563,173.5775 117.7188,173.8744 L117.7188,176.5931 Q117.0938,176.015 116.5,175.7494 Q115.9063,175.4681 115.2813,175.4681 Q113.9375,175.4681 113.25,176.5463 Q112.5625,177.6088 112.5625,179.7025 Q112.5625,181.7963 113.25,182.8744 Q113.9375,183.9369 115.2813,183.9369 Q115.9063,183.9369 116.5,183.6713 Q117.0938,183.39 117.7188,182.8119 L117.7188,185.5306 Z " fill="#000000"/><text fill="#000000" font-family="sans-serif" font-size="14" lengthAdjust="spacing" textLength="92" x="135.25" y="184.7367">Configuration</text><line style="stroke:#181818;stroke-width:0.5;" x1="8" x2="322" y1="195.89" y2="195.89"/><text fill="#000000" font-family="sans-serif" font-size="14" lengthAdjust="spacing" textLength="157" x="13" y="212.8851">Appender[] appenders</text><text fill="#000000" font-family="sans-serif" font-size="14" lengthAdjust="spacing" textLength="66" x="13" y="229.182">Filter filter</text><text fill="#000000" font-family="sans-serif" font-size="14" lengthAdjust="spacing" textLength="202" x="13" y="245.4789">LoggerConfig[] loggerConfigs</text><text fill="#000000" font-family="sans-serif" font-size="14" lengthAdjust="spacing" textLength="174" x="13" y="261.7757">StrSubstitutor substitutor</text><line style="stroke:#181818;stroke-width:0.5;" x1="8" x2="322" y1="269.0775" y2="269.0775"/><text fill="#000000" font-family="sans-serif" font-size="14" lengthAdjust="spacing" textLength="304" x="13" y="286.0726">LoggerConfig getLoggerConfig(String name)</text></g><!--class Logger--><g id="elem_Logger"><rect codeLine="19" fill="#F1F1F1" height="64.2969" id="Logger" rx="2.5" ry="2.5" style="stroke:#181818;stroke-width:0.5;" width="284" x="358" y="196.48"/><ellipse cx="471.75" cy="212.48" fill="#ADD1B2" rx="11" ry="11" style="stroke:#181818;stroke-width:1.0;"/><path d="M474.7188,218.1206 Q474.1406,218.4175 473.5,218.5581 Q472.8594,218.7144 472.1563,218.7144 Q469.6563,218.7144 468.3281,217.0738 Q467.0156,215.4175 467.0156,212.2925 Q467.0156,209.1675 468.3281,207.5113 Q469.6563,205.855 472.1563,205.855 Q472.8594,205.855 473.5,206.0113 Q474.1563,206.1675 474.7188,206.4644 L474.7188,209.1831 Q474.0938,208.605 473.5,208.3394 Q472.9063,208.0581 472.2813,208.0581 Q470.9375,208.0581 470.25,209.1363 Q469.5625,210.1988 469.5625,212.2925 Q469.5625,214.3863 470.25,215.4644 Q470.9375,216.5269 472.2813,216.5269 Q472.9063,216.5269 473.5,216.2613 Q474.0938,215.98 474.7188,215.4019 L474.7188,218.1206 Z " fill="#000000"/><text fill="#000000" font-family="sans-serif" font-size="14" lengthAdjust="spacing" textLength="48" x="492.25" y="217.3267">Logger</text><line style="stroke:#181818;stroke-width:0.5;" x1="359" x2="641" y1="228.48" y2="228.48"/><line style="stroke:#181818;stroke-width:0.5;" x1="359" x2="641" y1="236.48" y2="236.48"/><text fill="#000000" font-family="sans-serif" font-size="14" lengthAdjust="spacing" textLength="272" x="364" y="253.4751">void log(Level level, Message message)</text></g><!--link LoggerContext to Configuration--><g id="link_LoggerContext_Configuration"><path codeLine="7" d="M285.48,104.13 C267.53,122.53 250.91,139.5654 231.69,159.2654 " fill="none" id="LoggerContext-to-Configuration" style="stroke:#181818;stroke-width:1.0;"/><polygon fill="#181818" points="227.5,163.56,236.6481,159.9114,230.9917,159.9811,230.9219,154.3247,227.5,163.56" style="stroke:#181818;stroke-width:1.0;"/></g><!--link LoggerContext to Logger--><g id="link_LoggerContext_Logger"><path codeLine="9" d="M378.8,104.13 C407.63,133.51 439.5974,166.0777 464.8874,191.8477 " fill="none" id="LoggerContext-to-Logger" style="stroke:#181818;stroke-width:1.0;"/><polygon fill="#181818" points="469.09,196.13,465.641,186.9048,465.5879,192.5614,459.9313,192.5082,469.09,196.13" style="stroke:#181818;stroke-width:1.0;"/><text fill="#000000" font-family="sans-serif" font-size="13" lengthAdjust="spacing" textLength="23" x="437.7405" y="185.3353">0..*</text></g><!--SRC=[RP3F2i8m3CRlVOemBrFSy0a44JpDquxYeTjYANJjMBCXYEzk_upDYPVc-z8c-QMrujP2OOJ0_cmquPDWewJ6l3AgWHS3SEc754FFIHeDTN0k7MjkTr11s3a50YcgjAHUQW6QjxXbRyRMSxBik6x-xq5ooFDTChLch0wyQoGFUUewr4tWuPFqH1Ufo14zGfW9O_cC7gtzkLxMY7wz382pvL1PaZIGwS4ksczQV_rh01oDRFoyjC0H5IX_xk6ArdA1qCReFka3]--></g></svg>