<?plantuml 1.2026.1?><svg xmlns="http://www.w3.org/2000/svg" xmlns:xlink="http://www.w3.org/1999/xlink" contentStyleType="text/css" data-diagram-type="ACTIVITY" height="475px" preserveAspectRatio="none" style="width:459px;height:475px;background:#FFFFFF;" version="1.1" viewBox="0 0 459 475" width="459px" zoomAndPan="magnify"><defs/><g><rect fill="#FFFFCC" height="48.2813" rx="2.5" ry="2.5" style="stroke:#FFDD88;stroke-width:3;" width="448.4766" x="5" y="5"/><text fill="#000000" font-family="monospace" font-size="10" lengthAdjust="spacing" textLength="433.4766" x="10" y="20">You&#160;should&#160;use&#160;a&#160;bracket&#160;({)&#160;when&#160;defining&#160;your&#160;container&#160;'group'&#160;Logger</text><text fill="#000000" font-family="monospace" font-size="10" lengthAdjust="spacing" textLength="307.0459" x="10" y="41.6406">You&#160;should&#160;use&#160;a&#160;bracket&#160;(})&#160;instead&#160;of&#160;'end&#160;group'</text><ellipse cx="211.396" cy="78.2813" fill="#222222" rx="10" ry="10" style="stroke:#222222;stroke-width:1;"/><rect fill="none" height="270.3628" style="stroke:#000000;stroke-width:1.5;" width="409.6099" x="11" y="98.2813"/><path d="M69.5078,98.2813 L69.5078,107.5781 L59.5078,117.5781 L11,117.5781" fill="none" style="stroke:#000000;stroke-width:1.5;"/><text fill="#000000" font-family="sans-serif" font-size="14" lengthAdjust="spacing" textLength="48.5078" x="14" y="112.2764">Logger</text><rect fill="#F1F1F1" height="33.9688" rx="12.5" ry="12.5" style="stroke:#181818;stroke-width:0.5;" width="123.7578" x="149.5171" y="134.5781"/><text fill="#000000" font-family="sans-serif" font-size="12" lengthAdjust="spacing" textLength="103.7578" x="159.5171" y="155.7168">A Logger method</text><polygon fill="#F1F1F1" points="162.8037,188.5469,259.9883,188.5469,271.9883,200.5469,259.9883,212.5469,162.8037,212.5469,150.8037,200.5469,162.8037,188.5469" style="stroke:#181818;stroke-width:0.5;"/><text fill="#000000" font-family="sans-serif" font-size="11" lengthAdjust="spacing" textLength="97.1846" x="162.8037" y="204.355">Apply global filter</text><rect fill="#FFC0CB" height="33.9688" rx="12.5" ry="12.5" style="stroke:#181818;stroke-width:0.5;" width="65.3281" x="21" y="248.1563"/><text fill="#000000" font-family="sans-serif" font-size="12" lengthAdjust="spacing" textLength="45.3281" x="31" y="269.2949">Discard</text><polygon fill="#F1F1F1" points="206.0649,248.1563,382.9082,248.1563,394.9082,260.1563,382.9082,272.1563,206.0649,272.1563,194.0649,260.1563,206.0649,248.1563" style="stroke:#181818;stroke-width:0.5;"/><text fill="#000000" font-family="sans-serif" font-size="11" lengthAdjust="spacing" textLength="176.8433" x="206.0649" y="263.9644">Is less severe than logger level?</text><text fill="#000000" font-family="sans-serif" font-size="11" lengthAdjust="spacing" textLength="19.0083" x="175.0566" y="257.562">yes</text><text fill="#000000" font-family="sans-serif" font-size="11" lengthAdjust="spacing" textLength="13.7017" x="394.9082" y="257.562">no</text><rect fill="#FFC0CB" height="33.9688" rx="12.5" ry="12.5" style="stroke:#181818;stroke-width:0.5;" width="65.3281" x="151.4009" y="282.1563"/><text fill="#000000" font-family="sans-serif" font-size="12" lengthAdjust="spacing" textLength="45.3281" x="161.4009" y="303.2949">Discard</text><polygon fill="#F1F1F1" points="211.396,332.644,211.396,332.644,223.396,344.644,211.396,356.644,211.396,356.644,199.396,344.644,211.396,332.644" style="stroke:#181818;stroke-width:0.5;"/><rect fill="#F1F1F1" height="33.9688" rx="12.5" ry="12.5" style="stroke:#181818;stroke-width:0.5;" width="119.9727" x="151.4097" y="388.644"/><text fill="#000000" font-family="sans-serif" font-size="12" lengthAdjust="spacing" textLength="99.9727" x="161.4097" y="409.7827">Create LogEvent</text><ellipse cx="211.396" cy="453.6128" fill="none" rx="11" ry="11" style="stroke:#222222;stroke-width:1;"/><ellipse cx="211.396" cy="453.6128" fill="#222222" rx="6" ry="6" style="stroke:#222222;stroke-width:1;"/><line style="stroke:#181818;stroke-width:1;" x1="194.0649" x2="184.0649" y1="260.1563" y2="260.1563"/><line style="stroke:#181818;stroke-width:1;" x1="184.0649" x2="184.0649" y1="260.1563" y2="282.1563"/><polygon fill="#181818" points="180.0649,272.1563,184.0649,282.1563,188.0649,272.1563,184.0649,276.1563" style="stroke:#181818;stroke-width:1;"/><line style="stroke:#181818;stroke-width:1;" x1="394.9082" x2="404.9082" y1="260.1563" y2="260.1563"/><line style="stroke:#181818;stroke-width:1;" x1="404.9082" x2="404.9082" y1="260.1563" y2="344.644"/><line style="stroke:#181818;stroke-width:1;" x1="404.9082" x2="223.396" y1="344.644" y2="344.644"/><polygon fill="#181818" points="233.396,340.644,223.396,344.644,233.396,348.644,229.396,344.644" style="stroke:#181818;stroke-width:1;"/><line style="stroke:#181818;stroke-width:1;" x1="150.8037" x2="53.6641" y1="200.5469" y2="200.5469"/><line style="stroke:#181818;stroke-width:1;" x1="53.6641" x2="53.6641" y1="200.5469" y2="248.1563"/><polygon fill="#181818" points="49.6641,238.1563,53.6641,248.1563,57.6641,238.1563,53.6641,242.1563" style="stroke:#181818;stroke-width:1;"/><text fill="#000000" font-family="sans-serif" font-size="11" lengthAdjust="spacing" textLength="30.3682" x="53.6641" y="228.1597">DENY</text><line style="stroke:#181818;stroke-width:1;" x1="271.9883" x2="294.4866" y1="200.5469" y2="200.5469"/><line style="stroke:#181818;stroke-width:1;" x1="294.4866" x2="294.4866" y1="200.5469" y2="248.1563"/><polygon fill="#181818" points="290.4866,238.1563,294.4866,248.1563,298.4866,238.1563,294.4866,242.1563" style="stroke:#181818;stroke-width:1;"/><text fill="#000000" font-family="sans-serif" font-size="11" lengthAdjust="spacing" textLength="51.2456" x="294.4866" y="228.1597">NEUTRAL</text><line style="stroke:#181818;stroke-width:1;" x1="96.3281" x2="96.3281" y1="200.5469" y2="344.644"/><line style="stroke:#181818;stroke-width:1;" x1="96.3281" x2="199.396" y1="344.644" y2="344.644"/><polygon fill="#181818" points="189.396,340.644,199.396,344.644,189.396,348.644,193.396,344.644" style="stroke:#181818;stroke-width:1;"/><text fill="#000000" font-family="sans-serif" font-size="11" lengthAdjust="spacing" textLength="43.189" x="96.3281" y="321.144">ACCEPT</text><line style="stroke:#181818;stroke-width:1;" x1="211.396" x2="211.396" y1="168.5469" y2="188.5469"/><polygon fill="#181818" points="207.396,178.5469,211.396,188.5469,215.396,178.5469,211.396,182.5469" style="stroke:#181818;stroke-width:1;"/><line style="stroke:#181818;stroke-width:1;" x1="211.396" x2="211.396" y1="88.2813" y2="134.5781"/><polygon fill="#181818" points="207.396,124.5781,211.396,134.5781,215.396,124.5781,211.396,128.5781" style="stroke:#181818;stroke-width:1;"/><line style="stroke:#181818;stroke-width:1;" x1="211.396" x2="211.396" y1="356.644" y2="388.644"/><polygon fill="#181818" points="207.396,378.644,211.396,388.644,215.396,378.644,211.396,382.644" style="stroke:#181818;stroke-width:1;"/><line style="stroke:#181818;stroke-width:1;" x1="211.396" x2="211.396" y1="422.6128" y2="442.6128"/><polygon fill="#181818" points="207.396,432.6128,211.396,442.6128,215.396,432.6128,211.396,436.6128" style="stroke:#181818;stroke-width:1;"/><?plantuml-src TP0_QyCm4CLtVOg33hN7hivGZEEX448fxj3n8fzbaOiaTAfBldsbAlspL8DuFDtlddYIC2PbedyFSF36K5IgwsyIBfHMF--KaW-Rz0fD7m9VmR0_8SDYEL5ibKOXQFRZyQrLaCzTiExSxQreZ1akram9zNgRx8TXV9w-kUFuEhtqXuhQ1Ped0IOH4Dee4gGL7N3z3sUB7zliaOFcIbAfVqB_11T9NEAS_sNkOLe964_4O2yX-eroR41jdVaPgi_uK7UusIugtxMGek2hFDKDaJ1HQMxSoAMTakJ39m00?></g></svg>