<svg xmlns="http://www.w3.org/2000/svg" xmlns:xlink="http://www.w3.org/1999/xlink" contentStyleType="text/css" data-diagram-type="ACTIVITY" height="496px" preserveAspectRatio="none" style="width:564px;height:496px;background:#FFFFFF;" version="1.1" viewBox="0 0 564 496" width="564px" zoomAndPan="magnify"><?plantuml 1.2026.6?><defs/><g><rect fill="#FFFFCC" height="59.9219" rx="2.5" ry="2.5" style="stroke:#FFDD88;stroke-width:3;" width="533.7842" x="13" y="13"/><text fill="#000000" font-family="monospace" font-size="10" lengthAdjust="spacing" textLength="433.4766" x="20" y="23.6406">You&#160;should&#160;use&#160;a&#160;bracket&#160;({)&#160;when&#160;defining&#160;your&#160;container&#160;'group'&#160;Logger</text><text fill="#000000" font-family="monospace" font-size="10" lengthAdjust="spacing" textLength="523.7842" x="20" y="45.2813">This&#160;syntax&#160;is&#160;deprecated,&#160;you&#160;must&#160;add&#160;&lt;&lt;#pink&gt;&gt;&#160;at&#160;the&#160;end&#160;of&#160;the&#160;line,&#160;after&#160;the&#160;';'</text><text fill="#000000" font-family="monospace" font-size="10" lengthAdjust="spacing" textLength="307.0459" x="20" y="66.9219">You&#160;should&#160;use&#160;a&#160;bracket&#160;(})&#160;instead&#160;of&#160;'end&#160;group'</text><ellipse cx="216.396" cy="89.9219" fill="#222222" rx="10" ry="10" style="stroke:#222222;stroke-width:1;"/><rect fill="none" height="270.3628" style="stroke:#000000;stroke-width:1.5;" width="409.6099" x="16" y="109.9219"/><path d="M74.5078,109.9219 L74.5078,119.2188 L64.5078,129.2188 L16,129.2188" fill="none" style="stroke:#000000;stroke-width:1.5;"/><text fill="#000000" font-family="sans-serif" font-size="14" lengthAdjust="spacing" textLength="48.5078" x="19" y="123.917">Logger</text><rect fill="#F1F1F1" height="33.9688" rx="12.5" ry="12.5" style="stroke:#181818;stroke-width:0.5;" width="123.7578" x="154.5171" y="146.2188"/><text fill="#000000" font-family="sans-serif" font-size="12" lengthAdjust="spacing" textLength="103.7578" x="164.5171" y="167.3574">A Logger method</text><polygon fill="#F1F1F1" points="167.8037,200.1875,264.9883,200.1875,276.9883,212.1875,264.9883,224.1875,167.8037,224.1875,155.8037,212.1875,167.8037,200.1875" style="stroke:#181818;stroke-width:0.5;stroke-linejoin:miter;stroke-miterlimit:10;"/><text fill="#000000" font-family="sans-serif" font-size="11" lengthAdjust="spacing" textLength="97.1846" x="167.8037" y="215.9956">Apply global filter</text><rect fill="#F1F1F1" height="33.9688" rx="12.5" ry="12.5" style="stroke:#181818;stroke-width:0.5;" width="65.3281" x="26" y="259.7969"/><text fill="#000000" font-family="sans-serif" font-size="12" lengthAdjust="spacing" textLength="45.3281" x="36" y="280.9355">Discard</text><polygon fill="#F1F1F1" points="211.0649,259.7969,387.9082,259.7969,399.9082,271.7969,387.9082,283.7969,211.0649,283.7969,199.0649,271.7969,211.0649,259.7969" style="stroke:#181818;stroke-width:0.5;stroke-linejoin:miter;stroke-miterlimit:10;"/><text fill="#000000" font-family="sans-serif" font-size="11" lengthAdjust="spacing" textLength="176.8433" x="211.0649" y="275.605">Is less severe than logger level?</text><text fill="#000000" font-family="sans-serif" font-size="11" lengthAdjust="spacing" textLength="19.0083" x="180.0566" y="269.2026">yes</text><text fill="#000000" font-family="sans-serif" font-size="11" lengthAdjust="spacing" textLength="13.7017" x="399.9082" y="269.2026">no</text><rect fill="#F1F1F1" height="33.9688" rx="12.5" ry="12.5" style="stroke:#181818;stroke-width:0.5;" width="65.3281" x="156.4009" y="293.7969"/><text fill="#000000" font-family="sans-serif" font-size="12" lengthAdjust="spacing" textLength="45.3281" x="166.4009" y="314.9355">Discard</text><polygon fill="#F1F1F1" points="216.396,344.2847,216.396,344.2847,228.396,356.2847,216.396,368.2847,216.396,368.2847,204.396,356.2847,216.396,344.2847" style="stroke:#181818;stroke-width:0.5;stroke-linejoin:miter;stroke-miterlimit:10;"/><rect fill="#F1F1F1" height="33.9688" rx="12.5" ry="12.5" style="stroke:#181818;stroke-width:0.5;" width="119.9727" x="156.4097" y="400.2847"/><text fill="#000000" font-family="sans-serif" font-size="12" lengthAdjust="spacing" textLength="99.9727" x="166.4097" y="421.4233">Create LogEvent</text><ellipse cx="216.396" cy="465.2534" fill="none" rx="11" ry="11" style="stroke:#222222;stroke-width:1;"/><ellipse cx="216.396" cy="465.2534" fill="#222222" rx="6" ry="6" style="stroke:#222222;stroke-width:1;"/><line style="stroke:#181818;stroke-width:1;" x1="199.0649" x2="189.0649" y1="271.7969" y2="271.7969"/><line style="stroke:#181818;stroke-width:1;" x1="189.0649" x2="189.0649" y1="271.7969" y2="293.7969"/><polygon fill="#181818" points="185.0649,283.7969,189.0649,293.7969,193.0649,283.7969,189.0649,287.7969" style="stroke:#181818;stroke-width:1;stroke-linejoin:miter;stroke-miterlimit:10;"/><line style="stroke:#181818;stroke-width:1;" x1="399.9082" x2="409.9082" y1="271.7969" y2="271.7969"/><line style="stroke:#181818;stroke-width:1;" x1="409.9082" x2="409.9082" y1="271.7969" y2="356.2847"/><line style="stroke:#181818;stroke-width:1;" x1="409.9082" x2="228.396" y1="356.2847" y2="356.2847"/><polygon fill="#181818" points="238.396,352.2847,228.396,356.2847,238.396,360.2847,234.396,356.2847" style="stroke:#181818;stroke-width:1;stroke-linejoin:miter;stroke-miterlimit:10;"/><line style="stroke:#181818;stroke-width:1;" x1="155.8037" x2="58.6641" y1="212.1875" y2="212.1875"/><line style="stroke:#181818;stroke-width:1;" x1="58.6641" x2="58.6641" y1="212.1875" y2="259.7969"/><polygon fill="#181818" points="54.6641,249.7969,58.6641,259.7969,62.6641,249.7969,58.6641,253.7969" style="stroke:#181818;stroke-width:1;stroke-linejoin:miter;stroke-miterlimit:10;"/><text fill="#000000" font-family="sans-serif" font-size="11" lengthAdjust="spacing" textLength="30.3682" x="58.6641" y="239.8003">DENY</text><line style="stroke:#181818;stroke-width:1;" x1="276.9883" x2="299.4866" y1="212.1875" y2="212.1875"/><line style="stroke:#181818;stroke-width:1;" x1="299.4866" x2="299.4866" y1="212.1875" y2="259.7969"/><polygon fill="#181818" points="295.4866,249.7969,299.4866,259.7969,303.4866,249.7969,299.4866,253.7969" style="stroke:#181818;stroke-width:1;stroke-linejoin:miter;stroke-miterlimit:10;"/><text fill="#000000" font-family="sans-serif" font-size="11" lengthAdjust="spacing" textLength="51.2456" x="299.4866" y="239.8003">NEUTRAL</text><line style="stroke:#181818;stroke-width:1;" x1="101.3281" x2="101.3281" y1="212.1875" y2="356.2847"/><line style="stroke:#181818;stroke-width:1;" x1="101.3281" x2="204.396" y1="356.2847" y2="356.2847"/><polygon fill="#181818" points="194.396,352.2847,204.396,356.2847,194.396,360.2847,198.396,356.2847" style="stroke:#181818;stroke-width:1;stroke-linejoin:miter;stroke-miterlimit:10;"/><text fill="#000000" font-family="sans-serif" font-size="11" lengthAdjust="spacing" textLength="43.189" x="101.3281" y="332.7847">ACCEPT</text><line style="stroke:#181818;stroke-width:1;" x1="216.396" x2="216.396" y1="180.1875" y2="200.1875"/><polygon fill="#181818" points="212.396,190.1875,216.396,200.1875,220.396,190.1875,216.396,194.1875" style="stroke:#181818;stroke-width:1;stroke-linejoin:miter;stroke-miterlimit:10;"/><line style="stroke:#181818;stroke-width:1;" x1="216.396" x2="216.396" y1="99.9219" y2="146.2188"/><polygon fill="#181818" points="212.396,136.2188,216.396,146.2188,220.396,136.2188,216.396,140.2188" style="stroke:#181818;stroke-width:1;stroke-linejoin:miter;stroke-miterlimit:10;"/><line style="stroke:#181818;stroke-width:1;" x1="216.396" x2="216.396" y1="368.2847" y2="400.2847"/><polygon fill="#181818" points="212.396,390.2847,216.396,400.2847,220.396,390.2847,216.396,394.2847" style="stroke:#181818;stroke-width:1;stroke-linejoin:miter;stroke-miterlimit:10;"/><line style="stroke:#181818;stroke-width:1;" x1="216.396" x2="216.396" y1="434.2534" y2="454.2534"/><polygon fill="#181818" points="212.396,444.2534,216.396,454.2534,220.396,444.2534,216.396,448.2534" style="stroke:#181818;stroke-width:1;stroke-linejoin:miter;stroke-miterlimit:10;"/><?plantuml-src TP0_QyCm4CLtVOg33hN7hivGZEEX448fxj3n8fzbaOiaTAfBldsbAlspL8DuFDtlddYIC2PbedyFSF36K5IgwsyIBfHMF--KaW-Rz0fD7m9VmR0_8SDYEL5ibKOXQFRZyQrLaCzTiExSxQreZ1akram9zNgRx8TXV9w-kUFuEhtqXuhQ1Ped0IOH4Dee4gGL7N3z3sUB7zliaOFcIbAfVqB_11T9NEAS_sNkOLe964_4O2yX-eroR41jdVaPgi_uK7UusIugtxMGek2hFDKDaJ1HQMxSoAMTakJ39m00?></g></svg>