<svg xmlns="http://www.w3.org/2000/svg" xmlns:xlink="http://www.w3.org/1999/xlink" contentStyleType="text/css" data-diagram-type="MINDMAP" height="134px" preserveAspectRatio="none" style="width:627px;height:134px;background:#FFFFFF;" version="1.1" viewBox="0 0 627 134" width="627px" zoomAndPan="magnify"><defs/><g><rect fill="#F1F1F1" height="36.2969" rx="12.5" ry="12.5" style="stroke:#181818;stroke-width:1.5;" width="48.376" x="10" y="48.1484"/><text fill="#000000" font-family="sans-serif" font-size="14" lengthAdjust="spacing" textLength="28.376" x="20" y="71.1436">root</text><rect fill="#F1F1F1" height="36.2969" rx="12.5" ry="12.5" style="stroke:#181818;stroke-width:1.5;" width="29.5771" x="108.376" y="48.1484"/><text fill="#000000" font-family="sans-serif" font-size="14" lengthAdjust="spacing" textLength="9.5771" x="118.376" y="71.1436">A</text><rect fill="#F1F1F1" height="36.2969" rx="12.5" ry="12.5" style="stroke:#181818;stroke-width:1.5;" width="178.5186" x="187.9531" y="20"/><text fill="#000000" font-family="sans-serif" font-size="14" lengthAdjust="spacing" textLength="158.5186" x="197.9531" y="42.9951">A.B1 (additivity=false)</text><rect fill="#F1F1F1" height="36.2969" rx="12.5" ry="12.5" style="stroke:#181818;stroke-width:1.5;" width="66.7646" x="416.4717" y="20"/><text fill="#000000" font-family="sans-serif" font-size="14" lengthAdjust="spacing" textLength="46.7646" x="426.4717" y="42.9951">A.B1.C</text><rect fill="#F1F1F1" height="36.2969" rx="12.5" ry="12.5" style="stroke:#181818;stroke-width:1.5;" width="81.9951" x="533.2363" y="20"/><text fill="#000000" font-family="sans-serif" font-size="14" lengthAdjust="spacing" textLength="61.9951" x="543.2363" y="42.9951">A.B1.C.D</text><path d="M483.2363,38.1484 L493.2363,38.1484 C508.2363,38.1484 508.2363,38.1484 523.2363,38.1484 L533.2363,38.1484" fill="none" style="stroke:#181818;stroke-width:1;"/><path d="M366.4717,38.1484 L376.4717,38.1484 C391.4717,38.1484 391.4717,38.1484 406.4717,38.1484 L416.4717,38.1484" fill="none" style="stroke:#181818;stroke-width:1;"/><path d="M137.9531,66.2969 L147.9531,66.2969 C162.9531,66.2969 162.9531,38.1484 177.9531,38.1484 L187.9531,38.1484" fill="none" style="stroke:#181818;stroke-width:1;"/><rect fill="#F1F1F1" height="36.2969" rx="12.5" ry="12.5" style="stroke:#181818;stroke-width:1.5;" width="66.7646" x="187.9531" y="76.2969"/><text fill="#000000" font-family="sans-serif" font-size="14" lengthAdjust="spacing" textLength="46.7646" x="197.9531" y="99.292">A.B2.C</text><rect fill="#F1F1F1" height="36.2969" rx="12.5" ry="12.5" style="stroke:#181818;stroke-width:1.5;" width="207.9746" x="304.7178" y="76.2969"/><text fill="#000000" font-family="sans-serif" font-size="14" lengthAdjust="spacing" textLength="187.9746" x="314.7178" y="99.292">A.B2.C.D (additivity=false)</text><path d="M254.7178,94.4453 L264.7178,94.4453 C279.7178,94.4453 279.7178,94.4453 294.7178,94.4453 L304.7178,94.4453" fill="none" style="stroke:#181818;stroke-width:1;"/><path d="M137.9531,66.2969 L147.9531,66.2969 C162.9531,66.2969 162.9531,94.4453 177.9531,94.4453 L187.9531,94.4453" fill="none" style="stroke:#181818;stroke-width:1;"/><path d="M58.376,66.2969 L68.376,66.2969 C83.376,66.2969 83.376,66.2969 98.376,66.2969 L108.376,66.2969" fill="none" style="stroke:#181818;stroke-width:1;"/><!--SRC=[RKtHQeD047o_hzX75Nf4GveY5D9g6n25q2Q-R-953iwzSku9-VjU6dthop2pipEp6naT3vgw0Nz40ivQ5aa2Rm42olSK8kmwpNhIV7kzeXbLVFSUfYp- -29akSIosPcvBF-hsQamEq-BWq7YKrF3fDoeBK4girMsaLbqz0eg95Xj8Ttcwqs-VeRJiO2x7OjeVwXXjDvT57HwPAVFdaC-5XLE25-UM0ygXxr3D6sp7E239kqi3OfOL6sJmxS_XpIoWhOHfRgYDno-BhRJrETXyVFfHTH8lSS-z94tHXGsjBdRG_q2]--></g></svg>