<?xml version="1.0" encoding="us-ascii" standalone="no"?><svg xmlns="http://www.w3.org/2000/svg" xmlns:xlink="http://www.w3.org/1999/xlink" contentStyleType="text/css" height="905px" preserveAspectRatio="none" style="width:1157px;height:905px;background:#FFFFFF;" version="1.1" viewBox="0 0 1157 905" width="1157px" zoomAndPan="magnify"><defs/><g><rect fill="#DDDDDD" height="104.7969" id="_legend" rx="7.5" ry="7.5" style="stroke:#000000;stroke-width:1.0;" width="207" x="924" y="12"/><rect fill="#90EE90" height="16.2969" style="stroke:none;stroke-width:1.0;" width="23" x="929" y="19"/><text fill="#000000" font-family="sans-serif" font-size="14" lengthAdjust="spacing" textLength="4" x="929" y="31.9951">&#160;</text><text fill="#000000" font-family="sans-serif" font-size="14" lengthAdjust="spacing" textLength="166" x="956" y="31.9951">Logging implementation</text><rect fill="#FFFF00" height="16.2969" style="stroke:none;stroke-width:1.0;" width="23" x="929" y="35.2969"/><text fill="#000000" font-family="sans-serif" font-size="14" lengthAdjust="spacing" textLength="4" x="929" y="48.292">&#160;</text><text fill="#000000" font-family="sans-serif" font-size="14" lengthAdjust="spacing" textLength="103" x="956" y="48.292">Logging bridge</text><rect fill="#00FFFF" height="16.2969" style="stroke:none;stroke-width:1.0;" width="23" x="929" y="51.5938"/><text fill="#000000" font-family="sans-serif" font-size="14" lengthAdjust="spacing" textLength="4" x="929" y="64.5889">&#160;</text><text fill="#000000" font-family="sans-serif" font-size="14" lengthAdjust="spacing" textLength="80" x="956" y="64.5889">Logging API</text><text fill="#000000" font-family="sans-serif" font-size="14" lengthAdjust="spacing" textLength="4" x="929" y="85.542">&#160;</text><text fill="#000000" font-family="sans-serif" font-size="18" lengthAdjust="spacing" textLength="15" x="933" y="84.5986">&#8594;</text><text fill="#000000" font-family="sans-serif" font-size="14" lengthAdjust="spacing" textLength="4" x="948" y="85.542">&#160;</text><text fill="#000000" font-family="sans-serif" font-size="14" lengthAdjust="spacing" textLength="138" x="956" y="80.8857">Compile-time usage</text><text fill="#000000" font-family="sans-serif" font-size="14" lengthAdjust="spacing" textLength="4" x="929" y="106.4951">&#160;</text><text fill="#000000" font-family="sans-serif" font-size="18" lengthAdjust="spacing" textLength="15" x="933" y="105.5518">&#8674;</text><text fill="#000000" font-family="sans-serif" font-size="14" lengthAdjust="spacing" textLength="4" x="948" y="106.4951">&#160;</text><text fill="#000000" font-family="sans-serif" font-size="14" lengthAdjust="spacing" textLength="105" x="956" y="101.8389">Runtime usage</text><line style="stroke:#000000;stroke-width:1.0;" x1="929" x2="1126" y1="19" y2="19"/><line style="stroke:#000000;stroke-width:1.0;" x1="929" x2="1126" y1="35.2969" y2="35.2969"/><line style="stroke:#000000;stroke-width:1.0;" x1="929" x2="1126" y1="51.5938" y2="51.5938"/><line style="stroke:#000000;stroke-width:1.0;" x1="929" x2="1126" y1="67.8906" y2="67.8906"/><line style="stroke:#000000;stroke-width:1.0;" x1="929" x2="1126" y1="88.8438" y2="88.8438"/><line style="stroke:#000000;stroke-width:1.0;" x1="929" x2="1126" y1="109.7969" y2="109.7969"/><line style="stroke:#000000;stroke-width:1.0;" x1="929" x2="929" y1="19" y2="109.7969"/><line style="stroke:#000000;stroke-width:1.0;" x1="952" x2="952" y1="19" y2="109.7969"/><line style="stroke:#000000;stroke-width:1.0;" x1="1126" x2="1126" y1="19" y2="109.7969"/><!--cluster Compile time--><g id="cluster_Compile time"><rect fill="none" height="407.89" rx="2.5" ry="2.5" style="stroke:#181818;stroke-width:1.0;" width="530" x="7" y="136.7969"/><path d="M119,136.7969 L119,146.0938 L109,156.0938 L7,156.0938 " fill="none" style="stroke:#181818;stroke-width:1.0;"/><text fill="#000000" font-family="sans-serif" font-size="14" font-weight="bold" lengthAdjust="spacing" textLength="102" x="10" y="150.792">Compile time</text></g><!--cluster Runtime--><g id="cluster_Runtime"><rect fill="none" height="495.45" rx="2.5" ry="2.5" style="stroke:#181818;stroke-width:1.0;" width="481" x="561" y="404.3969"/><path d="M635,404.3969 L635,413.6937 L625,423.6937 L561,423.6937 " fill="none" style="stroke:#181818;stroke-width:1.0;"/><text fill="#000000" font-family="sans-serif" font-size="14" font-weight="bold" lengthAdjust="spacing" textLength="64" x="564" y="418.392">Runtime</text></g><!--cluster JRE--><g id="cluster_JRE"><rect fill="none" height="97.29" rx="2.5" ry="2.5" style="stroke:#181818;stroke-width:1.0;" width="185" x="614" y="447.3969"/><path d="M647,447.3969 L647,456.6937 L637,466.6937 L614,466.6937 " fill="none" style="stroke:#181818;stroke-width:1.0;"/><text fill="#000000" font-family="sans-serif" font-size="14" font-weight="bold" lengthAdjust="spacing" textLength="23" x="617" y="461.392">JRE</text></g><!--entity Application--><g id="elem_Application"><rect fill="#F1F1F1" height="46.2969" rx="2.5" ry="2.5" style="stroke:#181818;stroke-width:0.5;" width="115" x="211.5" y="171.7969"/><rect fill="#F1F1F1" height="10" style="stroke:#181818;stroke-width:0.5;" width="15" x="306.5" y="176.7969"/><rect fill="#F1F1F1" height="2" style="stroke:#181818;stroke-width:0.5;" width="4" x="304.5" y="178.7969"/><rect fill="#F1F1F1" height="2" style="stroke:#181818;stroke-width:0.5;" width="4" x="304.5" y="182.7969"/><text fill="#000000" font-family="sans-serif" font-size="14" lengthAdjust="spacing" textLength="75" x="226.5" y="204.792">Application</text></g><!--entity Log4j API--><g id="elem_Log4j API"><rect fill="#00FFFF" height="46.2969" rx="2.5" ry="2.5" style="stroke:#181818;stroke-width:0.5;" width="102" x="419" y="295.0969"/><rect fill="#00FFFF" height="10" style="stroke:#181818;stroke-width:0.5;" width="15" x="501" y="300.0969"/><rect fill="#00FFFF" height="2" style="stroke:#181818;stroke-width:0.5;" width="4" x="499" y="302.0969"/><rect fill="#00FFFF" height="2" style="stroke:#181818;stroke-width:0.5;" width="4" x="499" y="306.0969"/><text fill="#000000" font-family="sans-serif" font-size="14" lengthAdjust="spacing" textLength="62" x="434" y="328.092">Log4j API</text></g><!--entity SLF4J--><g id="elem_SLF4J"><rect fill="#00FFFF" height="46.2969" rx="2.5" ry="2.5" style="stroke:#181818;stroke-width:0.5;" width="76" x="297" y="482.3969"/><rect fill="#00FFFF" height="10" style="stroke:#181818;stroke-width:0.5;" width="15" x="353" y="487.3969"/><rect fill="#00FFFF" height="2" style="stroke:#181818;stroke-width:0.5;" width="4" x="351" y="489.3969"/><rect fill="#00FFFF" height="2" style="stroke:#181818;stroke-width:0.5;" width="4" x="351" y="493.3969"/><text fill="#000000" font-family="sans-serif" font-size="14" lengthAdjust="spacing" textLength="36" x="312" y="515.392">SLF4J</text></g><!--entity Library 1--><g id="elem_Library 1"><rect fill="#F1F1F1" height="46.2969" rx="2.5" ry="2.5" style="stroke:#181818;stroke-width:0.5;" width="97" x="22.5" y="295.0969"/><rect fill="#F1F1F1" height="10" style="stroke:#181818;stroke-width:0.5;" width="15" x="99.5" y="300.0969"/><rect fill="#F1F1F1" height="2" style="stroke:#181818;stroke-width:0.5;" width="4" x="97.5" y="302.0969"/><rect fill="#F1F1F1" height="2" style="stroke:#181818;stroke-width:0.5;" width="4" x="97.5" y="306.0969"/><text fill="#000000" font-family="sans-serif" font-size="14" lengthAdjust="spacing" textLength="57" x="37.5" y="328.092">Library 1</text></g><!--entity Library 2--><g id="elem_Library 2"><rect fill="#F1F1F1" height="46.2969" rx="2.5" ry="2.5" style="stroke:#181818;stroke-width:0.5;" width="97" x="154.5" y="295.0969"/><rect fill="#F1F1F1" height="10" style="stroke:#181818;stroke-width:0.5;" width="15" x="231.5" y="300.0969"/><rect fill="#F1F1F1" height="2" style="stroke:#181818;stroke-width:0.5;" width="4" x="229.5" y="302.0969"/><rect fill="#F1F1F1" height="2" style="stroke:#181818;stroke-width:0.5;" width="4" x="229.5" y="306.0969"/><text fill="#000000" font-family="sans-serif" font-size="14" lengthAdjust="spacing" textLength="57" x="169.5" y="328.092">Library 2</text></g><!--entity Library 3--><g id="elem_Library 3"><rect fill="#F1F1F1" height="46.2969" rx="2.5" ry="2.5" style="stroke:#181818;stroke-width:0.5;" width="97" x="286.5" y="295.0969"/><rect fill="#F1F1F1" height="10" style="stroke:#181818;stroke-width:0.5;" width="15" x="363.5" y="300.0969"/><rect fill="#F1F1F1" height="2" style="stroke:#181818;stroke-width:0.5;" width="4" x="361.5" y="302.0969"/><rect fill="#F1F1F1" height="2" style="stroke:#181818;stroke-width:0.5;" width="4" x="361.5" y="306.0969"/><text fill="#000000" font-family="sans-serif" font-size="14" lengthAdjust="spacing" textLength="57" x="301.5" y="328.092">Library 3</text></g><!--entity Log4j Core--><g id="elem_Log4j Core"><rect fill="#90EE90" height="46.2969" rx="2.5" ry="2.5" style="stroke:#181818;stroke-width:0.5;" width="114" x="824" y="730.9869"/><rect fill="#90EE90" height="10" style="stroke:#181818;stroke-width:0.5;" width="15" x="918" y="735.9869"/><rect fill="#90EE90" height="2" style="stroke:#181818;stroke-width:0.5;" width="4" x="916" y="737.9869"/><rect fill="#90EE90" height="2" style="stroke:#181818;stroke-width:0.5;" width="4" x="916" y="741.9869"/><text fill="#000000" font-family="sans-serif" font-size="14" lengthAdjust="spacing" textLength="74" x="839" y="763.982">Log4j Core</text></g><g id="elem_log4j2.xml"><ellipse cx="880.9997" cy="869.0688" fill="#F1F1F1" rx="61.5597" ry="14.782" style="stroke:#181818;stroke-width:0.5;"/><text fill="#000000" font-family="sans-serif" font-size="14" lengthAdjust="spacing" textLength="69" x="843.4997" y="872.8164">log4j2.xml</text></g><!--entity JPL-to-Log4j--><g id="elem_JPL-to-Log4j"><rect fill="#FFFF00" height="46.2969" rx="2.5" ry="2.5" style="stroke:#181818;stroke-width:0.5;" width="120" x="906" y="607.6869"/><rect fill="#FFFF00" height="10" style="stroke:#181818;stroke-width:0.5;" width="15" x="1006" y="612.6869"/><rect fill="#FFFF00" height="2" style="stroke:#181818;stroke-width:0.5;" width="4" x="1004" y="614.6869"/><rect fill="#FFFF00" height="2" style="stroke:#181818;stroke-width:0.5;" width="4" x="1004" y="618.6869"/><text fill="#000000" font-family="sans-serif" font-size="14" lengthAdjust="spacing" textLength="80" x="921" y="640.682">JPL-to-Log4j</text></g><!--entity SLF4J-to-Log4j--><g id="elem_SLF4J-to-Log4j"><rect fill="#FFFF00" height="46.2969" rx="2.5" ry="2.5" style="stroke:#181818;stroke-width:0.5;" width="137" x="577.5" y="607.6869"/><rect fill="#FFFF00" height="10" style="stroke:#181818;stroke-width:0.5;" width="15" x="694.5" y="612.6869"/><rect fill="#FFFF00" height="2" style="stroke:#181818;stroke-width:0.5;" width="4" x="692.5" y="614.6869"/><rect fill="#FFFF00" height="2" style="stroke:#181818;stroke-width:0.5;" width="4" x="692.5" y="618.6869"/><text fill="#000000" font-family="sans-serif" font-size="14" lengthAdjust="spacing" textLength="97" x="592.5" y="640.682">SLF4J-to-Log4j</text></g><!--entity JUL-to-Log4j--><g id="elem_JUL-to-Log4j"><rect fill="#FFFF00" height="46.2969" rx="2.5" ry="2.5" style="stroke:#181818;stroke-width:0.5;" width="121" x="749.5" y="607.6869"/><rect fill="#FFFF00" height="10" style="stroke:#181818;stroke-width:0.5;" width="15" x="850.5" y="612.6869"/><rect fill="#FFFF00" height="2" style="stroke:#181818;stroke-width:0.5;" width="4" x="848.5" y="614.6869"/><rect fill="#FFFF00" height="2" style="stroke:#181818;stroke-width:0.5;" width="4" x="848.5" y="618.6869"/><text fill="#000000" font-family="sans-serif" font-size="14" lengthAdjust="spacing" textLength="81" x="764.5" y="640.682">JUL-to-Log4j</text></g><!--entity JPL--><g id="elem_JPL"><rect fill="#00FFFF" height="46.2969" rx="2.5" ry="2.5" style="stroke:#181818;stroke-width:0.5;" width="59" x="724.5" y="482.3969"/><rect fill="#00FFFF" height="10" style="stroke:#181818;stroke-width:0.5;" width="15" x="763.5" y="487.3969"/><rect fill="#00FFFF" height="2" style="stroke:#181818;stroke-width:0.5;" width="4" x="761.5" y="489.3969"/><rect fill="#00FFFF" height="2" style="stroke:#181818;stroke-width:0.5;" width="4" x="761.5" y="493.3969"/><text fill="#000000" font-family="sans-serif" font-size="14" lengthAdjust="spacing" textLength="19" x="739.5" y="515.392">JPL</text></g><!--entity JUL--><g id="elem_JUL"><rect fill="#00FFFF" height="46.2969" rx="2.5" ry="2.5" style="stroke:#181818;stroke-width:0.5;" width="60" x="630" y="482.3969"/><rect fill="#00FFFF" height="10" style="stroke:#181818;stroke-width:0.5;" width="15" x="670" y="487.3969"/><rect fill="#00FFFF" height="2" style="stroke:#181818;stroke-width:0.5;" width="4" x="668" y="489.3969"/><rect fill="#00FFFF" height="2" style="stroke:#181818;stroke-width:0.5;" width="4" x="668" y="493.3969"/><text fill="#000000" font-family="sans-serif" font-size="14" lengthAdjust="spacing" textLength="20" x="645" y="515.392">JUL</text></g><!--link Application to Log4j API--><g id="link_Application_Log4j API"><path d="M306.34,218.4769 C342.32,240.1969 391.3534,269.7761 427.3834,291.5261 " fill="none" id="Application-to-Log4j API" style="stroke:#181818;stroke-width:1.0;"/><polygon fill="#181818" points="432.52,294.6269,426.8822,286.5512,428.2395,292.0429,422.7478,293.4001,432.52,294.6269" style="stroke:#181818;stroke-width:1.0;"/><text fill="#000000" font-family="sans-serif" font-size="13" lengthAdjust="spacing" textLength="43" x="382" y="261.1638">logs to</text></g><!--link Library 1 to SLF4J--><g id="link_Library 1_SLF4J"><path d="M103.11,341.7769 C153.95,377.4669 247.4984,443.1307 298.2084,478.7107 " fill="none" id="Library 1-to-SLF4J" style="stroke:#181818;stroke-width:1.0;"/><polygon fill="#181818" points="303.12,482.1569,298.05,473.7132,299.027,479.2851,293.4551,480.262,303.12,482.1569" style="stroke:#181818;stroke-width:1.0;"/><text fill="#000000" font-family="sans-serif" font-size="13" lengthAdjust="spacing" textLength="43" x="165" y="384.4638">logs to</text></g><!--link Application to Library 1--><g id="link_Application_Library 1"><path d="M232.22,218.4769 C196.77,240.1969 148.5361,269.7423 113.0361,291.4923 " fill="none" id="Application-to-Library 1" style="stroke:#181818;stroke-width:1.0;"/><polygon fill="#181818" points="107.92,294.6269,117.6839,293.3358,112.1834,292.0148,113.5045,286.5143,107.92,294.6269" style="stroke:#181818;stroke-width:1.0;"/><text fill="#000000" font-family="sans-serif" font-size="13" lengthAdjust="spacing" textLength="30" x="183" y="261.1638">uses</text></g><!--link Application to Library 2--><g id="link_Application_Library 2"><path d="M256.74,218.4769 C244.89,240.2669 229.8987,267.8171 218.0587,289.5671 " fill="none" id="Application-to-Library 2" style="stroke:#181818;stroke-width:1.0;"/><polygon fill="#181818" points="215.19,294.8369,223.0062,288.8447,217.5806,290.4454,215.9799,285.0197,215.19,294.8369" style="stroke:#181818;stroke-width:1.0;"/><text fill="#000000" font-family="sans-serif" font-size="13" lengthAdjust="spacing" textLength="30" x="240" y="261.1638">uses</text></g><!--link Application to Library 3--><g id="link_Application_Library 3"><path d="M281.26,218.4769 C293.11,240.2669 308.1013,267.8171 319.9413,289.5671 " fill="none" id="Application-to-Library 3" style="stroke:#181818;stroke-width:1.0;"/><polygon fill="#181818" points="322.81,294.8369,322.0201,285.0197,320.4194,290.4454,314.9938,288.8447,322.81,294.8369" style="stroke:#181818;stroke-width:1.0;"/><text fill="#000000" font-family="sans-serif" font-size="13" lengthAdjust="spacing" textLength="30" x="306" y="261.1638">uses</text></g><!--reverse link Log4j Core to Log4j API--><g id="link_Log4j Core_Log4j API"><path d="M944.0249,735.2412 C967.4549,726.9312 988.22,717.0669 1009,700.9869 C1044.02,673.8769 1060.27,648.8769 1044,607.6869 C982.02,450.8069 907.27,423.9869 747,371.3969 C670.4,346.2569 577.67,331.8769 521.29,324.8169 " fill="none" id="Log4j Core-backto-Log4j API" style="stroke:#181818;stroke-width:1.0;stroke-dasharray:7.0,7.0;"/><polygon fill="#181818" points="938.37,737.2469,948.1894,738.0083,943.0824,735.5755,945.5152,730.4685,938.37,737.2469" style="stroke:#181818;stroke-width:1.0;"/><text fill="#000000" font-family="sans-serif" font-size="13" lengthAdjust="spacing" textLength="118" x="1031" y="573.7538">is implemented by</text></g><!--reverse link Log4j Core to log4j2.xml--><g id="link_Log4j Core_log4j2.xml"><path d="M881,783.7169 C881,806.5069 881,834.9669 881,854.0769 " fill="none" id="Log4j Core-backto-log4j2.xml" style="stroke:#181818;stroke-width:1.0;stroke-dasharray:7.0,7.0;"/><polygon fill="#181818" points="881,777.7169,877,786.7169,881,782.7169,885,786.7169,881,777.7169" style="stroke:#181818;stroke-width:1.0;"/><text fill="#000000" font-family="sans-serif" font-size="13" lengthAdjust="spacing" textLength="86" x="882" y="820.3538">is provided to</text></g><!--link JPL-to-Log4j to Log4j Core--><g id="link_JPL-to-Log4j_Log4j Core"><path d="M950.21,654.3669 C934.94,676.1569 915.383,704.0631 900.143,725.8131 " fill="none" id="JPL-to-Log4j-to-Log4j Core" style="stroke:#181818;stroke-width:1.0;stroke-dasharray:7.0,7.0;"/><polygon fill="#181818" points="896.7,730.7269,905.1404,725.6515,899.5692,726.632,898.5887,721.0608,896.7,730.7269" style="stroke:#181818;stroke-width:1.0;"/><text fill="#000000" font-family="sans-serif" font-size="13" lengthAdjust="spacing" textLength="71" x="929" y="697.0538">forwards to</text></g><!--link SLF4J-to-Log4j to Log4j Core--><g id="link_SLF4J-to-Log4j_Log4j Core"><path d="M670.25,654.4469 C687.12,669.2469 710.68,688.1469 734,700.9869 C762.11,716.4669 789.9648,726.9917 817.9348,735.7617 " fill="none" id="SLF4J-to-Log4j-to-Log4j Core" style="stroke:#181818;stroke-width:1.0;stroke-dasharray:7.0,7.0;"/><polygon fill="#181818" points="823.66,737.5569,816.269,731.0474,818.889,736.0609,813.8755,738.681,823.66,737.5569" style="stroke:#181818;stroke-width:1.0;"/><text fill="#000000" font-family="sans-serif" font-size="13" lengthAdjust="spacing" textLength="71" x="735" y="697.0538">forwards to</text></g><!--link JUL-to-Log4j to Log4j Core--><g id="link_JUL-to-Log4j_Log4j Core"><path d="M810.15,654.2669 C811.12,668.4569 814.04,686.7369 822,700.9869 C828.33,712.3269 833.5011,718.5613 843.2711,726.7913 " fill="none" id="JUL-to-Log4j-to-Log4j Core" style="stroke:#181818;stroke-width:1.0;stroke-dasharray:7.0,7.0;"/><polygon fill="#181818" points="847.86,730.6569,843.5537,721.7993,844.036,727.4356,838.3997,727.9178,847.86,730.6569" style="stroke:#181818;stroke-width:1.0;"/><text fill="#000000" font-family="sans-serif" font-size="13" lengthAdjust="spacing" textLength="71" x="823" y="697.0538">forwards to</text></g><!--link Library 2 to JUL--><g id="link_Library 2_JUL"><path d="M251.81,336.3569 C257.58,338.1669 263.4,339.8869 269,341.3969 C386.41,373.0169 428.14,342.2169 537,396.3969 C579.51,417.5469 614.9075,452.6481 637.1575,477.6081 " fill="none" id="Library 2-to-JUL" style="stroke:#181818;stroke-width:1.0;"/><polygon fill="#181818" points="641.15,482.0869,638.1471,472.707,637.8229,478.3545,632.1753,478.0303,641.15,482.0869" style="stroke:#181818;stroke-width:1.0;"/><text fill="#000000" font-family="sans-serif" font-size="13" lengthAdjust="spacing" textLength="43" x="519" y="384.4638">logs to</text></g><!--link Library 3 to JPL--><g id="link_Library 3_JPL"><path d="M383.78,336.4969 C389.55,338.2769 395.38,339.9569 401,341.3969 C534.86,375.6869 598.64,310.6569 707,396.3969 C733.81,417.6069 744.4628,451.2835 749.4528,476.2235 " fill="none" id="Library 3-to-JPL" style="stroke:#181818;stroke-width:1.0;"/><polygon fill="#181818" points="750.63,482.1069,752.7865,472.497,749.649,477.204,744.942,474.0666,750.63,482.1069" style="stroke:#181818;stroke-width:1.0;"/><text fill="#000000" font-family="sans-serif" font-size="13" lengthAdjust="spacing" textLength="43" x="695" y="384.4638">logs to</text></g><!--link JPL to JPL-to-Log4j--><g id="link_JPL_JPL-to-Log4j"><path d="M783.92,523.9469 C821.48,545.7869 880.7637,580.2598 922.0537,604.2798 " fill="none" id="JPL-to-JPL-to-Log4j" style="stroke:#181818;stroke-width:1.0;stroke-dasharray:7.0,7.0;"/><polygon fill="#181818" points="927.24,607.2969,921.472,599.3138,922.9181,604.7827,917.4492,606.2288,927.24,607.2969" style="stroke:#181818;stroke-width:1.0;"/><text fill="#000000" font-family="sans-serif" font-size="13" lengthAdjust="spacing" textLength="118" x="873" y="573.7538">is implemented by</text></g><!--link JUL to JUL-to-Log4j--><g id="link_JUL_JUL-to-Log4j"><path d="M663.35,528.9169 C666.71,544.3369 673.3,564.3669 686,577.6869 C695.51,587.6669 716.9803,597.4148 743.4203,607.3048 " fill="none" id="JUL-to-JUL-to-Log4j" style="stroke:#181818;stroke-width:1.0;stroke-dasharray:7.0,7.0;"/><polygon fill="#181818" points="749.04,609.4069,742.0118,602.5073,744.3569,607.6551,739.209,610.0002,749.04,609.4069" style="stroke:#181818;stroke-width:1.0;"/><text fill="#000000" font-family="sans-serif" font-size="13" lengthAdjust="spacing" textLength="118" x="687" y="573.7538">is implemented by</text></g><!--link SLF4J to SLF4J-to-Log4j--><g id="link_SLF4J_SLF4J-to-Log4j"><path d="M373.45,521.7869 C427.48,543.2069 520.7022,580.1659 583.3422,604.9959 " fill="none" id="SLF4J-to-SLF4J-to-Log4j" style="stroke:#181818;stroke-width:1.0;stroke-dasharray:7.0,7.0;"/><polygon fill="#181818" points="588.92,607.2069,582.0273,600.1719,584.2719,605.3644,579.0794,607.6089,588.92,607.2069" style="stroke:#181818;stroke-width:1.0;"/><text fill="#000000" font-family="sans-serif" font-size="13" lengthAdjust="spacing" textLength="118" x="510" y="573.7538">is implemented by</text></g><!--SRC=[bPHDJuD048Rl_8f9Uz4OCCKUb12Ifgb6mg6fuT0q7AXiSSt2aeLQg_M_knzGbWO_cd3PcUSTzfqPsB0uGp2Oqgp01465CpI0JmDWDIaAWf_Z2jCy0jFqO1NGTFmAa_bZ10uGcfPGKKEWMc8utSUv33u5zsDV3mHupMAsXr5ThWRQKlqlRLKER4jK_exP_yDkZjYNOMna3nRRNBZdvbjBKyfG1AvbdPZ79U2i82X3UOKIME_x91T416phFIENIbCm-eOJBb1cTS4mmEbBzS0GKitovu5PKLCY4LYMryKTs52sYrdIDAxB3vU84Bfhvt1MhLE5NiqFpxnN-CEzLDFznKnkctBGR8iwXzgPJua_-fJbE2NJBf0-NfMVT_A62iXRTnlMDr9LNS7Xdt2zpH8_RM2Vm20eHRbOXGAOc3rtUG1NsmEFdtc15ETfAvRB38SQLktKmJN3IOgEW6YVdkRxs-HA_86SqQtdXbVswCxst6iH4N3zCp3bvx0juxPUHpFJDStNq-3ScZBu3G00]--></g></svg>