<?xml version="1.0" encoding="us-ascii" standalone="no"?><svg xmlns="http://www.w3.org/2000/svg" xmlns:xlink="http://www.w3.org/1999/xlink" contentStyleType="text/css" height="417px" preserveAspectRatio="none" style="width:442px;height:417px;background:#FFFFFF;" version="1.1" viewBox="0 0 442 417" width="442px" zoomAndPan="magnify"><defs/><g><ellipse cx="215.75" cy="20" fill="#222222" rx="10" ry="10" style="stroke:#222222;stroke-width:1.0;"/><rect fill="none" height="270.3628" style="stroke:#000000;stroke-width:1.5;" width="420.5" x="11" y="40"/><path d="M69,40 L69,49.2969 L59,59.2969 L11,59.2969 " fill="none" style="stroke:#000000;stroke-width:1.5;"/><text fill="#000000" font-family="sans-serif" font-size="14" lengthAdjust="spacing" textLength="48" x="14" y="53.9951">Logger</text><rect fill="#F1F1F1" height="33.9688" rx="12.5" ry="12.5" style="stroke:#181818;stroke-width:0.5;" width="127" x="152.25" y="76.2969"/><text fill="#000000" font-family="sans-serif" font-size="12" lengthAdjust="spacing" textLength="107" x="162.25" y="97.4355">A Logger method</text><polygon fill="#F1F1F1" points="166.75,130.2656,264.75,130.2656,276.75,142.2656,264.75,154.2656,166.75,154.2656,154.75,142.2656,166.75,130.2656" style="stroke:#181818;stroke-width:0.5;"/><text fill="#000000" font-family="sans-serif" font-size="11" lengthAdjust="spacing" textLength="98" x="166.75" y="146.0737">Apply global filter</text><rect fill="#FFC0CB" height="33.9688" rx="12.5" ry="12.5" style="stroke:#181818;stroke-width:0.5;" width="67" x="21" y="189.875"/><text fill="#000000" font-family="sans-serif" font-size="12" lengthAdjust="spacing" textLength="47" x="31" y="211.0137">Discard</text><polygon fill="#F1F1F1" points="207.5,189.875,393.5,189.875,405.5,201.875,393.5,213.875,207.5,213.875,195.5,201.875,207.5,189.875" style="stroke:#181818;stroke-width:0.5;"/><text fill="#000000" font-family="sans-serif" font-size="11" lengthAdjust="spacing" textLength="186" x="207.5" y="205.6831">Is less severe than logger level?</text><text fill="#000000" font-family="sans-serif" font-size="11" lengthAdjust="spacing" textLength="20" x="175.5" y="199.2808">yes</text><text fill="#000000" font-family="sans-serif" font-size="11" lengthAdjust="spacing" textLength="14" x="405.5" y="199.2808">no</text><rect fill="#FFC0CB" height="33.9688" rx="12.5" ry="12.5" style="stroke:#181818;stroke-width:0.5;" width="67" x="152" y="223.875"/><text fill="#000000" font-family="sans-serif" font-size="12" lengthAdjust="spacing" textLength="47" x="162" y="245.0137">Discard</text><polygon fill="#F1F1F1" points="215.75,274.3628,215.75,274.3628,227.75,286.3628,215.75,298.3628,215.75,298.3628,203.75,286.3628,215.75,274.3628" style="stroke:#181818;stroke-width:0.5;"/><rect fill="#F1F1F1" height="33.9688" rx="12.5" ry="12.5" style="stroke:#181818;stroke-width:0.5;" width="123" x="154.25" y="330.3628"/><text fill="#000000" font-family="sans-serif" font-size="12" lengthAdjust="spacing" textLength="103" x="164.25" y="351.5015">Create LogEvent</text><ellipse cx="215.75" cy="395.3315" fill="none" rx="11" ry="11" style="stroke:#222222;stroke-width:1.0;"/><ellipse cx="215.75" cy="395.3315" fill="#222222" rx="6" ry="6" style="stroke:#222222;stroke-width:1.0;"/><line style="stroke:#181818;stroke-width:1.0;" x1="195.5" x2="185.5" y1="201.875" y2="201.875"/><line style="stroke:#181818;stroke-width:1.0;" x1="185.5" x2="185.5" y1="201.875" y2="223.875"/><polygon fill="#181818" points="181.5,213.875,185.5,223.875,189.5,213.875,185.5,217.875" style="stroke:#181818;stroke-width:1.0;"/><line style="stroke:#181818;stroke-width:1.0;" x1="405.5" x2="415.5" y1="201.875" y2="201.875"/><line style="stroke:#181818;stroke-width:1.0;" x1="415.5" x2="415.5" y1="201.875" y2="286.3628"/><line style="stroke:#181818;stroke-width:1.0;" x1="415.5" x2="227.75" y1="286.3628" y2="286.3628"/><polygon fill="#181818" points="237.75,282.3628,227.75,286.3628,237.75,290.3628,233.75,286.3628" style="stroke:#181818;stroke-width:1.0;"/><line style="stroke:#181818;stroke-width:1.0;" x1="154.75" x2="54.5" y1="142.2656" y2="142.2656"/><line style="stroke:#181818;stroke-width:1.0;" x1="54.5" x2="54.5" y1="142.2656" y2="189.875"/><polygon fill="#181818" points="50.5,179.875,54.5,189.875,58.5,179.875,54.5,183.875" style="stroke:#181818;stroke-width:1.0;"/><text fill="#000000" font-family="sans-serif" font-size="11" lengthAdjust="spacing" textLength="30" x="54.5" y="169.8784">DENY</text><line style="stroke:#181818;stroke-width:1.0;" x1="276.75" x2="300.5" y1="142.2656" y2="142.2656"/><line style="stroke:#181818;stroke-width:1.0;" x1="300.5" x2="300.5" y1="142.2656" y2="189.875"/><polygon fill="#181818" points="296.5,179.875,300.5,189.875,304.5,179.875,300.5,183.875" style="stroke:#181818;stroke-width:1.0;"/><text fill="#000000" font-family="sans-serif" font-size="11" lengthAdjust="spacing" textLength="50" x="300.5" y="169.8784">NEUTRAL</text><line style="stroke:#181818;stroke-width:1.0;" x1="98" x2="98" y1="142.2656" y2="286.3628"/><line style="stroke:#181818;stroke-width:1.0;" x1="98" x2="203.75" y1="286.3628" y2="286.3628"/><polygon fill="#181818" points="193.75,282.3628,203.75,286.3628,193.75,290.3628,197.75,286.3628" style="stroke:#181818;stroke-width:1.0;"/><text fill="#000000" font-family="sans-serif" font-size="11" lengthAdjust="spacing" textLength="44" x="98" y="262.8628">ACCEPT</text><line style="stroke:#181818;stroke-width:1.0;" x1="215.75" x2="215.75" y1="110.2656" y2="130.2656"/><polygon fill="#181818" points="211.75,120.2656,215.75,130.2656,219.75,120.2656,215.75,124.2656" style="stroke:#181818;stroke-width:1.0;"/><line style="stroke:#181818;stroke-width:1.0;" x1="215.75" x2="215.75" y1="30" y2="76.2969"/><polygon fill="#181818" points="211.75,66.2969,215.75,76.2969,219.75,66.2969,215.75,70.2969" style="stroke:#181818;stroke-width:1.0;"/><line style="stroke:#181818;stroke-width:1.0;" x1="215.75" x2="215.75" y1="298.3628" y2="330.3628"/><polygon fill="#181818" points="211.75,320.3628,215.75,330.3628,219.75,320.3628,215.75,324.3628" style="stroke:#181818;stroke-width:1.0;"/><line style="stroke:#181818;stroke-width:1.0;" x1="215.75" x2="215.75" y1="364.3315" y2="384.3315"/><polygon fill="#181818" points="211.75,374.3315,215.75,384.3315,219.75,374.3315,215.75,378.3315" style="stroke:#181818;stroke-width:1.0;"/><!--SRC=[TP0_QyCm4CLtVOg33hN7hivGZEEX448fxj3n8fzbaOiaTAfBldsbAlspL8DuFDtlddYIC2PbedyFSF36K5IgwsyIBfHMF- -KaW-Rz0fD7m9VmR0_8SDYEL5ibKOXQFRZyQrLaCzTiExSxQreZ1akram9zNgRx8TXV9w-kUFuEhtqXuhQ1Ped0IOH4Dee4gGL7N3z3sUB7zliaOFcIbAfVqB_11T9NEAS_sNkOLe964_4O2yX-eroR41jdVaPgi_uK7UusIugtxMGek2hFDKDaJ1HQMxSoAMTakJ39m00]--></g></svg>