<svg xmlns="http://www.w3.org/2000/svg" xmlns:xlink="http://www.w3.org/1999/xlink" contentStyleType="text/css" data-diagram-type="CLASS" height="234px" preserveAspectRatio="none" style="width:798px;height:234px;background:#FFFFFF;" version="1.1" viewBox="0 0 798 234" width="798px" zoomAndPan="magnify"><?plantuml 1.2026.6?><defs/><g><!--class initial--><g class="entity" data-qualified-name="initial" data-source-line="1" id="ent0001"><rect fill="#F1F1F1" height="64.2969" rx="2.5" ry="2.5" style="stroke:#181818;stroke-width:0.5;" width="118.208" x="7" y="31.5"/><ellipse cx="22" cy="47.5" fill="#ADD1B2" rx="11" ry="11" style="stroke:#181818;stroke-width:1;"/><path d="M24.9688,53.1406 Q24.3906,53.4375 23.75,53.5781 Q23.1094,53.7344 22.4063,53.7344 Q19.9063,53.7344 18.5781,52.0938 Q17.2656,50.4375 17.2656,47.3125 Q17.2656,44.1875 18.5781,42.5313 Q19.9063,40.875 22.4063,40.875 Q23.1094,40.875 23.75,41.0313 Q24.4063,41.1875 24.9688,41.4844 L24.9688,44.2031 Q24.3438,43.625 23.75,43.3594 Q23.1563,43.0781 22.5313,43.0781 Q21.1875,43.0781 20.5,44.1563 Q19.8125,45.2188 19.8125,47.3125 Q19.8125,49.4063 20.5,50.4844 Q21.1875,51.5469 22.5313,51.5469 Q23.1563,51.5469 23.75,51.2813 Q24.3438,51 24.9688,50.4219 L24.9688,53.1406 Z " fill="#000000"/><text fill="#000000" font-family="sans-serif" font-size="14" lengthAdjust="spacing" textLength="86.208" x="36" y="52.3467">Initial status</text><line style="stroke:#181818;stroke-width:0.5;" x1="8" x2="124.208" y1="63.5" y2="63.5"/><text fill="#008000" font-family="sans-serif" font-size="14" lengthAdjust="spacing" textLength="52.1445" x="13" y="80.4951">app.log</text><line style="stroke:#181818;stroke-width:0.5;" x1="8" x2="124.208" y1="87.7969" y2="87.7969"/></g><!--class first--><g class="entity" data-qualified-name="first" data-source-line="4" id="ent0002"><rect fill="#F1F1F1" height="80.5938" rx="2.5" ry="2.5" style="stroke:#181818;stroke-width:0.5;" width="111.4609" x="176.5" y="23.5"/><ellipse cx="191.5" cy="39.5" fill="#ADD1B2" rx="11" ry="11" style="stroke:#181818;stroke-width:1;"/><path d="M194.4688,45.1406 Q193.8906,45.4375 193.25,45.5781 Q192.6094,45.7344 191.9063,45.7344 Q189.4063,45.7344 188.0781,44.0938 Q186.7656,42.4375 186.7656,39.3125 Q186.7656,36.1875 188.0781,34.5313 Q189.4063,32.875 191.9063,32.875 Q192.6094,32.875 193.25,33.0313 Q193.9063,33.1875 194.4688,33.4844 L194.4688,36.2031 Q193.8438,35.625 193.25,35.3594 Q192.6563,35.0781 192.0313,35.0781 Q190.6875,35.0781 190,36.1563 Q189.3125,37.2188 189.3125,39.3125 Q189.3125,41.4063 190,42.4844 Q190.6875,43.5469 192.0313,43.5469 Q192.6563,43.5469 193.25,43.2813 Q193.8438,43 194.4688,42.4219 L194.4688,45.1406 Z " fill="#000000"/><text fill="#000000" font-family="sans-serif" font-size="14" lengthAdjust="spacing" textLength="79.4609" x="205.5" y="44.3467">1st rollover</text><line style="stroke:#181818;stroke-width:0.5;" x1="177.5" x2="286.9609" y1="55.5" y2="55.5"/><text fill="#008000" font-family="sans-serif" font-size="14" lengthAdjust="spacing" textLength="52.1445" x="182.5" y="72.4951">app.log</text><text fill="#000000" font-family="sans-serif" font-size="14" lengthAdjust="spacing" textLength="65.502" x="182.5" y="88.792">app.1.log</text><line style="stroke:#181818;stroke-width:0.5;" x1="177.5" x2="286.9609" y1="96.0938" y2="96.0938"/></g><!--class second--><g class="entity" data-qualified-name="second" data-source-line="8" id="ent0003"><rect fill="#F1F1F1" height="96.8906" rx="2.5" ry="2.5" style="stroke:#181818;stroke-width:0.5;" width="116.4375" x="339" y="15.5"/><ellipse cx="354" cy="31.5" fill="#ADD1B2" rx="11" ry="11" style="stroke:#181818;stroke-width:1;"/><path d="M356.9688,37.1406 Q356.3906,37.4375 355.75,37.5781 Q355.1094,37.7344 354.4063,37.7344 Q351.9063,37.7344 350.5781,36.0938 Q349.2656,34.4375 349.2656,31.3125 Q349.2656,28.1875 350.5781,26.5313 Q351.9063,24.875 354.4063,24.875 Q355.1094,24.875 355.75,25.0313 Q356.4063,25.1875 356.9688,25.4844 L356.9688,28.2031 Q356.3438,27.625 355.75,27.3594 Q355.1563,27.0781 354.5313,27.0781 Q353.1875,27.0781 352.5,28.1563 Q351.8125,29.2188 351.8125,31.3125 Q351.8125,33.4063 352.5,34.4844 Q353.1875,35.5469 354.5313,35.5469 Q355.1563,35.5469 355.75,35.2813 Q356.3438,35 356.9688,34.4219 L356.9688,37.1406 Z " fill="#000000"/><text fill="#000000" font-family="sans-serif" font-size="14" lengthAdjust="spacing" textLength="84.4375" x="368" y="36.3467">2nd rollover</text><line style="stroke:#181818;stroke-width:0.5;" x1="340" x2="454.4375" y1="47.5" y2="47.5"/><text fill="#008000" font-family="sans-serif" font-size="14" lengthAdjust="spacing" textLength="52.1445" x="345" y="64.4951">app.log</text><text fill="#000000" font-family="sans-serif" font-size="14" lengthAdjust="spacing" textLength="65.502" x="345" y="80.792">app.1.log</text><text fill="#000000" font-family="sans-serif" font-size="14" lengthAdjust="spacing" textLength="65.502" x="345" y="97.0889">app.2.log</text><line style="stroke:#181818;stroke-width:0.5;" x1="340" x2="454.4375" y1="104.3906" y2="104.3906"/></g><!--class third--><g class="entity" data-qualified-name="third" data-source-line="13" id="ent0004"><rect fill="#F1F1F1" height="113.1875" rx="2.5" ry="2.5" style="stroke:#181818;stroke-width:0.5;" width="113.3203" x="506.5" y="7"/><ellipse cx="521.5" cy="23" fill="#ADD1B2" rx="11" ry="11" style="stroke:#181818;stroke-width:1;"/><path d="M524.4688,28.6406 Q523.8906,28.9375 523.25,29.0781 Q522.6094,29.2344 521.9063,29.2344 Q519.4063,29.2344 518.0781,27.5938 Q516.7656,25.9375 516.7656,22.8125 Q516.7656,19.6875 518.0781,18.0313 Q519.4063,16.375 521.9063,16.375 Q522.6094,16.375 523.25,16.5313 Q523.9063,16.6875 524.4688,16.9844 L524.4688,19.7031 Q523.8438,19.125 523.25,18.8594 Q522.6563,18.5781 522.0313,18.5781 Q520.6875,18.5781 520,19.6563 Q519.3125,20.7188 519.3125,22.8125 Q519.3125,24.9063 520,25.9844 Q520.6875,27.0469 522.0313,27.0469 Q522.6563,27.0469 523.25,26.7813 Q523.8438,26.5 524.4688,25.9219 L524.4688,28.6406 Z " fill="#000000"/><text fill="#000000" font-family="sans-serif" font-size="14" lengthAdjust="spacing" textLength="81.3203" x="535.5" y="27.8467">3rd rollover</text><line style="stroke:#181818;stroke-width:0.5;" x1="507.5" x2="618.8203" y1="39" y2="39"/><text fill="#008000" font-family="sans-serif" font-size="14" lengthAdjust="spacing" textLength="52.1445" x="512.5" y="55.9951">app.log</text><text fill="#000000" font-family="sans-serif" font-size="14" lengthAdjust="spacing" textLength="65.502" x="512.5" y="72.292">app.1.log</text><text fill="#000000" font-family="sans-serif" font-size="14" lengthAdjust="spacing" textLength="65.502" x="512.5" y="88.5889">app.2.log</text><text fill="#000000" font-family="sans-serif" font-size="14" lengthAdjust="spacing" textLength="65.502" x="512.5" y="104.8857">app.3.log</text><line style="stroke:#181818;stroke-width:0.5;" x1="507.5" x2="618.8203" y1="112.1875" y2="112.1875"/></g><!--class fourth--><g class="entity" data-qualified-name="fourth" data-source-line="19" id="ent0005"><rect fill="#F1F1F1" height="113.1875" rx="2.5" ry="2.5" style="stroke:#181818;stroke-width:0.5;" width="113.04" x="670.5" y="7"/><ellipse cx="685.5" cy="23" fill="#ADD1B2" rx="11" ry="11" style="stroke:#181818;stroke-width:1;"/><path d="M688.4688,28.6406 Q687.8906,28.9375 687.25,29.0781 Q686.6094,29.2344 685.9063,29.2344 Q683.4063,29.2344 682.0781,27.5938 Q680.7656,25.9375 680.7656,22.8125 Q680.7656,19.6875 682.0781,18.0313 Q683.4063,16.375 685.9063,16.375 Q686.6094,16.375 687.25,16.5313 Q687.9063,16.6875 688.4688,16.9844 L688.4688,19.7031 Q687.8438,19.125 687.25,18.8594 Q686.6563,18.5781 686.0313,18.5781 Q684.6875,18.5781 684,19.6563 Q683.3125,20.7188 683.3125,22.8125 Q683.3125,24.9063 684,25.9844 Q684.6875,27.0469 686.0313,27.0469 Q686.6563,27.0469 687.25,26.7813 Q687.8438,26.5 688.4688,25.9219 L688.4688,28.6406 Z " fill="#000000"/><text fill="#000000" font-family="sans-serif" font-size="14" lengthAdjust="spacing" textLength="81.04" x="699.5" y="27.8467">4th rollover</text><line style="stroke:#181818;stroke-width:0.5;" x1="671.5" x2="782.54" y1="39" y2="39"/><text fill="#008000" font-family="sans-serif" font-size="14" lengthAdjust="spacing" textLength="52.1445" x="676.5" y="55.9951">app.log</text><text fill="#000000" font-family="sans-serif" font-size="14" lengthAdjust="spacing" textLength="65.502" x="676.5" y="72.292">app.1.log</text><text fill="#000000" font-family="sans-serif" font-size="14" lengthAdjust="spacing" textLength="65.502" x="676.5" y="88.5889">app.2.log</text><text fill="#000000" font-family="sans-serif" font-size="14" lengthAdjust="spacing" textLength="65.502" x="676.5" y="104.8857">app.3.log</text><line style="stroke:#181818;stroke-width:0.5;" x1="671.5" x2="782.54" y1="112.1875" y2="112.1875"/></g><g class="entity" data-qualified-name="delete" data-source-line="26" id="ent0006"><rect fill="#F1F1F1" height="36.2969" rx="2.5" ry="2.5" style="stroke:#181818;stroke-width:0.5;" width="85.7705" x="520.11" y="184"/><text fill="#000000" font-family="sans-serif" font-size="14" lengthAdjust="spacing" textLength="71.7705" x="527.11" y="198.9951">Delete file</text><line style="stroke:#181818;stroke-width:0.5;" x1="521.11" x2="604.8805" y1="204.2969" y2="204.2969"/></g><!--link initial to first--><g class="link" data-entity-1="ent0001" data-entity-2="ent0002" data-link-type="dependency" data-source-line="28" id="lnk7"><path codeLine="28" d="M126,75.5 C148.29,75.5 148.21,83.5 170.5,83.5" fill="none" id="initial-to-first" style="stroke:#181818;stroke-width:1;"/><polygon fill="#181818" points="175.5,83.5,166.5,79.5,170.5,83.5,166.5,87.5,175.5,83.5" style="stroke:#181818;stroke-width:1;stroke-linejoin:miter;stroke-miterlimit:10;"/></g><!--link first to second--><g class="link" data-entity-1="ent0002" data-entity-2="ent0003" data-link-type="dependency" data-source-line="30" id="lnk8"><path codeLine="30" d="M288.5,67.5 C312.95,67.5 308.55,91.5 333,91.5" fill="none" id="first-to-second" style="stroke:#181818;stroke-width:1;"/><polygon fill="#181818" points="338,91.5,329,87.5,333,91.5,329,95.5,338,91.5" style="stroke:#181818;stroke-width:1;stroke-linejoin:miter;stroke-miterlimit:10;"/></g><!--link first to second--><g class="link" data-entity-1="ent0002" data-entity-2="ent0003" data-link-type="dependency" data-source-line="31" id="lnk9"><path codeLine="31" d="M288.5,83.5 C310.79,83.5 310.71,75.5 333,75.5" fill="none" id="first-to-second-1" style="stroke:#181818;stroke-width:1;"/><polygon fill="#181818" points="338,75.5,329,71.5,333,75.5,329,79.5,338,75.5" style="stroke:#181818;stroke-width:1;stroke-linejoin:miter;stroke-miterlimit:10;"/></g><!--link second to third--><g class="link" data-entity-1="ent0003" data-entity-2="ent0004" data-link-type="dependency" data-source-line="33" id="lnk10"><path codeLine="33" d="M456,59.5 C484.15,59.5 472.35,99 500.5,99" fill="none" id="second-to-third" style="stroke:#181818;stroke-width:1;"/><polygon fill="#181818" points="505.5,99,496.5,95,500.5,99,496.5,103,505.5,99" style="stroke:#181818;stroke-width:1;stroke-linejoin:miter;stroke-miterlimit:10;"/></g><!--link second to third--><g class="link" data-entity-1="ent0003" data-entity-2="ent0004" data-link-type="dependency" data-source-line="34" id="lnk11"><path codeLine="34" d="M456,75.5 C478.32,75.5 478.18,67 500.5,67" fill="none" id="second-to-third-1" style="stroke:#181818;stroke-width:1;"/><polygon fill="#181818" points="505.5,67,496.5,63,500.5,67,496.5,71,505.5,67" style="stroke:#181818;stroke-width:1;stroke-linejoin:miter;stroke-miterlimit:10;"/></g><!--link second to third--><g class="link" data-entity-1="ent0003" data-entity-2="ent0004" data-link-type="dependency" data-source-line="35" id="lnk12"><path codeLine="35" d="M456,91.5 C478.32,91.5 478.18,83 500.5,83" fill="none" id="second-to-third-2" style="stroke:#181818;stroke-width:1;"/><polygon fill="#181818" points="505.5,83,496.5,79,500.5,83,496.5,87,505.5,83" style="stroke:#181818;stroke-width:1;stroke-linejoin:miter;stroke-miterlimit:10;"/></g><!--link third to fourth--><g class="link" data-entity-1="ent0004" data-entity-2="ent0005" data-link-type="dependency" data-source-line="37" id="lnk13"><path codeLine="37" d="M620.5,51 C650.99,51 634.01,99 664.5,99" fill="none" id="third-to-fourth" style="stroke:#181818;stroke-width:1;"/><polygon fill="#181818" points="669.5,99,660.5,95,664.5,99,660.5,103,669.5,99" style="stroke:#181818;stroke-width:1;stroke-linejoin:miter;stroke-miterlimit:10;"/></g><!--link third to fourth--><g class="link" data-entity-1="ent0004" data-entity-2="ent0005" data-link-type="dependency" data-source-line="39" id="lnk15"><path codeLine="39" d="M620.5,83 C643.41,83 641.59,67 664.5,67" fill="none" id="third-to-fourth-1" style="stroke:#181818;stroke-width:1;"/><polygon fill="#181818" points="669.5,67,660.5,63,664.5,67,660.5,71,669.5,67" style="stroke:#181818;stroke-width:1;stroke-linejoin:miter;stroke-miterlimit:10;"/></g><!--link third to fourth--><g class="link" data-entity-1="ent0004" data-entity-2="ent0005" data-link-type="dependency" data-source-line="40" id="lnk16"><path codeLine="40" d="M620.5,99 C643.41,99 641.59,83 664.5,83" fill="none" id="third-to-fourth-2" style="stroke:#181818;stroke-width:1;"/><polygon fill="#181818" points="669.5,83,660.5,79,664.5,83,660.5,87,669.5,83" style="stroke:#181818;stroke-width:1;stroke-linejoin:miter;stroke-miterlimit:10;"/></g><!--link third to delete--><g class="link" data-entity-1="ent0004" data-entity-2="ent0006" data-link-type="dependency" data-source-line="38" id="lnk14"><path codeLine="38" d="M620.5,67 C670.67,67 612.0595,143.4245 581.4595,179.7845" fill="none" id="third-to-delete" style="stroke:#FF0000;stroke-width:1;"/><polygon fill="#FF0000" points="578.24,183.61,587.0956,179.2996,581.4595,179.7845,580.9747,174.1484,578.24,183.61" style="stroke:#FF0000;stroke-width:1;stroke-linejoin:miter;stroke-miterlimit:10;"/></g><?plantuml-src hP6nRi8m48PtFyKfdIbAqYb2cLXuXeh1E5TmPSNeRBgWlZl6vwh9WOHGkpcV_llE-MsS3W6gpMYZrGv2rF4KAj01R45d1R0otddgzeGuzlfuV7L-lrfcsAjlPLXIXmZadVDVI5dnOIcXXmA0Awclx5VMZCDS5j3un9woyRcPcriIvdYmz0SndzlvahTu45tu4oNsJrkKttsYYL2jqM74rBJ3l6R8tqgLr-kwueT5py_1XFrgGag6MsR4Y-MKJ1NL59LKxfK9t_jcJAJgcrHp9yNNKXFoyt-vukb2wOR5-mlXi4tXKfJqIayjFUszL1wz0000?></g></svg>