<?xml version="1.0" encoding="us-ascii" standalone="no"?><svg xmlns="http://www.w3.org/2000/svg" xmlns:xlink="http://www.w3.org/1999/xlink" contentStyleType="text/css" height="1022px" preserveAspectRatio="none" style="width:1327px;height:1022px;background:#FFFFFF;" version="1.1" viewBox="0 0 1327 1022" width="1327px" zoomAndPan="magnify"><defs/><g><!--cluster c--><g id="cluster_c"><path d="M8.5,150.89 L116.5,150.89 A3.75,3.75 0 0 1 119,153.39 L126,173.1869 L806.5,173.1869 A2.5,2.5 0 0 1 809,175.6869 L809,1012.94 A2.5,2.5 0 0 1 806.5,1015.44 L8.5,1015.44 A2.5,2.5 0 0 1 6,1012.94 L6,153.39 A2.5,2.5 0 0 1 8.5,150.89 " fill="none" style="stroke:#000000;stroke-width:1.5;"/><line style="stroke:#000000;stroke-width:1.5;" x1="6" x2="126" y1="173.1869" y2="173.1869"/><text fill="#000000" font-family="sans-serif" font-size="14" font-weight="bold" lengthAdjust="spacing" textLength="107" x="10" y="165.8851">Configuration</text></g><!--class Configuration--><g id="elem_Configuration"><rect codeLine="15" fill="#F1F1F1" height="129.4844" id="Configuration" rx="2.5" ry="2.5" style="stroke:#181818;stroke-width:0.5;" width="316" x="464" y="185.89"/><ellipse cx="571.75" cy="201.89" fill="#ADD1B2" rx="11" ry="11" style="stroke:#181818;stroke-width:1.0;"/><path d="M574.7188,207.5306 Q574.1406,207.8275 573.5,207.9681 Q572.8594,208.1244 572.1563,208.1244 Q569.6563,208.1244 568.3281,206.4838 Q567.0156,204.8275 567.0156,201.7025 Q567.0156,198.5775 568.3281,196.9213 Q569.6563,195.265 572.1563,195.265 Q572.8594,195.265 573.5,195.4213 Q574.1563,195.5775 574.7188,195.8744 L574.7188,198.5931 Q574.0938,198.015 573.5,197.7494 Q572.9063,197.4681 572.2813,197.4681 Q570.9375,197.4681 570.25,198.5463 Q569.5625,199.6088 569.5625,201.7025 Q569.5625,203.7963 570.25,204.8744 Q570.9375,205.9369 572.2813,205.9369 Q572.9063,205.9369 573.5,205.6713 Q574.0938,205.39 574.7188,204.8119 L574.7188,207.5306 Z " fill="#000000"/><text fill="#000000" font-family="sans-serif" font-size="14" lengthAdjust="spacing" textLength="92" x="592.25" y="206.7367">Configuration</text><line style="stroke:#181818;stroke-width:0.5;" x1="465" x2="779" y1="217.89" y2="217.89"/><text fill="#000000" font-family="sans-serif" font-size="14" lengthAdjust="spacing" textLength="157" x="470" y="234.8851">Appender[] appenders</text><text fill="#000000" font-family="sans-serif" font-size="14" lengthAdjust="spacing" textLength="66" x="470" y="251.182">Filter filter</text><text fill="#000000" font-family="sans-serif" font-size="14" lengthAdjust="spacing" textLength="202" x="470" y="267.4789">LoggerConfig[] loggerConfigs</text><text fill="#000000" font-family="sans-serif" font-size="14" lengthAdjust="spacing" textLength="174" x="470" y="283.7757">StrSubstitutor substitutor</text><line style="stroke:#181818;stroke-width:0.5;" x1="465" x2="779" y1="291.0775" y2="291.0775"/><text fill="#000000" font-family="sans-serif" font-size="14" lengthAdjust="spacing" textLength="304" x="470" y="308.0726">LoggerConfig getLoggerConfig(String name)</text></g><g id="elem_GMN10"><path d="M177,222.94 L177,278.3384 A0,0 0 0 0 177,278.3384 L429,278.3384 A0,0 0 0 0 429,278.3384 L429,254.64 L463.7,250.64 L429,246.64 L429,232.94 L419,222.94 L177,222.94 A0,0 0 0 0 177,222.94 " fill="#FEFFDD" style="stroke:#181818;stroke-width:0.5;"/><path d="M419,222.94 L419,232.94 L429,232.94 L419,222.94 " fill="#FEFFDD" style="stroke:#181818;stroke-width:0.5;"/><text fill="#000000" font-family="sans-serif" font-size="13" lengthAdjust="spacing" textLength="231" x="183" y="240.0069">Encapsulates components compiled</text><text fill="#000000" font-family="sans-serif" font-size="13" lengthAdjust="spacing" textLength="221" x="183" y="255.1397">from a user-provided configuration</text><text fill="#000000" font-family="sans-serif" font-size="13" lengthAdjust="spacing" textLength="143" x="183" y="270.2725">file (e.g., `log4j2.xml`)</text></g><!--class Filter--><g id="elem_Filter"><rect codeLine="52" fill="#F1F1F1" height="64.2969" id="Filter" rx="2.5" ry="2.5" style="stroke:#181818;stroke-width:0.5;" width="163" x="205.5" y="916.89"/><ellipse cx="266.25" cy="932.89" fill="#ADD1B2" rx="11" ry="11" style="stroke:#181818;stroke-width:1.0;"/><path d="M269.2188,938.5306 Q268.6406,938.8275 268,938.9681 Q267.3594,939.1244 266.6563,939.1244 Q264.1563,939.1244 262.8281,937.4838 Q261.5156,935.8275 261.5156,932.7025 Q261.5156,929.5775 262.8281,927.9213 Q264.1563,926.265 266.6563,926.265 Q267.3594,926.265 268,926.4213 Q268.6563,926.5775 269.2188,926.8744 L269.2188,929.5931 Q268.5938,929.015 268,928.7494 Q267.4063,928.4681 266.7813,928.4681 Q265.4375,928.4681 264.75,929.5463 Q264.0625,930.6088 264.0625,932.7025 Q264.0625,934.7963 264.75,935.8744 Q265.4375,936.9369 266.7813,936.9369 Q267.4063,936.9369 268,936.6713 Q268.5938,936.39 269.2188,935.8119 L269.2188,938.5306 Z " fill="#000000"/><text fill="#000000" font-family="sans-serif" font-size="14" lengthAdjust="spacing" textLength="33" x="286.75" y="937.7367">Filter</text><line style="stroke:#181818;stroke-width:0.5;" x1="206.5" x2="367.5" y1="948.89" y2="948.89"/><line style="stroke:#181818;stroke-width:0.5;" x1="206.5" x2="367.5" y1="956.89" y2="956.89"/><text fill="#000000" font-family="sans-serif" font-size="14" lengthAdjust="spacing" textLength="151" x="211.5" y="973.8851">Result filter(LogEvent)</text></g><!--class Appender--><g id="elem_Appender"><rect codeLine="37" fill="#F1F1F1" height="113.1875" id="Appender" rx="2.5" ry="2.5" style="stroke:#181818;stroke-width:0.5;" width="194" x="599" y="724.46"/><ellipse cx="657.75" cy="740.46" fill="#ADD1B2" rx="11" ry="11" style="stroke:#181818;stroke-width:1.0;"/><path d="M660.7188,746.1006 Q660.1406,746.3975 659.5,746.5381 Q658.8594,746.6944 658.1563,746.6944 Q655.6563,746.6944 654.3281,745.0538 Q653.0156,743.3975 653.0156,740.2725 Q653.0156,737.1475 654.3281,735.4913 Q655.6563,733.835 658.1563,733.835 Q658.8594,733.835 659.5,733.9913 Q660.1563,734.1475 660.7188,734.4444 L660.7188,737.1631 Q660.0938,736.585 659.5,736.3194 Q658.9063,736.0381 658.2813,736.0381 Q656.9375,736.0381 656.25,737.1163 Q655.5625,738.1788 655.5625,740.2725 Q655.5625,742.3663 656.25,743.4444 Q656.9375,744.5069 658.2813,744.5069 Q658.9063,744.5069 659.5,744.2413 Q660.0938,743.96 660.7188,743.3819 L660.7188,746.1006 Z " fill="#000000"/><text fill="#000000" font-family="sans-serif" font-size="14" lengthAdjust="spacing" textLength="68" x="678.25" y="745.3067">Appender</text><line style="stroke:#181818;stroke-width:0.5;" x1="600" x2="792" y1="756.46" y2="756.46"/><text fill="#000000" font-family="sans-serif" font-size="14" lengthAdjust="spacing" textLength="182" x="605" y="773.4551">AbstractManager manager</text><text fill="#000000" font-family="sans-serif" font-size="14" lengthAdjust="spacing" textLength="90" x="605" y="789.752">Layout layout</text><text fill="#000000" font-family="sans-serif" font-size="14" lengthAdjust="spacing" textLength="66" x="605" y="806.0489">Filter filter</text><line style="stroke:#181818;stroke-width:0.5;" x1="600" x2="792" y1="813.3506" y2="813.3506"/><text fill="#000000" font-family="sans-serif" font-size="14" lengthAdjust="spacing" textLength="159" x="605" y="830.3457">void append(LogEvent)</text></g><!--class LoggerConfig--><g id="elem_LoggerConfig"><rect codeLine="65" fill="#F1F1F1" height="113.1875" id="LoggerConfig" rx="2.5" ry="2.5" style="stroke:#181818;stroke-width:0.5;" width="269" x="487.5" y="392.38"/><ellipse cx="571.75" cy="408.38" fill="#ADD1B2" rx="11" ry="11" style="stroke:#181818;stroke-width:1.0;"/><path d="M574.7188,414.0206 Q574.1406,414.3175 573.5,414.4581 Q572.8594,414.6144 572.1563,414.6144 Q569.6563,414.6144 568.3281,412.9738 Q567.0156,411.3175 567.0156,408.1925 Q567.0156,405.0675 568.3281,403.4113 Q569.6563,401.755 572.1563,401.755 Q572.8594,401.755 573.5,401.9113 Q574.1563,402.0675 574.7188,402.3644 L574.7188,405.0831 Q574.0938,404.505 573.5,404.2394 Q572.9063,403.9581 572.2813,403.9581 Q570.9375,403.9581 570.25,405.0363 Q569.5625,406.0988 569.5625,408.1925 Q569.5625,410.2863 570.25,411.3644 Q570.9375,412.4269 572.2813,412.4269 Q572.9063,412.4269 573.5,412.1613 Q574.0938,411.88 574.7188,411.3019 L574.7188,414.0206 Z " fill="#000000"/><text fill="#000000" font-family="sans-serif" font-size="14" lengthAdjust="spacing" textLength="92" x="592.25" y="413.2267">LoggerConfig</text><line style="stroke:#181818;stroke-width:0.5;" x1="488.5" x2="755.5" y1="424.38" y2="424.38"/><text fill="#000000" font-family="sans-serif" font-size="14" lengthAdjust="spacing" textLength="257" x="493.5" y="441.3751">AppenderControl[] appenderControls</text><text fill="#000000" font-family="sans-serif" font-size="14" lengthAdjust="spacing" textLength="70" x="493.5" y="457.672">Level level</text><text fill="#000000" font-family="sans-serif" font-size="14" lengthAdjust="spacing" textLength="66" x="493.5" y="473.9689">Filter filter</text><line style="stroke:#181818;stroke-width:0.5;" x1="488.5" x2="755.5" y1="481.2706" y2="481.2706"/><text fill="#000000" font-family="sans-serif" font-size="14" lengthAdjust="spacing" textLength="127" x="493.5" y="498.2657">void log(LogEvent)</text></g><!--class StrSubstitutor--><g id="elem_StrSubstitutor"><rect codeLine="91" fill="#F1F1F1" height="80.5938" id="StrSubstitutor" rx="2.5" ry="2.5" style="stroke:#181818;stroke-width:0.5;" width="196" x="22" y="408.67"/><ellipse cx="68.25" cy="424.67" fill="#ADD1B2" rx="11" ry="11" style="stroke:#181818;stroke-width:1.0;"/><path d="M71.2188,430.3106 Q70.6406,430.6075 70,430.7481 Q69.3594,430.9044 68.6563,430.9044 Q66.1563,430.9044 64.8281,429.2638 Q63.5156,427.6075 63.5156,424.4825 Q63.5156,421.3575 64.8281,419.7013 Q66.1563,418.045 68.6563,418.045 Q69.3594,418.045 70,418.2013 Q70.6563,418.3575 71.2188,418.6544 L71.2188,421.3731 Q70.5938,420.795 70,420.5294 Q69.4063,420.2481 68.7813,420.2481 Q67.4375,420.2481 66.75,421.3263 Q66.0625,422.3888 66.0625,424.4825 Q66.0625,426.5763 66.75,427.6544 Q67.4375,428.7169 68.7813,428.7169 Q69.4063,428.7169 70,428.4513 Q70.5938,428.17 71.2188,427.5919 L71.2188,430.3106 Z " fill="#000000"/><text fill="#000000" font-family="sans-serif" font-size="14" lengthAdjust="spacing" textLength="95" x="88.75" y="429.5167">StrSubstitutor</text><line style="stroke:#181818;stroke-width:0.5;" x1="23" x2="217" y1="440.67" y2="440.67"/><text fill="#000000" font-family="sans-serif" font-size="14" lengthAdjust="spacing" textLength="162" x="28" y="457.6651">Interpolator interpolator</text><line style="stroke:#181818;stroke-width:0.5;" x1="23" x2="217" y1="464.9669" y2="464.9669"/><text fill="#000000" font-family="sans-serif" font-size="14" lengthAdjust="spacing" textLength="184" x="28" y="481.962">String replace(String input)</text></g><!--class Layout--><g id="elem_Layout"><rect codeLine="48" fill="#F1F1F1" height="64.2969" id="Layout" rx="2.5" ry="2.5" style="stroke:#181818;stroke-width:0.5;" width="183" x="609.5" y="916.89"/><ellipse cx="674.25" cy="932.89" fill="#ADD1B2" rx="11" ry="11" style="stroke:#181818;stroke-width:1.0;"/><path d="M677.2188,938.5306 Q676.6406,938.8275 676,938.9681 Q675.3594,939.1244 674.6563,939.1244 Q672.1563,939.1244 670.8281,937.4838 Q669.5156,935.8275 669.5156,932.7025 Q669.5156,929.5775 670.8281,927.9213 Q672.1563,926.265 674.6563,926.265 Q675.3594,926.265 676,926.4213 Q676.6563,926.5775 677.2188,926.8744 L677.2188,929.5931 Q676.5938,929.015 676,928.7494 Q675.4063,928.4681 674.7813,928.4681 Q673.4375,928.4681 672.75,929.5463 Q672.0625,930.6088 672.0625,932.7025 Q672.0625,934.7963 672.75,935.8744 Q673.4375,936.9369 674.7813,936.9369 Q675.4063,936.9369 676,936.6713 Q676.5938,936.39 677.2188,935.8119 L677.2188,938.5306 Z " fill="#000000"/><text fill="#000000" font-family="sans-serif" font-size="14" lengthAdjust="spacing" textLength="45" x="694.75" y="937.7367">Layout</text><line style="stroke:#181818;stroke-width:0.5;" x1="610.5" x2="791.5" y1="948.89" y2="948.89"/><line style="stroke:#181818;stroke-width:0.5;" x1="610.5" x2="791.5" y1="956.89" y2="956.89"/><text fill="#000000" font-family="sans-serif" font-size="14" lengthAdjust="spacing" textLength="171" x="615.5" y="973.8851">byte[] encode(LogEvent)</text></g><g id="elem_GMN24"><path d="M404,898.64 L404,945.04 L368.67,949.04 L404,953.04 L404,999.4369 A0,0 0 0 0 404,999.4369 L574,999.4369 A0,0 0 0 0 574,999.4369 L574,908.64 L564,898.64 L404,898.64 A0,0 0 0 0 404,898.64 " fill="#FEFFDD" style="stroke:#181818;stroke-width:0.5;"/><path d="M564,898.64 L564,908.64 L574,908.64 L564,898.64 " fill="#FEFFDD" style="stroke:#181818;stroke-width:0.5;"/><text fill="#000000" font-family="sans-serif" font-size="13" lengthAdjust="spacing" textLength="149" x="410" y="915.7069">Note that a `Filter` can</text><text fill="#000000" font-family="sans-serif" font-size="13" lengthAdjust="spacing" textLength="148" x="410" y="930.8397">be provided at 4 levels:</text><text fill="#000000" font-family="sans-serif" font-size="13" lengthAdjust="spacing" textLength="115" x="410" y="945.9725">1. `Configuration`</text><text fill="#000000" font-family="sans-serif" font-size="13" lengthAdjust="spacing" textLength="114" x="410" y="961.1053">2. `LoggerConfig`</text><text fill="#000000" font-family="sans-serif" font-size="13" lengthAdjust="spacing" textLength="138" x="410" y="976.2381">3. `AppenderControl`</text><text fill="#000000" font-family="sans-serif" font-size="13" lengthAdjust="spacing" textLength="92" x="410" y="991.371">4. `Appender`</text></g><!--class AppenderControl--><g id="elem_AppenderControl"><rect codeLine="76" fill="#F1F1F1" height="96.8906" id="AppenderControl" rx="2.5" ry="2.5" style="stroke:#181818;stroke-width:0.5;" width="171" x="363.5" y="566.56"/><ellipse cx="387.95" cy="582.56" fill="#ADD1B2" rx="11" ry="11" style="stroke:#181818;stroke-width:1.0;"/><path d="M390.9188,588.2006 Q390.3406,588.4975 389.7,588.6381 Q389.0594,588.7944 388.3563,588.7944 Q385.8563,588.7944 384.5281,587.1538 Q383.2156,585.4975 383.2156,582.3725 Q383.2156,579.2475 384.5281,577.5913 Q385.8563,575.935 388.3563,575.935 Q389.0594,575.935 389.7,576.0913 Q390.3563,576.2475 390.9188,576.5444 L390.9188,579.2631 Q390.2938,578.685 389.7,578.4194 Q389.1063,578.1381 388.4813,578.1381 Q387.1375,578.1381 386.45,579.2163 Q385.7625,580.2788 385.7625,582.3725 Q385.7625,584.4663 386.45,585.5444 Q387.1375,586.6069 388.4813,586.6069 Q389.1063,586.6069 389.7,586.3413 Q390.2938,586.06 390.9188,585.4819 L390.9188,588.2006 Z " fill="#000000"/><text fill="#000000" font-family="sans-serif" font-size="14" lengthAdjust="spacing" textLength="118" x="404.05" y="587.4067">AppenderControl</text><line style="stroke:#181818;stroke-width:0.5;" x1="364.5" x2="533.5" y1="598.56" y2="598.56"/><text fill="#000000" font-family="sans-serif" font-size="14" lengthAdjust="spacing" textLength="139" x="369.5" y="615.5551">Appender appender</text><text fill="#000000" font-family="sans-serif" font-size="14" lengthAdjust="spacing" textLength="66" x="369.5" y="631.852">Filter filter</text><line style="stroke:#181818;stroke-width:0.5;" x1="364.5" x2="533.5" y1="639.1538" y2="639.1538"/><text fill="#000000" font-family="sans-serif" font-size="14" lengthAdjust="spacing" textLength="159" x="369.5" y="656.1489">void append(LogEvent)</text></g><g id="elem_GMN30"><path d="M569.5,594.88 L569.5,611.01 L534.68,615.01 L569.5,619.01 L569.5,635.1456 A0,0 0 0 0 569.5,635.1456 L756.5,635.1456 A0,0 0 0 0 756.5,635.1456 L756.5,604.88 L746.5,594.88 L569.5,594.88 A0,0 0 0 0 569.5,594.88 " fill="#FEFFDD" style="stroke:#181818;stroke-width:0.5;"/><path d="M746.5,594.88 L746.5,604.88 L756.5,604.88 L746.5,594.88 " fill="#FEFFDD" style="stroke:#181818;stroke-width:0.5;"/><text fill="#000000" font-family="sans-serif" font-size="13" lengthAdjust="spacing" textLength="166" x="575.5" y="611.9469">Decorates an `Appender`</text><text fill="#000000" font-family="sans-serif" font-size="13" lengthAdjust="spacing" textLength="86" x="575.5" y="627.0797">with a `Filter`</text></g><g id="elem_GMN35"><path d="M252.5,421.27 L252.5,444.97 L218.22,448.97 L252.5,452.97 L252.5,476.6684 A0,0 0 0 0 252.5,476.6684 L415.5,476.6684 A0,0 0 0 0 415.5,476.6684 L415.5,431.27 L405.5,421.27 L252.5,421.27 A0,0 0 0 0 252.5,421.27 " fill="#FEFFDD" style="stroke:#181818;stroke-width:0.5;"/><path d="M405.5,421.27 L405.5,431.27 L415.5,431.27 L405.5,421.27 " fill="#FEFFDD" style="stroke:#181818;stroke-width:0.5;"/><text fill="#000000" font-family="sans-serif" font-size="13" lengthAdjust="spacing" textLength="97" x="258.5" y="438.3369">Responsible for</text><text fill="#000000" font-family="sans-serif" font-size="13" lengthAdjust="spacing" textLength="133" x="258.5" y="453.4697">property substitution</text><text fill="#000000" font-family="sans-serif" font-size="13" lengthAdjust="spacing" textLength="142" x="258.5" y="468.6025">(e.g., `${env:USER}`)</text></g><!--class Interpolator--><g id="elem_Interpolator"><rect codeLine="104" fill="#F1F1F1" height="80.5938" id="Interpolator" rx="2.5" ry="2.5" style="stroke:#181818;stroke-width:0.5;" width="192" x="24" y="574.71"/><ellipse cx="76.25" cy="590.71" fill="#ADD1B2" rx="11" ry="11" style="stroke:#181818;stroke-width:1.0;"/><path d="M79.2188,596.3506 Q78.6406,596.6475 78,596.7881 Q77.3594,596.9444 76.6563,596.9444 Q74.1563,596.9444 72.8281,595.3038 Q71.5156,593.6475 71.5156,590.5225 Q71.5156,587.3975 72.8281,585.7413 Q74.1563,584.085 76.6563,584.085 Q77.3594,584.085 78,584.2413 Q78.6563,584.3975 79.2188,584.6944 L79.2188,587.4131 Q78.5938,586.835 78,586.5694 Q77.4063,586.2881 76.7813,586.2881 Q75.4375,586.2881 74.75,587.3663 Q74.0625,588.4288 74.0625,590.5225 Q74.0625,592.6163 74.75,593.6944 Q75.4375,594.7569 76.7813,594.7569 Q77.4063,594.7569 78,594.4913 Q78.5938,594.21 79.2188,593.6319 L79.2188,596.3506 Z " fill="#000000"/><text fill="#000000" font-family="sans-serif" font-size="14" lengthAdjust="spacing" textLength="79" x="96.75" y="595.5567">Interpolator</text><line style="stroke:#181818;stroke-width:0.5;" x1="25" x2="215" y1="606.71" y2="606.71"/><text fill="#000000" font-family="sans-serif" font-size="14" lengthAdjust="spacing" textLength="139" x="30" y="623.7051">StrLookup[] lookups</text><line style="stroke:#181818;stroke-width:0.5;" x1="25" x2="215" y1="631.0069" y2="631.0069"/><text fill="#000000" font-family="sans-serif" font-size="14" lengthAdjust="spacing" textLength="180" x="30" y="648.002">String lookup(String input)</text></g><!--class StrLookup--><g id="elem_StrLookup"><rect codeLine="111" fill="#F1F1F1" height="64.2969" id="StrLookup" rx="2.5" ry="2.5" style="stroke:#181818;stroke-width:0.5;" width="192" x="24" y="748.9"/><ellipse cx="80.75" cy="764.9" fill="#ADD1B2" rx="11" ry="11" style="stroke:#181818;stroke-width:1.0;"/><path d="M83.7188,770.5406 Q83.1406,770.8375 82.5,770.9781 Q81.8594,771.1344 81.1563,771.1344 Q78.6563,771.1344 77.3281,769.4938 Q76.0156,767.8375 76.0156,764.7125 Q76.0156,761.5875 77.3281,759.9313 Q78.6563,758.275 81.1563,758.275 Q81.8594,758.275 82.5,758.4313 Q83.1563,758.5875 83.7188,758.8844 L83.7188,761.6031 Q83.0938,761.025 82.5,760.7594 Q81.9063,760.4781 81.2813,760.4781 Q79.9375,760.4781 79.25,761.5563 Q78.5625,762.6188 78.5625,764.7125 Q78.5625,766.8063 79.25,767.8844 Q79.9375,768.9469 81.2813,768.9469 Q81.9063,768.9469 82.5,768.6813 Q83.0938,768.4 83.7188,767.8219 L83.7188,770.5406 Z " fill="#000000"/><text fill="#000000" font-family="sans-serif" font-size="14" lengthAdjust="spacing" textLength="70" x="101.25" y="769.7467">StrLookup</text><line style="stroke:#181818;stroke-width:0.5;" x1="25" x2="215" y1="780.9" y2="780.9"/><line style="stroke:#181818;stroke-width:0.5;" x1="25" x2="215" y1="788.9" y2="788.9"/><text fill="#000000" font-family="sans-serif" font-size="14" lengthAdjust="spacing" textLength="180" x="30" y="805.8951">String lookup(String input)</text></g><!--class LoggerContext--><g id="elem_LoggerContext"><rect codeLine="1" fill="#F1F1F1" height="96.8906" id="LoggerContext" rx="2.5" ry="2.5" style="stroke:#181818;stroke-width:0.5;" width="228" x="718" y="7"/><ellipse cx="776.75" cy="23" fill="#ADD1B2" rx="11" ry="11" style="stroke:#181818;stroke-width:1.0;"/><path d="M779.7188,28.6406 Q779.1406,28.9375 778.5,29.0781 Q777.8594,29.2344 777.1563,29.2344 Q774.6563,29.2344 773.3281,27.5938 Q772.0156,25.9375 772.0156,22.8125 Q772.0156,19.6875 773.3281,18.0313 Q774.6563,16.375 777.1563,16.375 Q777.8594,16.375 778.5,16.5313 Q779.1563,16.6875 779.7188,16.9844 L779.7188,19.7031 Q779.0938,19.125 778.5,18.8594 Q777.9063,18.5781 777.2813,18.5781 Q775.9375,18.5781 775.25,19.6563 Q774.5625,20.7188 774.5625,22.8125 Q774.5625,24.9063 775.25,25.9844 Q775.9375,27.0469 777.2813,27.0469 Q777.9063,27.0469 778.5,26.7813 Q779.0938,26.5 779.7188,25.9219 L779.7188,28.6406 Z " fill="#000000"/><text fill="#000000" font-family="sans-serif" font-size="14" lengthAdjust="spacing" textLength="102" x="797.25" y="27.8467">LoggerContext</text><line style="stroke:#181818;stroke-width:0.5;" x1="719" x2="945" y1="39" y2="39"/><text fill="#000000" font-family="sans-serif" font-size="14" lengthAdjust="spacing" textLength="138" x="724" y="55.9951">Configuration config</text><text fill="#000000" font-family="sans-serif" font-size="14" lengthAdjust="spacing" textLength="114" x="724" y="72.292">Logger[] loggers</text><line style="stroke:#181818;stroke-width:0.5;" x1="719" x2="945" y1="79.5938" y2="79.5938"/><text fill="#000000" font-family="sans-serif" font-size="14" lengthAdjust="spacing" textLength="216" x="724" y="96.5889">Logger getLogger(String name)</text></g><g id="elem_GMN3"><path d="M469.5,42.88 L469.5,68.0128 A0,0 0 0 0 469.5,68.0128 L682.5,68.0128 A0,0 0 0 0 682.5,68.0128 L682.5,60.88 L717.54,55.45 L682.5,52.88 L682.5,52.88 L672.5,42.88 L469.5,42.88 A0,0 0 0 0 469.5,42.88 " fill="#FEFFDD" style="stroke:#181818;stroke-width:0.5;"/><path d="M672.5,42.88 L672.5,52.88 L682.5,52.88 L672.5,42.88 " fill="#FEFFDD" style="stroke:#181818;stroke-width:0.5;"/><text fill="#000000" font-family="sans-serif" font-size="13" lengthAdjust="spacing" textLength="192" x="475.5" y="59.9469">Anchor for the logging system</text></g><!--class Logger--><g id="elem_Logger"><rect codeLine="118" fill="#F1F1F1" height="64.2969" id="Logger" rx="2.5" ry="2.5" style="stroke:#181818;stroke-width:0.5;" width="284" x="825" y="218.49"/><ellipse cx="938.75" cy="234.49" fill="#ADD1B2" rx="11" ry="11" style="stroke:#181818;stroke-width:1.0;"/><path d="M941.7188,240.1306 Q941.1406,240.4275 940.5,240.5681 Q939.8594,240.7244 939.1563,240.7244 Q936.6563,240.7244 935.3281,239.0838 Q934.0156,237.4275 934.0156,234.3025 Q934.0156,231.1775 935.3281,229.5213 Q936.6563,227.865 939.1563,227.865 Q939.8594,227.865 940.5,228.0213 Q941.1563,228.1775 941.7188,228.4744 L941.7188,231.1931 Q941.0938,230.615 940.5,230.3494 Q939.9063,230.0681 939.2813,230.0681 Q937.9375,230.0681 937.25,231.1463 Q936.5625,232.2088 936.5625,234.3025 Q936.5625,236.3963 937.25,237.4744 Q937.9375,238.5369 939.2813,238.5369 Q939.9063,238.5369 940.5,238.2713 Q941.0938,237.99 941.7188,237.4119 L941.7188,240.1306 Z " fill="#000000"/><text fill="#000000" font-family="sans-serif" font-size="14" lengthAdjust="spacing" textLength="48" x="959.25" y="239.3367">Logger</text><line style="stroke:#181818;stroke-width:0.5;" x1="826" x2="1108" y1="250.49" y2="250.49"/><line style="stroke:#181818;stroke-width:0.5;" x1="826" x2="1108" y1="258.49" y2="258.49"/><text fill="#000000" font-family="sans-serif" font-size="14" lengthAdjust="spacing" textLength="272" x="831" y="275.4851">void log(Level level, Message message)</text></g><g id="elem_GMN43"><path d="M1143.5,230.5 L1143.5,246.64 L1109.33,250.64 L1143.5,254.64 L1143.5,270.7656 A0,0 0 0 0 1143.5,270.7656 L1320.5,270.7656 A0,0 0 0 0 1320.5,270.7656 L1320.5,240.5 L1310.5,230.5 L1143.5,230.5 A0,0 0 0 0 1143.5,230.5 " fill="#FEFFDD" style="stroke:#181818;stroke-width:0.5;"/><path d="M1310.5,230.5 L1310.5,240.5 L1320.5,240.5 L1310.5,230.5 " fill="#FEFFDD" style="stroke:#181818;stroke-width:0.5;"/><text fill="#000000" font-family="sans-serif" font-size="13" lengthAdjust="spacing" textLength="156" x="1149.5" y="247.5669">The main API entry point</text><text fill="#000000" font-family="sans-serif" font-size="13" lengthAdjust="spacing" textLength="117" x="1149.5" y="262.6997">users interact with</text></g><!--class AbstractManager--><g id="elem_AbstractManager"><rect codeLine="129" fill="#F1F1F1" height="48" id="AbstractManager" rx="2.5" ry="2.5" style="stroke:#181818;stroke-width:0.5;" width="149" x="827.5" y="925.04"/><ellipse cx="842.5" cy="941.04" fill="#ADD1B2" rx="11" ry="11" style="stroke:#181818;stroke-width:1.0;"/><path d="M845.4688,946.6806 Q844.8906,946.9775 844.25,947.1181 Q843.6094,947.2744 842.9063,947.2744 Q840.4063,947.2744 839.0781,945.6338 Q837.7656,943.9775 837.7656,940.8525 Q837.7656,937.7275 839.0781,936.0713 Q840.4063,934.415 842.9063,934.415 Q843.6094,934.415 844.25,934.5713 Q844.9063,934.7275 845.4688,935.0244 L845.4688,937.7431 Q844.8438,937.165 844.25,936.8994 Q843.6563,936.6181 843.0313,936.6181 Q841.6875,936.6181 841,937.6963 Q840.3125,938.7588 840.3125,940.8525 Q840.3125,942.9463 841,944.0244 Q841.6875,945.0869 843.0313,945.0869 Q843.6563,945.0869 844.25,944.8213 Q844.8438,944.54 845.4688,943.9619 L845.4688,946.6806 Z " fill="#000000"/><text fill="#000000" font-family="sans-serif" font-size="14" lengthAdjust="spacing" textLength="117" x="856.5" y="945.8867">AbstractManager</text><line style="stroke:#181818;stroke-width:0.5;" x1="828.5" x2="975.5" y1="957.04" y2="957.04"/><line style="stroke:#181818;stroke-width:0.5;" x1="828.5" x2="975.5" y1="965.04" y2="965.04"/></g><!--link LoggerContext to Logger--><g id="link_LoggerContext_Logger"><path codeLine="11" d="M865.37,104.2 C890.2,139.73 919.9528,182.3121 941.5428,213.2021 " fill="none" id="LoggerContext-to-Logger" style="stroke:#181818;stroke-width:1.0;"/><polygon fill="#181818" points="944.98,218.12,943.1027,208.4517,942.1156,214.0218,936.5456,213.0347,944.98,218.12" style="stroke:#181818;stroke-width:1.0;"/><text fill="#000000" font-family="sans-serif" font-size="13" lengthAdjust="spacing" textLength="23" x="915.3808" y="207.3213">0..*</text></g><!--link Configuration to Filter--><g id="link_Configuration_Filter"><path codeLine="29" d="M537.95,315.55 C513.31,337.66 488.14,364.07 470,392.38 C441.44,436.94 466.7,464.75 433,505.56 C397.41,548.67 355.34,520.97 323,566.56 C246.13,674.95 266.2048,840.5508 279.2248,910.6808 " fill="none" id="Configuration-to-Filter" style="stroke:#181818;stroke-width:1.0;"/><polygon fill="#181818" points="280.32,916.58,282.61,907.0011,279.4073,911.664,274.7444,908.4614,280.32,916.58" style="stroke:#181818;stroke-width:1.0;"/></g><!--link Configuration to Appender--><g id="link_Configuration_Appender"><path codeLine="31" d="M715.3,315.73 C738.91,337.1 761.19,363.05 774,392.38 C822.24,502.78 809.01,548.17 774,663.46 C767.49,684.89 759.0009,701.0438 746.4109,719.2638 " fill="none" id="Configuration-to-Appender" style="stroke:#181818;stroke-width:1.0;"/><polygon fill="#181818" points="743,724.2,751.4071,719.0697,745.8424,720.0865,744.8256,714.5218,743,724.2" style="stroke:#181818;stroke-width:1.0;"/><text fill="#000000" font-family="sans-serif" font-size="13" lengthAdjust="spacing" textLength="23" x="724.3266" y="713.4319">0..*</text></g><!--link Configuration to LoggerConfig--><g id="link_Configuration_LoggerConfig"><path codeLine="33" d="M622,315.65 C622,340.27 622,362.16 622,385.97 " fill="none" id="Configuration-to-LoggerConfig" style="stroke:#181818;stroke-width:1.0;"/><polygon fill="#181818" points="622,391.97,626,382.97,622,386.97,618,382.97,622,391.97" style="stroke:#181818;stroke-width:1.0;"/><text fill="#000000" font-family="sans-serif" font-size="13" lengthAdjust="spacing" textLength="23" x="597.5984" y="381.1836">0..*</text></g><!--link Configuration to StrSubstitutor--><g id="link_Configuration_StrSubstitutor"><path codeLine="35" d="M463.6,309.04 C359.28,346.88 240.85,389.91 235,392.38 C223.46,397.25 216.844,400.1361 205.074,405.6461 " fill="none" id="Configuration-to-StrSubstitutor" style="stroke:#181818;stroke-width:1.0;"/><polygon fill="#181818" points="199.64,408.19,209.487,407.9969,204.1684,406.0701,206.0951,400.7515,199.64,408.19" style="stroke:#181818;stroke-width:1.0;"/></g><!--link Appender to Layout--><g id="link_Appender_Layout"><path codeLine="44" d="M697.68,837.78 C698.47,863.97 699.1989,888.2227 699.8689,910.4127 " fill="none" id="Appender-to-Layout" style="stroke:#181818;stroke-width:1.0;"/><polygon fill="#181818" points="700.05,916.41,703.7766,907.2934,699.8991,911.4123,695.7802,907.5348,700.05,916.41" style="stroke:#181818;stroke-width:1.0;"/></g><!--link Appender to Filter--><g id="link_Appender_Filter"><path codeLine="46" d="M598.64,816.01 C537.31,838.09 456.81,868.32 387,898.64 C374.39,904.12 366.4744,907.7332 353.8244,913.8932 " fill="none" id="Appender-to-Filter" style="stroke:#181818;stroke-width:1.0;"/><polygon fill="#181818" points="348.43,916.52,358.2728,916.176,352.9253,914.331,354.7704,908.9835,348.43,916.52" style="stroke:#181818;stroke-width:1.0;"/></g><!--link LoggerConfig to AppenderControl--><g id="link_LoggerConfig_AppenderControl"><path codeLine="72" d="M562.95,505.97 C542.29,525.55 523.6628,543.2105 503.7828,562.0705 " fill="none" id="LoggerConfig-to-AppenderControl" style="stroke:#008000;stroke-width:6.0;"/><polygon fill="#008000" points="499.43,566.2,508.7123,562.9076,503.0574,562.7587,503.2063,557.1039,499.43,566.2" style="stroke:#008000;stroke-width:6.0;"/><text fill="#000000" font-family="sans-serif" font-size="13" lengthAdjust="spacing" textLength="23" x="481.9045" y="555.3583">0..*</text></g><!--link LoggerConfig to Filter--><g id="link_LoggerConfig_Filter"><path codeLine="74" d="M487,500.25 C422.03,525.65 356,553.75 346,566.56 C344.64,568.31 306.4289,819.7877 292.6489,910.7277 " fill="none" id="LoggerConfig-to-Filter" style="stroke:#181818;stroke-width:1.0;"/><polygon fill="#181818" points="291.75,916.66,297.0532,908.3609,292.4991,911.7164,289.1435,907.1623,291.75,916.66" style="stroke:#181818;stroke-width:1.0;"/></g><!--link AppenderControl to Appender--><g id="link_AppenderControl_Appender"><path codeLine="87" d="M521.11,663.9 C549.44,682.72 577.1722,701.13 606.6022,720.68 " fill="none" id="AppenderControl-to-Appender" style="stroke:#008000;stroke-width:6.0;"/><polygon fill="#008000" points="611.6,724,606.3166,715.6882,607.4352,721.2334,601.89,722.3519,611.6,724" style="stroke:#008000;stroke-width:6.0;"/></g><!--link AppenderControl to Filter--><g id="link_AppenderControl_Filter"><path codeLine="89" d="M429.79,663.93 C408.65,715.42 372.75,799.21 336,868.64 C327.44,884.82 320.1083,897.1261 310.9883,911.4761 " fill="none" id="AppenderControl-to-Filter" style="stroke:#181818;stroke-width:1.0;"/><polygon fill="#181818" points="307.77,916.54,315.9733,911.0897,310.4519,912.3201,309.2215,906.7987,307.77,916.54" style="stroke:#181818;stroke-width:1.0;"/></g><!--link StrSubstitutor to Interpolator--><g id="link_StrSubstitutor_Interpolator"><path codeLine="102" d="M120,489.68 C120,515.38 120,542.7 120,568.38 " fill="none" id="StrSubstitutor-to-Interpolator" style="stroke:#181818;stroke-width:1.0;"/><polygon fill="#181818" points="120,574.38,124,565.38,120,569.38,116,565.38,120,574.38" style="stroke:#181818;stroke-width:1.0;"/></g><!--link Interpolator to StrLookup--><g id="link_Interpolator_StrLookup"><path codeLine="109" d="M120,655.72 C120,684.26 120,716.21 120,742.65 " fill="none" id="Interpolator-to-StrLookup" style="stroke:#181818;stroke-width:1.0;"/><polygon fill="#181818" points="120,748.65,124,739.65,120,743.65,116,739.65,120,748.65" style="stroke:#181818;stroke-width:1.0;"/><text fill="#000000" font-family="sans-serif" font-size="13" lengthAdjust="spacing" textLength="23" x="94.7359" y="737.875">0..*</text></g><!--link LoggerContext to Configuration--><g id="link_LoggerContext_Configuration"><path codeLine="116" d="M780.09,104.2 C753.37,128.78 724.8348,155.0268 695.9548,181.6068 " fill="none" id="LoggerContext-to-Configuration" style="stroke:#181818;stroke-width:1.0;"/><polygon fill="#181818" points="691.54,185.67,700.871,182.5184,695.219,182.284,695.4534,176.632,691.54,185.67" style="stroke:#181818;stroke-width:1.0;"/></g><!--link Logger to LoggerConfig--><g id="link_Logger_LoggerConfig"><path codeLine="127" d="M911.57,283.18 C860.14,312.45 787.6448,353.7025 725.6648,388.9725 " fill="none" id="Logger-to-LoggerConfig" style="stroke:#008000;stroke-width:6.0;"/><polygon fill="#008000" points="720.45,391.94,730.2505,390.9653,724.7957,389.4671,726.2938,384.0122,720.45,391.94" style="stroke:#008000;stroke-width:6.0;"/><text fill="#000000" font-family="sans-serif" font-size="13" lengthAdjust="spacing" textLength="110" x="795" y="358.4469">delegates `log()`</text></g><!--link Appender to AbstractManager--><g id="link_Appender_AbstractManager"><path codeLine="132" d="M765.46,838.02 C802.13,867.57 840.5073,898.4963 868.3173,920.8963 " fill="none" id="Appender-to-AbstractManager" style="stroke:#008000;stroke-width:6.0;"/><polygon fill="#008000" points="872.99,924.66,868.4901,915.8993,869.0961,921.5236,863.4718,922.1296,872.99,924.66" style="stroke:#008000;stroke-width:6.0;"/></g><!--SRC=[fLPDQzmm4BtxLmpR7ZObkxHfw27GGcWJ22IbDEqf1AorPxrgRCb8yZRBal_UqOS_v7YJGm_6iaOQpNlpPkIiP5h3jImAL5-bCFXeO9y0q7ZDYqOnmwM0p7tHj5zuTm-b6-Xk2WeqVZI_DOgB0WIhy2XvIX8X3KA9QmDoFN7IkSWsKi6Q7hD1vzXkrpjjiBBxuosBnHUOlLyktys2hoIfMVR02eHP5FGCc8QCZg0p03A7CqQrTnQAeAvHv0uM2qCTJ9UyD0HkxLvXhek7N7LC-4yziQHdnd_7_FZrD7NRhBJXfZ74W-x7Ri6Jnn0H6K49RYv4nchTbCmWGPTLBGKAuuUyn3miMojP0OD6erhKIcvvZdb8SUoFO2FCSLaiZo4bdAT_JfQFLPdwi8ae5v8FBgRMPibpTyWQSjXo_ygo8O67biOa3jFU7j9dd9OfbfaR9fWLR-NVRVROJZO6IlTwGGXRoVEWc3a5UB4bie-62UlEjU5vhnE68Ky-tX106-rgPv24XYAJEKwVvFU58DjzFv6qO4BCq_kSf1GlDavJbqDqtwt9R9WXgQJUaaB6Mcsi43hjq9fJ4kOMItqMp1-Ma4OfIeFXX0p3RBRp7sc-fSNMkf9bQpeTcD89wMLn3xCrDoxju75GuM6cgrWRlSVmMiQf4AR9Z29OtBqf5A8uDXkUFGZK-lEd- -Uw3s5CEPYKncZVCw0Tll_HRQoASQZUoJVCf7ADXebnUW3-ShCPw6OYQMCWX_YA6yIpNPCaZTffoz4LtI2gbjGUQP8FFlekR1kpmhfa6RPzcekwUOcUKTlfIe-Qh-OhQg3hRfOAfaPbTds3xtjjssRVxb5iptxVNlnyckop8soMW26k8GqHtdqFybhAXwPsLvSTw1Y-dpoCFl8wQD6Tur4c_EJm_5TEcRpou-ik6PQySzrNPb_8nt13Ch9_1fL_zxyZNVR2FmJ0B_htg1WNSFxZYYWtQWUr996GoLwKsWk6xWodxQHFIWZYa7wZcZw374iiNDdO2tL-bBPOnbVItiRQtnE7gYFUzGy0]--></g></svg>