<?xml version="1.0" encoding="us-ascii" standalone="no"?><svg xmlns="http://www.w3.org/2000/svg" xmlns:xlink="http://www.w3.org/1999/xlink" contentStyleType="text/css" height="548px" preserveAspectRatio="none" style="width:330px;height:548px;background:#FFFFFF;" version="1.1" viewBox="0 0 330 548" width="330px" zoomAndPan="magnify"><defs/><g><!--class Configuration--><g id="elem_Configuration"><rect codeLine="1" fill="#F1F1F1" height="129.4844" id="Configuration" rx="2.5" ry="2.5" style="stroke:#181818;stroke-width:0.5;" width="316" x="7" y="7"/><ellipse cx="114.75" cy="23" fill="#ADD1B2" rx="11" ry="11" style="stroke:#181818;stroke-width:1.0;"/><path d="M117.7188,28.6406 Q117.1406,28.9375 116.5,29.0781 Q115.8594,29.2344 115.1563,29.2344 Q112.6563,29.2344 111.3281,27.5938 Q110.0156,25.9375 110.0156,22.8125 Q110.0156,19.6875 111.3281,18.0313 Q112.6563,16.375 115.1563,16.375 Q115.8594,16.375 116.5,16.5313 Q117.1563,16.6875 117.7188,16.9844 L117.7188,19.7031 Q117.0938,19.125 116.5,18.8594 Q115.9063,18.5781 115.2813,18.5781 Q113.9375,18.5781 113.25,19.6563 Q112.5625,20.7188 112.5625,22.8125 Q112.5625,24.9063 113.25,25.9844 Q113.9375,27.0469 115.2813,27.0469 Q115.9063,27.0469 116.5,26.7813 Q117.0938,26.5 117.7188,25.9219 L117.7188,28.6406 Z " fill="#000000"/><text fill="#000000" font-family="sans-serif" font-size="14" lengthAdjust="spacing" textLength="92" x="135.25" y="27.8467">Configuration</text><line style="stroke:#181818;stroke-width:0.5;" x1="8" x2="322" y1="39" y2="39"/><text fill="#000000" font-family="sans-serif" font-size="14" lengthAdjust="spacing" textLength="157" x="13" y="55.9951">Appender[] appenders</text><text fill="#000000" font-family="sans-serif" font-size="14" lengthAdjust="spacing" textLength="84" x="13" y="72.292">Filter[] filters</text><text fill="#000000" font-family="sans-serif" font-size="14" lengthAdjust="spacing" textLength="202" x="13" y="88.5889">LoggerConfig[] loggerConfigs</text><text fill="#000000" font-family="sans-serif" font-size="14" lengthAdjust="spacing" textLength="174" x="13" y="104.8857">StrSubstitutor substitutor</text><line style="stroke:#181818;stroke-width:0.5;" x1="8" x2="322" y1="112.1875" y2="112.1875"/><text fill="#000000" font-family="sans-serif" font-size="14" lengthAdjust="spacing" textLength="304" x="13" y="129.1826">LoggerConfig getLoggerConfig(String name)</text></g><!--class StrSubstitutor--><g id="elem_StrSubstitutor"><rect codeLine="11" fill="#F1F1F1" height="80.5938" id="StrSubstitutor" rx="2.5" ry="2.5" style="stroke:#181818;stroke-width:2.0;" width="196" x="67" y="196.49"/><ellipse cx="113.25" cy="212.49" fill="#ADD1B2" rx="11" ry="11" style="stroke:#181818;stroke-width:1.0;"/><path d="M116.2188,218.1306 Q115.6406,218.4275 115,218.5681 Q114.3594,218.7244 113.6563,218.7244 Q111.1563,218.7244 109.8281,217.0838 Q108.5156,215.4275 108.5156,212.3025 Q108.5156,209.1775 109.8281,207.5213 Q111.1563,205.865 113.6563,205.865 Q114.3594,205.865 115,206.0213 Q115.6563,206.1775 116.2188,206.4744 L116.2188,209.1931 Q115.5938,208.615 115,208.3494 Q114.4063,208.0681 113.7813,208.0681 Q112.4375,208.0681 111.75,209.1463 Q111.0625,210.2088 111.0625,212.3025 Q111.0625,214.3963 111.75,215.4744 Q112.4375,216.5369 113.7813,216.5369 Q114.4063,216.5369 115,216.2713 Q115.5938,215.99 116.2188,215.4119 L116.2188,218.1306 Z " fill="#000000"/><text fill="#000000" font-family="sans-serif" font-size="14" lengthAdjust="spacing" textLength="95" x="133.75" y="217.3367">StrSubstitutor</text><line style="stroke:#181818;stroke-width:2.0;" x1="68" x2="262" y1="228.49" y2="228.49"/><text fill="#000000" font-family="sans-serif" font-size="14" lengthAdjust="spacing" textLength="162" x="73" y="245.4851">Interpolator interpolator</text><line style="stroke:#181818;stroke-width:2.0;" x1="68" x2="262" y1="252.7869" y2="252.7869"/><text fill="#000000" font-family="sans-serif" font-size="14" lengthAdjust="spacing" textLength="184" x="73" y="269.782">String replace(String input)</text></g><!--class Interpolator--><g id="elem_Interpolator"><rect codeLine="18" fill="#F1F1F1" height="80.5938" id="Interpolator" rx="2.5" ry="2.5" style="stroke:#181818;stroke-width:0.5;" width="192" x="69" y="337.08"/><ellipse cx="121.25" cy="353.08" fill="#ADD1B2" rx="11" ry="11" style="stroke:#181818;stroke-width:1.0;"/><path d="M124.2188,358.7206 Q123.6406,359.0175 123,359.1581 Q122.3594,359.3144 121.6563,359.3144 Q119.1563,359.3144 117.8281,357.6738 Q116.5156,356.0175 116.5156,352.8925 Q116.5156,349.7675 117.8281,348.1113 Q119.1563,346.455 121.6563,346.455 Q122.3594,346.455 123,346.6113 Q123.6563,346.7675 124.2188,347.0644 L124.2188,349.7831 Q123.5938,349.205 123,348.9394 Q122.4063,348.6581 121.7813,348.6581 Q120.4375,348.6581 119.75,349.7363 Q119.0625,350.7988 119.0625,352.8925 Q119.0625,354.9863 119.75,356.0644 Q120.4375,357.1269 121.7813,357.1269 Q122.4063,357.1269 123,356.8613 Q123.5938,356.58 124.2188,356.0019 L124.2188,358.7206 Z " fill="#000000"/><text fill="#000000" font-family="sans-serif" font-size="14" lengthAdjust="spacing" textLength="79" x="141.75" y="357.9267">Interpolator</text><line style="stroke:#181818;stroke-width:0.5;" x1="70" x2="260" y1="369.08" y2="369.08"/><text fill="#000000" font-family="sans-serif" font-size="14" lengthAdjust="spacing" textLength="139" x="75" y="386.0751">StrLookup[] lookups</text><line style="stroke:#181818;stroke-width:0.5;" x1="70" x2="260" y1="393.3769" y2="393.3769"/><text fill="#000000" font-family="sans-serif" font-size="14" lengthAdjust="spacing" textLength="180" x="75" y="410.372">String lookup(String input)</text></g><!--class StrLookup--><g id="elem_StrLookup"><rect codeLine="25" fill="#F1F1F1" height="64.2969" id="StrLookup" rx="2.5" ry="2.5" style="stroke:#181818;stroke-width:0.5;" width="192" x="69" y="477.67"/><ellipse cx="125.75" cy="493.67" fill="#ADD1B2" rx="11" ry="11" style="stroke:#181818;stroke-width:1.0;"/><path d="M128.7188,499.3106 Q128.1406,499.6075 127.5,499.7481 Q126.8594,499.9044 126.1563,499.9044 Q123.6563,499.9044 122.3281,498.2638 Q121.0156,496.6075 121.0156,493.4825 Q121.0156,490.3575 122.3281,488.7013 Q123.6563,487.045 126.1563,487.045 Q126.8594,487.045 127.5,487.2013 Q128.1563,487.3575 128.7188,487.6544 L128.7188,490.3731 Q128.0938,489.795 127.5,489.5294 Q126.9063,489.2481 126.2813,489.2481 Q124.9375,489.2481 124.25,490.3263 Q123.5625,491.3888 123.5625,493.4825 Q123.5625,495.5763 124.25,496.6544 Q124.9375,497.7169 126.2813,497.7169 Q126.9063,497.7169 127.5,497.4513 Q128.0938,497.17 128.7188,496.5919 L128.7188,499.3106 Z " fill="#000000"/><text fill="#000000" font-family="sans-serif" font-size="14" lengthAdjust="spacing" textLength="70" x="146.25" y="498.5167">StrLookup</text><line style="stroke:#181818;stroke-width:0.5;" x1="70" x2="260" y1="509.67" y2="509.67"/><line style="stroke:#181818;stroke-width:0.5;" x1="70" x2="260" y1="517.67" y2="517.67"/><text fill="#000000" font-family="sans-serif" font-size="14" lengthAdjust="spacing" textLength="180" x="75" y="534.6651">String lookup(String input)</text></g><!--link Configuration to StrSubstitutor--><g id="link_Configuration_StrSubstitutor"><path codeLine="9" d="M165,136.71 C165,156.87 165,172.54 165,190.45 " fill="none" id="Configuration-to-StrSubstitutor" style="stroke:#181818;stroke-width:1.0;"/><polygon fill="#181818" points="165,196.45,169,187.45,165,191.45,161,187.45,165,196.45" style="stroke:#181818;stroke-width:1.0;"/></g><!--link StrSubstitutor to Interpolator--><g id="link_StrSubstitutor_Interpolator"><path codeLine="16" d="M165,277.5 C165,296.06 165,312.1 165,330.66 " fill="none" id="StrSubstitutor-to-Interpolator" style="stroke:#181818;stroke-width:1.0;"/><polygon fill="#181818" points="165,336.66,169,327.66,165,331.66,161,327.66,165,336.66" style="stroke:#181818;stroke-width:1.0;"/></g><!--link Interpolator to StrLookup--><g id="link_Interpolator_StrLookup"><path codeLine="23" d="M165,417.87 C165,436.91 165,453.45 165,471.32 " fill="none" id="Interpolator-to-StrLookup" style="stroke:#181818;stroke-width:1.0;"/><polygon fill="#181818" points="165,477.32,169,468.32,165,472.32,161,468.32,165,477.32" style="stroke:#181818;stroke-width:1.0;"/><text fill="#000000" font-family="sans-serif" font-size="13" lengthAdjust="spacing" textLength="23" x="139.7359" y="466.5253">0..*</text></g><!--SRC=[TP3D2i8m48JlUOfGBrPeyGa44GIXjnx5Gzgc8HWt8J-duhkR7qlJYhUTsV3DR7f1ZC4N2IDdJXFB9U09ONnMYi90zVs1oNSqthvoOQCvnY5OZMICwaJm2v79xHepQdEzRwtcm32G5otzMozRrndBhRDIOxFCw8tGkcHLdJRl4UhZCHlAJd2WTIV540-xWU-jf21XnpEHyaCTJPKWFPtRSL3Ebg71XXmgvBYvm2fYIjn6ogTJyN_2O9QqPFo6hIWXgZZMzQ5OODczoPYp_bC_]--></g></svg>