<svg xmlns="http://www.w3.org/2000/svg" xmlns:xlink="http://www.w3.org/1999/xlink" contentStyleType="text/css" data-diagram-type="CLASS" height="1022px" preserveAspectRatio="none" style="width:1354px;height:1022px;background:#FFFFFF;" version="1.1" viewBox="0 0 1354 1022" width="1354px" zoomAndPan="magnify"><defs/><g><!--cluster c--><g class="cluster" data-entity="c" data-source-line="13" data-uid="ent0008" id="cluster_c"><path d="M8.5,150.89 L117.665,150.89 A3.75,3.75 0 0 1 120.165,153.39 L127.165,173.1869 L820.5,173.1869 A2.5,2.5 0 0 1 823,175.6869 L823,1012.94 A2.5,2.5 0 0 1 820.5,1015.44 L8.5,1015.44 A2.5,2.5 0 0 1 6,1012.94 L6,153.39 A2.5,2.5 0 0 1 8.5,150.89" fill="none" style="stroke:#000000;stroke-width:1.5;"/><line style="stroke:#000000;stroke-width:1.5;" x1="6" x2="127.165" y1="173.1869" y2="173.1869"/><text fill="#000000" font-family="sans-serif" font-size="14" font-weight="bold" lengthAdjust="spacing" textLength="108.165" x="10" y="165.8851">Configuration</text></g><!--class Configuration--><g class="entity" data-entity="Configuration" data-source-line="15" data-uid="ent0009" id="entity_Configuration"><rect fill="#F1F1F1" height="129.4844" rx="2.5" ry="2.5" style="stroke:#181818;stroke-width:0.5;" width="323.1514" x="472.42" y="185.89"/><ellipse cx="582.2735" cy="201.89" fill="#ADD1B2" rx="11" ry="11" style="stroke:#181818;stroke-width:1;"/><path d="M585.2423,207.5306 Q584.6641,207.8275 584.0235,207.9681 Q583.3829,208.1244 582.6798,208.1244 Q580.1798,208.1244 578.8516,206.4838 Q577.5391,204.8275 577.5391,201.7025 Q577.5391,198.5775 578.8516,196.9213 Q580.1798,195.265 582.6798,195.265 Q583.3829,195.265 584.0235,195.4213 Q584.6798,195.5775 585.2423,195.8744 L585.2423,198.5931 Q584.6173,198.015 584.0235,197.7494 Q583.4298,197.4681 582.8048,197.4681 Q581.461,197.4681 580.7735,198.5463 Q580.086,199.6088 580.086,201.7025 Q580.086,203.7963 580.7735,204.8744 Q581.461,205.9369 582.8048,205.9369 Q583.4298,205.9369 584.0235,205.6713 Q584.6173,205.39 585.2423,204.8119 L585.2423,207.5306 Z " fill="#000000"/><text fill="#000000" font-family="sans-serif" font-size="14" lengthAdjust="spacing" textLength="94.9443" x="602.7735" y="206.7367">Configuration</text><line style="stroke:#181818;stroke-width:0.5;" x1="473.42" x2="794.5714" y1="217.89" y2="217.89"/><text fill="#000000" font-family="sans-serif" font-size="14" lengthAdjust="spacing" textLength="157.8555" x="478.42" y="234.8851">Appender[] appenders</text><text fill="#000000" font-family="sans-serif" font-size="14" lengthAdjust="spacing" textLength="72.707" x="478.42" y="251.182">Filter filter</text><text fill="#000000" font-family="sans-serif" font-size="14" lengthAdjust="spacing" textLength="205.6113" x="478.42" y="267.4789">LoggerConfig[] loggerConfigs</text><text fill="#000000" font-family="sans-serif" font-size="14" lengthAdjust="spacing" textLength="177.9736" x="478.42" y="283.7757">StrSubstitutor substitutor</text><line style="stroke:#181818;stroke-width:0.5;" x1="473.42" x2="794.5714" y1="291.0775" y2="291.0775"/><text fill="#000000" font-family="sans-serif" font-size="14" lengthAdjust="spacing" textLength="311.1514" x="478.42" y="308.0726">LoggerConfig getLoggerConfig(String name)</text></g><g class="entity" data-entity="GMN10" data-source-line="24" data-uid="ent0011" id="entity_GMN10"><path d="M182.33,222.94 L182.33,278.3384 A0,0 0 0 0 182.33,278.3384 L437.6791,278.3384 A0,0 0 0 0 437.6791,278.3384 L437.6791,254.64 L472.19,250.64 L437.6791,246.64 L437.6791,232.94 L427.6791,222.94 L182.33,222.94 A0,0 0 0 0 182.33,222.94" fill="#FEFFDD" style="stroke:#181818;stroke-width:0.5;"/><path d="M427.6791,222.94 L427.6791,232.94 L437.6791,232.94 L427.6791,222.94" fill="#FEFFDD" style="stroke:#181818;stroke-width:0.5;"/><text fill="#000000" font-family="sans-serif" font-size="13" lengthAdjust="spacing" textLength="234.3491" x="188.33" y="240.0069">Encapsulates components compiled</text><text fill="#000000" font-family="sans-serif" font-size="13" lengthAdjust="spacing" textLength="227.5381" x="188.33" y="255.1397">from a user-provided configuration</text><text fill="#000000" font-family="sans-serif" font-size="13" lengthAdjust="spacing" textLength="147.9258" x="188.33" y="270.2725">file (e.g., `log4j2.xml`)</text></g><!--class Filter--><g class="entity" data-entity="Filter" data-source-line="29" data-uid="ent0013" id="entity_Filter"><rect fill="#F1F1F1" height="64.2969" rx="2.5" ry="2.5" style="stroke:#181818;stroke-width:0.5;" width="169.1855" x="207.41" y="916.89"/><ellipse cx="269.9076" cy="932.89" fill="#ADD1B2" rx="11" ry="11" style="stroke:#181818;stroke-width:1;"/><path d="M272.8763,938.5306 Q272.2982,938.8275 271.6576,938.9681 Q271.0169,939.1244 270.3138,939.1244 Q267.8138,939.1244 266.4857,937.4838 Q265.1732,935.8275 265.1732,932.7025 Q265.1732,929.5775 266.4857,927.9213 Q267.8138,926.265 270.3138,926.265 Q271.0169,926.265 271.6576,926.4213 Q272.3138,926.5775 272.8763,926.8744 L272.8763,929.5931 Q272.2513,929.015 271.6576,928.7494 Q271.0638,928.4681 270.4388,928.4681 Q269.0951,928.4681 268.4076,929.5463 Q267.7201,930.6088 267.7201,932.7025 Q267.7201,934.7963 268.4076,935.8744 Q269.0951,936.9369 270.4388,936.9369 Q271.0638,936.9369 271.6576,936.6713 Q272.2513,936.39 272.8763,935.8119 L272.8763,938.5306 Z " fill="#000000"/><text fill="#000000" font-family="sans-serif" font-size="14" lengthAdjust="spacing" textLength="35.6904" x="290.4076" y="937.7367">Filter</text><line style="stroke:#181818;stroke-width:0.5;" x1="208.41" x2="375.5955" y1="948.89" y2="948.89"/><line style="stroke:#181818;stroke-width:0.5;" x1="208.41" x2="375.5955" y1="956.89" y2="956.89"/><text fill="#000000" font-family="sans-serif" font-size="14" lengthAdjust="spacing" textLength="157.1855" x="213.41" y="973.8851">Result filter(LogEvent)</text></g><!--class Appender--><g class="entity" data-entity="Appender" data-source-line="31" data-uid="ent0015" id="entity_Appender"><rect fill="#F1F1F1" height="113.1875" rx="2.5" ry="2.5" style="stroke:#181818;stroke-width:0.5;" width="199.5098" x="607.25" y="724.46"/><ellipse cx="668.7085" cy="740.46" fill="#ADD1B2" rx="11" ry="11" style="stroke:#181818;stroke-width:1;"/><path d="M671.6772,746.1006 Q671.0991,746.3975 670.4585,746.5381 Q669.8179,746.6944 669.1147,746.6944 Q666.6147,746.6944 665.2866,745.0538 Q663.9741,743.3975 663.9741,740.2725 Q663.9741,737.1475 665.2866,735.4913 Q666.6147,733.835 669.1147,733.835 Q669.8179,733.835 670.4585,733.9913 Q671.1147,734.1475 671.6772,734.4444 L671.6772,737.1631 Q671.0522,736.585 670.4585,736.3194 Q669.8647,736.0381 669.2397,736.0381 Q667.896,736.0381 667.2085,737.1163 Q666.521,738.1788 666.521,740.2725 Q666.521,742.3663 667.2085,743.4444 Q667.896,744.5069 669.2397,744.5069 Q669.8647,744.5069 670.4585,744.2413 Q671.0522,743.96 671.6772,743.3819 L671.6772,746.1006 Z " fill="#000000"/><text fill="#000000" font-family="sans-serif" font-size="14" lengthAdjust="spacing" textLength="68.0928" x="689.2085" y="745.3067">Appender</text><line style="stroke:#181818;stroke-width:0.5;" x1="608.25" x2="805.7598" y1="756.46" y2="756.46"/><text fill="#000000" font-family="sans-serif" font-size="14" lengthAdjust="spacing" textLength="187.5098" x="613.25" y="773.4551">AbstractManager manager</text><text fill="#000000" font-family="sans-serif" font-size="14" lengthAdjust="spacing" textLength="95.7236" x="613.25" y="789.752">Layout layout</text><text fill="#000000" font-family="sans-serif" font-size="14" lengthAdjust="spacing" textLength="72.707" x="613.25" y="806.0489">Filter filter</text><line style="stroke:#181818;stroke-width:0.5;" x1="608.25" x2="805.7598" y1="813.3506" y2="813.3506"/><text fill="#000000" font-family="sans-serif" font-size="14" lengthAdjust="spacing" textLength="163.085" x="613.25" y="830.3457">void append(LogEvent)</text></g><!--class LoggerConfig--><g class="entity" data-entity="LoggerConfig" data-source-line="33" data-uid="ent0017" id="entity_LoggerConfig"><rect fill="#F1F1F1" height="113.1875" rx="2.5" ry="2.5" style="stroke:#181818;stroke-width:0.5;" width="271.6836" x="498.16" y="392.38"/><ellipse cx="583.0384" cy="408.38" fill="#ADD1B2" rx="11" ry="11" style="stroke:#181818;stroke-width:1;"/><path d="M586.0072,414.0206 Q585.429,414.3175 584.7884,414.4581 Q584.1478,414.6144 583.4447,414.6144 Q580.9447,414.6144 579.6165,412.9738 Q578.304,411.3175 578.304,408.1925 Q578.304,405.0675 579.6165,403.4113 Q580.9447,401.755 583.4447,401.755 Q584.1478,401.755 584.7884,401.9113 Q585.4447,402.0675 586.0072,402.3644 L586.0072,405.0831 Q585.3822,404.505 584.7884,404.2394 Q584.1947,403.9581 583.5697,403.9581 Q582.2259,403.9581 581.5384,405.0363 Q580.8509,406.0988 580.8509,408.1925 Q580.8509,410.2863 581.5384,411.3644 Q582.2259,412.4269 583.5697,412.4269 Q584.1947,412.4269 584.7884,412.1613 Q585.3822,411.88 586.0072,411.3019 L586.0072,414.0206 Z " fill="#000000"/><text fill="#000000" font-family="sans-serif" font-size="14" lengthAdjust="spacing" textLength="93.4268" x="603.5384" y="413.2267">LoggerConfig</text><line style="stroke:#181818;stroke-width:0.5;" x1="499.16" x2="768.8436" y1="424.38" y2="424.38"/><text fill="#000000" font-family="sans-serif" font-size="14" lengthAdjust="spacing" textLength="259.6836" x="504.16" y="441.3751">AppenderControl[] appenderControls</text><text fill="#000000" font-family="sans-serif" font-size="14" lengthAdjust="spacing" textLength="74.9424" x="504.16" y="457.672">Level level</text><text fill="#000000" font-family="sans-serif" font-size="14" lengthAdjust="spacing" textLength="72.707" x="504.16" y="473.9689">Filter filter</text><line style="stroke:#181818;stroke-width:0.5;" x1="499.16" x2="768.8436" y1="481.2706" y2="481.2706"/><text fill="#000000" font-family="sans-serif" font-size="14" lengthAdjust="spacing" textLength="131.7012" x="504.16" y="498.2657">void log(LogEvent)</text></g><!--class StrSubstitutor--><g class="entity" data-entity="StrSubstitutor" data-source-line="35" data-uid="ent0019" id="entity_StrSubstitutor"><rect fill="#F1F1F1" height="80.5938" rx="2.5" ry="2.5" style="stroke:#181818;stroke-width:0.5;" width="203.4336" x="22.28" y="408.67"/><ellipse cx="70.9348" cy="424.67" fill="#ADD1B2" rx="11" ry="11" style="stroke:#181818;stroke-width:1;"/><path d="M73.9035,430.3106 Q73.3254,430.6075 72.6848,430.7481 Q72.0442,430.9044 71.341,430.9044 Q68.841,430.9044 67.5129,429.2638 Q66.2004,427.6075 66.2004,424.4825 Q66.2004,421.3575 67.5129,419.7013 Q68.841,418.045 71.341,418.045 Q72.0442,418.045 72.6848,418.2013 Q73.341,418.3575 73.9035,418.6544 L73.9035,421.3731 Q73.2785,420.795 72.6848,420.5294 Q72.091,420.2481 71.466,420.2481 Q70.1223,420.2481 69.4348,421.3263 Q68.7473,422.3888 68.7473,424.4825 Q68.7473,426.5763 69.4348,427.6544 Q70.1223,428.7169 71.466,428.7169 Q72.091,428.7169 72.6848,428.4513 Q73.2785,428.17 73.9035,427.5919 L73.9035,430.3106 Z " fill="#000000"/><text fill="#000000" font-family="sans-serif" font-size="14" lengthAdjust="spacing" textLength="97.624" x="91.4348" y="429.5167">StrSubstitutor</text><line style="stroke:#181818;stroke-width:0.5;" x1="23.28" x2="224.7136" y1="440.67" y2="440.67"/><text fill="#000000" font-family="sans-serif" font-size="14" lengthAdjust="spacing" textLength="169.3945" x="28.28" y="457.6651">Interpolator interpolator</text><line style="stroke:#181818;stroke-width:0.5;" x1="23.28" x2="224.7136" y1="464.9669" y2="464.9669"/><text fill="#000000" font-family="sans-serif" font-size="14" lengthAdjust="spacing" textLength="191.4336" x="28.28" y="481.962">String replace(String input)</text></g><!--class Layout--><g class="entity" data-entity="Layout" data-source-line="44" data-uid="ent0021" id="entity_Layout"><rect fill="#F1F1F1" height="64.2969" rx="2.5" ry="2.5" style="stroke:#181818;stroke-width:0.5;" width="186.1797" x="620.91" y="916.89"/><ellipse cx="685.9539" cy="932.89" fill="#ADD1B2" rx="11" ry="11" style="stroke:#181818;stroke-width:1;"/><path d="M688.9227,938.5306 Q688.3446,938.8275 687.7039,938.9681 Q687.0633,939.1244 686.3602,939.1244 Q683.8602,939.1244 682.5321,937.4838 Q681.2196,935.8275 681.2196,932.7025 Q681.2196,929.5775 682.5321,927.9213 Q683.8602,926.265 686.3602,926.265 Q687.0633,926.265 687.7039,926.4213 Q688.3602,926.5775 688.9227,926.8744 L688.9227,929.5931 Q688.2977,929.015 687.7039,928.7494 Q687.1102,928.4681 686.4852,928.4681 Q685.1414,928.4681 684.4539,929.5463 Q683.7664,930.6088 683.7664,932.7025 Q683.7664,934.7963 684.4539,935.8744 Q685.1414,936.9369 686.4852,936.9369 Q687.1102,936.9369 687.7039,936.6713 Q688.2977,936.39 688.9227,935.8119 L688.9227,938.5306 Z " fill="#000000"/><text fill="#000000" font-family="sans-serif" font-size="14" lengthAdjust="spacing" textLength="47.5918" x="706.4539" y="937.7367">Layout</text><line style="stroke:#181818;stroke-width:0.5;" x1="621.91" x2="806.0897" y1="948.89" y2="948.89"/><line style="stroke:#181818;stroke-width:0.5;" x1="621.91" x2="806.0897" y1="956.89" y2="956.89"/><text fill="#000000" font-family="sans-serif" font-size="14" lengthAdjust="spacing" textLength="174.1797" x="626.91" y="973.8851">byte[] encode(LogEvent)</text></g><g class="entity" data-entity="GMN24" data-source-line="57" data-uid="ent0025" id="entity_GMN24"><path d="M411.73,898.64 L411.73,945.04 L376.9,949.04 L411.73,953.04 L411.73,999.4369 A0,0 0 0 0 411.73,999.4369 L586.2671,999.4369 A0,0 0 0 0 586.2671,999.4369 L586.2671,908.64 L576.2671,898.64 L411.73,898.64 A0,0 0 0 0 411.73,898.64" fill="#FEFFDD" style="stroke:#181818;stroke-width:0.5;"/><path d="M576.2671,898.64 L576.2671,908.64 L586.2671,908.64 L576.2671,898.64" fill="#FEFFDD" style="stroke:#181818;stroke-width:0.5;"/><text fill="#000000" font-family="sans-serif" font-size="13" lengthAdjust="spacing" textLength="151.1631" x="417.73" y="915.7069">Note that a `Filter` can</text><text fill="#000000" font-family="sans-serif" font-size="13" lengthAdjust="spacing" textLength="153.5371" x="417.73" y="930.8397">be provided at 4 levels:</text><text fill="#000000" font-family="sans-serif" font-size="13" lengthAdjust="spacing" textLength="117.6982" x="417.73" y="945.9725">1. `Configuration`</text><text fill="#000000" font-family="sans-serif" font-size="13" lengthAdjust="spacing" textLength="116.2891" x="417.73" y="961.1053">2. `LoggerConfig`</text><text fill="#000000" font-family="sans-serif" font-size="13" lengthAdjust="spacing" textLength="140.042" x="417.73" y="976.2381">3. `AppenderControl`</text><text fill="#000000" font-family="sans-serif" font-size="13" lengthAdjust="spacing" textLength="92.7646" x="417.73" y="991.371">4. `Appender`</text></g><!--class AppenderControl--><g class="entity" data-entity="AppenderControl" data-source-line="72" data-uid="ent0027" id="entity_AppenderControl"><rect fill="#F1F1F1" height="96.8906" rx="2.5" ry="2.5" style="stroke:#181818;stroke-width:0.5;" width="175.085" x="371.46" y="566.56"/><ellipse cx="397.2952" cy="582.56" fill="#ADD1B2" rx="11" ry="11" style="stroke:#181818;stroke-width:1;"/><path d="M400.2639,588.2006 Q399.6858,588.4975 399.0452,588.6381 Q398.4045,588.7944 397.7014,588.7944 Q395.2014,588.7944 393.8733,587.1538 Q392.5608,585.4975 392.5608,582.3725 Q392.5608,579.2475 393.8733,577.5913 Q395.2014,575.935 397.7014,575.935 Q398.4045,575.935 399.0452,576.0913 Q399.7014,576.2475 400.2639,576.5444 L400.2639,579.2631 Q399.6389,578.685 399.0452,578.4194 Q398.4514,578.1381 397.8264,578.1381 Q396.4827,578.1381 395.7952,579.2163 Q395.1077,580.2788 395.1077,582.3725 Q395.1077,584.4663 395.7952,585.5444 Q396.4827,586.6069 397.8264,586.6069 Q398.4514,586.6069 399.0452,586.3413 Q399.6389,586.06 400.2639,585.4819 L400.2639,588.2006 Z " fill="#000000"/><text fill="#000000" font-family="sans-serif" font-size="14" lengthAdjust="spacing" textLength="119.0068" x="413.703" y="587.4067">AppenderControl</text><line style="stroke:#181818;stroke-width:0.5;" x1="372.46" x2="545.545" y1="598.56" y2="598.56"/><text fill="#000000" font-family="sans-serif" font-size="14" lengthAdjust="spacing" textLength="139.6377" x="377.46" y="615.5551">Appender appender</text><text fill="#000000" font-family="sans-serif" font-size="14" lengthAdjust="spacing" textLength="72.707" x="377.46" y="631.852">Filter filter</text><line style="stroke:#181818;stroke-width:0.5;" x1="372.46" x2="545.545" y1="639.1538" y2="639.1538"/><text fill="#000000" font-family="sans-serif" font-size="14" lengthAdjust="spacing" textLength="163.085" x="377.46" y="656.1489">void append(LogEvent)</text></g><g class="entity" data-entity="GMN30" data-source-line="83" data-uid="ent0031" id="entity_GMN30"><path d="M582.01,594.88 L582.01,611.01 L546.73,615.01 L582.01,619.01 L582.01,635.1456 A0,0 0 0 0 582.01,635.1456 L769.9978,635.1456 A0,0 0 0 0 769.9978,635.1456 L769.9978,604.88 L759.9978,594.88 L582.01,594.88 A0,0 0 0 0 582.01,594.88" fill="#FEFFDD" style="stroke:#181818;stroke-width:0.5;"/><path d="M759.9978,594.88 L759.9978,604.88 L769.9978,604.88 L759.9978,594.88" fill="#FEFFDD" style="stroke:#181818;stroke-width:0.5;"/><text fill="#000000" font-family="sans-serif" font-size="13" lengthAdjust="spacing" textLength="166.9878" x="588.01" y="611.9469">Decorates an `Appender`</text><text fill="#000000" font-family="sans-serif" font-size="13" lengthAdjust="spacing" textLength="89.9526" x="588.01" y="627.0797">with a `Filter`</text></g><g class="entity" data-entity="GMN35" data-source-line="97" data-uid="ent0036" id="entity_GMN35"><path d="M260.47,421.27 L260.47,444.97 L225.8,448.97 L260.47,452.97 L260.47,476.6684 A0,0 0 0 0 260.47,476.6684 L425.5301,476.6684 A0,0 0 0 0 425.5301,476.6684 L425.5301,431.27 L415.5301,421.27 L260.47,421.27 A0,0 0 0 0 260.47,421.27" fill="#FEFFDD" style="stroke:#181818;stroke-width:0.5;"/><path d="M415.5301,421.27 L415.5301,431.27 L425.5301,431.27 L415.5301,421.27" fill="#FEFFDD" style="stroke:#181818;stroke-width:0.5;"/><text fill="#000000" font-family="sans-serif" font-size="13" lengthAdjust="spacing" textLength="100.5024" x="266.47" y="438.3369">Responsible for</text><text fill="#000000" font-family="sans-serif" font-size="13" lengthAdjust="spacing" textLength="137.0522" x="266.47" y="453.4697">property substitution</text><text fill="#000000" font-family="sans-serif" font-size="13" lengthAdjust="spacing" textLength="144.0601" x="266.47" y="468.6025">(e.g., `${env:USER}`)</text></g><!--class Interpolator--><g class="entity" data-entity="Interpolator" data-source-line="102" data-uid="ent0038" id="entity_Interpolator"><rect fill="#F1F1F1" height="80.5938" rx="2.5" ry="2.5" style="stroke:#181818;stroke-width:0.5;" width="198.2861" x="24.86" y="574.71"/><ellipse cx="78.4572" cy="590.71" fill="#ADD1B2" rx="11" ry="11" style="stroke:#181818;stroke-width:1;"/><path d="M81.4259,596.3506 Q80.8478,596.6475 80.2072,596.7881 Q79.5665,596.9444 78.8634,596.9444 Q76.3634,596.9444 75.0353,595.3038 Q73.7228,593.6475 73.7228,590.5225 Q73.7228,587.3975 75.0353,585.7413 Q76.3634,584.085 78.8634,584.085 Q79.5665,584.085 80.2072,584.2413 Q80.8634,584.3975 81.4259,584.6944 L81.4259,587.4131 Q80.8009,586.835 80.2072,586.5694 Q79.6134,586.2881 78.9884,586.2881 Q77.6447,586.2881 76.9572,587.3663 Q76.2697,588.4288 76.2697,590.5225 Q76.2697,592.6163 76.9572,593.6944 Q77.6447,594.7569 78.9884,594.7569 Q79.6134,594.7569 80.2072,594.4913 Q80.8009,594.21 81.4259,593.6319 L81.4259,596.3506 Z " fill="#000000"/><text fill="#000000" font-family="sans-serif" font-size="14" lengthAdjust="spacing" textLength="82.5918" x="98.9572" y="595.5567">Interpolator</text><line style="stroke:#181818;stroke-width:0.5;" x1="25.86" x2="222.1461" y1="606.71" y2="606.71"/><text fill="#000000" font-family="sans-serif" font-size="14" lengthAdjust="spacing" textLength="140.4854" x="30.86" y="623.7051">StrLookup[] lookups</text><line style="stroke:#181818;stroke-width:0.5;" x1="25.86" x2="222.1461" y1="631.0069" y2="631.0069"/><text fill="#000000" font-family="sans-serif" font-size="14" lengthAdjust="spacing" textLength="186.2861" x="30.86" y="648.002">String lookup(String input)</text></g><!--class StrLookup--><g class="entity" data-entity="StrLookup" data-source-line="109" data-uid="ent0040" id="entity_StrLookup"><rect fill="#F1F1F1" height="64.2969" rx="2.5" ry="2.5" style="stroke:#181818;stroke-width:0.5;" width="198.2861" x="24.86" y="748.9"/><ellipse cx="84.2882" cy="764.9" fill="#ADD1B2" rx="11" ry="11" style="stroke:#181818;stroke-width:1;"/><path d="M87.257,770.5406 Q86.6788,770.8375 86.0382,770.9781 Q85.3976,771.1344 84.6945,771.1344 Q82.1945,771.1344 80.8663,769.4938 Q79.5538,767.8375 79.5538,764.7125 Q79.5538,761.5875 80.8663,759.9313 Q82.1945,758.275 84.6945,758.275 Q85.3976,758.275 86.0382,758.4313 Q86.6945,758.5875 87.257,758.8844 L87.257,761.6031 Q86.632,761.025 86.0382,760.7594 Q85.4445,760.4781 84.8195,760.4781 Q83.4757,760.4781 82.7882,761.5563 Q82.1007,762.6188 82.1007,764.7125 Q82.1007,766.8063 82.7882,767.8844 Q83.4757,768.9469 84.8195,768.9469 Q85.4445,768.9469 86.0382,768.6813 Q86.632,768.4 87.257,767.8219 L87.257,770.5406 Z " fill="#000000"/><text fill="#000000" font-family="sans-serif" font-size="14" lengthAdjust="spacing" textLength="70.9297" x="104.7882" y="769.7467">StrLookup</text><line style="stroke:#181818;stroke-width:0.5;" x1="25.86" x2="222.1461" y1="780.9" y2="780.9"/><line style="stroke:#181818;stroke-width:0.5;" x1="25.86" x2="222.1461" y1="788.9" y2="788.9"/><text fill="#000000" font-family="sans-serif" font-size="14" lengthAdjust="spacing" textLength="186.2861" x="30.86" y="805.8951">String lookup(String input)</text></g><!--class LoggerContext--><g class="entity" data-entity="LoggerContext" data-source-line="1" data-uid="ent0002" id="entity_LoggerContext"><rect fill="#F1F1F1" height="96.8906" rx="2.5" ry="2.5" style="stroke:#181818;stroke-width:0.5;" width="233.3135" x="730.34" y="7"/><ellipse cx="790.9474" cy="23" fill="#ADD1B2" rx="11" ry="11" style="stroke:#181818;stroke-width:1;"/><path d="M793.9162,28.6406 Q793.338,28.9375 792.6974,29.0781 Q792.0568,29.2344 791.3537,29.2344 Q788.8537,29.2344 787.5255,27.5938 Q786.213,25.9375 786.213,22.8125 Q786.213,19.6875 787.5255,18.0313 Q788.8537,16.375 791.3537,16.375 Q792.0568,16.375 792.6974,16.5313 Q793.3537,16.6875 793.9162,16.9844 L793.9162,19.7031 Q793.2912,19.125 792.6974,18.8594 Q792.1037,18.5781 791.4787,18.5781 Q790.1349,18.5781 789.4474,19.6563 Q788.7599,20.7188 788.7599,22.8125 Q788.7599,24.9063 789.4474,25.9844 Q790.1349,27.0469 791.4787,27.0469 Q792.1037,27.0469 792.6974,26.7813 Q793.2912,26.5 793.9162,25.9219 L793.9162,28.6406 Z " fill="#000000"/><text fill="#000000" font-family="sans-serif" font-size="14" lengthAdjust="spacing" textLength="103.5986" x="811.4474" y="27.8467">LoggerContext</text><line style="stroke:#181818;stroke-width:0.5;" x1="731.34" x2="962.6535" y1="39" y2="39"/><text fill="#000000" font-family="sans-serif" font-size="14" lengthAdjust="spacing" textLength="142.2354" x="736.34" y="55.9951">Configuration config</text><text fill="#000000" font-family="sans-serif" font-size="14" lengthAdjust="spacing" textLength="115.7734" x="736.34" y="72.292">Logger[] loggers</text><line style="stroke:#181818;stroke-width:0.5;" x1="731.34" x2="962.6535" y1="79.5938" y2="79.5938"/><text fill="#000000" font-family="sans-serif" font-size="14" lengthAdjust="spacing" textLength="221.3135" x="736.34" y="96.5889">Logger getLogger(String name)</text></g><g class="entity" data-entity="GMN3" data-source-line="8" data-uid="ent0004" id="entity_GMN3"><path d="M477.14,42.88 L477.14,68.0128 A0,0 0 0 0 477.14,68.0128 L694.8666,68.0128 A0,0 0 0 0 694.8666,68.0128 L694.8666,60.88 L730,55.45 L694.8666,52.88 L694.8666,52.88 L684.8666,42.88 L477.14,42.88 A0,0 0 0 0 477.14,42.88" fill="#FEFFDD" style="stroke:#181818;stroke-width:0.5;"/><path d="M684.8666,42.88 L684.8666,52.88 L694.8666,52.88 L684.8666,42.88" fill="#FEFFDD" style="stroke:#181818;stroke-width:0.5;"/><text fill="#000000" font-family="sans-serif" font-size="13" lengthAdjust="spacing" textLength="196.7266" x="483.14" y="59.9469">Anchor for the logging system</text></g><!--class Logger--><g class="entity" data-entity="Logger" data-source-line="11" data-uid="ent0006" id="entity_Logger"><rect fill="#F1F1F1" height="64.2969" rx="2.5" ry="2.5" style="stroke:#181818;stroke-width:0.5;" width="290.9131" x="838.54" y="218.49"/><ellipse cx="955.4926" cy="234.49" fill="#ADD1B2" rx="11" ry="11" style="stroke:#181818;stroke-width:1;"/><path d="M958.4614,240.1306 Q957.8833,240.4275 957.2426,240.5681 Q956.602,240.7244 955.8989,240.7244 Q953.3989,240.7244 952.0708,239.0838 Q950.7583,237.4275 950.7583,234.3025 Q950.7583,231.1775 952.0708,229.5213 Q953.3989,227.865 955.8989,227.865 Q956.602,227.865 957.2426,228.0213 Q957.8989,228.1775 958.4614,228.4744 L958.4614,231.1931 Q957.8364,230.615 957.2426,230.3494 Q956.6489,230.0681 956.0239,230.0681 Q954.6801,230.0681 953.9926,231.1463 Q953.3051,232.2088 953.3051,234.3025 Q953.3051,236.3963 953.9926,237.4744 Q954.6801,238.5369 956.0239,238.5369 Q956.6489,238.5369 957.2426,238.2713 Q957.8364,237.99 958.4614,237.4119 L958.4614,240.1306 Z " fill="#000000"/><text fill="#000000" font-family="sans-serif" font-size="14" lengthAdjust="spacing" textLength="48.5078" x="975.9926" y="239.3367">Logger</text><line style="stroke:#181818;stroke-width:0.5;" x1="839.54" x2="1128.4531" y1="250.49" y2="250.49"/><line style="stroke:#181818;stroke-width:0.5;" x1="839.54" x2="1128.4531" y1="258.49" y2="258.49"/><text fill="#000000" font-family="sans-serif" font-size="14" lengthAdjust="spacing" textLength="278.9131" x="844.54" y="275.4851">void log(Level level, Message message)</text></g><g class="entity" data-entity="GMN43" data-source-line="123" data-uid="ent0044" id="entity_GMN43"><path d="M1164.86,230.5 L1164.86,246.64 L1129.83,250.64 L1164.86,254.64 L1164.86,270.7656 A0,0 0 0 0 1164.86,270.7656 L1347.1413,270.7656 A0,0 0 0 0 1347.1413,270.7656 L1347.1413,240.5 L1337.1413,230.5 L1164.86,230.5 A0,0 0 0 0 1164.86,230.5" fill="#FEFFDD" style="stroke:#181818;stroke-width:0.5;"/><path d="M1337.1413,230.5 L1337.1413,240.5 L1347.1413,240.5 L1337.1413,230.5" fill="#FEFFDD" style="stroke:#181818;stroke-width:0.5;"/><text fill="#000000" font-family="sans-serif" font-size="13" lengthAdjust="spacing" textLength="161.2813" x="1170.86" y="247.5669">The main API entry point</text><text fill="#000000" font-family="sans-serif" font-size="13" lengthAdjust="spacing" textLength="121.4751" x="1170.86" y="262.6997">users interact with</text></g><!--class AbstractManager--><g class="entity" data-entity="AbstractManager" data-source-line="129" data-uid="ent0047" id="entity_AbstractManager"><rect fill="#F1F1F1" height="48" rx="2.5" ry="2.5" style="stroke:#181818;stroke-width:0.5;" width="152.1348" x="841.93" y="925.04"/><ellipse cx="856.93" cy="941.04" fill="#ADD1B2" rx="11" ry="11" style="stroke:#181818;stroke-width:1;"/><path d="M859.8988,946.6806 Q859.3206,946.9775 858.68,947.1181 Q858.0394,947.2744 857.3363,947.2744 Q854.8363,947.2744 853.5081,945.6338 Q852.1956,943.9775 852.1956,940.8525 Q852.1956,937.7275 853.5081,936.0713 Q854.8363,934.415 857.3363,934.415 Q858.0394,934.415 858.68,934.5713 Q859.3363,934.7275 859.8988,935.0244 L859.8988,937.7431 Q859.2738,937.165 858.68,936.8994 Q858.0863,936.6181 857.4613,936.6181 Q856.1175,936.6181 855.43,937.6963 Q854.7425,938.7588 854.7425,940.8525 Q854.7425,942.9463 855.43,944.0244 Q856.1175,945.0869 857.4613,945.0869 Q858.0863,945.0869 858.68,944.8213 Q859.2738,944.54 859.8988,943.9619 L859.8988,946.6806 Z " fill="#000000"/><text fill="#000000" font-family="sans-serif" font-size="14" lengthAdjust="spacing" textLength="120.1348" x="870.93" y="945.8867">AbstractManager</text><line style="stroke:#181818;stroke-width:0.5;" x1="842.93" x2="993.0648" y1="957.04" y2="957.04"/><line style="stroke:#181818;stroke-width:0.5;" x1="842.93" x2="993.0648" y1="965.04" y2="965.04"/></g><!--link LoggerContext to Logger--><g class="link" data-entity-1="LoggerContext" data-entity-2="Logger" data-source-line="11" data-uid="lnk7" id="link_LoggerContext_Logger"><path codeLine="11" d="M880.87,104.2 C906.06,139.73 936.2798,182.3353 958.1798,213.2253" fill="none" id="LoggerContext-to-Logger" style="stroke:#181818;stroke-width:1;"/><polygon fill="#181818" points="961.65,218.12,959.7079,208.4645,958.7582,214.0411,953.1816,213.0914,961.65,218.12" style="stroke:#181818;stroke-width:1;"/><text fill="#000000" font-family="sans-serif" font-size="13" lengthAdjust="spacing" textLength="23.0356" x="931.99" y="207.3213">0..*</text></g><!--link Configuration to Filter--><g class="link" data-entity-1="Configuration" data-entity-2="Filter" data-source-line="29" data-uid="lnk14" id="link_Configuration_Filter"><path codeLine="29" d="M549.52,315.55 C524.73,337.66 499.37,364.07 481,392.38 C452.12,436.89 478.86,466.45 443,505.56 C397.14,555.6 341.01,510.33 303,566.56 C228.98,676.08 262.0843,840.7879 280.9843,910.7079" fill="none" id="Configuration-to-Filter" style="stroke:#181818;stroke-width:1;"/><polygon fill="#181818" points="282.55,916.5,284.0629,906.768,281.2453,911.6732,276.3401,908.8556,282.55,916.5" style="stroke:#181818;stroke-width:1;"/></g><!--link Configuration to Appender--><g class="link" data-entity-1="Configuration" data-entity-2="Appender" data-source-line="31" data-uid="lnk16" id="link_Configuration_Appender"><path codeLine="31" d="M727.9,315.62 C751.67,336.99 774.09,362.96 787,392.38 C835.42,502.7 822.68,548.38 787,663.46 C780.35,684.91 771.6934,701.0205 758.8634,719.1705" fill="none" id="Configuration-to-Appender" style="stroke:#181818;stroke-width:1;"/><polygon fill="#181818" points="755.4,724.07,763.8614,719.0297,758.2862,719.9871,757.3288,714.4118,755.4,724.07" style="stroke:#181818;stroke-width:1;"/><text fill="#000000" font-family="sans-serif" font-size="13" lengthAdjust="spacing" textLength="23.0356" x="736.8988" y="713.286">0..*</text></g><!--link Configuration to LoggerConfig--><g class="link" data-entity-1="Configuration" data-entity-2="LoggerConfig" data-source-line="33" data-uid="lnk18" id="link_Configuration_LoggerConfig"><path codeLine="33" d="M634,315.65 C634,340.27 634,362.16 634,385.97" fill="none" id="Configuration-to-LoggerConfig" style="stroke:#181818;stroke-width:1;"/><polygon fill="#181818" points="634,391.97,638,382.97,634,386.97,630,382.97,634,391.97" style="stroke:#181818;stroke-width:1;"/><text fill="#000000" font-family="sans-serif" font-size="13" lengthAdjust="spacing" textLength="23.0356" x="609.6004" y="381.1836">0..*</text></g><!--link Configuration to StrSubstitutor--><g class="link" data-entity-1="Configuration" data-entity-2="StrSubstitutor" data-source-line="35" data-uid="lnk20" id="link_Configuration_StrSubstitutor"><path codeLine="35" d="M472,309.57 C369.69,346.22 254.63,387.58 243,392.38 C231.09,397.29 224.1042,400.2616 211.9342,405.7816" fill="none" id="Configuration-to-StrSubstitutor" style="stroke:#181818;stroke-width:1;"/><polygon fill="#181818" points="206.47,408.26,216.3186,408.1852,211.0235,406.1947,213.014,400.8996,206.47,408.26" style="stroke:#181818;stroke-width:1;"/></g><!--link Appender to Layout--><g class="link" data-entity-1="Appender" data-entity-2="Layout" data-source-line="44" data-uid="lnk22" id="link_Appender_Layout"><path codeLine="44" d="M709.35,837.78 C710.45,863.97 711.4761,888.2254 712.4161,910.4154" fill="none" id="Appender-to-Layout" style="stroke:#181818;stroke-width:1;"/><polygon fill="#181818" points="712.67,916.41,716.2855,907.2488,712.4584,911.4145,708.2927,907.5874,712.67,916.41" style="stroke:#181818;stroke-width:1;"/></g><!--link Appender to Filter--><g class="link" data-entity-1="Appender" data-entity-2="Filter" data-source-line="46" data-uid="lnk23" id="link_Appender_Filter"><path codeLine="46" d="M607.02,816.57 C545.1,838.62 464.25,868.63 394,898.64 C381.24,904.09 373.1963,907.7086 360.3763,913.8186" fill="none" id="Appender-to-Filter" style="stroke:#181818;stroke-width:1;"/><polygon fill="#181818" points="354.96,916.4,364.8054,916.1388,359.4736,914.2488,361.3635,908.917,354.96,916.4" style="stroke:#181818;stroke-width:1;"/></g><!--link LoggerConfig to AppenderControl--><g class="link" data-entity-1="LoggerConfig" data-entity-2="AppenderControl" data-source-line="72" data-uid="lnk28" id="link_LoggerConfig_AppenderControl"><path codeLine="72" d="M574.26,505.97 C553.37,525.55 534.4965,543.2356 514.3865,562.0956" fill="none" id="LoggerConfig-to-AppenderControl" style="stroke:#008000;stroke-width:6;"/><polygon fill="#008000" points="510.01,566.2,519.311,562.961,513.6571,562.7796,513.8384,557.1257,510.01,566.2" style="stroke:#008000;stroke-width:6;"/><text fill="#000000" font-family="sans-serif" font-size="13" lengthAdjust="spacing" textLength="23.0356" x="492.5683" y="555.3583">0..*</text></g><!--link LoggerConfig to Filter--><g class="link" data-entity-1="LoggerConfig" data-entity-2="Filter" data-source-line="74" data-uid="lnk29" id="link_LoggerConfig_Filter"><path codeLine="74" d="M497.85,499.84 C431.69,525.29 364.2,553.57 354,566.56 C270.13,673.46 330.06,734.74 307,868.64 C304.29,884.4 302.1414,895.9776 299.3514,910.5076" fill="none" id="LoggerConfig-to-Filter" style="stroke:#181818;stroke-width:1;"/><polygon fill="#181818" points="298.22,916.4,303.8454,908.3158,299.1629,911.4897,295.9889,906.8072,298.22,916.4" style="stroke:#181818;stroke-width:1;"/></g><!--link AppenderControl to Appender--><g class="link" data-entity-1="AppenderControl" data-entity-2="Appender" data-source-line="87" data-uid="lnk33" id="link_AppenderControl_Appender"><path codeLine="87" d="M531.4,663.9 C559.85,682.72 587.706,701.1394 617.256,720.6894" fill="none" id="AppenderControl-to-Appender" style="stroke:#008000;stroke-width:6;"/><polygon fill="#008000" points="622.26,724,616.9611,715.6981,618.09,721.2412,612.5469,722.3701,622.26,724" style="stroke:#008000;stroke-width:6;"/></g><!--link AppenderControl to Filter--><g class="link" data-entity-1="AppenderControl" data-entity-2="Filter" data-source-line="89" data-uid="lnk34" id="link_AppenderControl_Filter"><path codeLine="89" d="M439.89,663.62 C418.6,715.21 382.13,799.42 344,868.64 C335.02,884.95 327.1909,897.3597 317.5009,911.6897" fill="none" id="AppenderControl-to-Filter" style="stroke:#181818;stroke-width:1;"/><polygon fill="#181818" points="314.14,916.66,322.495,911.4452,316.9408,912.5181,315.8679,906.9639,314.14,916.66" style="stroke:#181818;stroke-width:1;"/></g><!--link StrSubstitutor to Interpolator--><g class="link" data-entity-1="StrSubstitutor" data-entity-2="Interpolator" data-source-line="102" data-uid="lnk39" id="link_StrSubstitutor_Interpolator"><path codeLine="102" d="M124,489.68 C124,515.38 124,542.7 124,568.38" fill="none" id="StrSubstitutor-to-Interpolator" style="stroke:#181818;stroke-width:1;"/><polygon fill="#181818" points="124,574.38,128,565.38,124,569.38,120,565.38,124,574.38" style="stroke:#181818;stroke-width:1;"/></g><!--link Interpolator to StrLookup--><g class="link" data-entity-1="Interpolator" data-entity-2="StrLookup" data-source-line="109" data-uid="lnk41" id="link_Interpolator_StrLookup"><path codeLine="109" d="M124,655.72 C124,684.26 124,716.21 124,742.65" fill="none" id="Interpolator-to-StrLookup" style="stroke:#181818;stroke-width:1;"/><polygon fill="#181818" points="124,748.65,128,739.65,124,743.65,120,739.65,124,748.65" style="stroke:#181818;stroke-width:1;"/><text fill="#000000" font-family="sans-serif" font-size="13" lengthAdjust="spacing" textLength="23.0356" x="98.7388" y="737.875">0..*</text></g><!--link LoggerContext to Configuration--><g class="link" data-entity-1="LoggerContext" data-entity-2="Configuration" data-source-line="116" data-uid="lnk42" id="link_LoggerContext_Configuration"><path codeLine="116" d="M794.35,104.2 C767.25,128.78 738.2739,155.0586 708.9739,181.6386" fill="none" id="LoggerContext-to-Configuration" style="stroke:#181818;stroke-width:1;"/><polygon fill="#181818" points="704.53,185.67,713.8834,182.5856,708.2332,182.3105,708.5083,176.6604,704.53,185.67" style="stroke:#181818;stroke-width:1;"/></g><!--link Logger to LoggerConfig--><g class="link" data-entity-1="Logger" data-entity-2="LoggerConfig" data-source-line="127" data-uid="lnk46" id="link_Logger_LoggerConfig"><path codeLine="127" d="M927.77,283.18 C875.59,312.45 801.9828,353.7344 739.1128,389.0044" fill="none" id="Logger-to-LoggerConfig" style="stroke:#008000;stroke-width:6;"/><polygon fill="#008000" points="733.88,391.94,743.6863,391.0251,738.2407,389.4937,739.7721,384.0481,733.88,391.94" style="stroke:#008000;stroke-width:6;"/><text fill="#000000" font-family="sans-serif" font-size="13" lengthAdjust="spacing" textLength="111.0396" x="810" y="358.4469">delegates `log()`</text></g><!--link Appender to AbstractManager--><g class="link" data-entity-1="Appender" data-entity-2="AbstractManager" data-source-line="132" data-uid="lnk48" id="link_Appender_AbstractManager"><path codeLine="132" d="M778.14,838.02 C815.71,867.57 855.0839,898.5507 883.5639,920.9507" fill="none" id="Appender-to-AbstractManager" style="stroke:#008000;stroke-width:6;"/><polygon fill="#008000" points="888.28,924.66,883.6787,915.952,884.3499,921.5689,878.733,922.2401,888.28,924.66" style="stroke:#008000;stroke-width:6;"/></g><!--SRC=[fLPDQzmm4BtxLmpR7ZObkxHfw27GGcWJ22IbDEqf1AorPxrgRCb8yZRBal_UqOS_v7YJGm_6iaOQpNlpPkIiP5h3jImAL5-bCFXeO9y0q7ZDYqOnmwM0p7tHj5zuTm-b6-Xk2WeqVZI_DOgB0WIhy2XvIX8X3KA9QmDoFN7IkSWsKi6Q7hD1vzXkrpjjiBBxuosBnHUOlLyktys2hoIfMVR02eHP5FGCc8QCZg0p03A7CqQrTnQAeAvHv0uM2qCTJ9UyD0HkxLvXhek7N7LC-4yziQHdnd_7_FZrD7NRhBJXfZ74W-x7Ri6Jnn0H6K49RYv4nchTbCmWGPTLBGKAuuUyn3miMojP0OD6erhKIcvvZdb8SUoFO2FCSLaiZo4bdAT_JfQFLPdwi8ae5v8FBgRMPibpTyWQSjXo_ygo8O67biOa3jFU7j9dd9OfbfaR9fWLR-NVRVROJZO6IlTwGGXRoVEWc3a5UB4bie-62UlEjU5vhnE68Ky-tX106-rgPv24XYAJEKwVvFU58DjzFv6qO4BCq_kSf1GlDavJbqDqtwt9R9WXgQJUaaB6Mcsi43hjq9fJ4kOMItqMp1-Ma4OfIeFXX0p3RBRp7sc-fSNMkf9bQpeTcD89wMLn3xCrDoxju75GuM6cgrWRlSVmMiQf4AR9Z29OtBqf5A8uDXkUFGZK-lEd- -Uw3s5CEPYKncZVCw0Tll_HRQoASQZUoJVCf7ADXebnUW3-ShCPw6OYQMCWX_YA6yIpNPCaZTffoz4LtI2gbjGUQP8FFlekR1kpmhfa6RPzcekwUOcUKTlfIe-Qh-OhQg3hRfOAfaPbTds3xtjjssRVxb5iptxVNlnyckop8soMW26k8GqHtdqFybhAXwPsLvSTw1Y-dpoCFl8wQD6Tur4c_EJm_5TEcRpou-ik6PQySzrNPb_8nt13Ch9_1fL_zxyZNVR2FmJ0B_htg1WNSFxZYYWtQWUr996GoLwKsWk6xWodxQHFIWZYa7wZcZw374iiNDdO2tL-bBPOnbVItiRQtnE7gYFUzGy0]--></g></svg>