<svg xmlns="http://www.w3.org/2000/svg" xmlns:xlink="http://www.w3.org/1999/xlink" contentStyleType="text/css" data-diagram-type="ACTIVITY" height="405px" preserveAspectRatio="none" style="width:377px;height:405px;background:#FFFFFF;" version="1.1" viewBox="0 0 377 405" width="377px" zoomAndPan="magnify"><defs/><g><ellipse cx="203.1892" cy="20" fill="#222222" rx="10" ry="10" style="stroke:#222222;stroke-width:1;"/><rect fill="#F1F1F1" height="33.9688" rx="12.5" ry="12.5" style="stroke:#181818;stroke-width:0.5;" width="76.0215" x="165.1785" y="50"/><text fill="#000000" font-family="sans-serif" font-size="12" lengthAdjust="spacing" textLength="56.0215" x="175.1785" y="71.1387">LogEvent</text><rect fill="none" height="258.2031" style="stroke:#000000;stroke-width:1.5;" width="355.416" x="11" y="93.9688"/><path d="M140.0068,93.9688 L140.0068,103.2656 L130.0068,113.2656 L11,113.2656" fill="none" style="stroke:#000000;stroke-width:1.5;"/><text fill="#000000" font-family="sans-serif" font-size="14" lengthAdjust="spacing" textLength="119.0068" x="14" y="107.9639">AppenderControl</text><rect fill="#F1F1F1" height="33.9688" rx="12.5" ry="12.5" style="stroke:#181818;stroke-width:0.5;" width="220.4082" x="92.9851" y="130.2656"/><text fill="#000000" font-family="sans-serif" font-size="12" lengthAdjust="spacing" textLength="200.4082" x="102.9851" y="151.4043">AppenderControl#callAppender()</text><polygon fill="#F1F1F1" points="77.6641,184.2344,328.7144,184.2344,340.7144,196.2344,328.7144,208.2344,77.6641,208.2344,65.6641,196.2344,77.6641,184.2344" style="stroke:#181818;stroke-width:0.5;"/><text fill="#000000" font-family="sans-serif" font-size="11" lengthAdjust="spacing" textLength="251.0503" x="77.6641" y="200.0425">Is less severe then appender reference level?</text><text fill="#000000" font-family="sans-serif" font-size="11" lengthAdjust="spacing" textLength="19.0083" x="46.6558" y="193.6401">yes</text><text fill="#000000" font-family="sans-serif" font-size="11" lengthAdjust="spacing" textLength="13.7017" x="340.7144" y="193.6401">no</text><rect fill="#FFC0CB" height="33.9688" rx="12.5" ry="12.5" style="stroke:#181818;stroke-width:0.5;" width="65.3281" x="23" y="218.2344"/><text fill="#000000" font-family="sans-serif" font-size="12" lengthAdjust="spacing" textLength="45.3281" x="33" y="239.373">Discard</text><polygon fill="#F1F1F1" points="116.7603,272.2031,289.6182,272.2031,301.6182,284.2031,289.6182,296.2031,116.7603,296.2031,104.7603,284.2031,116.7603,272.2031" style="stroke:#181818;stroke-width:0.5;"/><text fill="#000000" font-family="sans-serif" font-size="11" lengthAdjust="spacing" textLength="172.8579" x="116.7603" y="288.0112">Apply appender reference filter</text><text fill="#000000" font-family="sans-serif" font-size="11" lengthAdjust="spacing" textLength="30.3682" x="74.3921" y="281.6089">DENY</text><text fill="#000000" font-family="sans-serif" font-size="11" lengthAdjust="spacing" textLength="51.8794" x="301.6182" y="281.6089">not DENY</text><rect fill="#FFC0CB" height="33.9688" rx="12.5" ry="12.5" style="stroke:#181818;stroke-width:0.5;" width="65.3281" x="62.0962" y="306.2031"/><text fill="#000000" font-family="sans-serif" font-size="12" lengthAdjust="spacing" textLength="45.3281" x="72.0962" y="327.3418">Discard</text><ellipse cx="203.1892" cy="383.1719" fill="none" rx="11" ry="11" style="stroke:#222222;stroke-width:1;"/><ellipse cx="203.1892" cy="383.1719" fill="#222222" rx="6" ry="6" style="stroke:#222222;stroke-width:1;"/><line style="stroke:#181818;stroke-width:1;" x1="203.1892" x2="203.1892" y1="30" y2="50"/><polygon fill="#181818" points="199.1892,40,203.1892,50,207.1892,40,203.1892,44" style="stroke:#181818;stroke-width:1;"/><line style="stroke:#181818;stroke-width:1;" x1="65.6641" x2="55.6641" y1="196.2344" y2="196.2344"/><line style="stroke:#181818;stroke-width:1;" x1="55.6641" x2="55.6641" y1="196.2344" y2="218.2344"/><polygon fill="#181818" points="51.6641,208.2344,55.6641,218.2344,59.6641,208.2344,55.6641,212.2344" style="stroke:#181818;stroke-width:1;"/><line style="stroke:#181818;stroke-width:1;" x1="340.7144" x2="350.7144" y1="196.2344" y2="196.2344"/><line style="stroke:#181818;stroke-width:1;" x1="350.7144" x2="350.7144" y1="196.2344" y2="257.2031"/><line style="stroke:#181818;stroke-width:1;" x1="350.7144" x2="203.1892" y1="257.2031" y2="257.2031"/><line style="stroke:#181818;stroke-width:1;" x1="203.1892" x2="203.1892" y1="257.2031" y2="272.2031"/><polygon fill="#181818" points="199.1892,262.2031,203.1892,272.2031,207.1892,262.2031,203.1892,266.2031" style="stroke:#181818;stroke-width:1;"/><line style="stroke:#181818;stroke-width:1;" x1="203.1892" x2="203.1892" y1="164.2344" y2="184.2344"/><polygon fill="#181818" points="199.1892,174.2344,203.1892,184.2344,207.1892,174.2344,203.1892,178.2344" style="stroke:#181818;stroke-width:1;"/><line style="stroke:#181818;stroke-width:1;" x1="104.7603" x2="94.7603" y1="284.2031" y2="284.2031"/><line style="stroke:#181818;stroke-width:1;" x1="94.7603" x2="94.7603" y1="284.2031" y2="306.2031"/><polygon fill="#181818" points="90.7603,296.2031,94.7603,306.2031,98.7603,296.2031,94.7603,300.2031" style="stroke:#181818;stroke-width:1;"/><line style="stroke:#181818;stroke-width:1;" x1="301.6182" x2="311.6182" y1="284.2031" y2="284.2031"/><line style="stroke:#181818;stroke-width:1;" x1="311.6182" x2="311.6182" y1="284.2031" y2="345.1719"/><line style="stroke:#181818;stroke-width:1;" x1="311.6182" x2="203.1892" y1="345.1719" y2="345.1719"/><line style="stroke:#181818;stroke-width:1;" x1="203.1892" x2="203.1892" y1="345.1719" y2="372.1719"/><polygon fill="#181818" points="199.1892,362.1719,203.1892,372.1719,207.1892,362.1719,203.1892,366.1719" style="stroke:#181818;stroke-width:1;"/><line style="stroke:#181818;stroke-width:1;" x1="203.1892" x2="203.1892" y1="83.9688" y2="130.2656"/><polygon fill="#181818" points="199.1892,120.2656,203.1892,130.2656,207.1892,120.2656,203.1892,124.2656" style="stroke:#181818;stroke-width:1;"/><!--SRC=[ZP2nQiD038PtFOKWG-on7PsXb2P3eNJgal5obksZojqXgOQyVOITK2WTSeE6NvzE7r8BOj1zbF4mKxOTm2Zbf-9hhPHxahUIJGe3T7-IJGpCzwnfVJ0DsBmhCgcYqan2Q1Db33S8XGOFSoHdPkANTkqt5z8MqD-cflpTxPF68FrkYNgo42SWLi8cbvNRujVaduGJCQPpbJAJhwmXfZmkmDeAp-2Bqx2OkIfV_dCP4Xl9tML_-3m-AcFuIp-gz7HJyehBfK6jr2i0]--></g></svg>