<svg xmlns="http://www.w3.org/2000/svg" xmlns:xlink="http://www.w3.org/1999/xlink" contentStyleType="text/css" data-diagram-type="CLASS" height="614px" preserveAspectRatio="none" style="width:558px;height:614px;background:#FFFFFF;" version="1.1" viewBox="0 0 558 614" width="558px" zoomAndPan="magnify"><defs/><g><!--class Configuration--><g class="entity" data-entity="Configuration" data-source-line="1" data-uid="ent0002" id="entity_Configuration"><rect fill="#F1F1F1" height="129.4844" rx="2.5" ry="2.5" style="stroke:#181818;stroke-width:0.5;" width="323.1514" x="7" y="7"/><ellipse cx="116.8535" cy="23" fill="#ADD1B2" rx="11" ry="11" style="stroke:#181818;stroke-width:1;"/><path d="M119.8223,28.6406 Q119.2441,28.9375 118.6035,29.0781 Q117.9629,29.2344 117.2598,29.2344 Q114.7598,29.2344 113.4316,27.5938 Q112.1191,25.9375 112.1191,22.8125 Q112.1191,19.6875 113.4316,18.0313 Q114.7598,16.375 117.2598,16.375 Q117.9629,16.375 118.6035,16.5313 Q119.2598,16.6875 119.8223,16.9844 L119.8223,19.7031 Q119.1973,19.125 118.6035,18.8594 Q118.0098,18.5781 117.3848,18.5781 Q116.041,18.5781 115.3535,19.6563 Q114.666,20.7188 114.666,22.8125 Q114.666,24.9063 115.3535,25.9844 Q116.041,27.0469 117.3848,27.0469 Q118.0098,27.0469 118.6035,26.7813 Q119.1973,26.5 119.8223,25.9219 L119.8223,28.6406 Z " fill="#000000"/><text fill="#000000" font-family="sans-serif" font-size="14" lengthAdjust="spacing" textLength="94.9443" x="137.3535" y="27.8467">Configuration</text><line style="stroke:#181818;stroke-width:0.5;" x1="8" x2="329.1514" y1="39" y2="39"/><text fill="#000000" font-family="sans-serif" font-size="14" lengthAdjust="spacing" textLength="157.8555" x="13" y="55.9951">Appender[] appenders</text><text fill="#000000" font-family="sans-serif" font-size="14" lengthAdjust="spacing" textLength="72.707" x="13" y="72.292">Filter filter</text><text fill="#000000" font-family="sans-serif" font-size="14" lengthAdjust="spacing" textLength="205.6113" x="13" y="88.5889">LoggerConfig[] loggerConfigs</text><text fill="#000000" font-family="sans-serif" font-size="14" lengthAdjust="spacing" textLength="177.9736" x="13" y="104.8857">StrSubstitutor substitutor</text><line style="stroke:#181818;stroke-width:0.5;" x1="8" x2="329.1514" y1="112.1875" y2="112.1875"/><text fill="#000000" font-family="sans-serif" font-size="14" lengthAdjust="spacing" textLength="311.1514" x="13" y="129.1826">LoggerConfig getLoggerConfig(String name)</text></g><!--class Filter--><g class="entity" data-entity="Filter" data-source-line="9" data-uid="ent0003" id="entity_Filter"><rect fill="#F1F1F1" height="64.2969" rx="2.5" ry="2.5" style="stroke:#181818;stroke-width:2;" width="169.1855" x="128.98" y="542.86"/><ellipse cx="191.4776" cy="558.86" fill="#ADD1B2" rx="11" ry="11" style="stroke:#181818;stroke-width:1;"/><path d="M194.4463,564.5006 Q193.8682,564.7975 193.2276,564.9381 Q192.5869,565.0944 191.8838,565.0944 Q189.3838,565.0944 188.0557,563.4538 Q186.7432,561.7975 186.7432,558.6725 Q186.7432,555.5475 188.0557,553.8913 Q189.3838,552.235 191.8838,552.235 Q192.5869,552.235 193.2276,552.3913 Q193.8838,552.5475 194.4463,552.8444 L194.4463,555.5631 Q193.8213,554.985 193.2276,554.7194 Q192.6338,554.4381 192.0088,554.4381 Q190.6651,554.4381 189.9776,555.5163 Q189.2901,556.5788 189.2901,558.6725 Q189.2901,560.7663 189.9776,561.8444 Q190.6651,562.9069 192.0088,562.9069 Q192.6338,562.9069 193.2276,562.6413 Q193.8213,562.36 194.4463,561.7819 L194.4463,564.5006 Z " fill="#000000"/><text fill="#000000" font-family="sans-serif" font-size="14" lengthAdjust="spacing" textLength="35.6904" x="211.9776" y="563.7067">Filter</text><line style="stroke:#181818;stroke-width:2;" x1="129.98" x2="297.1655" y1="574.86" y2="574.86"/><line style="stroke:#181818;stroke-width:2;" x1="129.98" x2="297.1655" y1="582.86" y2="582.86"/><text fill="#000000" font-family="sans-serif" font-size="14" lengthAdjust="spacing" textLength="157.1855" x="134.98" y="599.8551">Result filter(LogEvent)</text></g><!--class LoggerConfig--><g class="entity" data-entity="LoggerConfig" data-source-line="11" data-uid="ent0005" id="entity_LoggerConfig"><rect fill="#F1F1F1" height="129.4844" rx="2.5" ry="2.5" style="stroke:#181818;stroke-width:0.5;" width="271.6836" x="136.73" y="196.49"/><ellipse cx="221.6084" cy="212.49" fill="#ADD1B2" rx="11" ry="11" style="stroke:#181818;stroke-width:1;"/><path d="M224.5772,218.1306 Q223.999,218.4275 223.3584,218.5681 Q222.7178,218.7244 222.0147,218.7244 Q219.5147,218.7244 218.1865,217.0837 Q216.874,215.4275 216.874,212.3025 Q216.874,209.1775 218.1865,207.5212 Q219.5147,205.865 222.0147,205.865 Q222.7178,205.865 223.3584,206.0212 Q224.0147,206.1775 224.5772,206.4744 L224.5772,209.1931 Q223.9522,208.615 223.3584,208.3494 Q222.7647,208.0681 222.1397,208.0681 Q220.7959,208.0681 220.1084,209.1462 Q219.4209,210.2087 219.4209,212.3025 Q219.4209,214.3962 220.1084,215.4744 Q220.7959,216.5369 222.1397,216.5369 Q222.7647,216.5369 223.3584,216.2712 Q223.9522,215.99 224.5772,215.4119 L224.5772,218.1306 Z " fill="#000000"/><text fill="#000000" font-family="sans-serif" font-size="14" lengthAdjust="spacing" textLength="93.4268" x="242.1084" y="217.3367">LoggerConfig</text><line style="stroke:#181818;stroke-width:0.5;" x1="137.73" x2="407.4136" y1="228.49" y2="228.49"/><text fill="#000000" font-family="sans-serif" font-size="14" lengthAdjust="spacing" textLength="204.3945" x="142.73" y="245.4851">AppenderRef[] appenderRefs</text><text fill="#000000" font-family="sans-serif" font-size="14" lengthAdjust="spacing" textLength="259.6836" x="142.73" y="261.782">AppenderControl[] appenderControls</text><text fill="#000000" font-family="sans-serif" font-size="14" lengthAdjust="spacing" textLength="74.9424" x="142.73" y="278.0789">Level level</text><text fill="#000000" font-family="sans-serif" font-size="14" lengthAdjust="spacing" textLength="72.707" x="142.73" y="294.3757">Filter filter</text><line style="stroke:#181818;stroke-width:0.5;" x1="137.73" x2="407.4136" y1="301.6775" y2="301.6775"/><text fill="#000000" font-family="sans-serif" font-size="14" lengthAdjust="spacing" textLength="131.7012" x="142.73" y="318.6726">void log(LogEvent)</text></g><!--class AppenderRef--><g class="entity" data-entity="AppenderRef" data-source-line="25" data-uid="ent0007" id="entity_AppenderRef"><rect fill="#F1F1F1" height="96.8906" rx="2.5" ry="2.5" style="stroke:#181818;stroke-width:0.5;" width="166.6289" x="198.26" y="385.97"/><ellipse cx="232.73" cy="401.97" fill="#ADD1B2" rx="11" ry="11" style="stroke:#181818;stroke-width:1;"/><path d="M235.6987,407.6106 Q235.1206,407.9075 234.48,408.0481 Q233.8393,408.2044 233.1362,408.2044 Q230.6362,408.2044 229.3081,406.5637 Q227.9956,404.9075 227.9956,401.7825 Q227.9956,398.6575 229.3081,397.0012 Q230.6362,395.345 233.1362,395.345 Q233.8393,395.345 234.48,395.5012 Q235.1362,395.6575 235.6987,395.9544 L235.6987,398.6731 Q235.0737,398.095 234.48,397.8294 Q233.8862,397.5481 233.2612,397.5481 Q231.9175,397.5481 231.23,398.6262 Q230.5425,399.6887 230.5425,401.7825 Q230.5425,403.8762 231.23,404.9544 Q231.9175,406.0169 233.2612,406.0169 Q233.8862,406.0169 234.48,405.7512 Q235.0737,405.47 235.6987,404.8919 L235.6987,407.6106 Z " fill="#000000"/><text fill="#000000" font-family="sans-serif" font-size="14" lengthAdjust="spacing" textLength="91.3623" x="251.0566" y="406.8167">AppenderRef</text><line style="stroke:#181818;stroke-width:0.5;" x1="199.26" x2="363.8889" y1="417.97" y2="417.97"/><text fill="#000000" font-family="sans-serif" font-size="14" lengthAdjust="spacing" textLength="154.6289" x="204.26" y="434.9651">String appenderName</text><text fill="#000000" font-family="sans-serif" font-size="14" lengthAdjust="spacing" textLength="74.9424" x="204.26" y="451.262">Level level</text><text fill="#000000" font-family="sans-serif" font-size="14" lengthAdjust="spacing" textLength="72.707" x="204.26" y="467.5589">Filter filter</text><line style="stroke:#181818;stroke-width:0.5;" x1="199.26" x2="363.8889" y1="474.8606" y2="474.8606"/></g><!--class AppenderControl--><g class="entity" data-entity="AppenderControl" data-source-line="27" data-uid="ent0009" id="entity_AppenderControl"><rect fill="#F1F1F1" height="64.2969" rx="2.5" ry="2.5" style="stroke:#181818;stroke-width:0.5;" width="151.0068" x="400.07" y="402.27"/><ellipse cx="415.07" cy="418.27" fill="#ADD1B2" rx="11" ry="11" style="stroke:#181818;stroke-width:1;"/><path d="M418.0388,423.9106 Q417.4606,424.2075 416.82,424.3481 Q416.1794,424.5044 415.4763,424.5044 Q412.9763,424.5044 411.6481,422.8638 Q410.3356,421.2075 410.3356,418.0825 Q410.3356,414.9575 411.6481,413.3013 Q412.9763,411.645 415.4763,411.645 Q416.1794,411.645 416.82,411.8013 Q417.4763,411.9575 418.0388,412.2544 L418.0388,414.9731 Q417.4138,414.395 416.82,414.1294 Q416.2263,413.8481 415.6013,413.8481 Q414.2575,413.8481 413.57,414.9263 Q412.8825,415.9888 412.8825,418.0825 Q412.8825,420.1763 413.57,421.2544 Q414.2575,422.3169 415.6013,422.3169 Q416.2263,422.3169 416.82,422.0513 Q417.4138,421.77 418.0388,421.1919 L418.0388,423.9106 Z " fill="#000000"/><text fill="#000000" font-family="sans-serif" font-size="14" lengthAdjust="spacing" textLength="119.0068" x="429.07" y="423.1167">AppenderControl</text><line style="stroke:#181818;stroke-width:0.5;" x1="401.07" x2="550.0768" y1="434.27" y2="434.27"/><text fill="#000000" font-family="sans-serif" font-size="14" lengthAdjust="spacing" textLength="72.707" x="406.07" y="451.2651">Filter filter</text><line style="stroke:#181818;stroke-width:0.5;" x1="401.07" x2="550.0768" y1="458.5669" y2="458.5669"/></g><!--link Configuration to Filter--><g class="link" data-entity-1="Configuration" data-entity-2="Filter" data-source-line="9" data-uid="lnk4" id="link_Configuration_Filter"><path codeLine="9" d="M137.89,136.87 C130.37,155.65 123.39,176.52 119.58,196.49 C95.4,323.18 118.31,363.26 166.58,482.86 C174.84,503.34 183.2422,520.0952 192.6822,537.3652" fill="none" id="Configuration-to-Filter" style="stroke:#181818;stroke-width:1;"/><polygon fill="#181818" points="195.56,542.63,194.7532,532.8142,193.1618,538.2427,187.7334,536.6513,195.56,542.63" style="stroke:#181818;stroke-width:1;"/></g><!--link Configuration to LoggerConfig--><g class="link" data-entity-1="Configuration" data-entity-2="LoggerConfig" data-source-line="11" data-uid="lnk6" id="link_Configuration_LoggerConfig"><path codeLine="11" d="M204.08,136.74 C214.73,155.94 223.4996,171.7531 234.1496,190.9531" fill="none" id="Configuration-to-LoggerConfig" style="stroke:#181818;stroke-width:1;"/><polygon fill="#181818" points="237.06,196.2,236.1924,186.3894,234.6347,191.8276,229.1965,190.2699,237.06,196.2" style="stroke:#181818;stroke-width:1;"/><text fill="#000000" font-family="sans-serif" font-size="13" lengthAdjust="spacing" textLength="23.0356" x="208.92" y="185.3409">0..*</text></g><!--link LoggerConfig to AppenderRef--><g class="link" data-entity-1="LoggerConfig" data-entity-2="AppenderRef" data-source-line="25" data-uid="lnk8" id="link_LoggerConfig_AppenderRef"><path codeLine="25" d="M275.95,326.46 C276.99,346.1 277.7831,361.3484 278.7531,379.6884" fill="none" id="LoggerConfig-to-AppenderRef" style="stroke:#181818;stroke-width:1;"/><polygon fill="#181818" points="279.07,385.68,282.5891,376.4813,278.8059,380.687,274.6002,376.9038,279.07,385.68" style="stroke:#181818;stroke-width:1;"/><text fill="#000000" font-family="sans-serif" font-size="13" lengthAdjust="spacing" textLength="23.0356" x="254.1031" y="374.8481">0..*</text></g><!--link LoggerConfig to AppenderControl--><g class="link" data-entity-1="LoggerConfig" data-entity-2="AppenderControl" data-source-line="27" data-uid="lnk10" id="link_LoggerConfig_AppenderControl"><path codeLine="27" d="M348.74,326.46 C379.34,352.27 408.6436,376.9716 433.6836,398.0916" fill="none" id="LoggerConfig-to-AppenderControl" style="stroke:#008000;stroke-width:6;"/><polygon fill="#008000" points="438.27,401.96,433.9693,393.0997,434.448,398.7363,428.8114,399.215,438.27,401.96" style="stroke:#008000;stroke-width:6;"/><text fill="#000000" font-family="sans-serif" font-size="13" lengthAdjust="spacing" textLength="23.0356" x="405.6653" y="391.1732">0..*</text></g><!--link LoggerConfig to Filter--><g class="link" data-entity-1="LoggerConfig" data-entity-2="Filter" data-source-line="29" data-uid="lnk11" id="link_LoggerConfig_Filter"><path codeLine="29" d="M213.12,326.16 C199.83,344.21 187.6,364.75 180.58,385.97 C162.92,439.31 180.8203,498.9041 196.4803,536.8341" fill="none" id="LoggerConfig-to-Filter" style="stroke:#181818;stroke-width:1;"/><polygon fill="#181818" points="198.77,542.38,199.0327,532.5346,196.8619,537.7584,191.6381,535.5876,198.77,542.38" style="stroke:#181818;stroke-width:1;"/></g><!--link AppenderRef to Filter--><g class="link" data-entity-1="AppenderRef" data-entity-2="Filter" data-source-line="41" data-uid="lnk12" id="link_AppenderRef_Filter"><path codeLine="41" d="M258.17,483.11 C248.49,502.85 240.1828,519.7834 231.5528,537.3734" fill="none" id="AppenderRef-to-Filter" style="stroke:#181818;stroke-width:1;"/><polygon fill="#181818" points="228.91,542.76,236.4653,536.4419,231.1123,538.2711,229.2831,532.9182,228.91,542.76" style="stroke:#181818;stroke-width:1;"/></g><!--link AppenderControl to Filter--><g class="link" data-entity-1="AppenderControl" data-entity-2="Filter" data-source-line="43" data-uid="lnk13" id="link_AppenderControl_Filter"><path codeLine="43" d="M415.8,467.04 C373.05,489.65 321.084,517.1451 278.404,539.7151" fill="none" id="AppenderControl-to-Filter" style="stroke:#181818;stroke-width:1;"/><polygon fill="#181818" points="273.1,542.52,282.926,541.8487,277.52,540.1826,279.1861,534.7767,273.1,542.52" style="stroke:#181818;stroke-width:1;"/></g><!--SRC=[XL4zJyCm4DtzAqxjqY8QCR61X11CYA4TgmvfSZ4Mngvybooe_nt7STLB6ed5zldU-NsuiYKHl7hN6Ds6aertyAi0NaudT3M6_G7AVAHu_MuiOu0cRR7-y5fZ6COZr8gI9ctGoB9UxJWOfy6LFxYEs5ZksYEnuPPz0BgUrLcfiSBDvZbBcUii7ehYRZ4YLwfAHhF-fJKEYwEtTJAxHMejPrUhEFVMeUDrppkCZNp8UBROY8HYHQ8PyHoy5O1yawB13YtOVft9jVEcxjCSYnd944w5cYbelzG1qTtpbwc-7H8zFHvk1xEk6OPBoaCEWYZ5aB_mOkypVkK_rixJfp9rUku6AlcackdmjVS7]--></g></svg>