<?plantuml 1.2026.1?><svg xmlns="http://www.w3.org/2000/svg" xmlns:xlink="http://www.w3.org/1999/xlink" contentStyleType="text/css" data-diagram-type="ACTIVITY" height="333px" preserveAspectRatio="none" style="width:471px;height:333px;background:#FFFFFF;" version="1.1" viewBox="0 0 471 333" width="471px" zoomAndPan="magnify"><defs/><g><rect fill="#FFFFCC" height="48.2813" rx="2.5" ry="2.5" style="stroke:#FFDD88;stroke-width:3;" width="460.5176" x="5" y="5"/><text fill="#000000" font-family="monospace" font-size="10" lengthAdjust="spacing" textLength="445.5176" x="10" y="20">You&#160;should&#160;use&#160;a&#160;bracket&#160;({)&#160;when&#160;defining&#160;your&#160;container&#160;'group'&#160;Appender</text><text fill="#000000" font-family="monospace" font-size="10" lengthAdjust="spacing" textLength="307.0459" x="10" y="41.6406">You&#160;should&#160;use&#160;a&#160;bracket&#160;(})&#160;instead&#160;of&#160;'end&#160;group'</text><ellipse cx="135.8411" cy="78.2813" fill="#222222" rx="10" ry="10" style="stroke:#222222;stroke-width:1;"/><rect fill="#F1F1F1" height="33.9688" rx="12.5" ry="12.5" style="stroke:#181818;stroke-width:0.5;" width="76.0215" x="97.8303" y="108.2813"/><text fill="#000000" font-family="sans-serif" font-size="12" lengthAdjust="spacing" textLength="56.0215" x="107.8303" y="129.4199">LogEvent</text><rect fill="none" height="116.2656" style="stroke:#000000;stroke-width:1.5;" width="256.8975" x="11" y="152.25"/><path d="M89.0928,152.25 L89.0928,161.5469 L79.0928,171.5469 L11,171.5469" fill="none" style="stroke:#000000;stroke-width:1.5;"/><text fill="#000000" font-family="sans-serif" font-size="14" lengthAdjust="spacing" textLength="68.0928" x="14" y="166.2451">Appender</text><polygon fill="#F1F1F1" points="77.6641,188.5469,194.0181,188.5469,206.0181,200.5469,194.0181,212.5469,77.6641,212.5469,65.6641,200.5469,77.6641,188.5469" style="stroke:#181818;stroke-width:0.5;"/><text fill="#000000" font-family="sans-serif" font-size="11" lengthAdjust="spacing" textLength="116.354" x="77.6641" y="204.355">Apply appender filter</text><text fill="#000000" font-family="sans-serif" font-size="11" lengthAdjust="spacing" textLength="30.3682" x="35.2959" y="197.9526">DENY</text><text fill="#000000" font-family="sans-serif" font-size="11" lengthAdjust="spacing" textLength="51.8794" x="206.0181" y="197.9526">not DENY</text><rect fill="#FFC0CB" height="33.9688" rx="12.5" ry="12.5" style="stroke:#181818;stroke-width:0.5;" width="65.3281" x="23" y="222.5469"/><text fill="#000000" font-family="sans-serif" font-size="12" lengthAdjust="spacing" textLength="45.3281" x="33" y="243.6855">Discard</text><rect fill="#98FB98" height="33.9688" rx="12.5" ry="12.5" style="stroke:#181818;stroke-width:0.5;" width="142.9766" x="64.3528" y="288.5156"/><text fill="#000000" font-family="sans-serif" font-size="12" lengthAdjust="spacing" textLength="122.9766" x="74.3528" y="309.6543">Appender#append()</text><line style="stroke:#181818;stroke-width:1;" x1="135.8411" x2="135.8411" y1="88.2813" y2="108.2813"/><polygon fill="#181818" points="131.8411,98.2813,135.8411,108.2813,139.8411,98.2813,135.8411,102.2813" style="stroke:#181818;stroke-width:1;"/><line style="stroke:#181818;stroke-width:1;" x1="65.6641" x2="55.6641" y1="200.5469" y2="200.5469"/><line style="stroke:#181818;stroke-width:1;" x1="55.6641" x2="55.6641" y1="200.5469" y2="222.5469"/><polygon fill="#181818" points="51.6641,212.5469,55.6641,222.5469,59.6641,212.5469,55.6641,216.5469" style="stroke:#181818;stroke-width:1;"/><line style="stroke:#181818;stroke-width:1;" x1="206.0181" x2="216.0181" y1="200.5469" y2="200.5469"/><line style="stroke:#181818;stroke-width:1;" x1="216.0181" x2="216.0181" y1="200.5469" y2="261.5156"/><line style="stroke:#181818;stroke-width:1;" x1="216.0181" x2="135.8411" y1="261.5156" y2="261.5156"/><line style="stroke:#181818;stroke-width:1;" x1="135.8411" x2="135.8411" y1="261.5156" y2="288.5156"/><polygon fill="#181818" points="131.8411,278.5156,135.8411,288.5156,139.8411,278.5156,135.8411,282.5156" style="stroke:#181818;stroke-width:1;"/><line style="stroke:#181818;stroke-width:1;" x1="135.8411" x2="135.8411" y1="142.25" y2="188.5469"/><polygon fill="#181818" points="131.8411,178.5469,135.8411,188.5469,139.8411,178.5469,135.8411,182.5469" style="stroke:#181818;stroke-width:1;"/><?plantuml-src HOwn3i8m34HtVuMb3gGZQpiXbGqniJ2QraqjWcCbeH9_Jsb1U3Z9ToVTouLIWUOK_N5cBIs0J_5fU31Z7JW1o8Xk-S8BwUlXAA5mgh5ChEYwu_bQ0ovNcUYzwIJtb8PsjGOkr4_08JCwZGN_xHrU9iP0Dmue3qjnvepPg1VrQs6BQ0_BgemVnHKEAgF0FZ5hy-EiDZXNjsy0?></g></svg>