<svg xmlns="http://www.w3.org/2000/svg" xmlns:xlink="http://www.w3.org/1999/xlink" contentStyleType="text/css" data-diagram-type="CLASS" height="548px" preserveAspectRatio="none" style="width:337px;height:548px;background:#FFFFFF;" version="1.1" viewBox="0 0 337 548" width="337px" zoomAndPan="magnify"><defs/><g><!--class Configuration--><g class="entity" data-entity="Configuration" data-source-line="1" data-uid="ent0002" id="entity_Configuration"><rect fill="#F1F1F1" height="129.4844" rx="2.5" ry="2.5" style="stroke:#181818;stroke-width:0.5;" width="323.1514" x="7" y="7"/><ellipse cx="116.8535" cy="23" fill="#ADD1B2" rx="11" ry="11" style="stroke:#181818;stroke-width:1;"/><path d="M119.8223,28.6406 Q119.2441,28.9375 118.6035,29.0781 Q117.9629,29.2344 117.2598,29.2344 Q114.7598,29.2344 113.4316,27.5938 Q112.1191,25.9375 112.1191,22.8125 Q112.1191,19.6875 113.4316,18.0313 Q114.7598,16.375 117.2598,16.375 Q117.9629,16.375 118.6035,16.5313 Q119.2598,16.6875 119.8223,16.9844 L119.8223,19.7031 Q119.1973,19.125 118.6035,18.8594 Q118.0098,18.5781 117.3848,18.5781 Q116.041,18.5781 115.3535,19.6563 Q114.666,20.7188 114.666,22.8125 Q114.666,24.9063 115.3535,25.9844 Q116.041,27.0469 117.3848,27.0469 Q118.0098,27.0469 118.6035,26.7813 Q119.1973,26.5 119.8223,25.9219 L119.8223,28.6406 Z " fill="#000000"/><text fill="#000000" font-family="sans-serif" font-size="14" lengthAdjust="spacing" textLength="94.9443" x="137.3535" y="27.8467">Configuration</text><line style="stroke:#181818;stroke-width:0.5;" x1="8" x2="329.1514" y1="39" y2="39"/><text fill="#000000" font-family="sans-serif" font-size="14" lengthAdjust="spacing" textLength="157.8555" x="13" y="55.9951">Appender[] appenders</text><text fill="#000000" font-family="sans-serif" font-size="14" lengthAdjust="spacing" textLength="90.9248" x="13" y="72.292">Filter[] filters</text><text fill="#000000" font-family="sans-serif" font-size="14" lengthAdjust="spacing" textLength="205.6113" x="13" y="88.5889">LoggerConfig[] loggerConfigs</text><text fill="#000000" font-family="sans-serif" font-size="14" lengthAdjust="spacing" textLength="177.9736" x="13" y="104.8857">StrSubstitutor substitutor</text><line style="stroke:#181818;stroke-width:0.5;" x1="8" x2="329.1514" y1="112.1875" y2="112.1875"/><text fill="#000000" font-family="sans-serif" font-size="14" lengthAdjust="spacing" textLength="311.1514" x="13" y="129.1826">LoggerConfig getLoggerConfig(String name)</text></g><!--class StrSubstitutor--><g class="entity" data-entity="StrSubstitutor" data-source-line="9" data-uid="ent0003" id="entity_StrSubstitutor"><rect fill="#F1F1F1" height="80.5938" rx="2.5" ry="2.5" style="stroke:#181818;stroke-width:2;" width="203.4336" x="66.86" y="196.49"/><ellipse cx="115.5148" cy="212.49" fill="#ADD1B2" rx="11" ry="11" style="stroke:#181818;stroke-width:1;"/><path d="M118.4835,218.1306 Q117.9054,218.4275 117.2648,218.5681 Q116.6242,218.7244 115.921,218.7244 Q113.421,218.7244 112.0929,217.0838 Q110.7804,215.4275 110.7804,212.3025 Q110.7804,209.1775 112.0929,207.5213 Q113.421,205.865 115.921,205.865 Q116.6242,205.865 117.2648,206.0213 Q117.921,206.1775 118.4835,206.4744 L118.4835,209.1931 Q117.8585,208.615 117.2648,208.3494 Q116.671,208.0681 116.046,208.0681 Q114.7023,208.0681 114.0148,209.1463 Q113.3273,210.2088 113.3273,212.3025 Q113.3273,214.3963 114.0148,215.4744 Q114.7023,216.5369 116.046,216.5369 Q116.671,216.5369 117.2648,216.2713 Q117.8585,215.99 118.4835,215.4119 L118.4835,218.1306 Z " fill="#000000"/><text fill="#000000" font-family="sans-serif" font-size="14" lengthAdjust="spacing" textLength="97.624" x="136.0148" y="217.3367">StrSubstitutor</text><line style="stroke:#181818;stroke-width:2;" x1="67.86" x2="269.2936" y1="228.49" y2="228.49"/><text fill="#000000" font-family="sans-serif" font-size="14" lengthAdjust="spacing" textLength="169.3945" x="72.86" y="245.4851">Interpolator interpolator</text><line style="stroke:#181818;stroke-width:2;" x1="67.86" x2="269.2936" y1="252.7869" y2="252.7869"/><text fill="#000000" font-family="sans-serif" font-size="14" lengthAdjust="spacing" textLength="191.4336" x="72.86" y="269.782">String replace(String input)</text></g><!--class Interpolator--><g class="entity" data-entity="Interpolator" data-source-line="16" data-uid="ent0005" id="entity_Interpolator"><rect fill="#F1F1F1" height="80.5938" rx="2.5" ry="2.5" style="stroke:#181818;stroke-width:0.5;" width="198.2861" x="69.43" y="337.08"/><ellipse cx="123.0272" cy="353.08" fill="#ADD1B2" rx="11" ry="11" style="stroke:#181818;stroke-width:1;"/><path d="M125.9959,358.7206 Q125.4178,359.0175 124.7772,359.1581 Q124.1365,359.3144 123.4334,359.3144 Q120.9334,359.3144 119.6053,357.6738 Q118.2928,356.0175 118.2928,352.8925 Q118.2928,349.7675 119.6053,348.1113 Q120.9334,346.455 123.4334,346.455 Q124.1365,346.455 124.7772,346.6113 Q125.4334,346.7675 125.9959,347.0644 L125.9959,349.7831 Q125.3709,349.205 124.7772,348.9394 Q124.1834,348.6581 123.5584,348.6581 Q122.2147,348.6581 121.5272,349.7363 Q120.8397,350.7988 120.8397,352.8925 Q120.8397,354.9863 121.5272,356.0644 Q122.2147,357.1269 123.5584,357.1269 Q124.1834,357.1269 124.7772,356.8613 Q125.3709,356.58 125.9959,356.0019 L125.9959,358.7206 Z " fill="#000000"/><text fill="#000000" font-family="sans-serif" font-size="14" lengthAdjust="spacing" textLength="82.5918" x="143.5272" y="357.9267">Interpolator</text><line style="stroke:#181818;stroke-width:0.5;" x1="70.43" x2="266.7161" y1="369.08" y2="369.08"/><text fill="#000000" font-family="sans-serif" font-size="14" lengthAdjust="spacing" textLength="140.4854" x="75.43" y="386.0751">StrLookup[] lookups</text><line style="stroke:#181818;stroke-width:0.5;" x1="70.43" x2="266.7161" y1="393.3769" y2="393.3769"/><text fill="#000000" font-family="sans-serif" font-size="14" lengthAdjust="spacing" textLength="186.2861" x="75.43" y="410.372">String lookup(String input)</text></g><!--class StrLookup--><g class="entity" data-entity="StrLookup" data-source-line="23" data-uid="ent0007" id="entity_StrLookup"><rect fill="#F1F1F1" height="64.2969" rx="2.5" ry="2.5" style="stroke:#181818;stroke-width:0.5;" width="198.2861" x="69.43" y="477.67"/><ellipse cx="128.8582" cy="493.67" fill="#ADD1B2" rx="11" ry="11" style="stroke:#181818;stroke-width:1;"/><path d="M131.827,499.3106 Q131.2488,499.6075 130.6082,499.7481 Q129.9676,499.9044 129.2645,499.9044 Q126.7645,499.9044 125.4363,498.2638 Q124.1238,496.6075 124.1238,493.4825 Q124.1238,490.3575 125.4363,488.7013 Q126.7645,487.045 129.2645,487.045 Q129.9676,487.045 130.6082,487.2013 Q131.2645,487.3575 131.827,487.6544 L131.827,490.3731 Q131.202,489.795 130.6082,489.5294 Q130.0145,489.2481 129.3895,489.2481 Q128.0457,489.2481 127.3582,490.3263 Q126.6707,491.3888 126.6707,493.4825 Q126.6707,495.5763 127.3582,496.6544 Q128.0457,497.7169 129.3895,497.7169 Q130.0145,497.7169 130.6082,497.4513 Q131.202,497.17 131.827,496.5919 L131.827,499.3106 Z " fill="#000000"/><text fill="#000000" font-family="sans-serif" font-size="14" lengthAdjust="spacing" textLength="70.9297" x="149.3582" y="498.5167">StrLookup</text><line style="stroke:#181818;stroke-width:0.5;" x1="70.43" x2="266.7161" y1="509.67" y2="509.67"/><line style="stroke:#181818;stroke-width:0.5;" x1="70.43" x2="266.7161" y1="517.67" y2="517.67"/><text fill="#000000" font-family="sans-serif" font-size="14" lengthAdjust="spacing" textLength="186.2861" x="75.43" y="534.6651">String lookup(String input)</text></g><!--link Configuration to StrSubstitutor--><g class="link" data-entity-1="Configuration" data-entity-2="StrSubstitutor" data-source-line="9" data-uid="lnk4" id="link_Configuration_StrSubstitutor"><path codeLine="9" d="M168.58,136.71 C168.58,156.87 168.58,172.54 168.58,190.45" fill="none" id="Configuration-to-StrSubstitutor" style="stroke:#181818;stroke-width:1;"/><polygon fill="#181818" points="168.58,196.45,172.58,187.45,168.58,191.45,164.58,187.45,168.58,196.45" style="stroke:#181818;stroke-width:1;"/></g><!--link StrSubstitutor to Interpolator--><g class="link" data-entity-1="StrSubstitutor" data-entity-2="Interpolator" data-source-line="16" data-uid="lnk6" id="link_StrSubstitutor_Interpolator"><path codeLine="16" d="M168.58,277.5 C168.58,296.06 168.58,312.1 168.58,330.66" fill="none" id="StrSubstitutor-to-Interpolator" style="stroke:#181818;stroke-width:1;"/><polygon fill="#181818" points="168.58,336.66,172.58,327.66,168.58,331.66,164.58,327.66,168.58,336.66" style="stroke:#181818;stroke-width:1;"/></g><!--link Interpolator to StrLookup--><g class="link" data-entity-1="Interpolator" data-entity-2="StrLookup" data-source-line="23" data-uid="lnk8" id="link_Interpolator_StrLookup"><path codeLine="23" d="M168.58,417.87 C168.58,436.91 168.58,453.45 168.58,471.32" fill="none" id="Interpolator-to-StrLookup" style="stroke:#181818;stroke-width:1;"/><polygon fill="#181818" points="168.58,477.32,172.58,468.32,168.58,472.32,164.58,468.32,168.58,477.32" style="stroke:#181818;stroke-width:1;"/><text fill="#000000" font-family="sans-serif" font-size="13" lengthAdjust="spacing" textLength="23.0356" x="143.3208" y="466.5253">0..*</text></g><!--SRC=[TP3D2i8m48JlUOfGBrPeyGa44GIXjnx5Gzgc8HWt8J-duhkR7qlJYhUTsV3DR7f1ZC4N2IDdJXFB9U09ONnMYi90zVs1oNSqthvoOQCvnY5OZMICwaJm2v79xHepQdEzRwtcm32G5otzMozRrndBhRDIOxFCw8tGkcHLdJRl4UhZCHlAJd2WTIV540-xWU-jf21XnpEHyaCTJPKWFPtRSL3Ebg71XXmgvBYvm2fYIjn6ogTJyN_2O9QqPFo6hIWXgZZMzQ5OODczoPYp_bC_]--></g></svg>