<?xml version="1.0" encoding="us-ascii" standalone="no"?><svg xmlns="http://www.w3.org/2000/svg" xmlns:xlink="http://www.w3.org/1999/xlink" contentStyleType="text/css" height="614px" preserveAspectRatio="none" style="width:551px;height:614px;background:#FFFFFF;" version="1.1" viewBox="0 0 551 614" width="551px" zoomAndPan="magnify"><defs/><g><!--class Configuration--><g id="elem_Configuration"><rect codeLine="1" fill="#F1F1F1" height="129.4844" id="Configuration" rx="2.5" ry="2.5" style="stroke:#181818;stroke-width:0.5;" width="316" x="7" y="7"/><ellipse cx="114.75" cy="23" fill="#ADD1B2" rx="11" ry="11" style="stroke:#181818;stroke-width:1.0;"/><path d="M117.7188,28.6406 Q117.1406,28.9375 116.5,29.0781 Q115.8594,29.2344 115.1563,29.2344 Q112.6563,29.2344 111.3281,27.5938 Q110.0156,25.9375 110.0156,22.8125 Q110.0156,19.6875 111.3281,18.0313 Q112.6563,16.375 115.1563,16.375 Q115.8594,16.375 116.5,16.5313 Q117.1563,16.6875 117.7188,16.9844 L117.7188,19.7031 Q117.0938,19.125 116.5,18.8594 Q115.9063,18.5781 115.2813,18.5781 Q113.9375,18.5781 113.25,19.6563 Q112.5625,20.7188 112.5625,22.8125 Q112.5625,24.9063 113.25,25.9844 Q113.9375,27.0469 115.2813,27.0469 Q115.9063,27.0469 116.5,26.7813 Q117.0938,26.5 117.7188,25.9219 L117.7188,28.6406 Z " fill="#000000"/><text fill="#000000" font-family="sans-serif" font-size="14" lengthAdjust="spacing" textLength="92" x="135.25" y="27.8467">Configuration</text><line style="stroke:#181818;stroke-width:0.5;" x1="8" x2="322" y1="39" y2="39"/><text fill="#000000" font-family="sans-serif" font-size="14" lengthAdjust="spacing" textLength="157" x="13" y="55.9951">Appender[] appenders</text><text fill="#000000" font-family="sans-serif" font-size="14" lengthAdjust="spacing" textLength="84" x="13" y="72.292">Filter[] filters</text><text fill="#000000" font-family="sans-serif" font-size="14" lengthAdjust="spacing" textLength="202" x="13" y="88.5889">LoggerConfig[] loggerConfigs</text><text fill="#000000" font-family="sans-serif" font-size="14" lengthAdjust="spacing" textLength="174" x="13" y="104.8857">StrSubstitutor substitutor</text><line style="stroke:#181818;stroke-width:0.5;" x1="8" x2="322" y1="112.1875" y2="112.1875"/><text fill="#000000" font-family="sans-serif" font-size="14" lengthAdjust="spacing" textLength="304" x="13" y="129.1826">LoggerConfig getLoggerConfig(String name)</text></g><!--class Filter--><g id="elem_Filter"><rect codeLine="13" fill="#F1F1F1" height="64.2969" id="Filter" rx="2.5" ry="2.5" style="stroke:#181818;stroke-width:2.0;" width="163" x="128.5" y="542.86"/><ellipse cx="189.25" cy="558.86" fill="#ADD1B2" rx="11" ry="11" style="stroke:#181818;stroke-width:1.0;"/><path d="M192.2188,564.5006 Q191.6406,564.7975 191,564.9381 Q190.3594,565.0944 189.6563,565.0944 Q187.1563,565.0944 185.8281,563.4538 Q184.5156,561.7975 184.5156,558.6725 Q184.5156,555.5475 185.8281,553.8913 Q187.1563,552.235 189.6563,552.235 Q190.3594,552.235 191,552.3913 Q191.6563,552.5475 192.2188,552.8444 L192.2188,555.5631 Q191.5938,554.985 191,554.7194 Q190.4063,554.4381 189.7813,554.4381 Q188.4375,554.4381 187.75,555.5163 Q187.0625,556.5788 187.0625,558.6725 Q187.0625,560.7663 187.75,561.8444 Q188.4375,562.9069 189.7813,562.9069 Q190.4063,562.9069 191,562.6413 Q191.5938,562.36 192.2188,561.7819 L192.2188,564.5006 Z " fill="#000000"/><text fill="#000000" font-family="sans-serif" font-size="14" lengthAdjust="spacing" textLength="33" x="209.75" y="563.7067">Filter</text><line style="stroke:#181818;stroke-width:2.0;" x1="129.5" x2="290.5" y1="574.86" y2="574.86"/><line style="stroke:#181818;stroke-width:2.0;" x1="129.5" x2="290.5" y1="582.86" y2="582.86"/><text fill="#000000" font-family="sans-serif" font-size="14" lengthAdjust="spacing" textLength="151" x="134.5" y="599.8551">Result filter(LogEvent)</text></g><!--class LoggerConfig--><g id="elem_LoggerConfig"><rect codeLine="17" fill="#F1F1F1" height="129.4844" id="LoggerConfig" rx="2.5" ry="2.5" style="stroke:#181818;stroke-width:0.5;" width="269" x="133.5" y="196.49"/><ellipse cx="217.75" cy="212.49" fill="#ADD1B2" rx="11" ry="11" style="stroke:#181818;stroke-width:1.0;"/><path d="M220.7188,218.1306 Q220.1406,218.4275 219.5,218.5681 Q218.8594,218.7244 218.1563,218.7244 Q215.6563,218.7244 214.3281,217.0837 Q213.0156,215.4275 213.0156,212.3025 Q213.0156,209.1775 214.3281,207.5212 Q215.6563,205.865 218.1563,205.865 Q218.8594,205.865 219.5,206.0212 Q220.1563,206.1775 220.7188,206.4744 L220.7188,209.1931 Q220.0938,208.615 219.5,208.3494 Q218.9063,208.0681 218.2813,208.0681 Q216.9375,208.0681 216.25,209.1462 Q215.5625,210.2087 215.5625,212.3025 Q215.5625,214.3962 216.25,215.4744 Q216.9375,216.5369 218.2813,216.5369 Q218.9063,216.5369 219.5,216.2712 Q220.0938,215.99 220.7188,215.4119 L220.7188,218.1306 Z " fill="#000000"/><text fill="#000000" font-family="sans-serif" font-size="14" lengthAdjust="spacing" textLength="92" x="238.25" y="217.3367">LoggerConfig</text><line style="stroke:#181818;stroke-width:0.5;" x1="134.5" x2="401.5" y1="228.49" y2="228.49"/><text fill="#000000" font-family="sans-serif" font-size="14" lengthAdjust="spacing" textLength="203" x="139.5" y="245.4851">AppenderRef[] appenderRefs</text><text fill="#000000" font-family="sans-serif" font-size="14" lengthAdjust="spacing" textLength="257" x="139.5" y="261.782">AppenderControl[] appenderControls</text><text fill="#000000" font-family="sans-serif" font-size="14" lengthAdjust="spacing" textLength="70" x="139.5" y="278.0789">Level level</text><text fill="#000000" font-family="sans-serif" font-size="14" lengthAdjust="spacing" textLength="66" x="139.5" y="294.3757">Filter filter</text><line style="stroke:#181818;stroke-width:0.5;" x1="134.5" x2="401.5" y1="301.6775" y2="301.6775"/><text fill="#000000" font-family="sans-serif" font-size="14" lengthAdjust="spacing" textLength="127" x="139.5" y="318.6726">void log(LogEvent)</text></g><!--class AppenderRef--><g id="elem_AppenderRef"><rect codeLine="31" fill="#F1F1F1" height="96.8906" id="AppenderRef" rx="2.5" ry="2.5" style="stroke:#181818;stroke-width:0.5;" width="163" x="196.5" y="385.97"/><ellipse cx="229.5" cy="401.97" fill="#ADD1B2" rx="11" ry="11" style="stroke:#181818;stroke-width:1.0;"/><path d="M232.4688,407.6106 Q231.8906,407.9075 231.25,408.0481 Q230.6094,408.2044 229.9063,408.2044 Q227.4063,408.2044 226.0781,406.5637 Q224.7656,404.9075 224.7656,401.7825 Q224.7656,398.6575 226.0781,397.0012 Q227.4063,395.345 229.9063,395.345 Q230.6094,395.345 231.25,395.5012 Q231.9063,395.6575 232.4688,395.9544 L232.4688,398.6731 Q231.8438,398.095 231.25,397.8294 Q230.6563,397.5481 230.0313,397.5481 Q228.6875,397.5481 228,398.6262 Q227.3125,399.6887 227.3125,401.7825 Q227.3125,403.8762 228,404.9544 Q228.6875,406.0169 230.0313,406.0169 Q230.6563,406.0169 231.25,405.7512 Q231.8438,405.47 232.4688,404.8919 L232.4688,407.6106 Z " fill="#000000"/><text fill="#000000" font-family="sans-serif" font-size="14" lengthAdjust="spacing" textLength="91" x="247.5" y="406.8167">AppenderRef</text><line style="stroke:#181818;stroke-width:0.5;" x1="197.5" x2="358.5" y1="417.97" y2="417.97"/><text fill="#000000" font-family="sans-serif" font-size="14" lengthAdjust="spacing" textLength="151" x="202.5" y="434.9651">String appenderName</text><text fill="#000000" font-family="sans-serif" font-size="14" lengthAdjust="spacing" textLength="70" x="202.5" y="451.262">Level level</text><text fill="#000000" font-family="sans-serif" font-size="14" lengthAdjust="spacing" textLength="66" x="202.5" y="467.5589">Filter filter</text><line style="stroke:#181818;stroke-width:0.5;" x1="197.5" x2="358.5" y1="474.8606" y2="474.8606"/></g><!--class AppenderControl--><g id="elem_AppenderControl"><rect fill="#F1F1F1" height="48" id="AppenderControl" rx="2.5" ry="2.5" style="stroke:#181818;stroke-width:0.5;" width="150" x="394" y="410.42"/><ellipse cx="409" cy="426.42" fill="#ADD1B2" rx="11" ry="11" style="stroke:#181818;stroke-width:1.0;"/><path d="M411.9688,432.0606 Q411.3906,432.3575 410.75,432.4981 Q410.1094,432.6544 409.4063,432.6544 Q406.9063,432.6544 405.5781,431.0137 Q404.2656,429.3575 404.2656,426.2325 Q404.2656,423.1075 405.5781,421.4512 Q406.9063,419.795 409.4063,419.795 Q410.1094,419.795 410.75,419.9512 Q411.4063,420.1075 411.9688,420.4044 L411.9688,423.1231 Q411.3438,422.545 410.75,422.2794 Q410.1563,421.9981 409.5313,421.9981 Q408.1875,421.9981 407.5,423.0762 Q406.8125,424.1387 406.8125,426.2325 Q406.8125,428.3262 407.5,429.4044 Q408.1875,430.4669 409.5313,430.4669 Q410.1563,430.4669 410.75,430.2012 Q411.3438,429.92 411.9688,429.3419 L411.9688,432.0606 Z " fill="#000000"/><text fill="#000000" font-family="sans-serif" font-size="14" lengthAdjust="spacing" textLength="118" x="423" y="431.2667">AppenderControl</text><line style="stroke:#181818;stroke-width:0.5;" x1="395" x2="543" y1="442.42" y2="442.42"/><line style="stroke:#181818;stroke-width:0.5;" x1="395" x2="543" y1="450.42" y2="450.42"/></g><!--link Configuration to Filter--><g id="link_Configuration_Filter"><path codeLine="9" d="M134.31,136.87 C126.79,155.65 119.81,176.52 116,196.49 C91.8,323.33 117.03,362.98 165,482.86 C173.13,503.18 181.1746,519.8753 190.1646,537.1853 " fill="none" id="Configuration-to-Filter" style="stroke:#181818;stroke-width:1.0;"/><polygon fill="#181818" points="192.93,542.51,192.3317,532.6793,190.6255,538.0727,185.2321,536.3665,192.93,542.51" style="stroke:#181818;stroke-width:1.0;"/><text fill="#000000" font-family="sans-serif" font-size="13" lengthAdjust="spacing" textLength="23" x="164.3053" y="531.7153">0..*</text></g><!--link Configuration to LoggerConfig--><g id="link_Configuration_LoggerConfig"><path codeLine="11" d="M200.16,136.74 C210.71,155.94 219.3906,171.7415 229.9406,190.9415 " fill="none" id="Configuration-to-LoggerConfig" style="stroke:#181818;stroke-width:1.0;"/><polygon fill="#181818" points="232.83,196.2,232.0015,186.386,230.4222,191.818,224.9903,190.2386,232.83,196.2" style="stroke:#181818;stroke-width:1.0;"/><text fill="#000000" font-family="sans-serif" font-size="13" lengthAdjust="spacing" textLength="23" x="204.7255" y="185.3409">0..*</text></g><!--link LoggerConfig to AppenderRef--><g id="link_LoggerConfig_AppenderRef"><path codeLine="25" d="M271.75,326.46 C272.9,346.1 273.7905,361.3502 274.8605,379.6902 " fill="none" id="LoggerConfig-to-AppenderRef" style="stroke:#181818;stroke-width:1.0;"/><polygon fill="#181818" points="275.21,385.68,278.679,376.4623,274.9188,380.6885,270.6926,376.9283,275.21,385.68" style="stroke:#181818;stroke-width:1.0;"/><text fill="#000000" font-family="sans-serif" font-size="13" lengthAdjust="spacing" textLength="23" x="250.2005" y="374.8481">0..*</text></g><!--link LoggerConfig to AppenderControl--><g id="link_LoggerConfig_AppenderControl"><path codeLine="27" d="M343.42,326.46 C377.73,355.68 411.6322,384.5596 436.8522,406.0396 " fill="none" id="LoggerConfig-to-AppenderControl" style="stroke:#008000;stroke-width:6.0;"/><polygon fill="#008000" points="441.42,409.93,437.1619,401.0492,437.6135,406.688,431.9747,407.1396,441.42,409.93" style="stroke:#008000;stroke-width:6.0;"/><text fill="#000000" font-family="sans-serif" font-size="13" lengthAdjust="spacing" textLength="23" x="408.8943" y="399.2155">0..*</text></g><!--link LoggerConfig to Filter--><g id="link_LoggerConfig_Filter"><path codeLine="29" d="M210.46,326.42 C197.6,344.47 185.78,364.94 179,385.97 C161.8,439.35 178.7744,498.8961 193.6844,536.8161 " fill="none" id="LoggerConfig-to-Filter" style="stroke:#181818;stroke-width:1.0;"/><polygon fill="#181818" points="195.88,542.4,196.3092,532.5605,194.0504,537.7468,188.8641,535.4879,195.88,542.4" style="stroke:#181818;stroke-width:1.0;"/></g><!--link AppenderRef to Filter--><g id="link_AppenderRef_Filter"><path codeLine="37" d="M254.6,483.11 C244.92,502.85 236.6028,519.7834 227.9728,537.3734 " fill="none" id="AppenderRef-to-Filter" style="stroke:#181818;stroke-width:1.0;"/><polygon fill="#181818" points="225.33,542.76,232.8853,536.4419,227.5323,538.2711,225.7031,532.9182,225.33,542.76" style="stroke:#181818;stroke-width:1.0;"/></g><!--link AppenderControl to Filter--><g id="link_AppenderControl_Filter"><path codeLine="39" d="M425.36,458.77 C382.4,481.76 321.7805,514.1997 274.1905,539.6597 " fill="none" id="AppenderControl-to-Filter" style="stroke:#181818;stroke-width:1.0;"/><polygon fill="#181818" points="268.9,542.49,278.7226,541.7715,273.3087,540.1314,274.9488,534.7175,268.9,542.49" style="stroke:#181818;stroke-width:1.0;"/></g><!--SRC=[XL4xJyCm4DxzAqxjqY8QTUe64a8m8OPsh3gaoSLO6BkoBrbG_tilZWkNW62nxlqzNDaoHdZqhZ6w3IKPx-1J0JoSJkXg3Fi3b3cCN7usbbAnIK5VUl5QOnWkSCEATDe6ZIJpnOw2SHfS-O5BdkLqrnuZ6Mh91uZViJehDIQvMjt3R5qKDxDCwey1YQbKbIGFIp2tnc5nzBPEihSOMqjPtOBtdZfqjEpXXxMH76dK5XlX5MTHD7cUWhTY85UIGzYX1Tk_Nmvd1fnttjIzgMCo8nf2gM0p7ThFTK1qj_HcgdU7CTvj3ZyNCwzV4Auk3pu8e6H3_ichl5V-qN-aiGfvH49Co8ZU1G00]--></g></svg>