<svg xmlns="http://www.w3.org/2000/svg" xmlns:xlink="http://www.w3.org/1999/xlink" contentStyleType="text/css" data-diagram-type="MINDMAP" height="133px" preserveAspectRatio="none" style="width:358px;height:133px;background:#FFFFFF;" version="1.1" viewBox="0 0 358 133" width="358px" zoomAndPan="magnify"><?plantuml 1.2026.6?><defs/><g><rect fill="#F1F1F1" height="36.2969" rx="12.5" ry="12.5" style="stroke:#181818;stroke-width:1.5;" width="48.376" x="10" y="48.1484"/><text fill="#000000" font-family="sans-serif" font-size="14" lengthAdjust="spacing" textLength="28.376" x="20" y="71.1436">root</text><rect fill="#F1F1F1" height="36.2969" rx="12.5" ry="12.5" style="stroke:#181818;stroke-width:1.5;" width="29.5908" x="108.376" y="48.1484"/><text fill="#000000" font-family="sans-serif" font-size="14" lengthAdjust="spacing" textLength="9.5908" x="118.376" y="71.1436">X</text><rect fill="#F1F1F1" height="36.2969" rx="12.5" ry="12.5" style="stroke:#181818;stroke-width:1.5;" width="42.5928" x="187.9668" y="20"/><text fill="#000000" font-family="sans-serif" font-size="14" lengthAdjust="spacing" textLength="22.5928" x="197.9668" y="42.9951">X.Y</text><rect fill="#F1F1F1" height="36.2969" rx="12.5" ry="12.5" style="stroke:#181818;stroke-width:1.5;" width="56.6338" x="280.5596" y="20"/><text fill="#000000" font-family="sans-serif" font-size="14" lengthAdjust="spacing" textLength="36.6338" x="290.5596" y="42.9951">X.Y.Z</text><path d="M230.5596,38.1484 L240.5596,38.1484 C255.5596,38.1484 255.5596,38.1484 270.5596,38.1484 L280.5596,38.1484" fill="none" style="stroke:#181818;stroke-width:1;"/><path d="M137.9668,66.2969 L147.9668,66.2969 C162.9668,66.2969 162.9668,38.1484 177.9668,38.1484 L187.9668,38.1484" fill="none" style="stroke:#181818;stroke-width:1;"/><rect fill="#F1F1F1" height="36.2969" rx="12.5" ry="12.5" style="stroke:#181818;stroke-width:1.5;" width="52.1836" x="187.9668" y="76.2969"/><text fill="#000000" font-family="sans-serif" font-size="14" lengthAdjust="spacing" textLength="32.1836" x="197.9668" y="99.292">X.YZ</text><path d="M137.9668,66.2969 L147.9668,66.2969 C162.9668,66.2969 162.9668,94.4453 177.9668,94.4453 L187.9668,94.4453" fill="none" style="stroke:#181818;stroke-width:1;"/><path d="M58.376,66.2969 L68.376,66.2969 C83.376,66.2969 83.376,66.2969 98.376,66.2969 L108.376,66.2969" fill="none" style="stroke:#181818;stroke-width:1;"/><?plantuml-src SoWkIImgoStCIybDBE3IKYZApo_Xqj9IY00IG58l4aI36NfHCA4eBeTKe7ge7Yv3FIC38pCzCm00?></g></svg>