<svg xmlns="http://www.w3.org/2000/svg" xmlns:xlink="http://www.w3.org/1999/xlink" contentStyleType="text/css" data-diagram-type="CLASS" height="507px" preserveAspectRatio="none" style="width:663px;height:507px;background:#FFFFFF;" version="1.1" viewBox="0 0 663 507" width="663px" zoomAndPan="magnify"><defs/><g><!--class Configuration--><g class="entity" data-entity="Configuration" data-source-line="1" data-uid="ent0002" id="entity_Configuration"><rect fill="#F1F1F1" height="129.4844" rx="2.5" ry="2.5" style="stroke:#181818;stroke-width:0.5;" width="323.1514" x="7" y="7"/><ellipse cx="116.8535" cy="23" fill="#ADD1B2" rx="11" ry="11" style="stroke:#181818;stroke-width:1;"/><path d="M119.8223,28.6406 Q119.2441,28.9375 118.6035,29.0781 Q117.9629,29.2344 117.2598,29.2344 Q114.7598,29.2344 113.4316,27.5938 Q112.1191,25.9375 112.1191,22.8125 Q112.1191,19.6875 113.4316,18.0313 Q114.7598,16.375 117.2598,16.375 Q117.9629,16.375 118.6035,16.5313 Q119.2598,16.6875 119.8223,16.9844 L119.8223,19.7031 Q119.1973,19.125 118.6035,18.8594 Q118.0098,18.5781 117.3848,18.5781 Q116.041,18.5781 115.3535,19.6563 Q114.666,20.7188 114.666,22.8125 Q114.666,24.9063 115.3535,25.9844 Q116.041,27.0469 117.3848,27.0469 Q118.0098,27.0469 118.6035,26.7813 Q119.1973,26.5 119.8223,25.9219 L119.8223,28.6406 Z " fill="#000000"/><text fill="#000000" font-family="sans-serif" font-size="14" lengthAdjust="spacing" textLength="94.9443" x="137.3535" y="27.8467">Configuration</text><line style="stroke:#181818;stroke-width:0.5;" x1="8" x2="329.1514" y1="39" y2="39"/><text fill="#000000" font-family="sans-serif" font-size="14" lengthAdjust="spacing" textLength="157.8555" x="13" y="55.9951">Appender[] appenders</text><text fill="#000000" font-family="sans-serif" font-size="14" lengthAdjust="spacing" textLength="72.707" x="13" y="72.292">Filter filter</text><text fill="#000000" font-family="sans-serif" font-size="14" lengthAdjust="spacing" textLength="205.6113" x="13" y="88.5889">LoggerConfig[] loggerConfigs</text><text fill="#000000" font-family="sans-serif" font-size="14" lengthAdjust="spacing" textLength="177.9736" x="13" y="104.8857">StrSubstitutor substitutor</text><line style="stroke:#181818;stroke-width:0.5;" x1="8" x2="329.1514" y1="112.1875" y2="112.1875"/><text fill="#000000" font-family="sans-serif" font-size="14" lengthAdjust="spacing" textLength="311.1514" x="13" y="129.1826">LoggerConfig getLoggerConfig(String name)</text></g><!--class LoggerConfig--><g class="entity" data-entity="LoggerConfig" data-source-line="9" data-uid="ent0003" id="entity_LoggerConfig"><rect fill="#F1F1F1" height="129.4844" rx="2.5" ry="2.5" style="stroke:#181818;stroke-width:2;" width="271.6836" x="203.73" y="213.49"/><ellipse cx="288.6084" cy="229.49" fill="#ADD1B2" rx="11" ry="11" style="stroke:#181818;stroke-width:1;"/><path d="M291.5772,235.1306 Q290.999,235.4275 290.3584,235.5681 Q289.7178,235.7244 289.0147,235.7244 Q286.5147,235.7244 285.1865,234.0838 Q283.874,232.4275 283.874,229.3025 Q283.874,226.1775 285.1865,224.5213 Q286.5147,222.865 289.0147,222.865 Q289.7178,222.865 290.3584,223.0213 Q291.0147,223.1775 291.5772,223.4744 L291.5772,226.1931 Q290.9522,225.615 290.3584,225.3494 Q289.7647,225.0681 289.1397,225.0681 Q287.7959,225.0681 287.1084,226.1463 Q286.4209,227.2088 286.4209,229.3025 Q286.4209,231.3963 287.1084,232.4744 Q287.7959,233.5369 289.1397,233.5369 Q289.7647,233.5369 290.3584,233.2713 Q290.9522,232.99 291.5772,232.4119 L291.5772,235.1306 Z " fill="#000000"/><text fill="#000000" font-family="sans-serif" font-size="14" lengthAdjust="spacing" textLength="93.4268" x="309.1084" y="234.3367">LoggerConfig</text><line style="stroke:#181818;stroke-width:2;" x1="204.73" x2="474.4136" y1="245.49" y2="245.49"/><text fill="#000000" font-family="sans-serif" font-size="14" lengthAdjust="spacing" textLength="204.3945" x="209.73" y="262.4851">AppenderRef[] appenderRefs</text><text fill="#000000" font-family="sans-serif" font-size="14" lengthAdjust="spacing" textLength="259.6836" x="209.73" y="278.782">AppenderControl[] appenderControls</text><text fill="#000000" font-family="sans-serif" font-size="14" lengthAdjust="spacing" textLength="74.9424" x="209.73" y="295.0789">Level level</text><text fill="#000000" font-family="sans-serif" font-size="14" lengthAdjust="spacing" textLength="72.707" x="209.73" y="311.3757">Filter filter</text><line style="stroke:#181818;stroke-width:2;" x1="204.73" x2="474.4136" y1="318.6775" y2="318.6775"/><text fill="#000000" font-family="sans-serif" font-size="14" lengthAdjust="spacing" textLength="131.7012" x="209.73" y="335.6726">void log(LogEvent)</text></g><!--class Filter--><g class="entity" data-entity="Filter" data-source-line="11" data-uid="ent0005" id="entity_Filter"><rect fill="#F1F1F1" height="64.2969" rx="2.5" ry="2.5" style="stroke:#181818;stroke-width:0.5;" width="169.1855" x="51.98" y="420.27"/><ellipse cx="114.4776" cy="436.27" fill="#ADD1B2" rx="11" ry="11" style="stroke:#181818;stroke-width:1;"/><path d="M117.4463,441.9106 Q116.8682,442.2075 116.2276,442.3481 Q115.5869,442.5044 114.8838,442.5044 Q112.3838,442.5044 111.0557,440.8638 Q109.7432,439.2075 109.7432,436.0825 Q109.7432,432.9575 111.0557,431.3013 Q112.3838,429.645 114.8838,429.645 Q115.5869,429.645 116.2276,429.8013 Q116.8838,429.9575 117.4463,430.2544 L117.4463,432.9731 Q116.8213,432.395 116.2276,432.1294 Q115.6338,431.8481 115.0088,431.8481 Q113.6651,431.8481 112.9776,432.9263 Q112.2901,433.9888 112.2901,436.0825 Q112.2901,438.1763 112.9776,439.2544 Q113.6651,440.3169 115.0088,440.3169 Q115.6338,440.3169 116.2276,440.0513 Q116.8213,439.77 117.4463,439.1919 L117.4463,441.9106 Z " fill="#000000"/><text fill="#000000" font-family="sans-serif" font-size="14" lengthAdjust="spacing" textLength="35.6904" x="134.9776" y="441.1167">Filter</text><line style="stroke:#181818;stroke-width:0.5;" x1="52.98" x2="220.1655" y1="452.27" y2="452.27"/><line style="stroke:#181818;stroke-width:0.5;" x1="52.98" x2="220.1655" y1="460.27" y2="460.27"/><text fill="#000000" font-family="sans-serif" font-size="14" lengthAdjust="spacing" textLength="157.1855" x="57.98" y="477.2651">Result filter(LogEvent)</text></g><!--class AppenderRef--><g class="entity" data-entity="AppenderRef" data-source-line="23" data-uid="ent0006" id="entity_AppenderRef"><rect fill="#F1F1F1" height="96.8906" rx="2.5" ry="2.5" style="stroke:#181818;stroke-width:0.5;" width="166.6289" x="256.26" y="403.97"/><ellipse cx="290.73" cy="419.97" fill="#ADD1B2" rx="11" ry="11" style="stroke:#181818;stroke-width:1;"/><path d="M293.6987,425.6106 Q293.1206,425.9075 292.48,426.0481 Q291.8393,426.2044 291.1362,426.2044 Q288.6362,426.2044 287.3081,424.5638 Q285.9956,422.9075 285.9956,419.7825 Q285.9956,416.6575 287.3081,415.0013 Q288.6362,413.345 291.1362,413.345 Q291.8393,413.345 292.48,413.5013 Q293.1362,413.6575 293.6987,413.9544 L293.6987,416.6731 Q293.0737,416.095 292.48,415.8294 Q291.8862,415.5481 291.2612,415.5481 Q289.9175,415.5481 289.23,416.6263 Q288.5425,417.6888 288.5425,419.7825 Q288.5425,421.8763 289.23,422.9544 Q289.9175,424.0169 291.2612,424.0169 Q291.8862,424.0169 292.48,423.7513 Q293.0737,423.47 293.6987,422.8919 L293.6987,425.6106 Z " fill="#000000"/><text fill="#000000" font-family="sans-serif" font-size="14" lengthAdjust="spacing" textLength="91.3623" x="309.0566" y="424.8167">AppenderRef</text><line style="stroke:#181818;stroke-width:0.5;" x1="257.26" x2="421.8889" y1="435.97" y2="435.97"/><text fill="#000000" font-family="sans-serif" font-size="14" lengthAdjust="spacing" textLength="154.6289" x="262.26" y="452.9651">String appenderName</text><text fill="#000000" font-family="sans-serif" font-size="14" lengthAdjust="spacing" textLength="74.9424" x="262.26" y="469.262">Level level</text><text fill="#000000" font-family="sans-serif" font-size="14" lengthAdjust="spacing" textLength="72.707" x="262.26" y="485.5589">Filter filter</text><line style="stroke:#181818;stroke-width:0.5;" x1="257.26" x2="421.8889" y1="492.8606" y2="492.8606"/></g><!--class AppenderControl--><g class="entity" data-entity="AppenderControl" data-source-line="25" data-uid="ent0008" id="entity_AppenderControl"><rect fill="#F1F1F1" height="96.8906" rx="2.5" ry="2.5" style="stroke:#181818;stroke-width:0.5;" width="175.085" x="458.03" y="403.97"/><ellipse cx="483.8652" cy="419.97" fill="#ADD1B2" rx="11" ry="11" style="stroke:#181818;stroke-width:1;"/><path d="M486.8339,425.6106 Q486.2558,425.9075 485.6152,426.0481 Q484.9745,426.2044 484.2714,426.2044 Q481.7714,426.2044 480.4433,424.5638 Q479.1308,422.9075 479.1308,419.7825 Q479.1308,416.6575 480.4433,415.0013 Q481.7714,413.345 484.2714,413.345 Q484.9745,413.345 485.6152,413.5013 Q486.2714,413.6575 486.8339,413.9544 L486.8339,416.6731 Q486.2089,416.095 485.6152,415.8294 Q485.0214,415.5481 484.3964,415.5481 Q483.0527,415.5481 482.3652,416.6263 Q481.6777,417.6888 481.6777,419.7825 Q481.6777,421.8763 482.3652,422.9544 Q483.0527,424.0169 484.3964,424.0169 Q485.0214,424.0169 485.6152,423.7513 Q486.2089,423.47 486.8339,422.8919 L486.8339,425.6106 Z " fill="#000000"/><text fill="#000000" font-family="sans-serif" font-size="14" lengthAdjust="spacing" textLength="119.0068" x="500.273" y="424.8167">AppenderControl</text><line style="stroke:#181818;stroke-width:0.5;" x1="459.03" x2="632.115" y1="435.97" y2="435.97"/><text fill="#000000" font-family="sans-serif" font-size="14" lengthAdjust="spacing" textLength="139.6377" x="464.03" y="452.9651">Appender appender</text><text fill="#000000" font-family="sans-serif" font-size="14" lengthAdjust="spacing" textLength="72.707" x="464.03" y="469.262">Filter filter</text><line style="stroke:#181818;stroke-width:0.5;" x1="459.03" x2="632.115" y1="476.5638" y2="476.5638"/><text fill="#000000" font-family="sans-serif" font-size="14" lengthAdjust="spacing" textLength="163.085" x="464.03" y="493.5589">void append(LogEvent)</text></g><!--class Logger--><g class="entity" data-entity="Logger" data-source-line="41" data-uid="ent0011" id="entity_Logger"><rect fill="#F1F1F1" height="64.2969" rx="2.5" ry="2.5" style="stroke:#181818;stroke-width:0.5;" width="290.9131" x="365.12" y="39.59"/><ellipse cx="482.0726" cy="55.59" fill="#ADD1B2" rx="11" ry="11" style="stroke:#181818;stroke-width:1;"/><path d="M485.0414,61.2306 Q484.4633,61.5275 483.8226,61.6681 Q483.182,61.8244 482.4789,61.8244 Q479.9789,61.8244 478.6508,60.1838 Q477.3383,58.5275 477.3383,55.4025 Q477.3383,52.2775 478.6508,50.6213 Q479.9789,48.965 482.4789,48.965 Q483.182,48.965 483.8226,49.1213 Q484.4789,49.2775 485.0414,49.5744 L485.0414,52.2931 Q484.4164,51.715 483.8226,51.4494 Q483.2289,51.1681 482.6039,51.1681 Q481.2601,51.1681 480.5726,52.2463 Q479.8851,53.3088 479.8851,55.4025 Q479.8851,57.4963 480.5726,58.5744 Q481.2601,59.6369 482.6039,59.6369 Q483.2289,59.6369 483.8226,59.3713 Q484.4164,59.09 485.0414,58.5119 L485.0414,61.2306 Z " fill="#000000"/><text fill="#000000" font-family="sans-serif" font-size="14" lengthAdjust="spacing" textLength="48.5078" x="502.5726" y="60.4367">Logger</text><line style="stroke:#181818;stroke-width:0.5;" x1="366.12" x2="655.0331" y1="71.59" y2="71.59"/><line style="stroke:#181818;stroke-width:0.5;" x1="366.12" x2="655.0331" y1="79.59" y2="79.59"/><text fill="#000000" font-family="sans-serif" font-size="14" lengthAdjust="spacing" textLength="278.9131" x="371.12" y="96.5851">void log(Level level, Message message)</text></g><!--link Configuration to LoggerConfig--><g class="link" data-entity-1="Configuration" data-entity-2="LoggerConfig" data-source-line="9" data-uid="lnk4" id="link_Configuration_LoggerConfig"><path codeLine="9" d="M222.21,136.88 C242.58,161.24 261.9213,184.367 282.2813,208.717" fill="none" id="Configuration-to-LoggerConfig" style="stroke:#181818;stroke-width:1;"/><polygon fill="#181818" points="286.13,213.32,283.4256,203.8497,282.9227,209.4842,277.2883,208.9814,286.13,213.32" style="stroke:#181818;stroke-width:1;"/><text fill="#000000" font-family="sans-serif" font-size="13" lengthAdjust="spacing" textLength="23.0356" x="256.0289" y="202.4741">0..*</text></g><!--link LoggerConfig to AppenderRef--><g class="link" data-entity-1="LoggerConfig" data-entity-2="AppenderRef" data-source-line="23" data-uid="lnk7" id="link_LoggerConfig_AppenderRef"><path codeLine="23" d="M339.58,343.34 C339.58,363.33 339.58,379 339.58,397.66" fill="none" id="LoggerConfig-to-AppenderRef" style="stroke:#181818;stroke-width:1;"/><polygon fill="#181818" points="339.58,403.66,343.58,394.66,339.58,398.66,335.58,394.66,339.58,403.66" style="stroke:#181818;stroke-width:1;"/><text fill="#000000" font-family="sans-serif" font-size="13" lengthAdjust="spacing" textLength="23.0356" x="314.9661" y="392.8253">0..*</text></g><!--link LoggerConfig to AppenderControl--><g class="link" data-entity-1="LoggerConfig" data-entity-2="AppenderControl" data-source-line="25" data-uid="lnk9" id="link_LoggerConfig_AppenderControl"><path codeLine="25" d="M416.28,343.34 C440.19,363.33 461.5159,381.1526 483.8459,399.8126" fill="none" id="LoggerConfig-to-AppenderControl" style="stroke:#008000;stroke-width:6;"/><polygon fill="#008000" points="488.45,403.66,484.1088,394.8195,484.6133,400.4538,478.9789,400.9583,488.45,403.66" style="stroke:#008000;stroke-width:6;"/><text fill="#000000" font-family="sans-serif" font-size="13" lengthAdjust="spacing" textLength="23.0356" x="455.8025" y="392.8253">0..*</text></g><!--link LoggerConfig to Filter--><g class="link" data-entity-1="LoggerConfig" data-entity-2="Filter" data-source-line="27" data-uid="lnk10" id="link_LoggerConfig_Filter"><path codeLine="27" d="M263.99,343.34 C233.21,369.45 203.6052,394.5583 178.4052,415.9383" fill="none" id="LoggerConfig-to-Filter" style="stroke:#181818;stroke-width:1;"/><polygon fill="#181818" points="173.83,419.82,183.2806,417.0476,177.6427,416.5853,178.105,410.9473,173.83,419.82" style="stroke:#181818;stroke-width:1;"/></g><!--link Logger to LoggerConfig--><g class="link" data-entity-1="Logger" data-entity-2="LoggerConfig" data-source-line="45" data-uid="lnk12" id="link_Logger_LoggerConfig"><path codeLine="45" d="M484.23,104.25 C460.06,133.15 427.3693,172.2476 397.0593,208.4876" fill="none" id="Logger-to-LoggerConfig" style="stroke:#008000;stroke-width:6;"/><polygon fill="#008000" points="393.21,213.09,402.0523,208.7526,396.4178,209.2546,395.9157,203.6201,393.21,213.09" style="stroke:#008000;stroke-width:6;"/><text fill="#000000" font-family="sans-serif" font-size="13" lengthAdjust="spacing" textLength="111.0396" x="431.58" y="179.5569">delegates `log()`</text></g><!--SRC=[XP4zJyCm48Pt_ufJkpIeZPWOa41222PWQCUgKjtaOYnSkx8lML3_EqxY4ZiqOh5zlg_tdYiKTmwUZQwag2qdQJHyCu2dqmbrYNQx0nwUpd-_IaLeeUekRxyP8T3swJvKHQORkK4WnVPYGrPg0PeVCVEntjpK1qUIQZ8MtF1cPyPIXQlL8ynky_ncbhHWhEZ62IhRETReQaL1yC87lpIeAMjBzh69nBcI6lE3KMK2OOrLnC5RBdBwLB96HG7XfmE03IfGxNc5NcDasJ9BTIMAeaaZDUEWxLnOHBsaJrbyQNJkuMxtDp7ekjAX5tP14ZNgC8H5NSRxy0lxPxJpk5HedL3zBJX5flTFBwshDZ0Sz2pXtJFW0k7Otn7NILW9b7ieKQ7WX0xsRVLi_mC0]--></g></svg>