<svg xmlns="http://www.w3.org/2000/svg" xmlns:xlink="http://www.w3.org/1999/xlink" contentStyleType="text/css" data-diagram-type="DESCRIPTION" height="906px" preserveAspectRatio="none" style="width:1183px;height:906px;background:#FFFFFF;" version="1.1" viewBox="0 0 1183 906" width="1183px" zoomAndPan="magnify"><defs/><g><rect fill="#DDDDDD" height="104.7969" rx="7.5" ry="7.5" style="stroke:#000000;stroke-width:1;" width="214.0479" x="943.9321" y="12"/><rect fill="#90EE90" height="16.2969" style="stroke:none;stroke-width:1;" width="23.9824" x="948.9321" y="19"/><text fill="#000000" font-family="sans-serif" font-size="14" lengthAdjust="spacing" textLength="4.4502" x="948.9321" y="31.9951">&#160;</text><text fill="#000000" font-family="sans-serif" font-size="14" lengthAdjust="spacing" textLength="171.165" x="977.3647" y="31.9951">Logging implementation</text><rect fill="#FFFF00" height="16.2969" style="stroke:none;stroke-width:1;" width="23.9824" x="948.9321" y="35.2969"/><text fill="#000000" font-family="sans-serif" font-size="14" lengthAdjust="spacing" textLength="4.4502" x="948.9321" y="48.292">&#160;</text><text fill="#000000" font-family="sans-serif" font-size="14" lengthAdjust="spacing" textLength="105.1572" x="977.3647" y="48.292">Logging bridge</text><rect fill="#00FFFF" height="16.2969" style="stroke:none;stroke-width:1;" width="23.9824" x="948.9321" y="51.5938"/><text fill="#000000" font-family="sans-serif" font-size="14" lengthAdjust="spacing" textLength="4.4502" x="948.9321" y="64.5889">&#160;</text><text fill="#000000" font-family="sans-serif" font-size="14" lengthAdjust="spacing" textLength="82.3867" x="977.3647" y="64.5889">Logging API</text><text fill="#000000" font-family="sans-serif" font-size="14" lengthAdjust="spacing" textLength="4.4502" x="948.9321" y="85.542">&#160;</text><text fill="#000000" font-family="sans-serif" font-size="18" lengthAdjust="spacing" textLength="15.082" x="953.3823" y="84.5986">&#8594;</text><text fill="#000000" font-family="sans-serif" font-size="14" lengthAdjust="spacing" textLength="4.4502" x="968.4644" y="85.542">&#160;</text><text fill="#000000" font-family="sans-serif" font-size="14" lengthAdjust="spacing" textLength="140.6357" x="977.3647" y="80.8857">Compile-time usage</text><text fill="#000000" font-family="sans-serif" font-size="14" lengthAdjust="spacing" textLength="4.4502" x="948.9321" y="106.4951">&#160;</text><text fill="#000000" font-family="sans-serif" font-size="18" lengthAdjust="spacing" textLength="15.082" x="953.3823" y="105.5518">&#8674;</text><text fill="#000000" font-family="sans-serif" font-size="14" lengthAdjust="spacing" textLength="4.4502" x="968.4644" y="106.4951">&#160;</text><text fill="#000000" font-family="sans-serif" font-size="14" lengthAdjust="spacing" textLength="105.7998" x="977.3647" y="101.8389">Runtime usage</text><line style="stroke:#000000;stroke-width:1;" x1="948.9321" x2="1152.98" y1="19" y2="19"/><line style="stroke:#000000;stroke-width:1;" x1="948.9321" x2="1152.98" y1="35.2969" y2="35.2969"/><line style="stroke:#000000;stroke-width:1;" x1="948.9321" x2="1152.98" y1="51.5938" y2="51.5938"/><line style="stroke:#000000;stroke-width:1;" x1="948.9321" x2="1152.98" y1="67.8906" y2="67.8906"/><line style="stroke:#000000;stroke-width:1;" x1="948.9321" x2="1152.98" y1="88.8438" y2="88.8438"/><line style="stroke:#000000;stroke-width:1;" x1="948.9321" x2="1152.98" y1="109.7969" y2="109.7969"/><line style="stroke:#000000;stroke-width:1;" x1="948.9321" x2="948.9321" y1="19" y2="109.7969"/><line style="stroke:#000000;stroke-width:1;" x1="972.9146" x2="972.9146" y1="19" y2="109.7969"/><line style="stroke:#000000;stroke-width:1;" x1="1152.98" x2="1152.98" y1="19" y2="109.7969"/><!--cluster Compile time--><g class="cluster" data-entity="Compile time" data-source-line="1" data-uid="ent0002" id="cluster_Compile time"><rect fill="none" height="407.89" rx="2.5" ry="2.5" style="stroke:#181818;stroke-width:1;" width="547" x="7" y="136.7969"/><path d="M121.043,136.7969 L121.043,146.0938 L111.043,156.0938 L7,156.0938" fill="none" style="stroke:#181818;stroke-width:1;"/><text fill="#000000" font-family="sans-serif" font-size="14" font-weight="bold" lengthAdjust="spacing" textLength="104.043" x="10" y="150.792">Compile time</text></g><!--cluster Runtime--><g class="cluster" data-entity="Runtime" data-source-line="14" data-uid="ent0014" id="cluster_Runtime"><rect fill="none" height="495.96" rx="2.5" ry="2.5" style="stroke:#181818;stroke-width:1;" width="488" x="578" y="404.3869"/><path d="M654.2881,404.3869 L654.2881,413.6838 L644.2881,423.6838 L578,423.6838" fill="none" style="stroke:#181818;stroke-width:1;"/><text fill="#000000" font-family="sans-serif" font-size="14" font-weight="bold" lengthAdjust="spacing" textLength="66.2881" x="581" y="418.382">Runtime</text></g><!--cluster JRE--><g class="cluster" data-entity="JRE" data-source-line="29" data-uid="ent0025" id="cluster_JRE"><rect fill="none" height="97.3" rx="2.5" ry="2.5" style="stroke:#181818;stroke-width:1;" width="189" x="631" y="447.3869"/><path d="M666.5527,447.3869 L666.5527,456.6838 L656.5527,466.6838 L631,466.6838" fill="none" style="stroke:#181818;stroke-width:1;"/><text fill="#000000" font-family="sans-serif" font-size="14" font-weight="bold" lengthAdjust="spacing" textLength="25.5527" x="634" y="461.382">JRE</text></g><!--entity Application--><g class="entity" data-entity="Application" data-source-line="2" data-uid="ent0003" id="entity_Application"><rect fill="#F1F1F1" height="46.2969" rx="2.5" ry="2.5" style="stroke:#181818;stroke-width:0.5;" width="118.2236" x="219.89" y="171.7969"/><rect fill="#F1F1F1" height="10" style="stroke:#181818;stroke-width:0.5;" width="15" x="318.1136" y="176.7969"/><rect fill="#F1F1F1" height="2" style="stroke:#181818;stroke-width:0.5;" width="4" x="316.1136" y="178.7969"/><rect fill="#F1F1F1" height="2" style="stroke:#181818;stroke-width:0.5;" width="4" x="316.1136" y="182.7969"/><text fill="#000000" font-family="sans-serif" font-size="14" lengthAdjust="spacing" textLength="78.2236" x="234.89" y="204.792">Application</text></g><!--entity Log4j API--><g class="entity" data-entity="Log4j API" data-source-line="2" data-uid="ent0004" id="entity_Log4j API"><rect fill="#00FFFF" height="46.2969" rx="2.5" ry="2.5" style="stroke:#181818;stroke-width:0.5;" width="104.6475" x="433.68" y="295.0969"/><rect fill="#00FFFF" height="10" style="stroke:#181818;stroke-width:0.5;" width="15" x="518.3275" y="300.0969"/><rect fill="#00FFFF" height="2" style="stroke:#181818;stroke-width:0.5;" width="4" x="516.3275" y="302.0969"/><rect fill="#00FFFF" height="2" style="stroke:#181818;stroke-width:0.5;" width="4" x="516.3275" y="306.0969"/><text fill="#000000" font-family="sans-serif" font-size="14" lengthAdjust="spacing" textLength="64.6475" x="448.68" y="328.092">Log4j API</text></g><!--entity SLF4J--><g class="entity" data-entity="SLF4J" data-source-line="6" data-uid="ent0006" id="entity_SLF4J"><rect fill="#00FFFF" height="46.2969" rx="2.5" ry="2.5" style="stroke:#181818;stroke-width:0.5;" width="77.7754" x="307.11" y="482.3869"/><rect fill="#00FFFF" height="10" style="stroke:#181818;stroke-width:0.5;" width="15" x="364.8854" y="487.3869"/><rect fill="#00FFFF" height="2" style="stroke:#181818;stroke-width:0.5;" width="4" x="362.8854" y="489.3869"/><rect fill="#00FFFF" height="2" style="stroke:#181818;stroke-width:0.5;" width="4" x="362.8854" y="493.3869"/><text fill="#000000" font-family="sans-serif" font-size="14" lengthAdjust="spacing" textLength="37.7754" x="322.11" y="515.382">SLF4J</text></g><!--entity Library 1--><g class="entity" data-entity="Library 1" data-source-line="8" data-uid="ent0007" id="entity_Library 1"><rect fill="#F1F1F1" height="46.2969" rx="2.5" ry="2.5" style="stroke:#181818;stroke-width:0.5;" width="102.3096" x="22.85" y="295.0969"/><rect fill="#F1F1F1" height="10" style="stroke:#181818;stroke-width:0.5;" width="15" x="105.1596" y="300.0969"/><rect fill="#F1F1F1" height="2" style="stroke:#181818;stroke-width:0.5;" width="4" x="103.1596" y="302.0969"/><rect fill="#F1F1F1" height="2" style="stroke:#181818;stroke-width:0.5;" width="4" x="103.1596" y="306.0969"/><text fill="#000000" font-family="sans-serif" font-size="14" lengthAdjust="spacing" textLength="62.3096" x="37.85" y="328.092">Library 1</text></g><!--entity Library 2--><g class="entity" data-entity="Library 2" data-source-line="10" data-uid="ent0010" id="entity_Library 2"><rect fill="#F1F1F1" height="46.2969" rx="2.5" ry="2.5" style="stroke:#181818;stroke-width:0.5;" width="102.3096" x="159.85" y="295.0969"/><rect fill="#F1F1F1" height="10" style="stroke:#181818;stroke-width:0.5;" width="15" x="242.1596" y="300.0969"/><rect fill="#F1F1F1" height="2" style="stroke:#181818;stroke-width:0.5;" width="4" x="240.1596" y="302.0969"/><rect fill="#F1F1F1" height="2" style="stroke:#181818;stroke-width:0.5;" width="4" x="240.1596" y="306.0969"/><text fill="#000000" font-family="sans-serif" font-size="14" lengthAdjust="spacing" textLength="62.3096" x="174.85" y="328.092">Library 2</text></g><!--entity Library 3--><g class="entity" data-entity="Library 3" data-source-line="11" data-uid="ent0012" id="entity_Library 3"><rect fill="#F1F1F1" height="46.2969" rx="2.5" ry="2.5" style="stroke:#181818;stroke-width:0.5;" width="102.3096" x="296.85" y="295.0969"/><rect fill="#F1F1F1" height="10" style="stroke:#181818;stroke-width:0.5;" width="15" x="379.1596" y="300.0969"/><rect fill="#F1F1F1" height="2" style="stroke:#181818;stroke-width:0.5;" width="4" x="377.1596" y="302.0969"/><rect fill="#F1F1F1" height="2" style="stroke:#181818;stroke-width:0.5;" width="4" x="377.1596" y="306.0969"/><text fill="#000000" font-family="sans-serif" font-size="14" lengthAdjust="spacing" textLength="62.3096" x="311.85" y="328.092">Library 3</text></g><!--entity Log4j Core--><g class="entity" data-entity="Log4j Core" data-source-line="16" data-uid="ent0015" id="entity_Log4j Core"><rect fill="#90EE90" height="46.2969" rx="2.5" ry="2.5" style="stroke:#181818;stroke-width:0.5;" width="115.209" x="844.4" y="730.9869"/><rect fill="#90EE90" height="10" style="stroke:#181818;stroke-width:0.5;" width="15" x="939.609" y="735.9869"/><rect fill="#90EE90" height="2" style="stroke:#181818;stroke-width:0.5;" width="4" x="937.609" y="737.9869"/><rect fill="#90EE90" height="2" style="stroke:#181818;stroke-width:0.5;" width="4" x="937.609" y="741.9869"/><text fill="#000000" font-family="sans-serif" font-size="14" lengthAdjust="spacing" textLength="75.209" x="859.4" y="763.982">Log4j Core</text></g><g class="entity" data-entity="log4j2.xml" data-source-line="17" data-uid="ent0017" id="entity_log4j2.xml"><ellipse cx="902.0041" cy="869.3197" fill="#F1F1F1" rx="63.1641" ry="15.0328" style="stroke:#181818;stroke-width:0.5;"/><text fill="#000000" font-family="sans-serif" font-size="14" lengthAdjust="spacing" textLength="73.3086" x="862.3498" y="873.0672">log4j2.xml</text></g><!--entity JPL-to-Log4j--><g class="entity" data-entity="JPL-to-Log4j" data-source-line="20" data-uid="ent0019" id="entity_JPL-to-Log4j"><rect fill="#FFFF00" height="46.2969" rx="2.5" ry="2.5" style="stroke:#181818;stroke-width:0.5;" width="122.5781" x="927.71" y="607.6869"/><rect fill="#FFFF00" height="10" style="stroke:#181818;stroke-width:0.5;" width="15" x="1030.2881" y="612.6869"/><rect fill="#FFFF00" height="2" style="stroke:#181818;stroke-width:0.5;" width="4" x="1028.2881" y="614.6869"/><rect fill="#FFFF00" height="2" style="stroke:#181818;stroke-width:0.5;" width="4" x="1028.2881" y="618.6869"/><text fill="#000000" font-family="sans-serif" font-size="14" lengthAdjust="spacing" textLength="82.5781" x="942.71" y="640.682">JPL-to-Log4j</text></g><!--entity SLF4J-to-Log4j--><g class="entity" data-entity="SLF4J-to-Log4j" data-source-line="23" data-uid="ent0021" id="entity_SLF4J-to-Log4j"><rect fill="#FFFF00" height="46.2969" rx="2.5" ry="2.5" style="stroke:#181818;stroke-width:0.5;" width="139.9824" x="594.01" y="607.6869"/><rect fill="#FFFF00" height="10" style="stroke:#181818;stroke-width:0.5;" width="15" x="713.9924" y="612.6869"/><rect fill="#FFFF00" height="2" style="stroke:#181818;stroke-width:0.5;" width="4" x="711.9924" y="614.6869"/><rect fill="#FFFF00" height="2" style="stroke:#181818;stroke-width:0.5;" width="4" x="711.9924" y="618.6869"/><text fill="#000000" font-family="sans-serif" font-size="14" lengthAdjust="spacing" textLength="99.9824" x="609.01" y="640.682">SLF4J-to-Log4j</text></g><!--entity JUL-to-Log4j--><g class="entity" data-entity="JUL-to-Log4j" data-source-line="26" data-uid="ent0023" id="entity_JUL-to-Log4j"><rect fill="#FFFF00" height="46.2969" rx="2.5" ry="2.5" style="stroke:#181818;stroke-width:0.5;" width="124.3828" x="768.81" y="607.6869"/><rect fill="#FFFF00" height="10" style="stroke:#181818;stroke-width:0.5;" width="15" x="873.1928" y="612.6869"/><rect fill="#FFFF00" height="2" style="stroke:#181818;stroke-width:0.5;" width="4" x="871.1928" y="614.6869"/><rect fill="#FFFF00" height="2" style="stroke:#181818;stroke-width:0.5;" width="4" x="871.1928" y="618.6869"/><text fill="#000000" font-family="sans-serif" font-size="14" lengthAdjust="spacing" textLength="84.3828" x="783.81" y="640.682">JUL-to-Log4j</text></g><!--entity JPL--><g class="entity" data-entity="JPL" data-source-line="30" data-uid="ent0026" id="entity_JPL"><rect fill="#00FFFF" height="46.2969" rx="2.5" ry="2.5" style="stroke:#181818;stroke-width:0.5;" width="60.3711" x="743.81" y="482.3869"/><rect fill="#00FFFF" height="10" style="stroke:#181818;stroke-width:0.5;" width="15" x="784.1811" y="487.3869"/><rect fill="#00FFFF" height="2" style="stroke:#181818;stroke-width:0.5;" width="4" x="782.1811" y="489.3869"/><rect fill="#00FFFF" height="2" style="stroke:#181818;stroke-width:0.5;" width="4" x="782.1811" y="493.3869"/><text fill="#000000" font-family="sans-serif" font-size="14" lengthAdjust="spacing" textLength="20.3711" x="758.81" y="515.382">JPL</text></g><!--entity JUL--><g class="entity" data-entity="JUL" data-source-line="31" data-uid="ent0027" id="entity_JUL"><rect fill="#00FFFF" height="46.2969" rx="2.5" ry="2.5" style="stroke:#181818;stroke-width:0.5;" width="62.1758" x="646.91" y="482.3869"/><rect fill="#00FFFF" height="10" style="stroke:#181818;stroke-width:0.5;" width="15" x="689.0858" y="487.3869"/><rect fill="#00FFFF" height="2" style="stroke:#181818;stroke-width:0.5;" width="4" x="687.0858" y="489.3869"/><rect fill="#00FFFF" height="2" style="stroke:#181818;stroke-width:0.5;" width="4" x="687.0858" y="493.3869"/><text fill="#000000" font-family="sans-serif" font-size="14" lengthAdjust="spacing" textLength="22.1758" x="661.91" y="515.382">JUL</text></g><!--link Application to Log4j API--><g class="link" data-entity-1="Application" data-entity-2="Log4j API" data-source-line="2" data-uid="lnk5" id="link_Application_Log4j API"><path d="M317.45,218.4769 C354.51,240.1969 405.1132,269.8436 442.2332,291.5936" fill="none" id="Application-to-Log4j API" style="stroke:#181818;stroke-width:1;"/><polygon fill="#181818" points="447.41,294.6269,441.667,286.6258,443.096,292.0991,437.6226,293.5282,447.41,294.6269" style="stroke:#181818;stroke-width:1;"/><text fill="#000000" font-family="sans-serif" font-size="13" lengthAdjust="spacing" textLength="43.7734" x="395" y="261.1638">logs to</text></g><!--link Library 1 to SLF4J--><g class="link" data-entity-1="Library 1" data-entity-2="SLF4J" data-source-line="8" data-uid="lnk8" id="link_Library 1_SLF4J"><path d="M107.08,341.7769 C159.46,377.4669 255.9514,443.1887 308.1914,478.7787" fill="none" id="Library 1-to-SLF4J" style="stroke:#181818;stroke-width:1;"/><polygon fill="#181818" points="313.15,482.1569,307.9642,473.7838,309.0178,479.3417,303.46,480.3953,313.15,482.1569" style="stroke:#181818;stroke-width:1;"/><text fill="#000000" font-family="sans-serif" font-size="13" lengthAdjust="spacing" textLength="43.7734" x="171" y="384.4538">logs to</text></g><!--link Application to Library 1--><g class="link" data-entity-1="Application" data-entity-2="Library 1" data-source-line="9" data-uid="lnk9" id="link_Application_Library 1"><path d="M240.92,218.4769 C204.22,240.1969 154.1438,269.8216 117.3838,291.5716" fill="none" id="Application-to-Library 1" style="stroke:#181818;stroke-width:1;"/><polygon fill="#181818" points="112.22,294.6269,122.0026,293.4865,116.5232,292.0808,117.9289,286.6014,112.22,294.6269" style="stroke:#181818;stroke-width:1;"/><text fill="#000000" font-family="sans-serif" font-size="13" lengthAdjust="spacing" textLength="29.7832" x="190" y="261.1638">uses</text></g><!--link Application to Library 2--><g class="link" data-entity-1="Application" data-entity-2="Library 2" data-source-line="10" data-uid="lnk11" id="link_Application_Library 2"><path d="M266.37,218.4769 C254.16,240.2669 238.6835,267.8529 226.4935,289.6029" fill="none" id="Application-to-Library 2" style="stroke:#181818;stroke-width:1;"/><polygon fill="#181818" points="223.56,294.8369,231.4495,288.9415,226.0045,290.4752,224.4708,285.0302,223.56,294.8369" style="stroke:#181818;stroke-width:1;"/><text fill="#000000" font-family="sans-serif" font-size="13" lengthAdjust="spacing" textLength="29.7832" x="250" y="261.1638">uses</text></g><!--link Application to Library 3--><g class="link" data-entity-1="Application" data-entity-2="Library 3" data-source-line="11" data-uid="lnk13" id="link_Application_Library 3"><path d="M291.82,218.4769 C304.21,240.2669 319.9138,267.8714 332.2838,289.6214" fill="none" id="Application-to-Library 3" style="stroke:#181818;stroke-width:1;"/><polygon fill="#181818" points="335.25,294.8369,334.2776,285.0361,332.7781,290.4906,327.3236,288.9911,335.25,294.8369" style="stroke:#181818;stroke-width:1;"/><text fill="#000000" font-family="sans-serif" font-size="13" lengthAdjust="spacing" textLength="29.7832" x="318" y="261.1638">uses</text></g><!--reverse link Log4j Core to Log4j API--><g class="link" data-entity-1="Log4j Core" data-entity-2="Log4j API" data-source-line="16" data-uid="lnk16" id="link_Log4j Core_Log4j API"><path d="M965.6365,736.2428 C990.1465,727.9928 1012.3,717.8369 1034,700.9869 C1068.85,673.9169 1084.21,648.7369 1068,607.6869 C1005.38,449.1769 928.36,423.1969 766,371.3869 C688.86,346.7769 595.84,332.3169 538.82,325.0869" fill="none" id="Log4j Core-backto-Log4j API" style="stroke:#181818;stroke-width:1;stroke-dasharray:7.0,7.0;"/><polygon fill="#181818" points="959.95,738.1569,969.7558,739.0768,964.6888,736.5618,967.2037,731.4948,959.95,738.1569" style="stroke:#181818;stroke-width:1;"/><text fill="#000000" font-family="sans-serif" font-size="13" lengthAdjust="spacing" textLength="120.98" x="1055" y="573.7538">is implemented by</text></g><!--reverse link Log4j Core to log4j2.xml--><g class="link" data-entity-1="Log4j Core" data-entity-2="log4j2.xml" data-source-line="17" data-uid="lnk18" id="link_Log4j Core_log4j2.xml"><path d="M902,783.7669 C902,806.4769 902,834.7569 902,853.9669" fill="none" id="Log4j Core-backto-log4j2.xml" style="stroke:#181818;stroke-width:1;stroke-dasharray:7.0,7.0;"/><polygon fill="#181818" points="902,777.7669,898,786.7669,902,782.7669,906,786.7669,902,777.7669" style="stroke:#181818;stroke-width:1;"/><text fill="#000000" font-family="sans-serif" font-size="13" lengthAdjust="spacing" textLength="89.0576" x="903" y="820.3438">is provided to</text></g><!--link JPL-to-Log4j to Log4j Core--><g class="link" data-entity-1="JPL-to-Log4j" data-entity-2="Log4j Core" data-source-line="20" data-uid="lnk20" id="link_JPL-to-Log4j_Log4j Core"><path d="M972.84,654.3669 C957.21,676.1569 937.167,704.1013 921.567,725.8513" fill="none" id="JPL-to-Log4j-to-Log4j Core" style="stroke:#181818;stroke-width:1;stroke-dasharray:7.0,7.0;"/><polygon fill="#181818" points="918.07,730.7269,926.5658,725.7448,920.9841,726.6639,920.0651,721.0822,918.07,730.7269" style="stroke:#181818;stroke-width:1;"/><text fill="#000000" font-family="sans-serif" font-size="13" lengthAdjust="spacing" textLength="74.0264" x="951" y="697.0538">forwards to</text></g><!--link SLF4J-to-Log4j to Log4j Core--><g class="link" data-entity-1="SLF4J-to-Log4j" data-entity-2="Log4j Core" data-source-line="23" data-uid="lnk22" id="link_SLF4J-to-Log4j_Log4j Core"><path d="M687.54,654.1969 C704.2,669.0769 727.66,688.1669 751,700.9869 C780.17,716.9969 809.435,727.7264 838.385,736.4464" fill="none" id="SLF4J-to-Log4j-to-Log4j Core" style="stroke:#181818;stroke-width:1;stroke-dasharray:7.0,7.0;"/><polygon fill="#181818" points="844.13,738.1769,836.6661,731.7512,839.3425,736.7348,834.3588,739.4112,844.13,738.1769" style="stroke:#181818;stroke-width:1;"/><text fill="#000000" font-family="sans-serif" font-size="13" lengthAdjust="spacing" textLength="74.0264" x="752" y="697.0538">forwards to</text></g><!--link JUL-to-Log4j to Log4j Core--><g class="link" data-entity-1="JUL-to-Log4j" data-entity-2="Log4j Core" data-source-line="26" data-uid="lnk24" id="link_JUL-to-Log4j_Log4j Core"><path d="M830.73,654.2769 C831.45,668.4669 834.1,686.7369 842,700.9869 C848.29,712.3269 853.4457,718.5418 863.2757,726.7118" fill="none" id="JUL-to-Log4j-to-Log4j Core" style="stroke:#181818;stroke-width:1;stroke-dasharray:7.0,7.0;"/><polygon fill="#181818" points="867.89,730.5469,863.5252,721.718,864.0447,727.351,858.4118,727.8704,867.89,730.5469" style="stroke:#181818;stroke-width:1;"/><text fill="#000000" font-family="sans-serif" font-size="13" lengthAdjust="spacing" textLength="74.0264" x="843" y="697.0538">forwards to</text></g><!--link Library 2 to JUL--><g class="link" data-entity-1="Library 2" data-entity-2="JUL" data-source-line="36" data-uid="lnk28" id="link_Library 2_JUL"><path d="M262.42,336.6969 C267.99,338.3769 273.6,339.9769 279,341.3869 C399.58,372.9669 442.17,341.3569 554,396.3869 C596.8,417.4569 632.5203,452.5935 654.9703,477.5835" fill="none" id="Library 2-to-JUL" style="stroke:#181818;stroke-width:1;"/><polygon fill="#181818" points="658.98,482.0469,655.941,472.6786,655.6385,478.3274,649.9898,478.0249,658.98,482.0469" style="stroke:#181818;stroke-width:1;"/><text fill="#000000" font-family="sans-serif" font-size="13" lengthAdjust="spacing" textLength="43.7734" x="535" y="384.4538">logs to</text></g><!--link Library 3 to JPL--><g class="link" data-entity-1="Library 3" data-entity-2="JPL" data-source-line="37" data-uid="lnk29" id="link_Library 3_JPL"><path d="M399.39,336.8169 C404.96,338.4769 410.58,340.0369 416,341.3869 C552.18,375.4269 616.8,309.4569 727,396.3869 C753.84,417.5669 764.4856,451.2529 769.4656,476.2029" fill="none" id="Library 3-to-JPL" style="stroke:#181818;stroke-width:1;"/><polygon fill="#181818" points="770.64,482.0869,772.801,472.478,769.6613,477.1836,764.9557,474.0439,770.64,482.0869" style="stroke:#181818;stroke-width:1;"/><text fill="#000000" font-family="sans-serif" font-size="13" lengthAdjust="spacing" textLength="43.7734" x="714" y="384.4538">logs to</text></g><!--link JPL to JPL-to-Log4j--><g class="link" data-entity-1="JPL" data-entity-2="JPL-to-Log4j" data-source-line="39" data-uid="lnk30" id="link_JPL_JPL-to-Log4j"><path d="M804.35,523.9469 C842.43,545.7869 902.6156,580.2912 944.4856,604.3112" fill="none" id="JPL-to-JPL-to-Log4j" style="stroke:#181818;stroke-width:1;stroke-dasharray:7.0,7.0;"/><polygon fill="#181818" points="949.69,607.2969,943.8738,599.3488,945.353,604.8088,939.893,606.288,949.69,607.2969" style="stroke:#181818;stroke-width:1;"/><text fill="#000000" font-family="sans-serif" font-size="13" lengthAdjust="spacing" textLength="120.98" x="895" y="573.7538">is implemented by</text></g><!--link JUL to JUL-to-Log4j--><g class="link" data-entity-1="JUL" data-entity-2="JUL-to-Log4j" data-source-line="40" data-uid="lnk31" id="link_JUL_JUL-to-Log4j"><path d="M681.67,528.9469 C685.25,544.3769 692.12,564.4169 705,577.6869 C714.65,587.6269 736.161,597.2898 762.801,607.1198" fill="none" id="JUL-to-JUL-to-Log4j" style="stroke:#181818;stroke-width:1;stroke-dasharray:7.0,7.0;"/><polygon fill="#181818" points="768.43,609.1969,761.3712,602.3286,763.7392,607.466,758.6018,609.8339,768.43,609.1969" style="stroke:#181818;stroke-width:1;"/><text fill="#000000" font-family="sans-serif" font-size="13" lengthAdjust="spacing" textLength="120.98" x="706" y="573.7538">is implemented by</text></g><!--link SLF4J to SLF4J-to-Log4j--><g class="link" data-entity-1="SLF4J" data-entity-2="SLF4J-to-Log4j" data-source-line="41" data-uid="lnk32" id="link_SLF4J_SLF4J-to-Log4j"><path d="M385.31,521.7769 C440.56,543.2069 535.9958,580.2078 600.0358,605.0378" fill="none" id="SLF4J-to-SLF4J-to-Log4j" style="stroke:#181818;stroke-width:1;stroke-dasharray:7.0,7.0;"/><polygon fill="#181818" points="605.63,607.2069,598.6847,600.2239,600.9681,605.3994,595.7926,607.6828,605.63,607.2069" style="stroke:#181818;stroke-width:1;"/><text fill="#000000" font-family="sans-serif" font-size="13" lengthAdjust="spacing" textLength="120.98" x="525" y="573.7538">is implemented by</text></g><!--SRC=[bPHDJuD048Rl_8f9Uz4OCCKUb12Ifgb6mg6fuT0q7AXiSSt2aeLQg_M_knzGbWO_cd3PcUSTzfqPsB0uGp2Oqgp01465CpI0JmDWDIaAWf_Z2jCy0jFqO1NGTFmAa_bZ10uGcfPGKKEWMc8utSUv33u5zsDV3mHupMAsXr5ThWRQKlqlRLKER4jK_exP_yDkZjYNOMna3nRRNBZdvbjBKyfG1AvbdPZ79U2i82X3UOKIME_x91T416phFIENIbCm-eOJBb1cTS4mmEbBzS0GKitovu5PKLCY4LYMryKTs52sYrdIDAxB3vU84Bfhvt1MhLE5NiqFpxnN-CEzLDFznKnkctBGR8iwXzgPJua_-fJbE2NJBf0-NfMVT_A62iXRTnlMDr9LNS7Xdt2zpH8_RM2Vm20eHRbOXGAOc3rtUG1NsmEFdtc15ETfAvRB38SQLktKmJN3IOgEW6YVdkRxs-HA_86SqQtdXbVswCxst6iH4N3zCp3bvx0juxPUHpFJDStNq-3ScZBu3G00]--></g></svg>