<svg xmlns="http://www.w3.org/2000/svg" xmlns:xlink="http://www.w3.org/1999/xlink" contentStyleType="text/css" data-diagram-type="CLASS" height="489px" preserveAspectRatio="none" style="width:938px;height:489px;background:#FFFFFF;" version="1.1" viewBox="0 0 938 489" width="938px" zoomAndPan="magnify"><defs/><g><!--class LoggerContext--><g class="entity" data-entity="LoggerContext" data-source-line="1" data-uid="ent0002" id="entity_LoggerContext"><rect fill="#F1F1F1" height="96.8906" rx="2.5" ry="2.5" style="stroke:#181818;stroke-width:0.5;" width="233.3135" x="310.94" y="7"/><ellipse cx="371.5474" cy="23" fill="#ADD1B2" rx="11" ry="11" style="stroke:#181818;stroke-width:1;"/><path d="M374.5162,28.6406 Q373.938,28.9375 373.2974,29.0781 Q372.6568,29.2344 371.9537,29.2344 Q369.4537,29.2344 368.1255,27.5938 Q366.813,25.9375 366.813,22.8125 Q366.813,19.6875 368.1255,18.0313 Q369.4537,16.375 371.9537,16.375 Q372.6568,16.375 373.2974,16.5313 Q373.9537,16.6875 374.5162,16.9844 L374.5162,19.7031 Q373.8912,19.125 373.2974,18.8594 Q372.7037,18.5781 372.0787,18.5781 Q370.7349,18.5781 370.0474,19.6563 Q369.3599,20.7188 369.3599,22.8125 Q369.3599,24.9063 370.0474,25.9844 Q370.7349,27.0469 372.0787,27.0469 Q372.7037,27.0469 373.2974,26.7813 Q373.8912,26.5 374.5162,25.9219 L374.5162,28.6406 Z " fill="#000000"/><text fill="#000000" font-family="sans-serif" font-size="14" lengthAdjust="spacing" textLength="103.5986" x="392.0474" y="27.8467">LoggerContext</text><line style="stroke:#181818;stroke-width:0.5;" x1="311.94" x2="543.2535" y1="39" y2="39"/><text fill="#000000" font-family="sans-serif" font-size="14" lengthAdjust="spacing" textLength="142.2354" x="316.94" y="55.9951">Configuration config</text><text fill="#000000" font-family="sans-serif" font-size="14" lengthAdjust="spacing" textLength="115.7734" x="316.94" y="72.292">Logger[] loggers</text><line style="stroke:#181818;stroke-width:0.5;" x1="311.94" x2="543.2535" y1="79.5938" y2="79.5938"/><text fill="#000000" font-family="sans-serif" font-size="14" lengthAdjust="spacing" textLength="221.3135" x="316.94" y="96.5889">Logger getLogger(String name)</text></g><!--class Configuration--><g class="entity" data-entity="Configuration" data-source-line="7" data-uid="ent0003" id="entity_Configuration"><rect fill="#F1F1F1" height="129.4844" rx="2.5" ry="2.5" style="stroke:#181818;stroke-width:2;" width="323.1514" x="266.02" y="163.89"/><ellipse cx="375.8735" cy="179.89" fill="#ADD1B2" rx="11" ry="11" style="stroke:#181818;stroke-width:1;"/><path d="M378.8423,185.5306 Q378.2641,185.8275 377.6235,185.9681 Q376.9829,186.1244 376.2798,186.1244 Q373.7798,186.1244 372.4516,184.4838 Q371.1391,182.8275 371.1391,179.7025 Q371.1391,176.5775 372.4516,174.9213 Q373.7798,173.265 376.2798,173.265 Q376.9829,173.265 377.6235,173.4213 Q378.2798,173.5775 378.8423,173.8744 L378.8423,176.5931 Q378.2173,176.015 377.6235,175.7494 Q377.0298,175.4681 376.4048,175.4681 Q375.061,175.4681 374.3735,176.5463 Q373.686,177.6088 373.686,179.7025 Q373.686,181.7963 374.3735,182.8744 Q375.061,183.9369 376.4048,183.9369 Q377.0298,183.9369 377.6235,183.6713 Q378.2173,183.39 378.8423,182.8119 L378.8423,185.5306 Z " fill="#000000"/><text fill="#000000" font-family="sans-serif" font-size="14" lengthAdjust="spacing" textLength="94.9443" x="396.3735" y="184.7367">Configuration</text><line style="stroke:#181818;stroke-width:2;" x1="267.02" x2="588.1714" y1="195.89" y2="195.89"/><text fill="#000000" font-family="sans-serif" font-size="14" lengthAdjust="spacing" textLength="157.8555" x="272.02" y="212.8851">Appender[] appenders</text><text fill="#000000" font-family="sans-serif" font-size="14" lengthAdjust="spacing" textLength="72.707" x="272.02" y="229.182">Filter filter</text><text fill="#000000" font-family="sans-serif" font-size="14" lengthAdjust="spacing" textLength="205.6113" x="272.02" y="245.4789">LoggerConfig[] loggerConfigs</text><text fill="#000000" font-family="sans-serif" font-size="14" lengthAdjust="spacing" textLength="177.9736" x="272.02" y="261.7757">StrSubstitutor substitutor</text><line style="stroke:#181818;stroke-width:2;" x1="267.02" x2="588.1714" y1="269.0775" y2="269.0775"/><text fill="#000000" font-family="sans-serif" font-size="14" lengthAdjust="spacing" textLength="311.1514" x="272.02" y="286.0726">LoggerConfig getLoggerConfig(String name)</text></g><!--class Filter--><g class="entity" data-entity="Filter" data-source-line="17" data-uid="ent0005" id="entity_Filter"><rect fill="#F1F1F1" height="64.2969" rx="2.5" ry="2.5" style="stroke:#181818;stroke-width:0.5;" width="169.1855" x="7" y="385.97"/><ellipse cx="69.4976" cy="401.97" fill="#ADD1B2" rx="11" ry="11" style="stroke:#181818;stroke-width:1;"/><path d="M72.4663,407.6106 Q71.8882,407.9075 71.2476,408.0481 Q70.6069,408.2044 69.9038,408.2044 Q67.4038,408.2044 66.0757,406.5638 Q64.7632,404.9075 64.7632,401.7825 Q64.7632,398.6575 66.0757,397.0013 Q67.4038,395.345 69.9038,395.345 Q70.6069,395.345 71.2476,395.5013 Q71.9038,395.6575 72.4663,395.9544 L72.4663,398.6731 Q71.8413,398.095 71.2476,397.8294 Q70.6538,397.5481 70.0288,397.5481 Q68.6851,397.5481 67.9976,398.6263 Q67.3101,399.6888 67.3101,401.7825 Q67.3101,403.8763 67.9976,404.9544 Q68.6851,406.0169 70.0288,406.0169 Q70.6538,406.0169 71.2476,405.7513 Q71.8413,405.47 72.4663,404.8919 L72.4663,407.6106 Z " fill="#000000"/><text fill="#000000" font-family="sans-serif" font-size="14" lengthAdjust="spacing" textLength="35.6904" x="89.9976" y="406.8167">Filter</text><line style="stroke:#181818;stroke-width:0.5;" x1="8" x2="175.1855" y1="417.97" y2="417.97"/><line style="stroke:#181818;stroke-width:0.5;" x1="8" x2="175.1855" y1="425.97" y2="425.97"/><text fill="#000000" font-family="sans-serif" font-size="14" lengthAdjust="spacing" textLength="157.1855" x="13" y="442.9651">Result filter(LogEvent)</text></g><!--class Appender--><g class="entity" data-entity="Appender" data-source-line="19" data-uid="ent0007" id="entity_Appender"><rect fill="#F1F1F1" height="80.5938" rx="2.5" ry="2.5" style="stroke:#181818;stroke-width:0.5;" width="175.085" x="211.05" y="377.82"/><ellipse cx="260.2961" cy="393.82" fill="#ADD1B2" rx="11" ry="11" style="stroke:#181818;stroke-width:1;"/><path d="M263.2648,399.4606 Q262.6867,399.7575 262.0461,399.8981 Q261.4055,400.0544 260.7023,400.0544 Q258.2023,400.0544 256.8742,398.4138 Q255.5617,396.7575 255.5617,393.6325 Q255.5617,390.5075 256.8742,388.8513 Q258.2023,387.195 260.7023,387.195 Q261.4055,387.195 262.0461,387.3513 Q262.7023,387.5075 263.2648,387.8044 L263.2648,390.5231 Q262.6398,389.945 262.0461,389.6794 Q261.4523,389.3981 260.8273,389.3981 Q259.4836,389.3981 258.7961,390.4763 Q258.1086,391.5388 258.1086,393.6325 Q258.1086,395.7263 258.7961,396.8044 Q259.4836,397.8669 260.8273,397.8669 Q261.4523,397.8669 262.0461,397.6013 Q262.6398,397.32 263.2648,396.7419 L263.2648,399.4606 Z " fill="#000000"/><text fill="#000000" font-family="sans-serif" font-size="14" lengthAdjust="spacing" textLength="68.0928" x="280.7961" y="398.6667">Appender</text><line style="stroke:#181818;stroke-width:0.5;" x1="212.05" x2="385.135" y1="409.82" y2="409.82"/><text fill="#000000" font-family="sans-serif" font-size="14" lengthAdjust="spacing" textLength="95.7236" x="217.05" y="426.8151">Layout layout</text><line style="stroke:#181818;stroke-width:0.5;" x1="212.05" x2="385.135" y1="434.1169" y2="434.1169"/><text fill="#000000" font-family="sans-serif" font-size="14" lengthAdjust="spacing" textLength="163.085" x="217.05" y="451.112">void append(LogEvent)</text></g><!--class LoggerConfig--><g class="entity" data-entity="LoggerConfig" data-source-line="21" data-uid="ent0009" id="entity_LoggerConfig"><rect fill="#F1F1F1" height="129.4844" rx="2.5" ry="2.5" style="stroke:#181818;stroke-width:0.5;" width="271.6836" x="420.75" y="353.38"/><ellipse cx="505.6284" cy="369.38" fill="#ADD1B2" rx="11" ry="11" style="stroke:#181818;stroke-width:1;"/><path d="M508.5972,375.0206 Q508.019,375.3175 507.3784,375.4581 Q506.7378,375.6144 506.0347,375.6144 Q503.5347,375.6144 502.2065,373.9738 Q500.894,372.3175 500.894,369.1925 Q500.894,366.0675 502.2065,364.4113 Q503.5347,362.755 506.0347,362.755 Q506.7378,362.755 507.3784,362.9113 Q508.0347,363.0675 508.5972,363.3644 L508.5972,366.0831 Q507.9722,365.505 507.3784,365.2394 Q506.7847,364.9581 506.1597,364.9581 Q504.8159,364.9581 504.1284,366.0363 Q503.4409,367.0988 503.4409,369.1925 Q503.4409,371.2863 504.1284,372.3644 Q504.8159,373.4269 506.1597,373.4269 Q506.7847,373.4269 507.3784,373.1613 Q507.9722,372.88 508.5972,372.3019 L508.5972,375.0206 Z " fill="#000000"/><text fill="#000000" font-family="sans-serif" font-size="14" lengthAdjust="spacing" textLength="93.4268" x="526.1284" y="374.2267">LoggerConfig</text><line style="stroke:#181818;stroke-width:0.5;" x1="421.75" x2="691.4336" y1="385.38" y2="385.38"/><text fill="#000000" font-family="sans-serif" font-size="14" lengthAdjust="spacing" textLength="204.3945" x="426.75" y="402.3751">AppenderRef[] appenderRefs</text><text fill="#000000" font-family="sans-serif" font-size="14" lengthAdjust="spacing" textLength="259.6836" x="426.75" y="418.672">AppenderControl[] appenderControls</text><text fill="#000000" font-family="sans-serif" font-size="14" lengthAdjust="spacing" textLength="74.9424" x="426.75" y="434.9689">Level level</text><text fill="#000000" font-family="sans-serif" font-size="14" lengthAdjust="spacing" textLength="72.707" x="426.75" y="451.2657">Filter filter</text><line style="stroke:#181818;stroke-width:0.5;" x1="421.75" x2="691.4336" y1="458.5675" y2="458.5675"/><text fill="#000000" font-family="sans-serif" font-size="14" lengthAdjust="spacing" textLength="131.7012" x="426.75" y="475.5626">void log(LogEvent)</text></g><!--class StrSubstitutor--><g class="entity" data-entity="StrSubstitutor" data-source-line="23" data-uid="ent0011" id="entity_StrSubstitutor"><rect fill="#F1F1F1" height="80.5938" rx="2.5" ry="2.5" style="stroke:#181818;stroke-width:0.5;" width="203.4336" x="727.88" y="377.82"/><ellipse cx="776.5348" cy="393.82" fill="#ADD1B2" rx="11" ry="11" style="stroke:#181818;stroke-width:1;"/><path d="M779.5035,399.4606 Q778.9254,399.7575 778.2848,399.8981 Q777.6442,400.0544 776.941,400.0544 Q774.441,400.0544 773.1129,398.4138 Q771.8004,396.7575 771.8004,393.6325 Q771.8004,390.5075 773.1129,388.8513 Q774.441,387.195 776.941,387.195 Q777.6442,387.195 778.2848,387.3513 Q778.941,387.5075 779.5035,387.8044 L779.5035,390.5231 Q778.8785,389.945 778.2848,389.6794 Q777.691,389.3981 777.066,389.3981 Q775.7223,389.3981 775.0348,390.4763 Q774.3473,391.5388 774.3473,393.6325 Q774.3473,395.7263 775.0348,396.8044 Q775.7223,397.8669 777.066,397.8669 Q777.691,397.8669 778.2848,397.6013 Q778.8785,397.32 779.5035,396.7419 L779.5035,399.4606 Z " fill="#000000"/><text fill="#000000" font-family="sans-serif" font-size="14" lengthAdjust="spacing" textLength="97.624" x="797.0348" y="398.6667">StrSubstitutor</text><line style="stroke:#181818;stroke-width:0.5;" x1="728.88" x2="930.3136" y1="409.82" y2="409.82"/><text fill="#000000" font-family="sans-serif" font-size="14" lengthAdjust="spacing" textLength="169.3945" x="733.88" y="426.8151">Interpolator interpolator</text><line style="stroke:#181818;stroke-width:0.5;" x1="728.88" x2="930.3136" y1="434.1169" y2="434.1169"/><text fill="#000000" font-family="sans-serif" font-size="14" lengthAdjust="spacing" textLength="191.4336" x="733.88" y="451.112">String replace(String input)</text></g><!--link LoggerContext to Configuration--><g class="link" data-entity-1="LoggerContext" data-entity-2="Configuration" data-source-line="7" data-uid="lnk4" id="link_LoggerContext_Configuration"><path codeLine="7" d="M427.59,104.13 C427.59,122.53 427.59,137.86 427.59,157.57" fill="none" id="LoggerContext-to-Configuration" style="stroke:#181818;stroke-width:1;"/><polygon fill="#181818" points="427.59,163.57,431.59,154.57,427.59,158.57,423.59,154.57,427.59,163.57" style="stroke:#181818;stroke-width:1;"/></g><!--link Configuration to Filter--><g class="link" data-entity-1="Configuration" data-entity-2="Filter" data-source-line="17" data-uid="lnk6" id="link_Configuration_Filter"><path codeLine="17" d="M302.21,293.81 C266.8,312.5 228.44,333.31 193.59,353.38 C176.04,363.48 162.2181,371.8842 145.5181,382.3942" fill="none" id="Configuration-to-Filter" style="stroke:#181818;stroke-width:1;"/><polygon fill="#181818" points="140.44,385.59,150.1876,384.1816,144.6717,382.9268,145.9265,377.4109,140.44,385.59" style="stroke:#181818;stroke-width:1;"/><text fill="#000000" font-family="sans-serif" font-size="13" lengthAdjust="spacing" textLength="23.0356" x="124.7962" y="374.7894">0..*</text></g><!--link Configuration to Appender--><g class="link" data-entity-1="Configuration" data-entity-2="Appender" data-source-line="19" data-uid="lnk8" id="link_Configuration_Appender"><path codeLine="19" d="M383.56,293.63 C364.44,321.42 346.0429,348.1683 329.3029,372.4783" fill="none" id="Configuration-to-Appender" style="stroke:#181818;stroke-width:1;"/><polygon fill="#181818" points="325.9,377.42,334.2988,372.276,328.7357,373.3019,327.7099,367.7389,325.9,377.42" style="stroke:#181818;stroke-width:1;"/><text fill="#000000" font-family="sans-serif" font-size="13" lengthAdjust="spacing" textLength="23.0356" x="305.4222" y="366.8161">0..*</text></g><!--link Configuration to LoggerConfig--><g class="link" data-entity-1="Configuration" data-entity-2="LoggerConfig" data-source-line="21" data-uid="lnk10" id="link_Configuration_LoggerConfig"><path codeLine="21" d="M471.63,293.63 C484.84,312.83 495.9291,328.947 509.1391,348.147" fill="none" id="Configuration-to-LoggerConfig" style="stroke:#181818;stroke-width:1;"/><polygon fill="#181818" points="512.54,353.09,510.734,343.4081,509.7059,348.9708,504.1433,347.9427,512.54,353.09" style="stroke:#181818;stroke-width:1;"/><text fill="#000000" font-family="sans-serif" font-size="13" lengthAdjust="spacing" textLength="23.0356" x="483.466" y="342.2309">0..*</text></g><!--link Configuration to StrSubstitutor--><g class="link" data-entity-1="Configuration" data-entity-2="StrSubstitutor" data-source-line="23" data-uid="lnk12" id="link_Configuration_StrSubstitutor"><path codeLine="23" d="M579.65,293.87 C622.01,312.44 667.85,333.16 709.59,353.38 C725.09,360.88 736.1999,366.4966 751.7499,374.6766" fill="none" id="Configuration-to-StrSubstitutor" style="stroke:#181818;stroke-width:1;"/><polygon fill="#181818" points="757.06,377.47,750.9571,369.7399,752.6349,375.1422,747.2326,376.82,757.06,377.47" style="stroke:#181818;stroke-width:1;"/></g><!--SRC=[VL9DQyCm3BtdLuZkqWqQzWi6OsmmwAazZXtSH0q6pGws73R6_llybTGkePTOJvQVdlJIaR0MzdeOqBnenVZDyDi0-FWi1sS4IwsWYyYdK-779r0Cx9A20Jb5soCRgGPGuWllcx-cgSbtkwUQl6cwgA7kU4TIONlIr4Svp-E8ge-THGv3xpT9x7kVux5eIKoBo0JjrVL5SCArR00FZ-vaMR9ZRS1UuZ1JBJRCj7bisuTDLdIZO9xaHaafQwsibZRlRoQE-zgB7-qOA1uUJrhsUNDRJ_yweU9eJdgRznXU7j0wuhpIjTfgYQKt1pmNzdXaYyjWlz5K5EHCz0Kd9A3mNJ4rQlTMhecvSYd8UVV_cHarYP2G1KYc1eyDZYGwd2sNQdI1z1y0]--></g></svg>