<?xml version="1.0" encoding="us-ascii" standalone="no"?><svg xmlns="http://www.w3.org/2000/svg" xmlns:xlink="http://www.w3.org/1999/xlink" contentStyleType="text/css" height="489px" preserveAspectRatio="none" style="width:917px;height:489px;background:#FFFFFF;" version="1.1" viewBox="0 0 917 489" width="917px" zoomAndPan="magnify"><defs/><g><!--class LoggerContext--><g id="elem_LoggerContext"><rect codeLine="1" fill="#F1F1F1" height="96.8906" id="LoggerContext" rx="2.5" ry="2.5" style="stroke:#181818;stroke-width:0.5;" width="228" x="303.5" y="7"/><ellipse cx="362.25" cy="23" fill="#ADD1B2" rx="11" ry="11" style="stroke:#181818;stroke-width:1.0;"/><path d="M365.2188,28.6406 Q364.6406,28.9375 364,29.0781 Q363.3594,29.2344 362.6563,29.2344 Q360.1563,29.2344 358.8281,27.5938 Q357.5156,25.9375 357.5156,22.8125 Q357.5156,19.6875 358.8281,18.0313 Q360.1563,16.375 362.6563,16.375 Q363.3594,16.375 364,16.5313 Q364.6563,16.6875 365.2188,16.9844 L365.2188,19.7031 Q364.5938,19.125 364,18.8594 Q363.4063,18.5781 362.7813,18.5781 Q361.4375,18.5781 360.75,19.6563 Q360.0625,20.7188 360.0625,22.8125 Q360.0625,24.9063 360.75,25.9844 Q361.4375,27.0469 362.7813,27.0469 Q363.4063,27.0469 364,26.7813 Q364.5938,26.5 365.2188,25.9219 L365.2188,28.6406 Z " fill="#000000"/><text fill="#000000" font-family="sans-serif" font-size="14" lengthAdjust="spacing" textLength="102" x="382.75" y="27.8467">LoggerContext</text><line style="stroke:#181818;stroke-width:0.5;" x1="304.5" x2="530.5" y1="39" y2="39"/><text fill="#000000" font-family="sans-serif" font-size="14" lengthAdjust="spacing" textLength="138" x="309.5" y="55.9951">Configuration config</text><text fill="#000000" font-family="sans-serif" font-size="14" lengthAdjust="spacing" textLength="114" x="309.5" y="72.292">Logger[] loggers</text><line style="stroke:#181818;stroke-width:0.5;" x1="304.5" x2="530.5" y1="79.5938" y2="79.5938"/><text fill="#000000" font-family="sans-serif" font-size="14" lengthAdjust="spacing" textLength="216" x="309.5" y="96.5889">Logger getLogger(String name)</text></g><!--class Configuration--><g id="elem_Configuration"><rect codeLine="9" fill="#F1F1F1" height="129.4844" id="Configuration" rx="2.5" ry="2.5" style="stroke:#181818;stroke-width:2.0;" width="316" x="259.5" y="163.89"/><ellipse cx="367.25" cy="179.89" fill="#ADD1B2" rx="11" ry="11" style="stroke:#181818;stroke-width:1.0;"/><path d="M370.2188,185.5306 Q369.6406,185.8275 369,185.9681 Q368.3594,186.1244 367.6563,186.1244 Q365.1563,186.1244 363.8281,184.4838 Q362.5156,182.8275 362.5156,179.7025 Q362.5156,176.5775 363.8281,174.9213 Q365.1563,173.265 367.6563,173.265 Q368.3594,173.265 369,173.4213 Q369.6563,173.5775 370.2188,173.8744 L370.2188,176.5931 Q369.5938,176.015 369,175.7494 Q368.4063,175.4681 367.7813,175.4681 Q366.4375,175.4681 365.75,176.5463 Q365.0625,177.6088 365.0625,179.7025 Q365.0625,181.7963 365.75,182.8744 Q366.4375,183.9369 367.7813,183.9369 Q368.4063,183.9369 369,183.6713 Q369.5938,183.39 370.2188,182.8119 L370.2188,185.5306 Z " fill="#000000"/><text fill="#000000" font-family="sans-serif" font-size="14" lengthAdjust="spacing" textLength="92" x="387.75" y="184.7367">Configuration</text><line style="stroke:#181818;stroke-width:2.0;" x1="260.5" x2="574.5" y1="195.89" y2="195.89"/><text fill="#000000" font-family="sans-serif" font-size="14" lengthAdjust="spacing" textLength="157" x="265.5" y="212.8851">Appender[] appenders</text><text fill="#000000" font-family="sans-serif" font-size="14" lengthAdjust="spacing" textLength="66" x="265.5" y="229.182">Filter filter</text><text fill="#000000" font-family="sans-serif" font-size="14" lengthAdjust="spacing" textLength="202" x="265.5" y="245.4789">LoggerConfig[] loggerConfigs</text><text fill="#000000" font-family="sans-serif" font-size="14" lengthAdjust="spacing" textLength="174" x="265.5" y="261.7757">StrSubstitutor substitutor</text><line style="stroke:#181818;stroke-width:2.0;" x1="260.5" x2="574.5" y1="269.0775" y2="269.0775"/><text fill="#000000" font-family="sans-serif" font-size="14" lengthAdjust="spacing" textLength="304" x="265.5" y="286.0726">LoggerConfig getLoggerConfig(String name)</text></g><!--class Filter--><g id="elem_Filter"><rect codeLine="30" fill="#F1F1F1" height="64.2969" id="Filter" rx="2.5" ry="2.5" style="stroke:#181818;stroke-width:0.5;" width="163" x="7" y="385.97"/><ellipse cx="67.75" cy="401.97" fill="#ADD1B2" rx="11" ry="11" style="stroke:#181818;stroke-width:1.0;"/><path d="M70.7188,407.6106 Q70.1406,407.9075 69.5,408.0481 Q68.8594,408.2044 68.1563,408.2044 Q65.6563,408.2044 64.3281,406.5638 Q63.0156,404.9075 63.0156,401.7825 Q63.0156,398.6575 64.3281,397.0013 Q65.6563,395.345 68.1563,395.345 Q68.8594,395.345 69.5,395.5013 Q70.1563,395.6575 70.7188,395.9544 L70.7188,398.6731 Q70.0938,398.095 69.5,397.8294 Q68.9063,397.5481 68.2813,397.5481 Q66.9375,397.5481 66.25,398.6263 Q65.5625,399.6888 65.5625,401.7825 Q65.5625,403.8763 66.25,404.9544 Q66.9375,406.0169 68.2813,406.0169 Q68.9063,406.0169 69.5,405.7513 Q70.0938,405.47 70.7188,404.8919 L70.7188,407.6106 Z " fill="#000000"/><text fill="#000000" font-family="sans-serif" font-size="14" lengthAdjust="spacing" textLength="33" x="88.25" y="406.8167">Filter</text><line style="stroke:#181818;stroke-width:0.5;" x1="8" x2="169" y1="417.97" y2="417.97"/><line style="stroke:#181818;stroke-width:0.5;" x1="8" x2="169" y1="425.97" y2="425.97"/><text fill="#000000" font-family="sans-serif" font-size="14" lengthAdjust="spacing" textLength="151" x="13" y="442.9651">Result filter(LogEvent)</text></g><!--class Appender--><g id="elem_Appender"><rect codeLine="25" fill="#F1F1F1" height="80.5938" id="Appender" rx="2.5" ry="2.5" style="stroke:#181818;stroke-width:0.5;" width="171" x="205" y="377.82"/><ellipse cx="252.25" cy="393.82" fill="#ADD1B2" rx="11" ry="11" style="stroke:#181818;stroke-width:1.0;"/><path d="M255.2188,399.4606 Q254.6406,399.7575 254,399.8981 Q253.3594,400.0544 252.6563,400.0544 Q250.1563,400.0544 248.8281,398.4138 Q247.5156,396.7575 247.5156,393.6325 Q247.5156,390.5075 248.8281,388.8513 Q250.1563,387.195 252.6563,387.195 Q253.3594,387.195 254,387.3513 Q254.6563,387.5075 255.2188,387.8044 L255.2188,390.5231 Q254.5938,389.945 254,389.6794 Q253.4063,389.3981 252.7813,389.3981 Q251.4375,389.3981 250.75,390.4763 Q250.0625,391.5388 250.0625,393.6325 Q250.0625,395.7263 250.75,396.8044 Q251.4375,397.8669 252.7813,397.8669 Q253.4063,397.8669 254,397.6013 Q254.5938,397.32 255.2188,396.7419 L255.2188,399.4606 Z " fill="#000000"/><text fill="#000000" font-family="sans-serif" font-size="14" lengthAdjust="spacing" textLength="68" x="272.75" y="398.6667">Appender</text><line style="stroke:#181818;stroke-width:0.5;" x1="206" x2="375" y1="409.82" y2="409.82"/><text fill="#000000" font-family="sans-serif" font-size="14" lengthAdjust="spacing" textLength="90" x="211" y="426.8151">Layout layout</text><line style="stroke:#181818;stroke-width:0.5;" x1="206" x2="375" y1="434.1169" y2="434.1169"/><text fill="#000000" font-family="sans-serif" font-size="14" lengthAdjust="spacing" textLength="159" x="211" y="451.112">void append(LogEvent)</text></g><!--class LoggerConfig--><g id="elem_LoggerConfig"><rect codeLine="34" fill="#F1F1F1" height="129.4844" id="LoggerConfig" rx="2.5" ry="2.5" style="stroke:#181818;stroke-width:0.5;" width="269" x="411" y="353.38"/><ellipse cx="495.25" cy="369.38" fill="#ADD1B2" rx="11" ry="11" style="stroke:#181818;stroke-width:1.0;"/><path d="M498.2188,375.0206 Q497.6406,375.3175 497,375.4581 Q496.3594,375.6144 495.6563,375.6144 Q493.1563,375.6144 491.8281,373.9738 Q490.5156,372.3175 490.5156,369.1925 Q490.5156,366.0675 491.8281,364.4113 Q493.1563,362.755 495.6563,362.755 Q496.3594,362.755 497,362.9113 Q497.6563,363.0675 498.2188,363.3644 L498.2188,366.0831 Q497.5938,365.505 497,365.2394 Q496.4063,364.9581 495.7813,364.9581 Q494.4375,364.9581 493.75,366.0363 Q493.0625,367.0988 493.0625,369.1925 Q493.0625,371.2863 493.75,372.3644 Q494.4375,373.4269 495.7813,373.4269 Q496.4063,373.4269 497,373.1613 Q497.5938,372.88 498.2188,372.3019 L498.2188,375.0206 Z " fill="#000000"/><text fill="#000000" font-family="sans-serif" font-size="14" lengthAdjust="spacing" textLength="92" x="515.75" y="374.2267">LoggerConfig</text><line style="stroke:#181818;stroke-width:0.5;" x1="412" x2="679" y1="385.38" y2="385.38"/><text fill="#000000" font-family="sans-serif" font-size="14" lengthAdjust="spacing" textLength="203" x="417" y="402.3751">AppenderRef[] appenderRefs</text><text fill="#000000" font-family="sans-serif" font-size="14" lengthAdjust="spacing" textLength="257" x="417" y="418.672">AppenderControl[] appenderControls</text><text fill="#000000" font-family="sans-serif" font-size="14" lengthAdjust="spacing" textLength="70" x="417" y="434.9689">Level level</text><text fill="#000000" font-family="sans-serif" font-size="14" lengthAdjust="spacing" textLength="66" x="417" y="451.2657">Filter filter</text><line style="stroke:#181818;stroke-width:0.5;" x1="412" x2="679" y1="458.5675" y2="458.5675"/><text fill="#000000" font-family="sans-serif" font-size="14" lengthAdjust="spacing" textLength="127" x="417" y="475.5626">void log(LogEvent)</text></g><!--class StrSubstitutor--><g id="elem_StrSubstitutor"><rect codeLine="42" fill="#F1F1F1" height="80.5938" id="StrSubstitutor" rx="2.5" ry="2.5" style="stroke:#181818;stroke-width:0.5;" width="196" x="714.5" y="377.82"/><ellipse cx="760.75" cy="393.82" fill="#ADD1B2" rx="11" ry="11" style="stroke:#181818;stroke-width:1.0;"/><path d="M763.7188,399.4606 Q763.1406,399.7575 762.5,399.8981 Q761.8594,400.0544 761.1563,400.0544 Q758.6563,400.0544 757.3281,398.4138 Q756.0156,396.7575 756.0156,393.6325 Q756.0156,390.5075 757.3281,388.8513 Q758.6563,387.195 761.1563,387.195 Q761.8594,387.195 762.5,387.3513 Q763.1563,387.5075 763.7188,387.8044 L763.7188,390.5231 Q763.0938,389.945 762.5,389.6794 Q761.9063,389.3981 761.2813,389.3981 Q759.9375,389.3981 759.25,390.4763 Q758.5625,391.5388 758.5625,393.6325 Q758.5625,395.7263 759.25,396.8044 Q759.9375,397.8669 761.2813,397.8669 Q761.9063,397.8669 762.5,397.6013 Q763.0938,397.32 763.7188,396.7419 L763.7188,399.4606 Z " fill="#000000"/><text fill="#000000" font-family="sans-serif" font-size="14" lengthAdjust="spacing" textLength="95" x="781.25" y="398.6667">StrSubstitutor</text><line style="stroke:#181818;stroke-width:0.5;" x1="715.5" x2="909.5" y1="409.82" y2="409.82"/><text fill="#000000" font-family="sans-serif" font-size="14" lengthAdjust="spacing" textLength="162" x="720.5" y="426.8151">Interpolator interpolator</text><line style="stroke:#181818;stroke-width:0.5;" x1="715.5" x2="909.5" y1="434.1169" y2="434.1169"/><text fill="#000000" font-family="sans-serif" font-size="14" lengthAdjust="spacing" textLength="184" x="720.5" y="451.112">String replace(String input)</text></g><!--link LoggerContext to Configuration--><g id="link_LoggerContext_Configuration"><path codeLine="7" d="M417.5,104.13 C417.5,122.53 417.5,137.86 417.5,157.57 " fill="none" id="LoggerContext-to-Configuration" style="stroke:#181818;stroke-width:1.0;"/><polygon fill="#181818" points="417.5,163.57,421.5,154.57,417.5,158.57,413.5,154.57,417.5,163.57" style="stroke:#181818;stroke-width:1.0;"/></g><!--link Configuration to Filter--><g id="link_Configuration_Filter"><path codeLine="17" d="M293.86,293.86 C259.14,312.51 221.58,333.28 187.5,353.38 C170.42,363.45 157.1044,371.7759 140.8944,382.2859 " fill="none" id="Configuration-to-Filter" style="stroke:#181818;stroke-width:1.0;"/><polygon fill="#181818" points="135.86,385.55,145.5877,384.0101,140.0553,382.8299,141.2355,377.2975,135.86,385.55" style="stroke:#181818;stroke-width:1.0;"/><text fill="#000000" font-family="sans-serif" font-size="13" lengthAdjust="spacing" textLength="23" x="119.6958" y="374.9915">0..*</text></g><!--link Configuration to Appender--><g id="link_Configuration_Appender"><path codeLine="19" d="M374.15,293.63 C355.32,321.42 337.2254,348.1427 320.7554,372.4527 " fill="none" id="Configuration-to-Appender" style="stroke:#181818;stroke-width:1.0;"/><polygon fill="#181818" points="317.39,377.42,325.7496,372.2126,320.1945,373.2806,319.1265,367.7254,317.39,377.42" style="stroke:#181818;stroke-width:1.0;"/><text fill="#000000" font-family="sans-serif" font-size="13" lengthAdjust="spacing" textLength="23" x="296.8428" y="366.8161">0..*</text></g><!--link Configuration to LoggerConfig--><g id="link_Configuration_LoggerConfig"><path codeLine="21" d="M461.19,293.63 C474.3,312.83 485.2966,328.9349 498.4066,348.1349 " fill="none" id="Configuration-to-LoggerConfig" style="stroke:#181818;stroke-width:1.0;"/><polygon fill="#181818" points="501.79,353.09,500.0183,343.4018,498.9705,348.9608,493.4115,347.913,501.79,353.09" style="stroke:#181818;stroke-width:1.0;"/><text fill="#000000" font-family="sans-serif" font-size="13" lengthAdjust="spacing" textLength="23" x="472.7514" y="342.2309">0..*</text></g><!--link Configuration to StrSubstitutor--><g id="link_Configuration_StrSubstitutor"><path codeLine="23" d="M569.42,293.8 C611.28,312.28 656.45,332.98 697.5,353.38 C712.42,360.79 722.9297,366.274 737.8397,374.454 " fill="none" id="Configuration-to-StrSubstitutor" style="stroke:#181818;stroke-width:1.0;"/><polygon fill="#181818" points="743.1,377.34,737.1335,369.5042,738.7164,374.935,733.2855,376.518,743.1,377.34" style="stroke:#181818;stroke-width:1.0;"/></g><!--SRC=[VL9DQyCm3BtdLuZkqWqQzWi6OsmmwAazZXtSH0q6pGws73R6_llybTGkePTOJvQVdlJIaR0MzdeOqBnenVZDyDi0-FWi1sS4IwsWYyYdK-779r0Cx9A20Jb5soCRgGPGuWllcx-cgSbtkwUQl6cwgA7kU4TIONlIr4Svp-E8ge-THGv3xpT9x7kVux5eIKoBo0JjrVL5SCArR00FZ-vaMR9ZRS1UuZ1JBJRCj7bisuTDLdIZO9xaHaafQwsibZRlRoQE-zgB7-qOA1uUJrhsUNDRJ_yweU9eJdgRznXU7j0wuhpIjTfgYQKt1pmNzdXaYyjWlz5K5EHCz0Kd9A3mNJ4rQlTMhecvSYd8UVV_cHarYP2G1KYc1eyDZYGwd2sNQdI1z1y0]--></g></svg>