<svg xmlns="http://www.w3.org/2000/svg" xmlns:xlink="http://www.w3.org/1999/xlink" contentStyleType="text/css" data-diagram-type="CLASS" height="278px" preserveAspectRatio="none" style="width:787px;height:278px;background:#FFFFFF;" version="1.1" viewBox="0 0 787 278" width="787px" zoomAndPan="magnify"><defs/><g><!--cluster LoggerContext--><g class="cluster" data-entity="LoggerContext" data-source-line="3" data-uid="ent0002" id="cluster_LoggerContext"><path d="M8.5,6 L126.251,6 A3.75,3.75 0 0 1 128.751,8.5 L135.751,28.2969 L624.53,28.2969 A2.5,2.5 0 0 1 627.03,30.7969 L627.03,268.5 A2.5,2.5 0 0 1 624.53,271 L8.5,271 A2.5,2.5 0 0 1 6,268.5 L6,8.5 A2.5,2.5 0 0 1 8.5,6" fill="none" style="stroke:#000000;stroke-width:1.5;"/><line style="stroke:#000000;stroke-width:1.5;" x1="6" x2="135.751" y1="28.2969" y2="28.2969"/><text fill="#000000" font-family="sans-serif" font-size="14" font-weight="bold" lengthAdjust="spacing" textLength="116.751" x="10" y="20.9951">LoggerContext</text></g><!--cluster c2--><g class="cluster" data-entity="c2" data-source-line="6" data-uid="ent0004" id="cluster_c2"><path d="M131.01,160 L279.1946,160 A3.75,3.75 0 0 1 281.6946,162.5 L288.6946,182.2969 L600.53,182.2969 A2.5,2.5 0 0 1 603.03,184.7969 L603.03,244.5 A2.5,2.5 0 0 1 600.53,247 L131.01,247 A2.5,2.5 0 0 1 128.51,244.5 L128.51,162.5 A2.5,2.5 0 0 1 131.01,160" fill="none" style="stroke:#000000;stroke-width:1.5;"/><line style="stroke:#000000;stroke-width:1.5;" x1="128.51" x2="288.6946" y1="182.2969" y2="182.2969"/><text fill="#000000" font-family="sans-serif" font-size="14" font-weight="bold" lengthAdjust="spacing" textLength="147.1846" x="132.51" y="174.9951">New Configuration</text></g><!--cluster c1--><g class="cluster" data-entity="c1" data-source-line="12" data-uid="ent0008" id="cluster_c1"><path d="M131.01,49 L271.7707,49 A3.75,3.75 0 0 1 274.2707,51.5 L281.2707,71.2969 L600.53,71.2969 A2.5,2.5 0 0 1 603.03,73.7969 L603.03,133.5 A2.5,2.5 0 0 1 600.53,136 L131.01,136 A2.5,2.5 0 0 1 128.51,133.5 L128.51,51.5 A2.5,2.5 0 0 1 131.01,49" fill="none" style="stroke:#000000;stroke-width:1.5;"/><line style="stroke:#000000;stroke-width:1.5;" x1="128.51" x2="281.2707" y1="71.2969" y2="71.2969"/><text fill="#000000" font-family="sans-serif" font-size="14" font-weight="bold" lengthAdjust="spacing" textLength="139.7607" x="132.51" y="63.9951">Old Configuration</text></g><g class="entity" data-entity="Logger" data-source-line="4" data-uid="ent0003" id="entity_Logger"><rect fill="#F1F1F1" height="36.2969" rx="2.5" ry="2.5" style="stroke:#181818;stroke-width:0.5;" width="62.5078" x="22" y="139.85"/><text fill="#000000" font-family="sans-serif" font-size="14" lengthAdjust="spacing" textLength="48.5078" x="29" y="154.8451">Logger</text><line style="stroke:#181818;stroke-width:0.5;" x1="23" x2="83.5078" y1="160.1469" y2="160.1469"/></g><g class="entity" data-entity="lc2" data-source-line="7" data-uid="ent0005" id="entity_lc2"><rect fill="#F1F1F1" height="36.2969" rx="2.5" ry="2.5" style="stroke:#181818;stroke-width:0.5;" width="107.4268" x="144.51" y="194.85"/><text fill="#000000" font-family="sans-serif" font-size="14" lengthAdjust="spacing" textLength="93.4268" x="151.51" y="209.8451">LoggerConfig</text><line style="stroke:#181818;stroke-width:0.5;" x1="145.51" x2="250.9368" y1="215.1469" y2="215.1469"/></g><g class="entity" data-entity="ac2" data-source-line="8" data-uid="ent0006" id="entity_ac2"><rect fill="#F1F1F1" height="36.2969" rx="2.5" ry="2.5" style="stroke:#181818;stroke-width:0.5;" width="133.0068" x="311.93" y="194.85"/><text fill="#000000" font-family="sans-serif" font-size="14" lengthAdjust="spacing" textLength="119.0068" x="318.93" y="209.8451">AppenderControl</text><line style="stroke:#181818;stroke-width:0.5;" x1="312.93" x2="443.9368" y1="215.1469" y2="215.1469"/></g><g class="entity" data-entity="app2" data-source-line="9" data-uid="ent0007" id="entity_app2"><rect fill="#F1F1F1" height="36.2969" rx="2.5" ry="2.5" style="stroke:#181818;stroke-width:0.5;" width="82.0928" x="504.94" y="194.85"/><text fill="#000000" font-family="sans-serif" font-size="14" lengthAdjust="spacing" textLength="68.0928" x="511.94" y="209.8451">Appender</text><line style="stroke:#181818;stroke-width:0.5;" x1="505.94" x2="586.0328" y1="215.1469" y2="215.1469"/></g><g class="entity" data-entity="lc1" data-source-line="13" data-uid="ent0009" id="entity_lc1"><rect fill="#F1F1F1" height="36.2969" rx="2.5" ry="2.5" style="stroke:#181818;stroke-width:0.5;" width="107.4268" x="144.51" y="83.85"/><text fill="#000000" font-family="sans-serif" font-size="14" lengthAdjust="spacing" textLength="93.4268" x="151.51" y="98.8451">LoggerConfig</text><line style="stroke:#181818;stroke-width:0.5;" x1="145.51" x2="250.9368" y1="104.1469" y2="104.1469"/></g><g class="entity" data-entity="ac1" data-source-line="14" data-uid="ent0010" id="entity_ac1"><rect fill="#F1F1F1" height="36.2969" rx="2.5" ry="2.5" style="stroke:#181818;stroke-width:0.5;" width="133.0068" x="311.93" y="83.85"/><text fill="#000000" font-family="sans-serif" font-size="14" lengthAdjust="spacing" textLength="119.0068" x="318.93" y="98.8451">AppenderControl</text><line style="stroke:#181818;stroke-width:0.5;" x1="312.93" x2="443.9368" y1="104.1469" y2="104.1469"/></g><g class="entity" data-entity="app1" data-source-line="15" data-uid="ent0011" id="entity_app1"><rect fill="#F1F1F1" height="36.2969" rx="2.5" ry="2.5" style="stroke:#181818;stroke-width:0.5;" width="82.0928" x="504.94" y="83.85"/><text fill="#000000" font-family="sans-serif" font-size="14" lengthAdjust="spacing" textLength="68.0928" x="511.94" y="98.8451">Appender</text><line style="stroke:#181818;stroke-width:0.5;" x1="505.94" x2="586.0328" y1="104.1469" y2="104.1469"/></g><g class="entity" data-entity="AbstractManager" data-source-line="19" data-uid="ent0012" id="entity_AbstractManager"><rect fill="#F1F1F1" height="36.2969" rx="2.5" ry="2.5" style="stroke:#181818;stroke-width:0.5;" width="134.1348" x="647.03" y="139.85"/><text fill="#000000" font-family="sans-serif" font-size="14" lengthAdjust="spacing" textLength="120.1348" x="654.03" y="154.8451">AbstractManager</text><line style="stroke:#181818;stroke-width:0.5;" x1="648.03" x2="780.1648" y1="160.1469" y2="160.1469"/></g><!--link Logger to lc1--><g class="link" data-entity-1="Logger" data-entity-2="lc1" data-source-line="21" data-uid="lnk13" id="link_Logger_lc1"><path codeLine="21" d="M84.92,145.99 C103.79,138.59 122.783,131.1577 144.133,122.7977" fill="none" id="Logger-to-lc1" style="stroke:#181818;stroke-width:1;stroke-dasharray:7.0,7.0;"/><polygon fill="#181818" points="149.72,120.61,139.8811,120.1669,145.0642,122.4331,142.798,127.6162,149.72,120.61" style="stroke:#181818;stroke-width:1;"/></g><!--link lc1 to ac1--><g class="link" data-entity-1="lc1" data-entity-2="ac1" data-source-line="22" data-uid="lnk14" id="link_lc1_ac1"><path codeLine="22" d="M252.21,102 C270.88,102 286.11,102 305.7,102" fill="none" id="lc1-to-ac1" style="stroke:#181818;stroke-width:1;"/><polygon fill="#181818" points="311.7,102,302.7,98,306.7,102,302.7,106,311.7,102" style="stroke:#181818;stroke-width:1;"/></g><!--link ac1 to app1--><g class="link" data-entity-1="ac1" data-entity-2="app1" data-source-line="23" data-uid="lnk15" id="link_ac1_app1"><path codeLine="23" d="M445.34,102 C465.36,102 480.75,102 498.56,102" fill="none" id="ac1-to-app1" style="stroke:#181818;stroke-width:1;"/><polygon fill="#181818" points="504.56,102,495.56,98,499.56,102,495.56,106,504.56,102" style="stroke:#181818;stroke-width:1;"/></g><!--link app1 to AbstractManager--><g class="link" data-entity-1="app1" data-entity-2="AbstractManager" data-source-line="24" data-uid="lnk16" id="link_app1_AbstractManager"><path codeLine="24" d="M587.2,115.56 C608.42,122.71 629.0943,129.6835 652.2043,137.4735" fill="none" id="app1-to-AbstractManager" style="stroke:#181818;stroke-width:1;"/><polygon fill="#181818" points="657.89,139.39,650.6392,132.7247,653.1519,137.7929,648.0838,140.3056,657.89,139.39" style="stroke:#181818;stroke-width:1;"/></g><!--link Logger to lc2--><g class="link" data-entity-1="Logger" data-entity-2="lc2" data-source-line="26" data-uid="lnk17" id="link_Logger_lc2"><path codeLine="26" d="M84.92,169.8 C103.55,176.96 122.1292,184.1181 143.2892,192.2481" fill="none" id="Logger-to-lc2" style="stroke:#181818;stroke-width:1;"/><polygon fill="#181818" points="148.89,194.4,141.9234,187.4382,144.2226,192.6067,139.0541,194.906,148.89,194.4" style="stroke:#181818;stroke-width:1;"/></g><!--link lc2 to ac2--><g class="link" data-entity-1="lc2" data-entity-2="ac2" data-source-line="27" data-uid="lnk18" id="link_lc2_ac2"><path codeLine="27" d="M252.21,213 C270.88,213 286.11,213 305.7,213" fill="none" id="lc2-to-ac2" style="stroke:#181818;stroke-width:1;"/><polygon fill="#181818" points="311.7,213,302.7,209,306.7,213,302.7,217,311.7,213" style="stroke:#181818;stroke-width:1;"/></g><!--link ac2 to app2--><g class="link" data-entity-1="ac2" data-entity-2="app2" data-source-line="28" data-uid="lnk19" id="link_ac2_app2"><path codeLine="28" d="M445.34,213 C465.36,213 480.75,213 498.56,213" fill="none" id="ac2-to-app2" style="stroke:#181818;stroke-width:1;"/><polygon fill="#181818" points="504.56,213,495.56,209,499.56,213,495.56,217,504.56,213" style="stroke:#181818;stroke-width:1;"/></g><!--link app2 to AbstractManager--><g class="link" data-entity-1="app2" data-entity-2="AbstractManager" data-source-line="29" data-uid="lnk20" id="link_app2_AbstractManager"><path codeLine="29" d="M587.2,199.69 C608.13,192.76 628.3644,186.0569 651.2444,178.4769" fill="none" id="app2-to-AbstractManager" style="stroke:#181818;stroke-width:1;"/><polygon fill="#181818" points="656.94,176.59,647.1387,175.6233,652.1937,178.1624,649.6546,183.2174,656.94,176.59" style="stroke:#181818;stroke-width:1;"/></g><!--SRC=[ZP1R2i8m44N_kugX_oqa2oWKVtsiOPgciLgQ42CAujwTF2gYLHkOaCV9oMK6sJbm6colzWxQtahXUZrccK5nH2LXhPMITgL79wyERXdGqCs1i7ILXQC9pxVo0aHtlJfRzAeSy0I2fwSlp_Edck103O9_GBKnScnZ0gk7mE4FBWB6HEB-bcutj7FfsB9qR64wzZSTI-aeNqBgvkGi2hV14KDNu_zGbbNucGgAeWfsdDPUvAUm-sRmTxwpLCd0oS0d0_S6FcTu0000]--></g></svg>