<?xml version="1.0" encoding="us-ascii" standalone="no"?><svg xmlns="http://www.w3.org/2000/svg" xmlns:xlink="http://www.w3.org/1999/xlink" contentStyleType="text/css" height="507px" preserveAspectRatio="none" style="width:649px;height:507px;background:#FFFFFF;" version="1.1" viewBox="0 0 649 507" width="649px" zoomAndPan="magnify"><defs/><g><!--class Configuration--><g id="elem_Configuration"><rect codeLine="1" fill="#F1F1F1" height="129.4844" id="Configuration" rx="2.5" ry="2.5" style="stroke:#181818;stroke-width:0.5;" width="316" x="7" y="7"/><ellipse cx="114.75" cy="23" fill="#ADD1B2" rx="11" ry="11" style="stroke:#181818;stroke-width:1.0;"/><path d="M117.7188,28.6406 Q117.1406,28.9375 116.5,29.0781 Q115.8594,29.2344 115.1563,29.2344 Q112.6563,29.2344 111.3281,27.5938 Q110.0156,25.9375 110.0156,22.8125 Q110.0156,19.6875 111.3281,18.0313 Q112.6563,16.375 115.1563,16.375 Q115.8594,16.375 116.5,16.5313 Q117.1563,16.6875 117.7188,16.9844 L117.7188,19.7031 Q117.0938,19.125 116.5,18.8594 Q115.9063,18.5781 115.2813,18.5781 Q113.9375,18.5781 113.25,19.6563 Q112.5625,20.7188 112.5625,22.8125 Q112.5625,24.9063 113.25,25.9844 Q113.9375,27.0469 115.2813,27.0469 Q115.9063,27.0469 116.5,26.7813 Q117.0938,26.5 117.7188,25.9219 L117.7188,28.6406 Z " fill="#000000"/><text fill="#000000" font-family="sans-serif" font-size="14" lengthAdjust="spacing" textLength="92" x="135.25" y="27.8467">Configuration</text><line style="stroke:#181818;stroke-width:0.5;" x1="8" x2="322" y1="39" y2="39"/><text fill="#000000" font-family="sans-serif" font-size="14" lengthAdjust="spacing" textLength="157" x="13" y="55.9951">Appender[] appenders</text><text fill="#000000" font-family="sans-serif" font-size="14" lengthAdjust="spacing" textLength="66" x="13" y="72.292">Filter filter</text><text fill="#000000" font-family="sans-serif" font-size="14" lengthAdjust="spacing" textLength="202" x="13" y="88.5889">LoggerConfig[] loggerConfigs</text><text fill="#000000" font-family="sans-serif" font-size="14" lengthAdjust="spacing" textLength="174" x="13" y="104.8857">StrSubstitutor substitutor</text><line style="stroke:#181818;stroke-width:0.5;" x1="8" x2="322" y1="112.1875" y2="112.1875"/><text fill="#000000" font-family="sans-serif" font-size="14" lengthAdjust="spacing" textLength="304" x="13" y="129.1826">LoggerConfig getLoggerConfig(String name)</text></g><!--class LoggerConfig--><g id="elem_LoggerConfig"><rect codeLine="15" fill="#F1F1F1" height="129.4844" id="LoggerConfig" rx="2.5" ry="2.5" style="stroke:#181818;stroke-width:2.0;" width="269" x="197.5" y="213.49"/><ellipse cx="281.75" cy="229.49" fill="#ADD1B2" rx="11" ry="11" style="stroke:#181818;stroke-width:1.0;"/><path d="M284.7188,235.1306 Q284.1406,235.4275 283.5,235.5681 Q282.8594,235.7244 282.1563,235.7244 Q279.6563,235.7244 278.3281,234.0838 Q277.0156,232.4275 277.0156,229.3025 Q277.0156,226.1775 278.3281,224.5213 Q279.6563,222.865 282.1563,222.865 Q282.8594,222.865 283.5,223.0213 Q284.1563,223.1775 284.7188,223.4744 L284.7188,226.1931 Q284.0938,225.615 283.5,225.3494 Q282.9063,225.0681 282.2813,225.0681 Q280.9375,225.0681 280.25,226.1463 Q279.5625,227.2088 279.5625,229.3025 Q279.5625,231.3963 280.25,232.4744 Q280.9375,233.5369 282.2813,233.5369 Q282.9063,233.5369 283.5,233.2713 Q284.0938,232.99 284.7188,232.4119 L284.7188,235.1306 Z " fill="#000000"/><text fill="#000000" font-family="sans-serif" font-size="14" lengthAdjust="spacing" textLength="92" x="302.25" y="234.3367">LoggerConfig</text><line style="stroke:#181818;stroke-width:2.0;" x1="198.5" x2="465.5" y1="245.49" y2="245.49"/><text fill="#000000" font-family="sans-serif" font-size="14" lengthAdjust="spacing" textLength="203" x="203.5" y="262.4851">AppenderRef[] appenderRefs</text><text fill="#000000" font-family="sans-serif" font-size="14" lengthAdjust="spacing" textLength="257" x="203.5" y="278.782">AppenderControl[] appenderControls</text><text fill="#000000" font-family="sans-serif" font-size="14" lengthAdjust="spacing" textLength="70" x="203.5" y="295.0789">Level level</text><text fill="#000000" font-family="sans-serif" font-size="14" lengthAdjust="spacing" textLength="66" x="203.5" y="311.3757">Filter filter</text><line style="stroke:#181818;stroke-width:2.0;" x1="198.5" x2="465.5" y1="318.6775" y2="318.6775"/><text fill="#000000" font-family="sans-serif" font-size="14" lengthAdjust="spacing" textLength="127" x="203.5" y="335.6726">void log(LogEvent)</text></g><!--class Filter--><g id="elem_Filter"><rect codeLine="11" fill="#F1F1F1" height="64.2969" id="Filter" rx="2.5" ry="2.5" style="stroke:#181818;stroke-width:0.5;" width="163" x="52.5" y="420.27"/><ellipse cx="113.25" cy="436.27" fill="#ADD1B2" rx="11" ry="11" style="stroke:#181818;stroke-width:1.0;"/><path d="M116.2188,441.9106 Q115.6406,442.2075 115,442.3481 Q114.3594,442.5044 113.6563,442.5044 Q111.1563,442.5044 109.8281,440.8638 Q108.5156,439.2075 108.5156,436.0825 Q108.5156,432.9575 109.8281,431.3013 Q111.1563,429.645 113.6563,429.645 Q114.3594,429.645 115,429.8013 Q115.6563,429.9575 116.2188,430.2544 L116.2188,432.9731 Q115.5938,432.395 115,432.1294 Q114.4063,431.8481 113.7813,431.8481 Q112.4375,431.8481 111.75,432.9263 Q111.0625,433.9888 111.0625,436.0825 Q111.0625,438.1763 111.75,439.2544 Q112.4375,440.3169 113.7813,440.3169 Q114.4063,440.3169 115,440.0513 Q115.5938,439.77 116.2188,439.1919 L116.2188,441.9106 Z " fill="#000000"/><text fill="#000000" font-family="sans-serif" font-size="14" lengthAdjust="spacing" textLength="33" x="133.75" y="441.1167">Filter</text><line style="stroke:#181818;stroke-width:0.5;" x1="53.5" x2="214.5" y1="452.27" y2="452.27"/><line style="stroke:#181818;stroke-width:0.5;" x1="53.5" x2="214.5" y1="460.27" y2="460.27"/><text fill="#000000" font-family="sans-serif" font-size="14" lengthAdjust="spacing" textLength="151" x="58.5" y="477.2651">Result filter(LogEvent)</text></g><!--class AppenderRef--><g id="elem_AppenderRef"><rect codeLine="29" fill="#F1F1F1" height="96.8906" id="AppenderRef" rx="2.5" ry="2.5" style="stroke:#181818;stroke-width:0.5;" width="163" x="250.5" y="403.97"/><ellipse cx="283.5" cy="419.97" fill="#ADD1B2" rx="11" ry="11" style="stroke:#181818;stroke-width:1.0;"/><path d="M286.4688,425.6106 Q285.8906,425.9075 285.25,426.0481 Q284.6094,426.2044 283.9063,426.2044 Q281.4063,426.2044 280.0781,424.5638 Q278.7656,422.9075 278.7656,419.7825 Q278.7656,416.6575 280.0781,415.0013 Q281.4063,413.345 283.9063,413.345 Q284.6094,413.345 285.25,413.5013 Q285.9063,413.6575 286.4688,413.9544 L286.4688,416.6731 Q285.8438,416.095 285.25,415.8294 Q284.6563,415.5481 284.0313,415.5481 Q282.6875,415.5481 282,416.6263 Q281.3125,417.6888 281.3125,419.7825 Q281.3125,421.8763 282,422.9544 Q282.6875,424.0169 284.0313,424.0169 Q284.6563,424.0169 285.25,423.7513 Q285.8438,423.47 286.4688,422.8919 L286.4688,425.6106 Z " fill="#000000"/><text fill="#000000" font-family="sans-serif" font-size="14" lengthAdjust="spacing" textLength="91" x="301.5" y="424.8167">AppenderRef</text><line style="stroke:#181818;stroke-width:0.5;" x1="251.5" x2="412.5" y1="435.97" y2="435.97"/><text fill="#000000" font-family="sans-serif" font-size="14" lengthAdjust="spacing" textLength="151" x="256.5" y="452.9651">String appenderName</text><text fill="#000000" font-family="sans-serif" font-size="14" lengthAdjust="spacing" textLength="70" x="256.5" y="469.262">Level level</text><text fill="#000000" font-family="sans-serif" font-size="14" lengthAdjust="spacing" textLength="66" x="256.5" y="485.5589">Filter filter</text><line style="stroke:#181818;stroke-width:0.5;" x1="251.5" x2="412.5" y1="492.8606" y2="492.8606"/></g><!--class AppenderControl--><g id="elem_AppenderControl"><rect codeLine="35" fill="#F1F1F1" height="96.8906" id="AppenderControl" rx="2.5" ry="2.5" style="stroke:#181818;stroke-width:0.5;" width="171" x="448.5" y="403.97"/><ellipse cx="472.95" cy="419.97" fill="#ADD1B2" rx="11" ry="11" style="stroke:#181818;stroke-width:1.0;"/><path d="M475.9188,425.6106 Q475.3406,425.9075 474.7,426.0481 Q474.0594,426.2044 473.3563,426.2044 Q470.8563,426.2044 469.5281,424.5638 Q468.2156,422.9075 468.2156,419.7825 Q468.2156,416.6575 469.5281,415.0013 Q470.8563,413.345 473.3563,413.345 Q474.0594,413.345 474.7,413.5013 Q475.3563,413.6575 475.9188,413.9544 L475.9188,416.6731 Q475.2938,416.095 474.7,415.8294 Q474.1063,415.5481 473.4813,415.5481 Q472.1375,415.5481 471.45,416.6263 Q470.7625,417.6888 470.7625,419.7825 Q470.7625,421.8763 471.45,422.9544 Q472.1375,424.0169 473.4813,424.0169 Q474.1063,424.0169 474.7,423.7513 Q475.2938,423.47 475.9188,422.8919 L475.9188,425.6106 Z " fill="#000000"/><text fill="#000000" font-family="sans-serif" font-size="14" lengthAdjust="spacing" textLength="118" x="489.05" y="424.8167">AppenderControl</text><line style="stroke:#181818;stroke-width:0.5;" x1="449.5" x2="618.5" y1="435.97" y2="435.97"/><text fill="#000000" font-family="sans-serif" font-size="14" lengthAdjust="spacing" textLength="139" x="454.5" y="452.9651">Appender appender</text><text fill="#000000" font-family="sans-serif" font-size="14" lengthAdjust="spacing" textLength="66" x="454.5" y="469.262">Filter filter</text><line style="stroke:#181818;stroke-width:0.5;" x1="449.5" x2="618.5" y1="476.5638" y2="476.5638"/><text fill="#000000" font-family="sans-serif" font-size="14" lengthAdjust="spacing" textLength="159" x="454.5" y="493.5589">void append(LogEvent)</text></g><!--class Logger--><g id="elem_Logger"><rect codeLine="41" fill="#F1F1F1" height="64.2969" id="Logger" rx="2.5" ry="2.5" style="stroke:#181818;stroke-width:0.5;" width="284" x="358" y="39.59"/><ellipse cx="471.75" cy="55.59" fill="#ADD1B2" rx="11" ry="11" style="stroke:#181818;stroke-width:1.0;"/><path d="M474.7188,61.2306 Q474.1406,61.5275 473.5,61.6681 Q472.8594,61.8244 472.1563,61.8244 Q469.6563,61.8244 468.3281,60.1838 Q467.0156,58.5275 467.0156,55.4025 Q467.0156,52.2775 468.3281,50.6213 Q469.6563,48.965 472.1563,48.965 Q472.8594,48.965 473.5,49.1213 Q474.1563,49.2775 474.7188,49.5744 L474.7188,52.2931 Q474.0938,51.715 473.5,51.4494 Q472.9063,51.1681 472.2813,51.1681 Q470.9375,51.1681 470.25,52.2463 Q469.5625,53.3088 469.5625,55.4025 Q469.5625,57.4963 470.25,58.5744 Q470.9375,59.6369 472.2813,59.6369 Q472.9063,59.6369 473.5,59.3713 Q474.0938,59.09 474.7188,58.5119 L474.7188,61.2306 Z " fill="#000000"/><text fill="#000000" font-family="sans-serif" font-size="14" lengthAdjust="spacing" textLength="48" x="492.25" y="60.4367">Logger</text><line style="stroke:#181818;stroke-width:0.5;" x1="359" x2="641" y1="71.59" y2="71.59"/><line style="stroke:#181818;stroke-width:0.5;" x1="359" x2="641" y1="79.59" y2="79.59"/><text fill="#000000" font-family="sans-serif" font-size="14" lengthAdjust="spacing" textLength="272" x="364" y="96.5851">void log(Level level, Message message)</text></g><!--link Configuration to LoggerConfig--><g id="link_Configuration_LoggerConfig"><path codeLine="9" d="M217.38,136.88 C237.28,161.24 256.1366,184.3213 276.0066,208.6713 " fill="none" id="Configuration-to-LoggerConfig" style="stroke:#181818;stroke-width:1.0;"/><polygon fill="#181818" points="279.8,213.32,277.209,203.8181,276.6388,209.4461,271.0108,208.8759,279.8,213.32" style="stroke:#181818;stroke-width:1.0;"/><text fill="#000000" font-family="sans-serif" font-size="13" lengthAdjust="spacing" textLength="23" x="249.8328" y="202.4741">0..*</text></g><!--link LoggerConfig to AppenderRef--><g id="link_LoggerConfig_AppenderRef"><path codeLine="23" d="M332,343.34 C332,363.33 332,379 332,397.66 " fill="none" id="LoggerConfig-to-AppenderRef" style="stroke:#181818;stroke-width:1.0;"/><polygon fill="#181818" points="332,403.66,336,394.66,332,398.66,328,394.66,332,403.66" style="stroke:#181818;stroke-width:1.0;"/><text fill="#000000" font-family="sans-serif" font-size="13" lengthAdjust="spacing" textLength="23" x="307.3828" y="392.8253">0..*</text></g><!--link LoggerConfig to AppenderControl--><g id="link_LoggerConfig_AppenderControl"><path codeLine="25" d="M407.22,343.34 C430.66,363.33 451.5239,381.1076 473.4139,399.7676 " fill="none" id="LoggerConfig-to-AppenderControl" style="stroke:#008000;stroke-width:6.0;"/><polygon fill="#008000" points="477.98,403.66,473.7257,394.7774,474.1749,400.4164,468.5359,400.8655,477.98,403.66" style="stroke:#008000;stroke-width:6.0;"/><text fill="#000000" font-family="sans-serif" font-size="13" lengthAdjust="spacing" textLength="23" x="445.485" y="392.8253">0..*</text></g><!--link LoggerConfig to Filter--><g id="link_LoggerConfig_Filter"><path codeLine="27" d="M258.27,343.34 C228.26,369.45 199.4479,394.5032 174.8579,415.8832 " fill="none" id="LoggerConfig-to-Filter" style="stroke:#181818;stroke-width:1.0;"/><polygon fill="#181818" points="170.33,419.82,179.7463,416.9334,174.1032,416.5393,174.4973,410.8962,170.33,419.82" style="stroke:#181818;stroke-width:1.0;"/></g><!--link Logger to LoggerConfig--><g id="link_Logger_LoggerConfig"><path codeLine="45" d="M474.12,104.25 C450.37,133.15 418.2793,172.2144 388.4993,208.4544 " fill="none" id="Logger-to-LoggerConfig" style="stroke:#008000;stroke-width:6.0;"/><polygon fill="#008000" points="384.69,213.09,393.4944,208.6761,387.8644,209.227,387.3135,203.597,384.69,213.09" style="stroke:#008000;stroke-width:6.0;"/><text fill="#000000" font-family="sans-serif" font-size="13" lengthAdjust="spacing" textLength="110" x="423" y="179.5569">delegates `log()`</text></g><!--SRC=[XP4zJyCm48Pt_ufJkpIeZPWOa41222PWQCUgKjtaOYnSkx8lML3_EqxY4ZiqOh5zlg_tdYiKTmwUZQwag2qdQJHyCu2dqmbrYNQx0nwUpd-_IaLeeUekRxyP8T3swJvKHQORkK4WnVPYGrPg0PeVCVEntjpK1qUIQZ8MtF1cPyPIXQlL8ynky_ncbhHWhEZ62IhRETReQaL1yC87lpIeAMjBzh69nBcI6lE3KMK2OOrLnC5RBdBwLB96HG7XfmE03IfGxNc5NcDasJ9BTIMAeaaZDUEWxLnOHBsaJrbyQNJkuMxtDp7ekjAX5tP14ZNgC8H5NSRxy0lxPxJpk5HedL3zBJX5flTFBwshDZ0Sz2pXtJFW0k7Otn7NILW9b7ieKQ7WX0xsRVLi_mC0]--></g></svg>