<svg xmlns="http://www.w3.org/2000/svg" xmlns:xlink="http://www.w3.org/1999/xlink" contentStyleType="text/css" data-diagram-type="CLASS" height="300px" preserveAspectRatio="none" style="width:663px;height:300px;background:#FFFFFF;" version="1.1" viewBox="0 0 663 300" width="663px" zoomAndPan="magnify"><defs/><g><!--class LoggerContext--><g class="entity" data-entity="LoggerContext" data-source-line="1" data-uid="ent0002" id="entity_LoggerContext"><rect fill="#F1F1F1" height="96.8906" rx="2.5" ry="2.5" style="stroke:#181818;stroke-width:2;" width="233.3135" x="222.92" y="7"/><ellipse cx="283.5274" cy="23" fill="#ADD1B2" rx="11" ry="11" style="stroke:#181818;stroke-width:1;"/><path d="M286.4962,28.6406 Q285.918,28.9375 285.2774,29.0781 Q284.6368,29.2344 283.9337,29.2344 Q281.4337,29.2344 280.1055,27.5938 Q278.793,25.9375 278.793,22.8125 Q278.793,19.6875 280.1055,18.0313 Q281.4337,16.375 283.9337,16.375 Q284.6368,16.375 285.2774,16.5313 Q285.9337,16.6875 286.4962,16.9844 L286.4962,19.7031 Q285.8712,19.125 285.2774,18.8594 Q284.6837,18.5781 284.0587,18.5781 Q282.7149,18.5781 282.0274,19.6563 Q281.3399,20.7188 281.3399,22.8125 Q281.3399,24.9063 282.0274,25.9844 Q282.7149,27.0469 284.0587,27.0469 Q284.6837,27.0469 285.2774,26.7813 Q285.8712,26.5 286.4962,25.9219 L286.4962,28.6406 Z " fill="#000000"/><text fill="#000000" font-family="sans-serif" font-size="14" lengthAdjust="spacing" textLength="103.5986" x="304.0274" y="27.8467">LoggerContext</text><line style="stroke:#181818;stroke-width:2;" x1="223.92" x2="455.2335" y1="39" y2="39"/><text fill="#000000" font-family="sans-serif" font-size="14" lengthAdjust="spacing" textLength="142.2354" x="228.92" y="55.9951">Configuration config</text><text fill="#000000" font-family="sans-serif" font-size="14" lengthAdjust="spacing" textLength="115.7734" x="228.92" y="72.292">Logger[] loggers</text><line style="stroke:#181818;stroke-width:2;" x1="223.92" x2="455.2335" y1="79.5938" y2="79.5938"/><text fill="#000000" font-family="sans-serif" font-size="14" lengthAdjust="spacing" textLength="221.3135" x="228.92" y="96.5889">Logger getLogger(String name)</text></g><!--class Configuration--><g class="entity" data-entity="Configuration" data-source-line="7" data-uid="ent0003" id="entity_Configuration"><rect fill="#F1F1F1" height="129.4844" rx="2.5" ry="2.5" style="stroke:#181818;stroke-width:0.5;" width="323.1514" x="7" y="163.89"/><ellipse cx="116.8535" cy="179.89" fill="#ADD1B2" rx="11" ry="11" style="stroke:#181818;stroke-width:1;"/><path d="M119.8223,185.5306 Q119.2441,185.8275 118.6035,185.9681 Q117.9629,186.1244 117.2598,186.1244 Q114.7598,186.1244 113.4316,184.4838 Q112.1191,182.8275 112.1191,179.7025 Q112.1191,176.5775 113.4316,174.9213 Q114.7598,173.265 117.2598,173.265 Q117.9629,173.265 118.6035,173.4213 Q119.2598,173.5775 119.8223,173.8744 L119.8223,176.5931 Q119.1973,176.015 118.6035,175.7494 Q118.0098,175.4681 117.3848,175.4681 Q116.041,175.4681 115.3535,176.5463 Q114.666,177.6088 114.666,179.7025 Q114.666,181.7963 115.3535,182.8744 Q116.041,183.9369 117.3848,183.9369 Q118.0098,183.9369 118.6035,183.6713 Q119.1973,183.39 119.8223,182.8119 L119.8223,185.5306 Z " fill="#000000"/><text fill="#000000" font-family="sans-serif" font-size="14" lengthAdjust="spacing" textLength="94.9443" x="137.3535" y="184.7367">Configuration</text><line style="stroke:#181818;stroke-width:0.5;" x1="8" x2="329.1514" y1="195.89" y2="195.89"/><text fill="#000000" font-family="sans-serif" font-size="14" lengthAdjust="spacing" textLength="157.8555" x="13" y="212.8851">Appender[] appenders</text><text fill="#000000" font-family="sans-serif" font-size="14" lengthAdjust="spacing" textLength="72.707" x="13" y="229.182">Filter filter</text><text fill="#000000" font-family="sans-serif" font-size="14" lengthAdjust="spacing" textLength="205.6113" x="13" y="245.4789">LoggerConfig[] loggerConfigs</text><text fill="#000000" font-family="sans-serif" font-size="14" lengthAdjust="spacing" textLength="177.9736" x="13" y="261.7757">StrSubstitutor substitutor</text><line style="stroke:#181818;stroke-width:0.5;" x1="8" x2="329.1514" y1="269.0775" y2="269.0775"/><text fill="#000000" font-family="sans-serif" font-size="14" lengthAdjust="spacing" textLength="311.1514" x="13" y="286.0726">LoggerConfig getLoggerConfig(String name)</text></g><!--class Logger--><g class="entity" data-entity="Logger" data-source-line="9" data-uid="ent0005" id="entity_Logger"><rect fill="#F1F1F1" height="64.2969" rx="2.5" ry="2.5" style="stroke:#181818;stroke-width:0.5;" width="290.9131" x="365.12" y="196.48"/><ellipse cx="482.0726" cy="212.48" fill="#ADD1B2" rx="11" ry="11" style="stroke:#181818;stroke-width:1;"/><path d="M485.0414,218.1206 Q484.4633,218.4175 483.8226,218.5581 Q483.182,218.7144 482.4789,218.7144 Q479.9789,218.7144 478.6508,217.0738 Q477.3383,215.4175 477.3383,212.2925 Q477.3383,209.1675 478.6508,207.5113 Q479.9789,205.855 482.4789,205.855 Q483.182,205.855 483.8226,206.0113 Q484.4789,206.1675 485.0414,206.4644 L485.0414,209.1831 Q484.4164,208.605 483.8226,208.3394 Q483.2289,208.0581 482.6039,208.0581 Q481.2601,208.0581 480.5726,209.1363 Q479.8851,210.1988 479.8851,212.2925 Q479.8851,214.3863 480.5726,215.4644 Q481.2601,216.5269 482.6039,216.5269 Q483.2289,216.5269 483.8226,216.2613 Q484.4164,215.98 485.0414,215.4019 L485.0414,218.1206 Z " fill="#000000"/><text fill="#000000" font-family="sans-serif" font-size="14" lengthAdjust="spacing" textLength="48.5078" x="502.5726" y="217.3267">Logger</text><line style="stroke:#181818;stroke-width:0.5;" x1="366.12" x2="655.0331" y1="228.48" y2="228.48"/><line style="stroke:#181818;stroke-width:0.5;" x1="366.12" x2="655.0331" y1="236.48" y2="236.48"/><text fill="#000000" font-family="sans-serif" font-size="14" lengthAdjust="spacing" textLength="278.9131" x="371.12" y="253.4751">void log(Level level, Message message)</text></g><!--link LoggerContext to Configuration--><g class="link" data-entity-1="LoggerContext" data-entity-2="Configuration" data-source-line="7" data-uid="lnk4" id="link_LoggerContext_Configuration"><path codeLine="7" d="M291.94,104.13 C273.56,122.53 256.4905,139.6152 236.8105,159.3152" fill="none" id="LoggerContext-to-Configuration" style="stroke:#181818;stroke-width:1;"/><polygon fill="#181818" points="232.57,163.56,241.7606,160.0198,236.1037,160.0227,236.1009,154.3658,232.57,163.56" style="stroke:#181818;stroke-width:1;"/></g><!--link LoggerContext to Logger--><g class="link" data-entity-1="LoggerContext" data-entity-2="Logger" data-source-line="9" data-uid="lnk6" id="link_LoggerContext_Logger"><path codeLine="9" d="M387.21,104.13 C416.56,133.51 449.1298,166.1149 474.8698,191.8849" fill="none" id="LoggerContext-to-Logger" style="stroke:#181818;stroke-width:1;"/><polygon fill="#181818" points="479.11,196.13,475.5798,186.9356,475.5765,192.5924,469.9197,192.5891,479.11,196.13" style="stroke:#181818;stroke-width:1;"/><text fill="#000000" font-family="sans-serif" font-size="13" lengthAdjust="spacing" textLength="23.0356" x="447.6545" y="185.3353">0..*</text></g><!--SRC=[RP3F2i8m3CRlVOemBrFSy0a44JpDquxYeTjYANJjMBCXYEzk_upDYPVc-z8c-QMrujP2OOJ0_cmquPDWewJ6l3AgWHS3SEc754FFIHeDTN0k7MjkTr11s3a50YcgjAHUQW6QjxXbRyRMSxBik6x-xq5ooFDTChLch0wyQoGFUUewr4tWuPFqH1Ufo14zGfW9O_cC7gtzkLxMY7wz382pvL1PaZIGwS4ksczQV_rh01oDRFoyjC0H5IX_xk6ArdA1qCReFka3]--></g></svg>