<svg xmlns="http://www.w3.org/2000/svg" xmlns:xlink="http://www.w3.org/1999/xlink" contentStyleType="text/css" data-diagram-type="CLASS" height="754px" preserveAspectRatio="none" style="width:557px;height:754px;background:#FFFFFF;" version="1.1" viewBox="0 0 557 754" width="557px" zoomAndPan="magnify"><defs/><g><!--class Configuration--><g class="entity" data-entity="Configuration" data-source-line="1" data-uid="ent0002" id="entity_Configuration"><rect fill="#F1F1F1" height="129.4844" rx="2.5" ry="2.5" style="stroke:#181818;stroke-width:0.5;" width="323.1514" x="180.51" y="7"/><ellipse cx="290.3635" cy="23" fill="#ADD1B2" rx="11" ry="11" style="stroke:#181818;stroke-width:1;"/><path d="M293.3323,28.6406 Q292.7541,28.9375 292.1135,29.0781 Q291.4729,29.2344 290.7698,29.2344 Q288.2698,29.2344 286.9416,27.5938 Q285.6291,25.9375 285.6291,22.8125 Q285.6291,19.6875 286.9416,18.0313 Q288.2698,16.375 290.7698,16.375 Q291.4729,16.375 292.1135,16.5313 Q292.7698,16.6875 293.3323,16.9844 L293.3323,19.7031 Q292.7073,19.125 292.1135,18.8594 Q291.5198,18.5781 290.8948,18.5781 Q289.551,18.5781 288.8635,19.6563 Q288.176,20.7188 288.176,22.8125 Q288.176,24.9063 288.8635,25.9844 Q289.551,27.0469 290.8948,27.0469 Q291.5198,27.0469 292.1135,26.7813 Q292.7073,26.5 293.3323,25.9219 L293.3323,28.6406 Z " fill="#000000"/><text fill="#000000" font-family="sans-serif" font-size="14" lengthAdjust="spacing" textLength="94.9443" x="310.8635" y="27.8467">Configuration</text><line style="stroke:#181818;stroke-width:0.5;" x1="181.51" x2="502.6614" y1="39" y2="39"/><text fill="#000000" font-family="sans-serif" font-size="14" lengthAdjust="spacing" textLength="157.8555" x="186.51" y="55.9951">Appender[] appenders</text><text fill="#000000" font-family="sans-serif" font-size="14" lengthAdjust="spacing" textLength="72.707" x="186.51" y="72.292">Filter filter</text><text fill="#000000" font-family="sans-serif" font-size="14" lengthAdjust="spacing" textLength="205.6113" x="186.51" y="88.5889">LoggerConfig[] loggerConfigs</text><text fill="#000000" font-family="sans-serif" font-size="14" lengthAdjust="spacing" textLength="177.9736" x="186.51" y="104.8857">StrSubstitutor substitutor</text><line style="stroke:#181818;stroke-width:0.5;" x1="181.51" x2="502.6614" y1="112.1875" y2="112.1875"/><text fill="#000000" font-family="sans-serif" font-size="14" lengthAdjust="spacing" textLength="311.1514" x="186.51" y="129.1826">LoggerConfig getLoggerConfig(String name)</text></g><!--class Filter--><g class="entity" data-entity="Filter" data-source-line="9" data-uid="ent0003" id="entity_Filter"><rect fill="#F1F1F1" height="64.2969" rx="2.5" ry="2.5" style="stroke:#181818;stroke-width:0.5;" width="169.1855" x="292.5" y="551.01"/><ellipse cx="354.9976" cy="567.01" fill="#ADD1B2" rx="11" ry="11" style="stroke:#181818;stroke-width:1;"/><path d="M357.9663,572.6506 Q357.3882,572.9475 356.7476,573.0881 Q356.1069,573.2444 355.4038,573.2444 Q352.9038,573.2444 351.5757,571.6038 Q350.2632,569.9475 350.2632,566.8225 Q350.2632,563.6975 351.5757,562.0413 Q352.9038,560.385 355.4038,560.385 Q356.1069,560.385 356.7476,560.5413 Q357.4038,560.6975 357.9663,560.9944 L357.9663,563.7131 Q357.3413,563.135 356.7476,562.8694 Q356.1538,562.5881 355.5288,562.5881 Q354.1851,562.5881 353.4976,563.6663 Q352.8101,564.7288 352.8101,566.8225 Q352.8101,568.9163 353.4976,569.9944 Q354.1851,571.0569 355.5288,571.0569 Q356.1538,571.0569 356.7476,570.7913 Q357.3413,570.51 357.9663,569.9319 L357.9663,572.6506 Z " fill="#000000"/><text fill="#000000" font-family="sans-serif" font-size="14" lengthAdjust="spacing" textLength="35.6904" x="375.4976" y="571.8567">Filter</text><line style="stroke:#181818;stroke-width:0.5;" x1="293.5" x2="460.6855" y1="583.01" y2="583.01"/><line style="stroke:#181818;stroke-width:0.5;" x1="293.5" x2="460.6855" y1="591.01" y2="591.01"/><text fill="#000000" font-family="sans-serif" font-size="14" lengthAdjust="spacing" textLength="157.1855" x="298.5" y="608.0051">Result filter(LogEvent)</text></g><!--class Appender--><g class="entity" data-entity="Appender" data-source-line="11" data-uid="ent0005" id="entity_Appender"><rect fill="#F1F1F1" height="80.5938" rx="2.5" ry="2.5" style="stroke:#181818;stroke-width:2;" width="175.085" x="12.55" y="542.86"/><ellipse cx="61.7961" cy="558.86" fill="#ADD1B2" rx="11" ry="11" style="stroke:#181818;stroke-width:1;"/><path d="M64.7648,564.5006 Q64.1867,564.7975 63.5461,564.9381 Q62.9055,565.0944 62.2023,565.0944 Q59.7023,565.0944 58.3742,563.4538 Q57.0617,561.7975 57.0617,558.6725 Q57.0617,555.5475 58.3742,553.8913 Q59.7023,552.235 62.2023,552.235 Q62.9055,552.235 63.5461,552.3913 Q64.2023,552.5475 64.7648,552.8444 L64.7648,555.5631 Q64.1398,554.985 63.5461,554.7194 Q62.9523,554.4381 62.3273,554.4381 Q60.9836,554.4381 60.2961,555.5163 Q59.6086,556.5788 59.6086,558.6725 Q59.6086,560.7663 60.2961,561.8444 Q60.9836,562.9069 62.3273,562.9069 Q62.9523,562.9069 63.5461,562.6413 Q64.1398,562.36 64.7648,561.7819 L64.7648,564.5006 Z " fill="#000000"/><text fill="#000000" font-family="sans-serif" font-size="14" lengthAdjust="spacing" textLength="68.0928" x="82.2961" y="563.7067">Appender</text><line style="stroke:#181818;stroke-width:2;" x1="13.55" x2="186.635" y1="574.86" y2="574.86"/><text fill="#000000" font-family="sans-serif" font-size="14" lengthAdjust="spacing" textLength="95.7236" x="18.55" y="591.8551">Layout layout</text><line style="stroke:#181818;stroke-width:2;" x1="13.55" x2="186.635" y1="599.1569" y2="599.1569"/><text fill="#000000" font-family="sans-serif" font-size="14" lengthAdjust="spacing" textLength="163.085" x="18.55" y="616.152">void append(LogEvent)</text></g><!--class LoggerConfig--><g class="entity" data-entity="LoggerConfig" data-source-line="13" data-uid="ent0007" id="entity_LoggerConfig"><rect fill="#F1F1F1" height="129.4844" rx="2.5" ry="2.5" style="stroke:#181818;stroke-width:0.5;" width="271.6836" x="206.25" y="196.48"/><ellipse cx="291.1284" cy="212.48" fill="#ADD1B2" rx="11" ry="11" style="stroke:#181818;stroke-width:1;"/><path d="M294.0972,218.1206 Q293.519,218.4175 292.8784,218.5581 Q292.2378,218.7144 291.5347,218.7144 Q289.0347,218.7144 287.7065,217.0738 Q286.394,215.4175 286.394,212.2925 Q286.394,209.1675 287.7065,207.5113 Q289.0347,205.855 291.5347,205.855 Q292.2378,205.855 292.8784,206.0113 Q293.5347,206.1675 294.0972,206.4644 L294.0972,209.1831 Q293.4722,208.605 292.8784,208.3394 Q292.2847,208.0581 291.6597,208.0581 Q290.3159,208.0581 289.6284,209.1363 Q288.9409,210.1988 288.9409,212.2925 Q288.9409,214.3863 289.6284,215.4644 Q290.3159,216.5269 291.6597,216.5269 Q292.2847,216.5269 292.8784,216.2613 Q293.4722,215.98 294.0972,215.4019 L294.0972,218.1206 Z " fill="#000000"/><text fill="#000000" font-family="sans-serif" font-size="14" lengthAdjust="spacing" textLength="93.4268" x="311.6284" y="217.3267">LoggerConfig</text><line style="stroke:#181818;stroke-width:0.5;" x1="207.25" x2="476.9336" y1="228.48" y2="228.48"/><text fill="#000000" font-family="sans-serif" font-size="14" lengthAdjust="spacing" textLength="204.3945" x="212.25" y="245.4751">AppenderRef[] appenderRefs</text><text fill="#000000" font-family="sans-serif" font-size="14" lengthAdjust="spacing" textLength="259.6836" x="212.25" y="261.772">AppenderControl[] appenderControls</text><text fill="#000000" font-family="sans-serif" font-size="14" lengthAdjust="spacing" textLength="74.9424" x="212.25" y="278.0689">Level level</text><text fill="#000000" font-family="sans-serif" font-size="14" lengthAdjust="spacing" textLength="72.707" x="212.25" y="294.3657">Filter filter</text><line style="stroke:#181818;stroke-width:0.5;" x1="207.25" x2="476.9336" y1="301.6675" y2="301.6675"/><text fill="#000000" font-family="sans-serif" font-size="14" lengthAdjust="spacing" textLength="131.7012" x="212.25" y="318.6626">void log(LogEvent)</text></g><!--class Layout--><g class="entity" data-entity="Layout" data-source-line="20" data-uid="ent0009" id="entity_Layout"><rect fill="#F1F1F1" height="64.2969" rx="2.5" ry="2.5" style="stroke:#181818;stroke-width:0.5;" width="186.1797" x="7" y="683.45"/><ellipse cx="72.0439" cy="699.45" fill="#ADD1B2" rx="11" ry="11" style="stroke:#181818;stroke-width:1;"/><path d="M75.0127,705.0906 Q74.4346,705.3875 73.7939,705.5281 Q73.1533,705.6844 72.4502,705.6844 Q69.9502,705.6844 68.6221,704.0438 Q67.3096,702.3875 67.3096,699.2625 Q67.3096,696.1375 68.6221,694.4813 Q69.9502,692.825 72.4502,692.825 Q73.1533,692.825 73.7939,692.9813 Q74.4502,693.1375 75.0127,693.4344 L75.0127,696.1531 Q74.3877,695.575 73.7939,695.3094 Q73.2002,695.0281 72.5752,695.0281 Q71.2314,695.0281 70.5439,696.1063 Q69.8564,697.1688 69.8564,699.2625 Q69.8564,701.3563 70.5439,702.4344 Q71.2314,703.4969 72.5752,703.4969 Q73.2002,703.4969 73.7939,703.2313 Q74.3877,702.95 75.0127,702.3719 L75.0127,705.0906 Z " fill="#000000"/><text fill="#000000" font-family="sans-serif" font-size="14" lengthAdjust="spacing" textLength="47.5918" x="92.5439" y="704.2967">Layout</text><line style="stroke:#181818;stroke-width:0.5;" x1="8" x2="192.1797" y1="715.45" y2="715.45"/><line style="stroke:#181818;stroke-width:0.5;" x1="8" x2="192.1797" y1="723.45" y2="723.45"/><text fill="#000000" font-family="sans-serif" font-size="14" lengthAdjust="spacing" textLength="174.1797" x="13" y="740.4451">byte[] encode(LogEvent)</text></g><!--class AppenderRef--><g class="entity" data-entity="AppenderRef" data-source-line="38" data-uid="ent0011" id="entity_AppenderRef"><rect fill="#F1F1F1" height="96.8906" rx="2.5" ry="2.5" style="stroke:#181818;stroke-width:0.5;" width="166.6289" x="258.78" y="385.97"/><ellipse cx="293.25" cy="401.97" fill="#ADD1B2" rx="11" ry="11" style="stroke:#181818;stroke-width:1;"/><path d="M296.2187,407.6106 Q295.6406,407.9075 295,408.0481 Q294.3593,408.2044 293.6562,408.2044 Q291.1562,408.2044 289.8281,406.5638 Q288.5156,404.9075 288.5156,401.7825 Q288.5156,398.6575 289.8281,397.0013 Q291.1562,395.345 293.6562,395.345 Q294.3593,395.345 295,395.5013 Q295.6562,395.6575 296.2187,395.9544 L296.2187,398.6731 Q295.5937,398.095 295,397.8294 Q294.4062,397.5481 293.7812,397.5481 Q292.4375,397.5481 291.75,398.6263 Q291.0625,399.6888 291.0625,401.7825 Q291.0625,403.8763 291.75,404.9544 Q292.4375,406.0169 293.7812,406.0169 Q294.4062,406.0169 295,405.7513 Q295.5937,405.47 296.2187,404.8919 L296.2187,407.6106 Z " fill="#000000"/><text fill="#000000" font-family="sans-serif" font-size="14" lengthAdjust="spacing" textLength="91.3623" x="311.5766" y="406.8167">AppenderRef</text><line style="stroke:#181818;stroke-width:0.5;" x1="259.78" x2="424.4089" y1="417.97" y2="417.97"/><text fill="#000000" font-family="sans-serif" font-size="14" lengthAdjust="spacing" textLength="154.6289" x="264.78" y="434.9651">String appenderName</text><text fill="#000000" font-family="sans-serif" font-size="14" lengthAdjust="spacing" textLength="74.9424" x="264.78" y="451.262">Level level</text><text fill="#000000" font-family="sans-serif" font-size="14" lengthAdjust="spacing" textLength="72.707" x="264.78" y="467.5589">Filter filter</text><line style="stroke:#181818;stroke-width:0.5;" x1="259.78" x2="424.4089" y1="474.8606" y2="474.8606"/></g><!--class AppenderControl--><g class="entity" data-entity="AppenderControl" data-source-line="40" data-uid="ent0013" id="entity_AppenderControl"><rect fill="#F1F1F1" height="96.8906" rx="2.5" ry="2.5" style="stroke:#181818;stroke-width:0.5;" width="175.085" x="48.55" y="385.97"/><ellipse cx="74.3852" cy="401.97" fill="#ADD1B2" rx="11" ry="11" style="stroke:#181818;stroke-width:1;"/><path d="M77.3539,407.6106 Q76.7758,407.9075 76.1352,408.0481 Q75.4945,408.2044 74.7914,408.2044 Q72.2914,408.2044 70.9633,406.5638 Q69.6508,404.9075 69.6508,401.7825 Q69.6508,398.6575 70.9633,397.0013 Q72.2914,395.345 74.7914,395.345 Q75.4945,395.345 76.1352,395.5013 Q76.7914,395.6575 77.3539,395.9544 L77.3539,398.6731 Q76.7289,398.095 76.1352,397.8294 Q75.5414,397.5481 74.9164,397.5481 Q73.5727,397.5481 72.8852,398.6263 Q72.1977,399.6888 72.1977,401.7825 Q72.1977,403.8763 72.8852,404.9544 Q73.5727,406.0169 74.9164,406.0169 Q75.5414,406.0169 76.1352,405.7513 Q76.7289,405.47 77.3539,404.8919 L77.3539,407.6106 Z " fill="#000000"/><text fill="#000000" font-family="sans-serif" font-size="14" lengthAdjust="spacing" textLength="119.0068" x="90.793" y="406.8167">AppenderControl</text><line style="stroke:#181818;stroke-width:0.5;" x1="49.55" x2="222.635" y1="417.97" y2="417.97"/><text fill="#000000" font-family="sans-serif" font-size="14" lengthAdjust="spacing" textLength="139.6377" x="54.55" y="434.9651">Appender appender</text><text fill="#000000" font-family="sans-serif" font-size="14" lengthAdjust="spacing" textLength="72.707" x="54.55" y="451.262">Filter filter</text><line style="stroke:#181818;stroke-width:0.5;" x1="49.55" x2="222.635" y1="458.5638" y2="458.5638"/><text fill="#000000" font-family="sans-serif" font-size="14" lengthAdjust="spacing" textLength="163.085" x="54.55" y="475.5589">void append(LogEvent)</text></g><!--link Configuration to Filter--><g class="link" data-entity-1="Configuration" data-entity-2="Filter" data-source-line="9" data-uid="lnk4" id="link_Configuration_Filter"><path codeLine="9" d="M447.61,136.85 C466.82,153.71 484.2,173.67 495.09,196.48 C550.07,311.66 529.99,368.13 474.09,482.86 C461.21,509.29 443.0942,529.1275 422.9242,546.7875" fill="none" id="Configuration-to-Filter" style="stroke:#181818;stroke-width:1;"/><polygon fill="#181818" points="418.41,550.74,427.8163,547.8208,422.1718,547.4463,422.5463,541.8018,418.41,550.74" style="stroke:#181818;stroke-width:1;"/><text fill="#000000" font-family="sans-serif" font-size="13" lengthAdjust="spacing" textLength="23.0356" x="401.2838" y="539.961">0..*</text></g><!--link Configuration to Appender--><g class="link" data-entity-1="Configuration" data-entity-2="Appender" data-source-line="11" data-uid="lnk6" id="link_Configuration_Appender"><path codeLine="11" d="M242.21,136.85 C166.63,192.2 69.52,279.87 31.09,385.97 C16.42,426.46 18.21,441.77 31.09,482.86 C37.87,504.49 47.552,520.794 60.712,537.904" fill="none" id="Configuration-to-Appender" style="stroke:#181818;stroke-width:1;"/><polygon fill="#181818" points="64.37,542.66,62.0536,533.0874,61.3217,538.6967,55.7124,537.9647,64.37,542.66" style="stroke:#181818;stroke-width:1;"/><text fill="#000000" font-family="sans-serif" font-size="13" lengthAdjust="spacing" textLength="23.0356" x="33.5517" y="531.7884">0..*</text></g><!--link Configuration to LoggerConfig--><g class="link" data-entity-1="Configuration" data-entity-2="LoggerConfig" data-source-line="13" data-uid="lnk8" id="link_Configuration_LoggerConfig"><path codeLine="13" d="M342.09,136.74 C342.09,155.94 342.09,171 342.09,190.2" fill="none" id="Configuration-to-LoggerConfig" style="stroke:#181818;stroke-width:1;"/><polygon fill="#181818" points="342.09,196.2,346.09,187.2,342.09,191.2,338.09,187.2,342.09,196.2" style="stroke:#181818;stroke-width:1;"/><text fill="#000000" font-family="sans-serif" font-size="13" lengthAdjust="spacing" textLength="23.0356" x="317.8339" y="185.342">0..*</text></g><!--link Appender to Layout--><g class="link" data-entity-1="Appender" data-entity-2="Layout" data-source-line="20" data-uid="lnk10" id="link_Appender_Layout"><path codeLine="20" d="M100.09,623.65 C100.09,642.69 100.09,659.23 100.09,677.1" fill="none" id="Appender-to-Layout" style="stroke:#008000;stroke-width:6;"/><polygon fill="#008000" points="100.09,683.1,104.09,674.1,100.09,678.1,96.09,674.1,100.09,683.1" style="stroke:#008000;stroke-width:6;"/></g><!--link LoggerConfig to AppenderRef--><g class="link" data-entity-1="LoggerConfig" data-entity-2="AppenderRef" data-source-line="38" data-uid="lnk12" id="link_LoggerConfig_AppenderRef"><path codeLine="38" d="M342.09,326.46 C342.09,346.1 342.09,361.34 342.09,379.68" fill="none" id="LoggerConfig-to-AppenderRef" style="stroke:#181818;stroke-width:1;"/><polygon fill="#181818" points="342.09,385.68,346.09,376.68,342.09,380.68,338.09,376.68,342.09,385.68" style="stroke:#181818;stroke-width:1;"/><text fill="#000000" font-family="sans-serif" font-size="13" lengthAdjust="spacing" textLength="23.0356" x="317.4747" y="374.8481">0..*</text></g><!--link LoggerConfig to AppenderControl--><g class="link" data-entity-1="LoggerConfig" data-entity-2="AppenderControl" data-source-line="40" data-uid="lnk14" id="link_LoggerConfig_AppenderControl"><path codeLine="40" d="M264.8,326.46 C241.16,346.1 220.2138,363.5042 198.1538,381.8442" fill="none" id="LoggerConfig-to-AppenderControl" style="stroke:#008000;stroke-width:6;"/><polygon fill="#008000" points="193.54,385.68,203.0178,383.0022,197.3848,382.4835,197.9035,376.8505,193.54,385.68" style="stroke:#008000;stroke-width:6;"/><text fill="#000000" font-family="sans-serif" font-size="13" lengthAdjust="spacing" textLength="23.0356" x="177.0039" y="374.8481">0..*</text></g><!--link LoggerConfig to Filter--><g class="link" data-entity-1="LoggerConfig" data-entity-2="Filter" data-source-line="42" data-uid="lnk15" id="link_LoggerConfig_Filter"><path codeLine="42" d="M408.06,326.33 C422.35,344.15 435.46,364.55 443.09,385.97 C457.54,426.53 455.54,441.64 443.09,482.86 C435.55,507.83 423.1407,527.5472 408.7307,545.9372" fill="none" id="LoggerConfig-to-Filter" style="stroke:#181818;stroke-width:1;"/><polygon fill="#181818" points="405.03,550.66,413.7296,546.0429,408.1139,546.7243,407.4325,541.1087,405.03,550.66" style="stroke:#181818;stroke-width:1;"/></g><!--link AppenderRef to Filter--><g class="link" data-entity-1="AppenderRef" data-entity-2="Filter" data-source-line="50" data-uid="lnk16" id="link_AppenderRef_Filter"><path codeLine="50" d="M353.45,483.06 C358.76,505.32 363.5496,525.3633 368.2496,545.0933" fill="none" id="AppenderRef-to-Filter" style="stroke:#181818;stroke-width:1;"/><polygon fill="#181818" points="369.64,550.93,371.4455,541.2481,368.4813,546.0661,363.6633,543.1019,369.64,550.93" style="stroke:#181818;stroke-width:1;"/></g><!--link AppenderControl to Appender--><g class="link" data-entity-1="AppenderControl" data-entity-2="Appender" data-source-line="58" data-uid="lnk17" id="link_AppenderControl_Appender"><path codeLine="58" d="M124.4,483.06 C119.68,502.31 115.7198,518.4328 111.2198,536.7728" fill="none" id="AppenderControl-to-Appender" style="stroke:#008000;stroke-width:6;"/><polygon fill="#008000" points="109.79,542.6,115.8194,534.8125,110.9815,537.744,108.0499,532.9061,109.79,542.6" style="stroke:#008000;stroke-width:6;"/></g><!--link AppenderControl to Filter--><g class="link" data-entity-1="AppenderControl" data-entity-2="Filter" data-source-line="60" data-uid="lnk18" id="link_AppenderControl_Filter"><path codeLine="60" d="M214.67,483.26 C250.93,505.34 287.8556,527.819 320.0856,547.449" fill="none" id="AppenderControl-to-Filter" style="stroke:#181818;stroke-width:1;"/><polygon fill="#181818" points="325.21,550.57,319.6042,542.4722,320.9397,547.9691,315.4428,549.3047,325.21,550.57" style="stroke:#181818;stroke-width:1;"/></g><!--SRC=[XLAnJiCm4Dtp5QTsQH6fcDX0GWYcYg4TgmvfSaajZ5tPbqeLuj-vk4vgXoGiSSv-llVytkKoinPUjIf5LPkCX5RmdG2yd4we2ZIxFMJ-r_Bskv241agtSBtMLONcUfsXCYXjxnWgfB1URCa8LO7Ald39M2wtzS6Ie9gq0NlxJtwI95QOfiymUrYjxcPUqGIWVSa499IL9BcpfBq6SoaKhWvQ5iwOTNRHDO5q2zTdBGflqOBxl9rHqR9Ht3L8T_FA8AfxEehyKw6rJuzx9hzsQlbytuRYS25aCr7bki2uwHNhKsYm6xIr91_843QA84nsWsKGBbSsE6Gy6Iq3WDzngU8P9SZcEp0IpX0UX5XC96CW7URlWqPiwrtqkWOOsic8ysGYPuEVllPv7po5_pmjoBHfCaxX9KLkTqHZZasDKDjmp9BRYF-vqOdy1G00]--></g></svg>