<?xml version="1.0" encoding="us-ascii" standalone="no"?><svg xmlns="http://www.w3.org/2000/svg" xmlns:xlink="http://www.w3.org/1999/xlink" contentStyleType="text/css" height="226px" preserveAspectRatio="none" style="width:771px;height:226px;background:#FFFFFF;" version="1.1" viewBox="0 0 771 226" width="771px" zoomAndPan="magnify"><defs/><g><!--class initial--><g id="elem_initial"><rect codeLine="1" fill="#F1F1F1" height="64.2969" id="initial" rx="2.5" ry="2.5" style="stroke:#181818;stroke-width:0.5;" width="113" x="7" y="31.5"/><ellipse cx="22" cy="47.5" fill="#ADD1B2" rx="11" ry="11" style="stroke:#181818;stroke-width:1.0;"/><path d="M24.9688,53.1406 Q24.3906,53.4375 23.75,53.5781 Q23.1094,53.7344 22.4063,53.7344 Q19.9063,53.7344 18.5781,52.0938 Q17.2656,50.4375 17.2656,47.3125 Q17.2656,44.1875 18.5781,42.5313 Q19.9063,40.875 22.4063,40.875 Q23.1094,40.875 23.75,41.0313 Q24.4063,41.1875 24.9688,41.4844 L24.9688,44.2031 Q24.3438,43.625 23.75,43.3594 Q23.1563,43.0781 22.5313,43.0781 Q21.1875,43.0781 20.5,44.1563 Q19.8125,45.2188 19.8125,47.3125 Q19.8125,49.4063 20.5,50.4844 Q21.1875,51.5469 22.5313,51.5469 Q23.1563,51.5469 23.75,51.2813 Q24.3438,51 24.9688,50.4219 L24.9688,53.1406 Z " fill="#000000"/><text fill="#000000" font-family="sans-serif" font-size="14" lengthAdjust="spacing" textLength="81" x="36" y="52.3467">Initial status</text><line style="stroke:#181818;stroke-width:0.5;" x1="8" x2="119" y1="63.5" y2="63.5"/><text fill="#008000" font-family="sans-serif" font-size="14" lengthAdjust="spacing" textLength="51" x="13" y="80.4951">app.log</text><line style="stroke:#181818;stroke-width:0.5;" x1="8" x2="119" y1="87.7969" y2="87.7969"/></g><!--class first--><g id="elem_first"><rect codeLine="4" fill="#F1F1F1" height="80.5938" id="first" rx="2.5" ry="2.5" style="stroke:#181818;stroke-width:0.5;" width="108" x="171.5" y="23.5"/><ellipse cx="186.5" cy="39.5" fill="#ADD1B2" rx="11" ry="11" style="stroke:#181818;stroke-width:1.0;"/><path d="M189.4688,45.1406 Q188.8906,45.4375 188.25,45.5781 Q187.6094,45.7344 186.9063,45.7344 Q184.4063,45.7344 183.0781,44.0938 Q181.7656,42.4375 181.7656,39.3125 Q181.7656,36.1875 183.0781,34.5313 Q184.4063,32.875 186.9063,32.875 Q187.6094,32.875 188.25,33.0313 Q188.9063,33.1875 189.4688,33.4844 L189.4688,36.2031 Q188.8438,35.625 188.25,35.3594 Q187.6563,35.0781 187.0313,35.0781 Q185.6875,35.0781 185,36.1563 Q184.3125,37.2188 184.3125,39.3125 Q184.3125,41.4063 185,42.4844 Q185.6875,43.5469 187.0313,43.5469 Q187.6563,43.5469 188.25,43.2813 Q188.8438,43 189.4688,42.4219 L189.4688,45.1406 Z " fill="#000000"/><text fill="#000000" font-family="sans-serif" font-size="14" lengthAdjust="spacing" textLength="76" x="200.5" y="44.3467">1st rollover</text><line style="stroke:#181818;stroke-width:0.5;" x1="172.5" x2="278.5" y1="55.5" y2="55.5"/><text fill="#008000" font-family="sans-serif" font-size="14" lengthAdjust="spacing" textLength="51" x="177.5" y="72.4951">app.log</text><text fill="#000000" font-family="sans-serif" font-size="14" lengthAdjust="spacing" textLength="64" x="177.5" y="88.792">app.1.log</text><line style="stroke:#181818;stroke-width:0.5;" x1="172.5" x2="278.5" y1="96.0938" y2="96.0938"/></g><!--class second--><g id="elem_second"><rect codeLine="8" fill="#F1F1F1" height="96.8906" id="second" rx="2.5" ry="2.5" style="stroke:#181818;stroke-width:0.5;" width="113" x="331" y="15.5"/><ellipse cx="346" cy="31.5" fill="#ADD1B2" rx="11" ry="11" style="stroke:#181818;stroke-width:1.0;"/><path d="M348.9688,37.1406 Q348.3906,37.4375 347.75,37.5781 Q347.1094,37.7344 346.4063,37.7344 Q343.9063,37.7344 342.5781,36.0938 Q341.2656,34.4375 341.2656,31.3125 Q341.2656,28.1875 342.5781,26.5313 Q343.9063,24.875 346.4063,24.875 Q347.1094,24.875 347.75,25.0313 Q348.4063,25.1875 348.9688,25.4844 L348.9688,28.2031 Q348.3438,27.625 347.75,27.3594 Q347.1563,27.0781 346.5313,27.0781 Q345.1875,27.0781 344.5,28.1563 Q343.8125,29.2188 343.8125,31.3125 Q343.8125,33.4063 344.5,34.4844 Q345.1875,35.5469 346.5313,35.5469 Q347.1563,35.5469 347.75,35.2813 Q348.3438,35 348.9688,34.4219 L348.9688,37.1406 Z " fill="#000000"/><text fill="#000000" font-family="sans-serif" font-size="14" lengthAdjust="spacing" textLength="81" x="360" y="36.3467">2nd rollover</text><line style="stroke:#181818;stroke-width:0.5;" x1="332" x2="443" y1="47.5" y2="47.5"/><text fill="#008000" font-family="sans-serif" font-size="14" lengthAdjust="spacing" textLength="51" x="337" y="64.4951">app.log</text><text fill="#000000" font-family="sans-serif" font-size="14" lengthAdjust="spacing" textLength="64" x="337" y="80.792">app.1.log</text><text fill="#000000" font-family="sans-serif" font-size="14" lengthAdjust="spacing" textLength="64" x="337" y="97.0889">app.2.log</text><line style="stroke:#181818;stroke-width:0.5;" x1="332" x2="443" y1="104.3906" y2="104.3906"/></g><!--class third--><g id="elem_third"><rect codeLine="13" fill="#F1F1F1" height="113.1875" id="third" rx="2.5" ry="2.5" style="stroke:#181818;stroke-width:0.5;" width="109" x="495" y="7"/><ellipse cx="510" cy="23" fill="#ADD1B2" rx="11" ry="11" style="stroke:#181818;stroke-width:1.0;"/><path d="M512.9688,28.6406 Q512.3906,28.9375 511.75,29.0781 Q511.1094,29.2344 510.4063,29.2344 Q507.9063,29.2344 506.5781,27.5938 Q505.2656,25.9375 505.2656,22.8125 Q505.2656,19.6875 506.5781,18.0313 Q507.9063,16.375 510.4063,16.375 Q511.1094,16.375 511.75,16.5313 Q512.4063,16.6875 512.9688,16.9844 L512.9688,19.7031 Q512.3438,19.125 511.75,18.8594 Q511.1563,18.5781 510.5313,18.5781 Q509.1875,18.5781 508.5,19.6563 Q507.8125,20.7188 507.8125,22.8125 Q507.8125,24.9063 508.5,25.9844 Q509.1875,27.0469 510.5313,27.0469 Q511.1563,27.0469 511.75,26.7813 Q512.3438,26.5 512.9688,25.9219 L512.9688,28.6406 Z " fill="#000000"/><text fill="#000000" font-family="sans-serif" font-size="14" lengthAdjust="spacing" textLength="77" x="524" y="27.8467">3rd rollover</text><line style="stroke:#181818;stroke-width:0.5;" x1="496" x2="603" y1="39" y2="39"/><text fill="#008000" font-family="sans-serif" font-size="14" lengthAdjust="spacing" textLength="51" x="501" y="55.9951">app.log</text><text fill="#000000" font-family="sans-serif" font-size="14" lengthAdjust="spacing" textLength="64" x="501" y="72.292">app.1.log</text><text fill="#000000" font-family="sans-serif" font-size="14" lengthAdjust="spacing" textLength="64" x="501" y="88.5889">app.2.log</text><text fill="#000000" font-family="sans-serif" font-size="14" lengthAdjust="spacing" textLength="64" x="501" y="104.8857">app.3.log</text><line style="stroke:#181818;stroke-width:0.5;" x1="496" x2="603" y1="112.1875" y2="112.1875"/></g><!--class fourth--><g id="elem_fourth"><rect codeLine="19" fill="#F1F1F1" height="113.1875" id="fourth" rx="2.5" ry="2.5" style="stroke:#181818;stroke-width:0.5;" width="109" x="655" y="7"/><ellipse cx="670" cy="23" fill="#ADD1B2" rx="11" ry="11" style="stroke:#181818;stroke-width:1.0;"/><path d="M672.9688,28.6406 Q672.3906,28.9375 671.75,29.0781 Q671.1094,29.2344 670.4063,29.2344 Q667.9063,29.2344 666.5781,27.5938 Q665.2656,25.9375 665.2656,22.8125 Q665.2656,19.6875 666.5781,18.0313 Q667.9063,16.375 670.4063,16.375 Q671.1094,16.375 671.75,16.5313 Q672.4063,16.6875 672.9688,16.9844 L672.9688,19.7031 Q672.3438,19.125 671.75,18.8594 Q671.1563,18.5781 670.5313,18.5781 Q669.1875,18.5781 668.5,19.6563 Q667.8125,20.7188 667.8125,22.8125 Q667.8125,24.9063 668.5,25.9844 Q669.1875,27.0469 670.5313,27.0469 Q671.1563,27.0469 671.75,26.7813 Q672.3438,26.5 672.9688,25.9219 L672.9688,28.6406 Z " fill="#000000"/><text fill="#000000" font-family="sans-serif" font-size="14" lengthAdjust="spacing" textLength="77" x="684" y="27.8467">4th rollover</text><line style="stroke:#181818;stroke-width:0.5;" x1="656" x2="763" y1="39" y2="39"/><text fill="#008000" font-family="sans-serif" font-size="14" lengthAdjust="spacing" textLength="51" x="661" y="55.9951">app.log</text><text fill="#000000" font-family="sans-serif" font-size="14" lengthAdjust="spacing" textLength="64" x="661" y="72.292">app.1.log</text><text fill="#000000" font-family="sans-serif" font-size="14" lengthAdjust="spacing" textLength="64" x="661" y="88.5889">app.2.log</text><text fill="#000000" font-family="sans-serif" font-size="14" lengthAdjust="spacing" textLength="64" x="661" y="104.8857">app.3.log</text><line style="stroke:#181818;stroke-width:0.5;" x1="656" x2="763" y1="112.1875" y2="112.1875"/></g><g id="elem_delete"><rect fill="#F1F1F1" height="36.2969" style="stroke:#181818;stroke-width:0.5;" width="83" x="508" y="184"/><text fill="#000000" font-family="sans-serif" font-size="14" lengthAdjust="spacing" textLength="69" x="515" y="198.9951">Delete file</text><line style="stroke:#181818;stroke-width:0.5;" x1="509" x2="590" y1="204.2969" y2="204.2969"/></g><!--link initial to first--><g id="link_initial_first"><path codeLine="28" d="M121.5,75.5 C143.57,75.5 142.43,83.5 164.5,83.5 " fill="none" id="initial-to-first" style="stroke:#181818;stroke-width:1.0;"/><polygon fill="#181818" points="170.5,83.5,161.5,79.5,165.5,83.5,161.5,87.5,170.5,83.5" style="stroke:#181818;stroke-width:1.0;"/></g><!--link first to second--><g id="link_first_second"><path codeLine="30" d="M280.5,67.5 C302.57,67.5 301.43,75.5 323.5,75.5 " fill="none" id="first-to-second" style="stroke:#181818;stroke-width:1.0;"/><polygon fill="#181818" points="329.5,75.5,320.5,71.5,324.5,75.5,320.5,79.5,329.5,75.5" style="stroke:#181818;stroke-width:1.0;"/></g><!--link first to second--><g id="link_first_second"><path codeLine="31" d="M280.5,83.5 C302.57,83.5 301.43,91.5 323.5,91.5 " fill="none" id="first-to-second-1" style="stroke:#181818;stroke-width:1.0;"/><polygon fill="#181818" points="329.5,91.5,320.5,87.5,324.5,91.5,320.5,95.5,329.5,91.5" style="stroke:#181818;stroke-width:1.0;"/></g><!--link second to third--><g id="link_second_third"><path codeLine="33" d="M445.5,59.5 C467.13,59.5 465.87,67.5 487.5,67.5 " fill="none" id="second-to-third" style="stroke:#181818;stroke-width:1.0;"/><polygon fill="#181818" points="493.5,67.5,484.5,63.5,488.5,67.5,484.5,71.5,493.5,67.5" style="stroke:#181818;stroke-width:1.0;"/></g><!--link second to third--><g id="link_second_third"><path codeLine="34" d="M445.5,75.5 C467.13,75.5 465.87,83.5 487.5,83.5 " fill="none" id="second-to-third-1" style="stroke:#181818;stroke-width:1.0;"/><polygon fill="#181818" points="493.5,83.5,484.5,79.5,488.5,83.5,484.5,87.5,493.5,83.5" style="stroke:#181818;stroke-width:1.0;"/></g><!--link second to third--><g id="link_second_third"><path codeLine="35" d="M445.5,91.5 C467.13,91.5 465.87,99.5 487.5,99.5 " fill="none" id="second-to-third-2" style="stroke:#181818;stroke-width:1.0;"/><polygon fill="#181818" points="493.5,99.5,484.5,95.5,488.5,99.5,484.5,103.5,493.5,99.5" style="stroke:#181818;stroke-width:1.0;"/></g><!--link third to fourth--><g id="link_third_fourth"><path codeLine="37" d="M605.5,50.5 C628.13,50.5 624.87,67.5 647.5,67.5 " fill="none" id="third-to-fourth" style="stroke:#181818;stroke-width:1.0;"/><polygon fill="#181818" points="653.5,67.5,644.5,63.5,648.5,67.5,644.5,71.5,653.5,67.5" style="stroke:#181818;stroke-width:1.0;"/></g><!--link third to fourth--><g id="link_third_fourth"><path codeLine="38" d="M605.5,67.5 C627.99,67.5 625.01,83.5 647.5,83.5 " fill="none" id="third-to-fourth-1" style="stroke:#181818;stroke-width:1.0;"/><polygon fill="#181818" points="653.5,83.5,644.5,79.5,648.5,83.5,644.5,87.5,653.5,83.5" style="stroke:#181818;stroke-width:1.0;"/></g><!--link third to fourth--><g id="link_third_fourth"><path codeLine="39" d="M605.5,83.5 C627.99,83.5 625.01,99.5 647.5,99.5 " fill="none" id="third-to-fourth-2" style="stroke:#181818;stroke-width:1.0;"/><polygon fill="#181818" points="653.5,99.5,644.5,95.5,648.5,99.5,644.5,103.5,653.5,99.5" style="stroke:#181818;stroke-width:1.0;"/></g><!--link third to delete--><g id="link_third_delete"><path codeLine="40" d="M605.5,99.5 C643.58,99.5 599.0845,150.6003 570.9945,179.6003 " fill="none" id="third-to-delete" style="stroke:#FF0000;stroke-width:1.0;"/><polygon fill="#FF0000" points="566.82,183.91,575.9549,180.2284,570.2987,180.3186,570.2086,174.6624,566.82,183.91" style="stroke:#FF0000;stroke-width:1.0;"/></g><!--SRC=[hP71JWCX48RlynIJzMnDsPuspPwy-0p60x9ZYo5BCr0lndUNCfYoj8anzGP_Fhw17-Dq2DWzpJPQxJ147O-XGntGbkWJ4BV6Ey_3ZedcKHyEA-TtsuSSZl05HYJh496zS_w3E2lUBAVeLm7YALcVihDCpTDI5iZubFt99ckrDFVScEFUyWrYMVVB8PkuRxhmHqxPFqq1__fE9cBtI8uYfQOTvJ5JtWEKtnk6uiVxKRv34l53bHH6MgwXzbHBoVMWZWgLUwrL5_A6KXUKka991r0bF-_B5TS3snkqb6efTOtgMweNwlcEQNf9i9J-3G00]--></g></svg>