<?plantuml 1.2026.1?><svg xmlns="http://www.w3.org/2000/svg" xmlns:xlink="http://www.w3.org/1999/xlink" contentStyleType="text/css" data-diagram-type="ACTIVITY" height="482px" preserveAspectRatio="none" style="width:495px;height:482px;background:#FFFFFF;" version="1.1" viewBox="0 0 495 482" width="495px" zoomAndPan="magnify"><defs/><g><rect fill="#FFFFCC" height="48.2813" rx="2.5" ry="2.5" style="stroke:#FFDD88;stroke-width:3;" width="484.5996" x="5" y="5"/><text fill="#000000" font-family="monospace" font-size="10" lengthAdjust="spacing" textLength="469.5996" x="10" y="20">You&#160;should&#160;use&#160;a&#160;bracket&#160;({)&#160;when&#160;defining&#160;your&#160;container&#160;'group'&#160;LoggerConfig</text><text fill="#000000" font-family="monospace" font-size="10" lengthAdjust="spacing" textLength="307.0459" x="10" y="41.6406">You&#160;should&#160;use&#160;a&#160;bracket&#160;(})&#160;instead&#160;of&#160;'end&#160;group'</text><ellipse cx="127.0029" cy="78.2813" fill="#222222" rx="10" ry="10" style="stroke:#222222;stroke-width:1;"/><rect fill="#F1F1F1" height="33.9688" rx="12.5" ry="12.5" style="stroke:#181818;stroke-width:0.5;" width="76.0215" x="88.9922" y="108.2813"/><text fill="#000000" font-family="sans-serif" font-size="12" lengthAdjust="spacing" textLength="56.0215" x="98.9922" y="129.4199">LogEvent</text><rect fill="none" height="258.2344" style="stroke:#000000;stroke-width:1.5;" width="257.2212" x="11" y="152.25"/><path d="M114.4268,152.25 L114.4268,161.5469 L104.4268,171.5469 L11,171.5469" fill="none" style="stroke:#000000;stroke-width:1.5;"/><text fill="#000000" font-family="sans-serif" font-size="14" lengthAdjust="spacing" textLength="93.4268" x="14" y="166.2451">LoggerConfig</text><rect fill="#F1F1F1" height="33.9688" rx="12.5" ry="12.5" style="stroke:#181818;stroke-width:0.5;" width="137.791" x="58.1074" y="232.5469"/><text fill="#000000" font-family="sans-serif" font-size="12" lengthAdjust="spacing" textLength="117.791" x="68.1074" y="253.6855">LoggerConfig#log()</text><polygon fill="#F1F1F1" points="77.6641,286.5156,176.3418,286.5156,188.3418,298.5156,176.3418,310.5156,77.6641,310.5156,65.6641,298.5156,77.6641,286.5156" style="stroke:#181818;stroke-width:0.5;"/><text fill="#000000" font-family="sans-serif" font-size="11" lengthAdjust="spacing" textLength="98.6777" x="77.6641" y="302.3237">Apply logger filter</text><text fill="#000000" font-family="sans-serif" font-size="11" lengthAdjust="spacing" textLength="30.3682" x="35.2959" y="295.9214">DENY</text><text fill="#000000" font-family="sans-serif" font-size="11" lengthAdjust="spacing" textLength="51.8794" x="188.3418" y="295.9214">not DENY</text><rect fill="#FFC0CB" height="33.9688" rx="12.5" ry="12.5" style="stroke:#181818;stroke-width:0.5;" width="65.3281" x="23" y="320.5156"/><text fill="#000000" font-family="sans-serif" font-size="12" lengthAdjust="spacing" textLength="45.3281" x="33" y="341.6543">Discard</text><polygon fill="#F1F1F1" points="127.0029,188.5469,139.0029,200.5469,127.0029,212.5469,115.0029,200.5469,127.0029,188.5469" style="stroke:#181818;stroke-width:0.5;"/><polygon fill="#F1F1F1" points="70.021,374.4844,183.9849,374.4844,195.9849,386.4844,183.9849,398.4844,70.021,398.4844,58.021,386.4844,70.021,374.4844" style="stroke:#181818;stroke-width:0.5;"/><text fill="#000000" font-family="sans-serif" font-size="11" lengthAdjust="spacing" textLength="113.9639" x="70.021" y="390.2925">Go to parent logger?</text><text fill="#000000" font-family="sans-serif" font-size="11" lengthAdjust="spacing" textLength="19.0083" x="195.9849" y="383.8901">yes</text><ellipse cx="127.0029" cy="460.6948" fill="none" rx="11" ry="11" style="stroke:#222222;stroke-width:1;"/><ellipse cx="127.0029" cy="460.6948" fill="#222222" rx="6" ry="6" style="stroke:#222222;stroke-width:1;"/><line style="stroke:#181818;stroke-width:1;" x1="127.0029" x2="127.0029" y1="88.2813" y2="108.2813"/><polygon fill="#181818" points="123.0029,98.2813,127.0029,108.2813,131.0029,98.2813,127.0029,102.2813" style="stroke:#181818;stroke-width:1;"/><line style="stroke:#181818;stroke-width:1;" x1="65.6641" x2="55.6641" y1="298.5156" y2="298.5156"/><line style="stroke:#181818;stroke-width:1;" x1="55.6641" x2="55.6641" y1="298.5156" y2="320.5156"/><polygon fill="#181818" points="51.6641,310.5156,55.6641,320.5156,59.6641,310.5156,55.6641,314.5156" style="stroke:#181818;stroke-width:1;"/><line style="stroke:#181818;stroke-width:1;" x1="188.3418" x2="198.3418" y1="298.5156" y2="298.5156"/><line style="stroke:#181818;stroke-width:1;" x1="198.3418" x2="198.3418" y1="298.5156" y2="359.4844"/><line style="stroke:#181818;stroke-width:1;" x1="198.3418" x2="127.0029" y1="359.4844" y2="359.4844"/><line style="stroke:#181818;stroke-width:1;" x1="127.0029" x2="127.0029" y1="359.4844" y2="374.4844"/><polygon fill="#181818" points="123.0029,364.4844,127.0029,374.4844,131.0029,364.4844,127.0029,368.4844" style="stroke:#181818;stroke-width:1;"/><line style="stroke:#181818;stroke-width:1;" x1="127.0029" x2="127.0029" y1="266.5156" y2="286.5156"/><polygon fill="#181818" points="123.0029,276.5156,127.0029,286.5156,131.0029,276.5156,127.0029,280.5156" style="stroke:#181818;stroke-width:1;"/><line style="stroke:#181818;stroke-width:1;" x1="127.0029" x2="127.0029" y1="212.5469" y2="232.5469"/><polygon fill="#181818" points="123.0029,222.5469,127.0029,232.5469,131.0029,222.5469,127.0029,226.5469" style="stroke:#181818;stroke-width:1;"/><line style="stroke:#181818;stroke-width:1;" x1="195.9849" x2="252.2212" y1="386.4844" y2="386.4844"/><polygon fill="#181818" points="248.2212,299.0156,252.2212,289.0156,256.2212,299.0156,252.2212,295.0156" style="stroke:#181818;stroke-width:1;"/><line style="stroke:#181818;stroke-width:1;" x1="252.2212" x2="252.2212" y1="200.5469" y2="386.4844"/><line style="stroke:#181818;stroke-width:1;" x1="252.2212" x2="139.0029" y1="200.5469" y2="200.5469"/><polygon fill="#181818" points="149.0029,196.5469,139.0029,200.5469,149.0029,204.5469,145.0029,200.5469" style="stroke:#181818;stroke-width:1;"/><line style="stroke:#181818;stroke-width:1;" x1="127.0029" x2="127.0029" y1="142.25" y2="188.5469"/><polygon fill="#181818" points="123.0029,178.5469,127.0029,188.5469,131.0029,178.5469,127.0029,182.5469" style="stroke:#181818;stroke-width:1;"/><line style="stroke:#181818;stroke-width:1;" x1="127.0029" x2="127.0029" y1="398.4844" y2="449.6948"/><polygon fill="#181818" points="123.0029,439.6948,127.0029,449.6948,131.0029,439.6948,127.0029,443.6948" style="stroke:#181818;stroke-width:1;"/><text fill="#000000" font-family="sans-serif" font-size="11" lengthAdjust="spacing" textLength="13.7017" x="131.0029" y="428.1948">no</text><?plantuml-src HO-nJWGn34HxVyL8Lv0K5BIt4WXn9nf4HKCPThrPYn17YJbqVqy89t0vyyQQQHQgqVv9u_74sIQYMFMpe0kHwuFcLI9LBXoC1lQdxf96vtj0LhZxKj8PQTXO9HbN3ziumnsEpw-Uq6zN9B_l3zBcK9TfI0jRc3VYr1Wkg-6VliBBnaZXZHFaerGzSKChOPOS1_1hXHlYlCXwAOclJLB_zQWmHGcrZxhqklEG1dVcvkdw5bcddoJ6NcgcvHi0?></g></svg>