<svg xmlns="http://www.w3.org/2000/svg" xmlns:xlink="http://www.w3.org/1999/xlink" contentStyleType="text/css" data-diagram-type="CLASS" height="218px" preserveAspectRatio="none" style="width:200px;height:218px;background:#FFFFFF;" version="1.1" viewBox="0 0 200 218" width="200px" zoomAndPan="magnify"><defs/><g><!--class Appender--><g class="entity" data-entity="Appender" data-source-line="1" data-uid="ent0002" id="entity_Appender"><rect fill="#F1F1F1" height="80.5938" rx="2.5" ry="2.5" style="stroke:#181818;stroke-width:0.5;" width="175.085" x="12.55" y="7"/><ellipse cx="61.7961" cy="23" fill="#ADD1B2" rx="11" ry="11" style="stroke:#181818;stroke-width:1;"/><path d="M64.7648,28.6406 Q64.1867,28.9375 63.5461,29.0781 Q62.9055,29.2344 62.2023,29.2344 Q59.7023,29.2344 58.3742,27.5938 Q57.0617,25.9375 57.0617,22.8125 Q57.0617,19.6875 58.3742,18.0313 Q59.7023,16.375 62.2023,16.375 Q62.9055,16.375 63.5461,16.5313 Q64.2023,16.6875 64.7648,16.9844 L64.7648,19.7031 Q64.1398,19.125 63.5461,18.8594 Q62.9523,18.5781 62.3273,18.5781 Q60.9836,18.5781 60.2961,19.6563 Q59.6086,20.7188 59.6086,22.8125 Q59.6086,24.9063 60.2961,25.9844 Q60.9836,27.0469 62.3273,27.0469 Q62.9523,27.0469 63.5461,26.7813 Q64.1398,26.5 64.7648,25.9219 L64.7648,28.6406 Z " fill="#000000"/><text fill="#000000" font-family="sans-serif" font-size="14" lengthAdjust="spacing" textLength="68.0928" x="82.2961" y="27.8467">Appender</text><line style="stroke:#181818;stroke-width:0.5;" x1="13.55" x2="186.635" y1="39" y2="39"/><text fill="#000000" font-family="sans-serif" font-size="14" lengthAdjust="spacing" textLength="95.7236" x="18.55" y="55.9951">Layout layout</text><line style="stroke:#181818;stroke-width:0.5;" x1="13.55" x2="186.635" y1="63.2969" y2="63.2969"/><text fill="#000000" font-family="sans-serif" font-size="14" lengthAdjust="spacing" textLength="163.085" x="18.55" y="80.292">void append(LogEvent)</text></g><!--class Layout--><g class="entity" data-entity="Layout" data-source-line="6" data-uid="ent0003" id="entity_Layout"><rect fill="#F1F1F1" height="64.2969" rx="2.5" ry="2.5" style="stroke:#181818;stroke-width:2;" width="186.1797" x="7" y="147.59"/><ellipse cx="72.0439" cy="163.59" fill="#ADD1B2" rx="11" ry="11" style="stroke:#181818;stroke-width:1;"/><path d="M75.0127,169.2306 Q74.4346,169.5275 73.7939,169.6681 Q73.1533,169.8244 72.4502,169.8244 Q69.9502,169.8244 68.6221,168.1837 Q67.3096,166.5275 67.3096,163.4025 Q67.3096,160.2775 68.6221,158.6212 Q69.9502,156.965 72.4502,156.965 Q73.1533,156.965 73.7939,157.1212 Q74.4502,157.2775 75.0127,157.5744 L75.0127,160.2931 Q74.3877,159.715 73.7939,159.4494 Q73.2002,159.1681 72.5752,159.1681 Q71.2314,159.1681 70.5439,160.2462 Q69.8564,161.3087 69.8564,163.4025 Q69.8564,165.4962 70.5439,166.5744 Q71.2314,167.6369 72.5752,167.6369 Q73.2002,167.6369 73.7939,167.3712 Q74.3877,167.09 75.0127,166.5119 L75.0127,169.2306 Z " fill="#000000"/><text fill="#000000" font-family="sans-serif" font-size="14" lengthAdjust="spacing" textLength="47.5918" x="92.5439" y="168.4367">Layout</text><line style="stroke:#181818;stroke-width:2;" x1="8" x2="192.1797" y1="179.59" y2="179.59"/><line style="stroke:#181818;stroke-width:2;" x1="8" x2="192.1797" y1="187.59" y2="187.59"/><text fill="#000000" font-family="sans-serif" font-size="14" lengthAdjust="spacing" textLength="174.1797" x="13" y="204.5851">byte[] encode(LogEvent)</text></g><!--link Appender to Layout--><g class="link" data-entity-1="Appender" data-entity-2="Layout" data-source-line="6" data-uid="lnk4" id="link_Appender_Layout"><path codeLine="6" d="M100.09,87.79 C100.09,106.83 100.09,123.37 100.09,141.24" fill="none" id="Appender-to-Layout" style="stroke:#008000;stroke-width:6;"/><polygon fill="#008000" points="100.09,147.24,104.09,138.24,100.09,142.24,96.09,138.24,100.09,147.24" style="stroke:#008000;stroke-width:6;"/></g><!--SRC=[Iyv9B2vMS2meICrBIIrIgEPIKF19hCmlBL780LD0Vbb-Pef28bY5Xaz-kcjPQbw99bSj5nTSbswqSdfHQcgUJab6Pd9sNcfniQrPhAuTr2GkhcIm9L1pbNCoyrBral9pKi2s9LMMf4R7AgJc9UUdf2AR3m00]--></g></svg>