<?xml version="1.0" encoding="us-ascii" standalone="no"?><svg xmlns="http://www.w3.org/2000/svg" xmlns:xlink="http://www.w3.org/1999/xlink" contentStyleType="text/css" height="408px" preserveAspectRatio="none" style="width:325px;height:408px;background:#FFFFFF;" version="1.1" viewBox="0 0 325 408" width="325px" zoomAndPan="magnify"><defs/><g><!--class StrSubstitutor--><g id="elem_StrSubstitutor"><rect codeLine="1" fill="#F1F1F1" height="96.8906" id="StrSubstitutor" rx="2.5" ry="2.5" style="stroke:#181818;stroke-width:2.0;" width="311" x="7" y="7"/><ellipse cx="110.75" cy="23" fill="#ADD1B2" rx="11" ry="11" style="stroke:#181818;stroke-width:1.0;"/><path d="M113.7188,28.6406 Q113.1406,28.9375 112.5,29.0781 Q111.8594,29.2344 111.1563,29.2344 Q108.6563,29.2344 107.3281,27.5938 Q106.0156,25.9375 106.0156,22.8125 Q106.0156,19.6875 107.3281,18.0313 Q108.6563,16.375 111.1563,16.375 Q111.8594,16.375 112.5,16.5313 Q113.1563,16.6875 113.7188,16.9844 L113.7188,19.7031 Q113.0938,19.125 112.5,18.8594 Q111.9063,18.5781 111.2813,18.5781 Q109.9375,18.5781 109.25,19.6563 Q108.5625,20.7188 108.5625,22.8125 Q108.5625,24.9063 109.25,25.9844 Q109.9375,27.0469 111.2813,27.0469 Q111.9063,27.0469 112.5,26.7813 Q113.0938,26.5 113.7188,25.9219 L113.7188,28.6406 Z " fill="#000000"/><text fill="#000000" font-family="sans-serif" font-size="14" lengthAdjust="spacing" textLength="95" x="131.25" y="27.8467">StrSubstitutor</text><line style="stroke:#181818;stroke-width:2.0;" x1="8" x2="317" y1="39" y2="39"/><text fill="#000000" font-family="sans-serif" font-size="14" lengthAdjust="spacing" textLength="162" x="13" y="55.9951">Interpolator interpolator</text><line style="stroke:#181818;stroke-width:2.0;" x1="8" x2="317" y1="63.2969" y2="63.2969"/><text fill="#000000" font-family="sans-serif" font-size="14" lengthAdjust="spacing" textLength="184" x="13" y="80.292">String replace(String input)</text><text fill="#000000" font-family="sans-serif" font-size="14" lengthAdjust="spacing" textLength="299" x="13" y="96.5889">String replace(LogEvent event, String input)</text></g><!--class Interpolator--><g id="elem_Interpolator"><rect codeLine="9" fill="#F1F1F1" height="96.8906" id="Interpolator" rx="2.5" ry="2.5" style="stroke:#181818;stroke-width:0.5;" width="296" x="14.5" y="163.9"/><ellipse cx="118.75" cy="179.9" fill="#ADD1B2" rx="11" ry="11" style="stroke:#181818;stroke-width:1.0;"/><path d="M121.7188,185.5406 Q121.1406,185.8375 120.5,185.9781 Q119.8594,186.1344 119.1563,186.1344 Q116.6563,186.1344 115.3281,184.4938 Q114.0156,182.8375 114.0156,179.7125 Q114.0156,176.5875 115.3281,174.9313 Q116.6563,173.275 119.1563,173.275 Q119.8594,173.275 120.5,173.4313 Q121.1563,173.5875 121.7188,173.8844 L121.7188,176.6031 Q121.0938,176.025 120.5,175.7594 Q119.9063,175.4781 119.2813,175.4781 Q117.9375,175.4781 117.25,176.5563 Q116.5625,177.6188 116.5625,179.7125 Q116.5625,181.8063 117.25,182.8844 Q117.9375,183.9469 119.2813,183.9469 Q119.9063,183.9469 120.5,183.6813 Q121.0938,183.4 121.7188,182.8219 L121.7188,185.5406 Z " fill="#000000"/><text fill="#000000" font-family="sans-serif" font-size="14" lengthAdjust="spacing" textLength="79" x="139.25" y="184.7467">Interpolator</text><line style="stroke:#181818;stroke-width:0.5;" x1="15.5" x2="309.5" y1="195.9" y2="195.9"/><text fill="#000000" font-family="sans-serif" font-size="14" lengthAdjust="spacing" textLength="139" x="20.5" y="212.8951">StrLookup[] lookups</text><line style="stroke:#181818;stroke-width:0.5;" x1="15.5" x2="309.5" y1="220.1969" y2="220.1969"/><text fill="#000000" font-family="sans-serif" font-size="14" lengthAdjust="spacing" textLength="169" x="20.5" y="237.192">String lookup(String key)</text><text fill="#000000" font-family="sans-serif" font-size="14" lengthAdjust="spacing" textLength="284" x="20.5" y="253.4889">String lookup(LogEvent event, String key)</text></g><!--class StrLookup--><g id="elem_StrLookup"><rect codeLine="17" fill="#F1F1F1" height="80.5938" id="StrLookup" rx="2.5" ry="2.5" style="stroke:#181818;stroke-width:0.5;" width="296" x="14.5" y="320.79"/><ellipse cx="123.25" cy="336.79" fill="#ADD1B2" rx="11" ry="11" style="stroke:#181818;stroke-width:1.0;"/><path d="M126.2188,342.4306 Q125.6406,342.7275 125,342.8681 Q124.3594,343.0244 123.6563,343.0244 Q121.1563,343.0244 119.8281,341.3837 Q118.5156,339.7275 118.5156,336.6025 Q118.5156,333.4775 119.8281,331.8212 Q121.1563,330.165 123.6563,330.165 Q124.3594,330.165 125,330.3212 Q125.6563,330.4775 126.2188,330.7744 L126.2188,333.4931 Q125.5938,332.915 125,332.6494 Q124.4063,332.3681 123.7813,332.3681 Q122.4375,332.3681 121.75,333.4462 Q121.0625,334.5087 121.0625,336.6025 Q121.0625,338.6962 121.75,339.7744 Q122.4375,340.8369 123.7813,340.8369 Q124.4063,340.8369 125,340.5712 Q125.5938,340.29 126.2188,339.7119 L126.2188,342.4306 Z " fill="#000000"/><text fill="#000000" font-family="sans-serif" font-size="14" lengthAdjust="spacing" textLength="70" x="143.75" y="341.6367">StrLookup</text><line style="stroke:#181818;stroke-width:0.5;" x1="15.5" x2="309.5" y1="352.79" y2="352.79"/><line style="stroke:#181818;stroke-width:0.5;" x1="15.5" x2="309.5" y1="360.79" y2="360.79"/><text fill="#000000" font-family="sans-serif" font-size="14" lengthAdjust="spacing" textLength="180" x="20.5" y="377.7851">String lookup(String input)</text><text fill="#000000" font-family="sans-serif" font-size="14" lengthAdjust="spacing" textLength="284" x="20.5" y="394.082">String lookup(LogEvent event, String key)</text></g><!--link StrSubstitutor to Interpolator--><g id="link_StrSubstitutor_Interpolator"><path codeLine="7" d="M162.5,104.19 C162.5,123.03 162.5,138.64 162.5,157.5 " fill="none" id="StrSubstitutor-to-Interpolator" style="stroke:#181818;stroke-width:1.0;"/><polygon fill="#181818" points="162.5,163.5,166.5,154.5,162.5,158.5,158.5,154.5,162.5,163.5" style="stroke:#181818;stroke-width:1.0;"/></g><!--link Interpolator to StrLookup--><g id="link_Interpolator_StrLookup"><path codeLine="15" d="M162.5,260.98 C162.5,280.23 162.5,296.18 162.5,314.53 " fill="none" id="Interpolator-to-StrLookup" style="stroke:#181818;stroke-width:1.0;"/><polygon fill="#181818" points="162.5,320.53,166.5,311.53,162.5,315.53,158.5,311.53,162.5,320.53" style="stroke:#181818;stroke-width:1.0;"/><text fill="#000000" font-family="sans-serif" font-size="13" lengthAdjust="spacing" textLength="23" x="137.5953" y="309.6485">0..*</text></g><!--SRC=[ZP312i8m38RlVOemBqvSyGcyUH1ssr4yR3ECijAMDXLa-EwkctDsG_0Iclm9tqThMJe71Td2Luu4UT8MDb8ev9MMD-WOm5aHMgDb6JBnrVHPVobK0nQDB6lSlbkXZATq7UUwETrH4M2eUuZNdumjHBBi6D4PgmVVoAWRERdMhJUNAyZXuMRwE9ZSMdoag-o7sB3RQqMy89KSEDybCtOI-mmcgpL_-JV_6Bm0]--></g></svg>