<?plantuml 1.2026.1?><svg xmlns="http://www.w3.org/2000/svg" xmlns:xlink="http://www.w3.org/1999/xlink" contentStyleType="text/css" data-diagram-type="ACTIVITY" height="463px" preserveAspectRatio="none" style="width:513px;height:463px;background:#FFFFFF;" version="1.1" viewBox="0 0 513 463" width="513px" zoomAndPan="magnify"><defs/><g><rect fill="#FFFFCC" height="48.2813" rx="2.5" ry="2.5" style="stroke:#FFDD88;stroke-width:3;" width="502.6611" x="5" y="5"/><text fill="#000000" font-family="monospace" font-size="10" lengthAdjust="spacing" textLength="487.6611" x="10" y="20">You&#160;should&#160;use&#160;a&#160;bracket&#160;({)&#160;when&#160;defining&#160;your&#160;container&#160;'group'&#160;AppenderControl</text><text fill="#000000" font-family="monospace" font-size="10" lengthAdjust="spacing" textLength="307.0459" x="10" y="41.6406">You&#160;should&#160;use&#160;a&#160;bracket&#160;(})&#160;instead&#160;of&#160;'end&#160;group'</text><ellipse cx="203.1892" cy="78.2813" fill="#222222" rx="10" ry="10" style="stroke:#222222;stroke-width:1;"/><rect fill="#F1F1F1" height="33.9688" rx="12.5" ry="12.5" style="stroke:#181818;stroke-width:0.5;" width="76.0215" x="165.1785" y="108.2813"/><text fill="#000000" font-family="sans-serif" font-size="12" lengthAdjust="spacing" textLength="56.0215" x="175.1785" y="129.4199">LogEvent</text><rect fill="none" height="258.2031" style="stroke:#000000;stroke-width:1.5;" width="355.416" x="11" y="152.25"/><path d="M140.0068,152.25 L140.0068,161.5469 L130.0068,171.5469 L11,171.5469" fill="none" style="stroke:#000000;stroke-width:1.5;"/><text fill="#000000" font-family="sans-serif" font-size="14" lengthAdjust="spacing" textLength="119.0068" x="14" y="166.2451">AppenderControl</text><rect fill="#F1F1F1" height="33.9688" rx="12.5" ry="12.5" style="stroke:#181818;stroke-width:0.5;" width="220.4082" x="92.9851" y="188.5469"/><text fill="#000000" font-family="sans-serif" font-size="12" lengthAdjust="spacing" textLength="200.4082" x="102.9851" y="209.6855">AppenderControl#callAppender()</text><polygon fill="#F1F1F1" points="77.6641,242.5156,328.7144,242.5156,340.7144,254.5156,328.7144,266.5156,77.6641,266.5156,65.6641,254.5156,77.6641,242.5156" style="stroke:#181818;stroke-width:0.5;"/><text fill="#000000" font-family="sans-serif" font-size="11" lengthAdjust="spacing" textLength="251.0503" x="77.6641" y="258.3237">Is less severe then appender reference level?</text><text fill="#000000" font-family="sans-serif" font-size="11" lengthAdjust="spacing" textLength="19.0083" x="46.6558" y="251.9214">yes</text><text fill="#000000" font-family="sans-serif" font-size="11" lengthAdjust="spacing" textLength="13.7017" x="340.7144" y="251.9214">no</text><rect fill="#FFC0CB" height="33.9688" rx="12.5" ry="12.5" style="stroke:#181818;stroke-width:0.5;" width="65.3281" x="23" y="276.5156"/><text fill="#000000" font-family="sans-serif" font-size="12" lengthAdjust="spacing" textLength="45.3281" x="33" y="297.6543">Discard</text><polygon fill="#F1F1F1" points="116.7603,330.4844,289.6182,330.4844,301.6182,342.4844,289.6182,354.4844,116.7603,354.4844,104.7603,342.4844,116.7603,330.4844" style="stroke:#181818;stroke-width:0.5;"/><text fill="#000000" font-family="sans-serif" font-size="11" lengthAdjust="spacing" textLength="172.8579" x="116.7603" y="346.2925">Apply appender reference filter</text><text fill="#000000" font-family="sans-serif" font-size="11" lengthAdjust="spacing" textLength="30.3682" x="74.3921" y="339.8901">DENY</text><text fill="#000000" font-family="sans-serif" font-size="11" lengthAdjust="spacing" textLength="51.8794" x="301.6182" y="339.8901">not DENY</text><rect fill="#FFC0CB" height="33.9688" rx="12.5" ry="12.5" style="stroke:#181818;stroke-width:0.5;" width="65.3281" x="62.0962" y="364.4844"/><text fill="#000000" font-family="sans-serif" font-size="12" lengthAdjust="spacing" textLength="45.3281" x="72.0962" y="385.623">Discard</text><ellipse cx="203.1892" cy="441.4531" fill="none" rx="11" ry="11" style="stroke:#222222;stroke-width:1;"/><ellipse cx="203.1892" cy="441.4531" fill="#222222" rx="6" ry="6" style="stroke:#222222;stroke-width:1;"/><line style="stroke:#181818;stroke-width:1;" x1="203.1892" x2="203.1892" y1="88.2813" y2="108.2813"/><polygon fill="#181818" points="199.1892,98.2813,203.1892,108.2813,207.1892,98.2813,203.1892,102.2813" style="stroke:#181818;stroke-width:1;"/><line style="stroke:#181818;stroke-width:1;" x1="65.6641" x2="55.6641" y1="254.5156" y2="254.5156"/><line style="stroke:#181818;stroke-width:1;" x1="55.6641" x2="55.6641" y1="254.5156" y2="276.5156"/><polygon fill="#181818" points="51.6641,266.5156,55.6641,276.5156,59.6641,266.5156,55.6641,270.5156" style="stroke:#181818;stroke-width:1;"/><line style="stroke:#181818;stroke-width:1;" x1="340.7144" x2="350.7144" y1="254.5156" y2="254.5156"/><line style="stroke:#181818;stroke-width:1;" x1="350.7144" x2="350.7144" y1="254.5156" y2="315.4844"/><line style="stroke:#181818;stroke-width:1;" x1="350.7144" x2="203.1892" y1="315.4844" y2="315.4844"/><line style="stroke:#181818;stroke-width:1;" x1="203.1892" x2="203.1892" y1="315.4844" y2="330.4844"/><polygon fill="#181818" points="199.1892,320.4844,203.1892,330.4844,207.1892,320.4844,203.1892,324.4844" style="stroke:#181818;stroke-width:1;"/><line style="stroke:#181818;stroke-width:1;" x1="203.1892" x2="203.1892" y1="222.5156" y2="242.5156"/><polygon fill="#181818" points="199.1892,232.5156,203.1892,242.5156,207.1892,232.5156,203.1892,236.5156" style="stroke:#181818;stroke-width:1;"/><line style="stroke:#181818;stroke-width:1;" x1="104.7603" x2="94.7603" y1="342.4844" y2="342.4844"/><line style="stroke:#181818;stroke-width:1;" x1="94.7603" x2="94.7603" y1="342.4844" y2="364.4844"/><polygon fill="#181818" points="90.7603,354.4844,94.7603,364.4844,98.7603,354.4844,94.7603,358.4844" style="stroke:#181818;stroke-width:1;"/><line style="stroke:#181818;stroke-width:1;" x1="301.6182" x2="311.6182" y1="342.4844" y2="342.4844"/><line style="stroke:#181818;stroke-width:1;" x1="311.6182" x2="311.6182" y1="342.4844" y2="403.4531"/><line style="stroke:#181818;stroke-width:1;" x1="311.6182" x2="203.1892" y1="403.4531" y2="403.4531"/><line style="stroke:#181818;stroke-width:1;" x1="203.1892" x2="203.1892" y1="403.4531" y2="430.4531"/><polygon fill="#181818" points="199.1892,420.4531,203.1892,430.4531,207.1892,420.4531,203.1892,424.4531" style="stroke:#181818;stroke-width:1;"/><line style="stroke:#181818;stroke-width:1;" x1="203.1892" x2="203.1892" y1="142.25" y2="188.5469"/><polygon fill="#181818" points="199.1892,178.5469,203.1892,188.5469,207.1892,178.5469,203.1892,182.5469" style="stroke:#181818;stroke-width:1;"/><?plantuml-src ZP2nQiD038PtFOKWG-on7PsXb2P3eNJgal5obksZojqXgOQyVOITK2WTSeE6NvzE7r8BOj1zbF4mKxOTm2Zbf-9hhPHxahUIJGe3T7-IJGpCzwnfVJ0DsBmhCgcYqan2Q1Db33S8XGOFSoHdPkANTkqt5z8MqD-cflpTxPF68FrkYNgo42SWLi8cbvNRujVaduGJCQPpbJAJhwmXfZmkmDeAp-2Bqx2OkIfV_dCP4Xl9tML_-3m-AcFuIp-gz7HJyehBfK6jr2i0?></g></svg>