<svg xmlns="http://www.w3.org/2000/svg" xmlns:xlink="http://www.w3.org/1999/xlink" contentStyleType="text/css" data-diagram-type="ACTIVITY" height="484px" preserveAspectRatio="none" style="width:564px;height:484px;background:#FFFFFF;" version="1.1" viewBox="0 0 564 484" width="564px" zoomAndPan="magnify"><?plantuml 1.2026.6?><defs/><g><rect fill="#FFFFCC" height="59.9219" rx="2.5" ry="2.5" style="stroke:#FFDD88;stroke-width:3;" width="533.7842" x="13" y="13"/><text fill="#000000" font-family="monospace" font-size="10" lengthAdjust="spacing" textLength="487.6611" x="20" y="23.6406">You&#160;should&#160;use&#160;a&#160;bracket&#160;({)&#160;when&#160;defining&#160;your&#160;container&#160;'group'&#160;AppenderControl</text><text fill="#000000" font-family="monospace" font-size="10" lengthAdjust="spacing" textLength="523.7842" x="20" y="45.2813">This&#160;syntax&#160;is&#160;deprecated,&#160;you&#160;must&#160;add&#160;&lt;&lt;#pink&gt;&gt;&#160;at&#160;the&#160;end&#160;of&#160;the&#160;line,&#160;after&#160;the&#160;';'</text><text fill="#000000" font-family="monospace" font-size="10" lengthAdjust="spacing" textLength="307.0459" x="20" y="66.9219">You&#160;should&#160;use&#160;a&#160;bracket&#160;(})&#160;instead&#160;of&#160;'end&#160;group'</text><ellipse cx="208.1892" cy="89.9219" fill="#222222" rx="10" ry="10" style="stroke:#222222;stroke-width:1;"/><rect fill="#F1F1F1" height="33.9688" rx="12.5" ry="12.5" style="stroke:#181818;stroke-width:0.5;" width="76.0215" x="170.1785" y="119.9219"/><text fill="#000000" font-family="sans-serif" font-size="12" lengthAdjust="spacing" textLength="56.0215" x="180.1785" y="141.0605">LogEvent</text><rect fill="none" height="258.2031" style="stroke:#000000;stroke-width:1.5;" width="355.416" x="16" y="163.8906"/><path d="M145.0068,163.8906 L145.0068,173.1875 L135.0068,183.1875 L16,183.1875" fill="none" style="stroke:#000000;stroke-width:1.5;"/><text fill="#000000" font-family="sans-serif" font-size="14" lengthAdjust="spacing" textLength="119.0068" x="19" y="177.8857">AppenderControl</text><rect fill="#F1F1F1" height="33.9688" rx="12.5" ry="12.5" style="stroke:#181818;stroke-width:0.5;" width="220.4082" x="97.9851" y="200.1875"/><text fill="#000000" font-family="sans-serif" font-size="12" lengthAdjust="spacing" textLength="200.4082" x="107.9851" y="221.3262">AppenderControl#callAppender()</text><polygon fill="#F1F1F1" points="82.6641,254.1563,333.7144,254.1563,345.7144,266.1563,333.7144,278.1563,82.6641,278.1563,70.6641,266.1563,82.6641,254.1563" style="stroke:#181818;stroke-width:0.5;stroke-linejoin:miter;stroke-miterlimit:10;"/><text fill="#000000" font-family="sans-serif" font-size="11" lengthAdjust="spacing" textLength="251.0503" x="82.6641" y="269.9644">Is less severe then appender reference level?</text><text fill="#000000" font-family="sans-serif" font-size="11" lengthAdjust="spacing" textLength="19.0083" x="51.6558" y="263.562">yes</text><text fill="#000000" font-family="sans-serif" font-size="11" lengthAdjust="spacing" textLength="13.7017" x="345.7144" y="263.562">no</text><rect fill="#F1F1F1" height="33.9688" rx="12.5" ry="12.5" style="stroke:#181818;stroke-width:0.5;" width="65.3281" x="28" y="288.1563"/><text fill="#000000" font-family="sans-serif" font-size="12" lengthAdjust="spacing" textLength="45.3281" x="38" y="309.2949">Discard</text><polygon fill="#F1F1F1" points="121.7603,342.125,294.6182,342.125,306.6182,354.125,294.6182,366.125,121.7603,366.125,109.7603,354.125,121.7603,342.125" style="stroke:#181818;stroke-width:0.5;stroke-linejoin:miter;stroke-miterlimit:10;"/><text fill="#000000" font-family="sans-serif" font-size="11" lengthAdjust="spacing" textLength="172.8579" x="121.7603" y="357.9331">Apply appender reference filter</text><text fill="#000000" font-family="sans-serif" font-size="11" lengthAdjust="spacing" textLength="30.3682" x="79.3921" y="351.5308">DENY</text><text fill="#000000" font-family="sans-serif" font-size="11" lengthAdjust="spacing" textLength="51.8794" x="306.6182" y="351.5308">not DENY</text><rect fill="#F1F1F1" height="33.9688" rx="12.5" ry="12.5" style="stroke:#181818;stroke-width:0.5;" width="65.3281" x="67.0962" y="376.125"/><text fill="#000000" font-family="sans-serif" font-size="12" lengthAdjust="spacing" textLength="45.3281" x="77.0962" y="397.2637">Discard</text><ellipse cx="208.1892" cy="453.0938" fill="none" rx="11" ry="11" style="stroke:#222222;stroke-width:1;"/><ellipse cx="208.1892" cy="453.0938" fill="#222222" rx="6" ry="6" style="stroke:#222222;stroke-width:1;"/><line style="stroke:#181818;stroke-width:1;" x1="208.1892" x2="208.1892" y1="99.9219" y2="119.9219"/><polygon fill="#181818" points="204.1892,109.9219,208.1892,119.9219,212.1892,109.9219,208.1892,113.9219" style="stroke:#181818;stroke-width:1;stroke-linejoin:miter;stroke-miterlimit:10;"/><line style="stroke:#181818;stroke-width:1;" x1="70.6641" x2="60.6641" y1="266.1563" y2="266.1563"/><line style="stroke:#181818;stroke-width:1;" x1="60.6641" x2="60.6641" y1="266.1563" y2="288.1563"/><polygon fill="#181818" points="56.6641,278.1563,60.6641,288.1563,64.6641,278.1563,60.6641,282.1563" style="stroke:#181818;stroke-width:1;stroke-linejoin:miter;stroke-miterlimit:10;"/><line style="stroke:#181818;stroke-width:1;" x1="345.7144" x2="355.7144" y1="266.1563" y2="266.1563"/><line style="stroke:#181818;stroke-width:1;" x1="355.7144" x2="355.7144" y1="266.1563" y2="327.125"/><line style="stroke:#181818;stroke-width:1;" x1="355.7144" x2="208.1892" y1="327.125" y2="327.125"/><line style="stroke:#181818;stroke-width:1;" x1="208.1892" x2="208.1892" y1="327.125" y2="342.125"/><polygon fill="#181818" points="204.1892,332.125,208.1892,342.125,212.1892,332.125,208.1892,336.125" style="stroke:#181818;stroke-width:1;stroke-linejoin:miter;stroke-miterlimit:10;"/><line style="stroke:#181818;stroke-width:1;" x1="208.1892" x2="208.1892" y1="234.1563" y2="254.1563"/><polygon fill="#181818" points="204.1892,244.1563,208.1892,254.1563,212.1892,244.1563,208.1892,248.1563" style="stroke:#181818;stroke-width:1;stroke-linejoin:miter;stroke-miterlimit:10;"/><line style="stroke:#181818;stroke-width:1;" x1="109.7603" x2="99.7603" y1="354.125" y2="354.125"/><line style="stroke:#181818;stroke-width:1;" x1="99.7603" x2="99.7603" y1="354.125" y2="376.125"/><polygon fill="#181818" points="95.7603,366.125,99.7603,376.125,103.7603,366.125,99.7603,370.125" style="stroke:#181818;stroke-width:1;stroke-linejoin:miter;stroke-miterlimit:10;"/><line style="stroke:#181818;stroke-width:1;" x1="306.6182" x2="316.6182" y1="354.125" y2="354.125"/><line style="stroke:#181818;stroke-width:1;" x1="316.6182" x2="316.6182" y1="354.125" y2="415.0938"/><line style="stroke:#181818;stroke-width:1;" x1="316.6182" x2="208.1892" y1="415.0938" y2="415.0938"/><line style="stroke:#181818;stroke-width:1;" x1="208.1892" x2="208.1892" y1="415.0938" y2="442.0938"/><polygon fill="#181818" points="204.1892,432.0938,208.1892,442.0938,212.1892,432.0938,208.1892,436.0938" style="stroke:#181818;stroke-width:1;stroke-linejoin:miter;stroke-miterlimit:10;"/><line style="stroke:#181818;stroke-width:1;" x1="208.1892" x2="208.1892" y1="153.8906" y2="200.1875"/><polygon fill="#181818" points="204.1892,190.1875,208.1892,200.1875,212.1892,190.1875,208.1892,194.1875" style="stroke:#181818;stroke-width:1;stroke-linejoin:miter;stroke-miterlimit:10;"/><?plantuml-src ZP2nQiD038PtFOKWG-on7PsXb2P3eNJgal5obksZojqXgOQyVOITK2WTSeE6NvzE7r8BOj1zbF4mKxOTm2Zbf-9hhPHxahUIJGe3T7-IJGpCzwnfVJ0DsBmhCgcYqan2Q1Db33S8XGOFSoHdPkANTkqt5z8MqD-cflpTxPF68FrkYNgo42SWLi8cbvNRujVaduGJCQPpbJAJhwmXfZmkmDeAp-2Bqx2OkIfV_dCP4Xl9tML_-3m-AcFuIp-gz7HJyehBfK6jr2i0?></g></svg>