<svg xmlns="http://www.w3.org/2000/svg" xmlns:xlink="http://www.w3.org/1999/xlink" contentStyleType="text/css" data-diagram-type="DESCRIPTION" height="913px" preserveAspectRatio="none" style="width:1192px;height:913px;background:#FFFFFF;" version="1.1" viewBox="0 0 1192 913" width="1192px" zoomAndPan="magnify"><?plantuml 1.2026.6?><defs/><g><g class="legend" data-source-line="43"><rect fill="#DDDDDD" height="104.7969" rx="7.5" ry="7.5" style="stroke:#000000;stroke-width:1;" width="214.0479" x="959.7221" y="12"/><rect fill="#90EE90" height="16.2969" style="stroke:none;stroke-width:1;" width="23.9824" x="964.7221" y="19"/><text fill="#000000" font-family="sans-serif" font-size="14" lengthAdjust="spacing" textLength="4.4502" x="964.7221" y="31.9951">&#160;</text><text fill="#000000" font-family="sans-serif" font-size="14" lengthAdjust="spacing" textLength="171.165" x="993.1547" y="31.9951">Logging implementation</text><rect fill="#FFFF00" height="16.2969" style="stroke:none;stroke-width:1;" width="23.9824" x="964.7221" y="35.2969"/><text fill="#000000" font-family="sans-serif" font-size="14" lengthAdjust="spacing" textLength="4.4502" x="964.7221" y="48.292">&#160;</text><text fill="#000000" font-family="sans-serif" font-size="14" lengthAdjust="spacing" textLength="105.1572" x="993.1547" y="48.292">Logging bridge</text><rect fill="#00FFFF" height="16.2969" style="stroke:none;stroke-width:1;" width="23.9824" x="964.7221" y="51.5938"/><text fill="#000000" font-family="sans-serif" font-size="14" lengthAdjust="spacing" textLength="4.4502" x="964.7221" y="64.5889">&#160;</text><text fill="#000000" font-family="sans-serif" font-size="14" lengthAdjust="spacing" textLength="82.3867" x="993.1547" y="64.5889">Logging API</text><text fill="#000000" font-family="sans-serif" font-size="14" lengthAdjust="spacing" textLength="4.4502" x="964.7221" y="85.542">&#160;</text><text fill="#000000" font-family="sans-serif" font-size="18" lengthAdjust="spacing" textLength="15.082" x="969.1723" y="84.5986">&#8594;</text><text fill="#000000" font-family="sans-serif" font-size="14" lengthAdjust="spacing" textLength="4.4502" x="984.2544" y="85.542">&#160;</text><text fill="#000000" font-family="sans-serif" font-size="14" lengthAdjust="spacing" textLength="140.6357" x="993.1547" y="80.8857">Compile-time usage</text><text fill="#000000" font-family="sans-serif" font-size="14" lengthAdjust="spacing" textLength="4.4502" x="964.7221" y="106.4951">&#160;</text><text fill="#000000" font-family="sans-serif" font-size="18" lengthAdjust="spacing" textLength="15.082" x="969.1723" y="105.5518">&#8674;</text><text fill="#000000" font-family="sans-serif" font-size="14" lengthAdjust="spacing" textLength="4.4502" x="984.2544" y="106.4951">&#160;</text><text fill="#000000" font-family="sans-serif" font-size="14" lengthAdjust="spacing" textLength="105.7998" x="993.1547" y="101.8389">Runtime usage</text><line style="stroke:#000000;stroke-width:1;" x1="964.7221" x2="1168.77" y1="19" y2="19"/><line style="stroke:#000000;stroke-width:1;" x1="964.7221" x2="1168.77" y1="35.2969" y2="35.2969"/><line style="stroke:#000000;stroke-width:1;" x1="964.7221" x2="1168.77" y1="51.5938" y2="51.5938"/><line style="stroke:#000000;stroke-width:1;" x1="964.7221" x2="1168.77" y1="67.8906" y2="67.8906"/><line style="stroke:#000000;stroke-width:1;" x1="964.7221" x2="1168.77" y1="88.8438" y2="88.8438"/><line style="stroke:#000000;stroke-width:1;" x1="964.7221" x2="1168.77" y1="109.7969" y2="109.7969"/><line style="stroke:#000000;stroke-width:1;" x1="964.7221" x2="964.7221" y1="19" y2="109.7969"/><line style="stroke:#000000;stroke-width:1;" x1="988.7046" x2="988.7046" y1="19" y2="109.7969"/><line style="stroke:#000000;stroke-width:1;" x1="1168.77" x2="1168.77" y1="19" y2="109.7969"/></g><!--cluster Compile time--><g class="cluster" data-qualified-name="Compile time" data-source-line="1" id="ent0001"><rect fill="none" height="407.89" rx="2.5" ry="2.5" style="stroke:#181818;stroke-width:1;" width="547" x="7" y="136.7969"/><path d="M121.043,136.7969 L121.043,146.0938 L111.043,156.0938 L7,156.0938" fill="none" style="stroke:#181818;stroke-width:1;"/><text fill="#000000" font-family="sans-serif" font-size="14" font-weight="700" lengthAdjust="spacing" textLength="104.043" x="10" y="150.792">Compile time</text></g><!--cluster Runtime--><g class="cluster" data-qualified-name="Runtime" data-source-line="14" id="ent0013"><rect fill="none" height="494.94" rx="2.5" ry="2.5" style="stroke:#181818;stroke-width:1;" width="488" x="578" y="404.3869"/><path d="M654.2881,404.3869 L654.2881,413.6838 L644.2881,423.6838 L578,423.6838" fill="none" style="stroke:#181818;stroke-width:1;"/><text fill="#000000" font-family="sans-serif" font-size="14" font-weight="700" lengthAdjust="spacing" textLength="66.2881" x="581" y="418.382">Runtime</text></g><!--cluster JRE--><g class="cluster" data-qualified-name="Runtime.JRE" data-source-line="29" id="ent0024"><rect fill="none" height="97.3" rx="2.5" ry="2.5" style="stroke:#181818;stroke-width:1;" width="189" x="631" y="447.3869"/><path d="M666.5527,447.3869 L666.5527,456.6838 L656.5527,466.6838 L631,466.6838" fill="none" style="stroke:#181818;stroke-width:1;"/><text fill="#000000" font-family="sans-serif" font-size="14" font-weight="700" lengthAdjust="spacing" textLength="25.5527" x="634" y="461.382">JRE</text></g><!--entity Application--><g class="entity" data-qualified-name="Compile time.Application" data-source-line="2" id="ent0002"><rect fill="#F1F1F1" height="46.2969" rx="2.5" ry="2.5" style="stroke:#181818;stroke-width:0.5;" width="118.2236" x="219.89" y="171.7969"/><rect fill="#F1F1F1" height="10" style="stroke:#181818;stroke-width:0.5;" width="15" x="318.1136" y="176.7969"/><rect fill="#F1F1F1" height="2" style="stroke:#181818;stroke-width:0.5;" width="4" x="316.1136" y="178.7969"/><rect fill="#F1F1F1" height="2" style="stroke:#181818;stroke-width:0.5;" width="4" x="316.1136" y="182.7969"/><text fill="#000000" font-family="sans-serif" font-size="14" lengthAdjust="spacing" textLength="78.2236" x="234.89" y="204.792">Application</text></g><!--entity Log4j API--><g class="entity" data-qualified-name="Compile time.Log4j API" data-source-line="2" id="ent0003"><rect fill="#00FFFF" height="46.2969" rx="2.5" ry="2.5" style="stroke:#181818;stroke-width:0.5;" width="104.6475" x="433.68" y="295.0969"/><rect fill="#00FFFF" height="10" style="stroke:#181818;stroke-width:0.5;" width="15" x="518.3275" y="300.0969"/><rect fill="#00FFFF" height="2" style="stroke:#181818;stroke-width:0.5;" width="4" x="516.3275" y="302.0969"/><rect fill="#00FFFF" height="2" style="stroke:#181818;stroke-width:0.5;" width="4" x="516.3275" y="306.0969"/><text fill="#000000" font-family="sans-serif" font-size="14" lengthAdjust="spacing" textLength="64.6475" x="448.68" y="328.092">Log4j API</text></g><!--entity SLF4J--><g class="entity" data-qualified-name="Compile time.SLF4J" data-source-line="6" id="ent0005"><rect fill="#00FFFF" height="46.2969" rx="2.5" ry="2.5" style="stroke:#181818;stroke-width:0.5;" width="77.7754" x="307.11" y="482.3869"/><rect fill="#00FFFF" height="10" style="stroke:#181818;stroke-width:0.5;" width="15" x="364.8854" y="487.3869"/><rect fill="#00FFFF" height="2" style="stroke:#181818;stroke-width:0.5;" width="4" x="362.8854" y="489.3869"/><rect fill="#00FFFF" height="2" style="stroke:#181818;stroke-width:0.5;" width="4" x="362.8854" y="493.3869"/><text fill="#000000" font-family="sans-serif" font-size="14" lengthAdjust="spacing" textLength="37.7754" x="322.11" y="515.382">SLF4J</text></g><!--entity Library 1--><g class="entity" data-qualified-name="Compile time.Library 1" data-source-line="8" id="ent0006"><rect fill="#F1F1F1" height="46.2969" rx="2.5" ry="2.5" style="stroke:#181818;stroke-width:0.5;" width="102.3096" x="22.85" y="295.0969"/><rect fill="#F1F1F1" height="10" style="stroke:#181818;stroke-width:0.5;" width="15" x="105.1596" y="300.0969"/><rect fill="#F1F1F1" height="2" style="stroke:#181818;stroke-width:0.5;" width="4" x="103.1596" y="302.0969"/><rect fill="#F1F1F1" height="2" style="stroke:#181818;stroke-width:0.5;" width="4" x="103.1596" y="306.0969"/><text fill="#000000" font-family="sans-serif" font-size="14" lengthAdjust="spacing" textLength="62.3096" x="37.85" y="328.092">Library 1</text></g><!--entity Library 2--><g class="entity" data-qualified-name="Compile time.Library 2" data-source-line="10" id="ent0009"><rect fill="#F1F1F1" height="46.2969" rx="2.5" ry="2.5" style="stroke:#181818;stroke-width:0.5;" width="102.3096" x="159.85" y="295.0969"/><rect fill="#F1F1F1" height="10" style="stroke:#181818;stroke-width:0.5;" width="15" x="242.1596" y="300.0969"/><rect fill="#F1F1F1" height="2" style="stroke:#181818;stroke-width:0.5;" width="4" x="240.1596" y="302.0969"/><rect fill="#F1F1F1" height="2" style="stroke:#181818;stroke-width:0.5;" width="4" x="240.1596" y="306.0969"/><text fill="#000000" font-family="sans-serif" font-size="14" lengthAdjust="spacing" textLength="62.3096" x="174.85" y="328.092">Library 2</text></g><!--entity Library 3--><g class="entity" data-qualified-name="Compile time.Library 3" data-source-line="11" id="ent0011"><rect fill="#F1F1F1" height="46.2969" rx="2.5" ry="2.5" style="stroke:#181818;stroke-width:0.5;" width="102.3096" x="296.85" y="295.0969"/><rect fill="#F1F1F1" height="10" style="stroke:#181818;stroke-width:0.5;" width="15" x="379.1596" y="300.0969"/><rect fill="#F1F1F1" height="2" style="stroke:#181818;stroke-width:0.5;" width="4" x="377.1596" y="302.0969"/><rect fill="#F1F1F1" height="2" style="stroke:#181818;stroke-width:0.5;" width="4" x="377.1596" y="306.0969"/><text fill="#000000" font-family="sans-serif" font-size="14" lengthAdjust="spacing" textLength="62.3096" x="311.85" y="328.092">Library 3</text></g><!--entity Log4j Core--><g class="entity" data-qualified-name="Runtime.Log4j Core" data-source-line="16" id="ent0014"><rect fill="#90EE90" height="46.2969" rx="2.5" ry="2.5" style="stroke:#181818;stroke-width:0.5;" width="115.209" x="844.4" y="730.9869"/><rect fill="#90EE90" height="10" style="stroke:#181818;stroke-width:0.5;" width="15" x="939.609" y="735.9869"/><rect fill="#90EE90" height="2" style="stroke:#181818;stroke-width:0.5;" width="4" x="937.609" y="737.9869"/><rect fill="#90EE90" height="2" style="stroke:#181818;stroke-width:0.5;" width="4" x="937.609" y="741.9869"/><text fill="#000000" font-family="sans-serif" font-size="14" lengthAdjust="spacing" textLength="75.209" x="859.4" y="763.982">Log4j Core</text></g><!--entity log4j2.xml--><g class="entity" data-qualified-name="Runtime.log4j2.xml" data-source-line="17" id="ent0016"><ellipse cx="901.997" cy="868.8105" fill="#F1F1F1" rx="54.837" ry="14.5236" style="stroke:#181818;stroke-width:0.5;"/><text fill="#000000" font-family="sans-serif" font-size="14" lengthAdjust="spacing" textLength="73.3086" x="865.3427" y="873.4589">log4j2.xml</text></g><!--entity JPL-to-Log4j--><g class="entity" data-qualified-name="Runtime.JPL-to-Log4j" data-source-line="20" id="ent0018"><rect fill="#FFFF00" height="46.2969" rx="2.5" ry="2.5" style="stroke:#181818;stroke-width:0.5;" width="122.5781" x="927.71" y="607.6869"/><rect fill="#FFFF00" height="10" style="stroke:#181818;stroke-width:0.5;" width="15" x="1030.2881" y="612.6869"/><rect fill="#FFFF00" height="2" style="stroke:#181818;stroke-width:0.5;" width="4" x="1028.2881" y="614.6869"/><rect fill="#FFFF00" height="2" style="stroke:#181818;stroke-width:0.5;" width="4" x="1028.2881" y="618.6869"/><text fill="#000000" font-family="sans-serif" font-size="14" lengthAdjust="spacing" textLength="82.5781" x="942.71" y="640.682">JPL-to-Log4j</text></g><!--entity SLF4J-to-Log4j--><g class="entity" data-qualified-name="Runtime.SLF4J-to-Log4j" data-source-line="23" id="ent0020"><rect fill="#FFFF00" height="46.2969" rx="2.5" ry="2.5" style="stroke:#181818;stroke-width:0.5;" width="139.9824" x="594.01" y="607.6869"/><rect fill="#FFFF00" height="10" style="stroke:#181818;stroke-width:0.5;" width="15" x="713.9924" y="612.6869"/><rect fill="#FFFF00" height="2" style="stroke:#181818;stroke-width:0.5;" width="4" x="711.9924" y="614.6869"/><rect fill="#FFFF00" height="2" style="stroke:#181818;stroke-width:0.5;" width="4" x="711.9924" y="618.6869"/><text fill="#000000" font-family="sans-serif" font-size="14" lengthAdjust="spacing" textLength="99.9824" x="609.01" y="640.682">SLF4J-to-Log4j</text></g><!--entity JUL-to-Log4j--><g class="entity" data-qualified-name="Runtime.JUL-to-Log4j" data-source-line="26" id="ent0022"><rect fill="#FFFF00" height="46.2969" rx="2.5" ry="2.5" style="stroke:#181818;stroke-width:0.5;" width="124.3828" x="768.81" y="607.6869"/><rect fill="#FFFF00" height="10" style="stroke:#181818;stroke-width:0.5;" width="15" x="873.1928" y="612.6869"/><rect fill="#FFFF00" height="2" style="stroke:#181818;stroke-width:0.5;" width="4" x="871.1928" y="614.6869"/><rect fill="#FFFF00" height="2" style="stroke:#181818;stroke-width:0.5;" width="4" x="871.1928" y="618.6869"/><text fill="#000000" font-family="sans-serif" font-size="14" lengthAdjust="spacing" textLength="84.3828" x="783.81" y="640.682">JUL-to-Log4j</text></g><!--entity JPL--><g class="entity" data-qualified-name="Runtime.JRE.JPL" data-source-line="30" id="ent0025"><rect fill="#00FFFF" height="46.2969" rx="2.5" ry="2.5" style="stroke:#181818;stroke-width:0.5;" width="60.3711" x="743.81" y="482.3869"/><rect fill="#00FFFF" height="10" style="stroke:#181818;stroke-width:0.5;" width="15" x="784.1811" y="487.3869"/><rect fill="#00FFFF" height="2" style="stroke:#181818;stroke-width:0.5;" width="4" x="782.1811" y="489.3869"/><rect fill="#00FFFF" height="2" style="stroke:#181818;stroke-width:0.5;" width="4" x="782.1811" y="493.3869"/><text fill="#000000" font-family="sans-serif" font-size="14" lengthAdjust="spacing" textLength="20.3711" x="758.81" y="515.382">JPL</text></g><!--entity JUL--><g class="entity" data-qualified-name="Runtime.JRE.JUL" data-source-line="31" id="ent0026"><rect fill="#00FFFF" height="46.2969" rx="2.5" ry="2.5" style="stroke:#181818;stroke-width:0.5;" width="62.1758" x="646.91" y="482.3869"/><rect fill="#00FFFF" height="10" style="stroke:#181818;stroke-width:0.5;" width="15" x="689.0858" y="487.3869"/><rect fill="#00FFFF" height="2" style="stroke:#181818;stroke-width:0.5;" width="4" x="687.0858" y="489.3869"/><rect fill="#00FFFF" height="2" style="stroke:#181818;stroke-width:0.5;" width="4" x="687.0858" y="493.3869"/><text fill="#000000" font-family="sans-serif" font-size="14" lengthAdjust="spacing" textLength="22.1758" x="661.91" y="515.382">JUL</text></g><!--link Application to Log4j API--><g class="link" data-entity-1="ent0002" data-entity-2="ent0003" data-link-type="dependency" data-source-line="2" id="lnk4"><path d="M317.45,218.4769 C354.51,240.1969 405.976,270.3491 443.096,292.0991" fill="none" id="Application-to-Log4j API" style="stroke:#181818;stroke-width:1;"/><polygon fill="#181818" points="447.41,294.6269,441.667,286.6258,443.096,292.0991,437.6226,293.5282,447.41,294.6269" style="stroke:#181818;stroke-width:1;stroke-linejoin:miter;stroke-miterlimit:10;"/><text fill="#000000" font-family="sans-serif" font-size="13" lengthAdjust="spacing" textLength="43.7734" x="395.89" y="261.1638">logs to</text></g><!--link Library 1 to SLF4J--><g class="link" data-entity-1="ent0006" data-entity-2="ent0005" data-link-type="dependency" data-source-line="8" id="lnk7"><path d="M107.08,341.7769 C159.46,377.4669 256.7778,443.7517 309.0178,479.3417" fill="none" id="Library 1-to-SLF4J" style="stroke:#181818;stroke-width:1;"/><polygon fill="#181818" points="313.15,482.1569,307.9642,473.7838,309.0178,479.3417,303.46,480.3953,313.15,482.1569" style="stroke:#181818;stroke-width:1;stroke-linejoin:miter;stroke-miterlimit:10;"/><text fill="#000000" font-family="sans-serif" font-size="13" lengthAdjust="spacing" textLength="43.7734" x="170.74" y="384.4538">logs to</text></g><!--link Application to Library 1--><g class="link" data-entity-1="ent0002" data-entity-2="ent0006" data-link-type="dependency" data-source-line="9" id="lnk8"><path d="M240.92,218.4769 C204.22,240.1969 153.2832,270.3308 116.5232,292.0808" fill="none" id="Application-to-Library 1" style="stroke:#181818;stroke-width:1;"/><polygon fill="#181818" points="112.22,294.6269,122.0026,293.4865,116.5232,292.0808,117.9289,286.6014,112.22,294.6269" style="stroke:#181818;stroke-width:1;stroke-linejoin:miter;stroke-miterlimit:10;"/><text fill="#000000" font-family="sans-serif" font-size="13" lengthAdjust="spacing" textLength="29.7832" x="189.77" y="261.1638">uses</text></g><!--link Application to Library 2--><g class="link" data-entity-1="ent0002" data-entity-2="ent0009" data-link-type="dependency" data-source-line="10" id="lnk10"><path d="M266.37,218.4769 C254.16,240.2569 238.1954,268.7257 226.0054,290.4657" fill="none" id="Application-to-Library 2" style="stroke:#181818;stroke-width:1;"/><polygon fill="#181818" points="223.56,294.8269,231.4507,288.933,226.0054,290.4657,224.4728,285.0204,223.56,294.8269" style="stroke:#181818;stroke-width:1;stroke-linejoin:miter;stroke-miterlimit:10;"/><text fill="#000000" font-family="sans-serif" font-size="13" lengthAdjust="spacing" textLength="29.7832" x="250.07" y="261.1638">uses</text></g><!--link Application to Library 3--><g class="link" data-entity-1="ent0002" data-entity-2="ent0011" data-link-type="dependency" data-source-line="11" id="lnk12"><path d="M291.82,218.4769 C304.21,240.2569 320.4073,268.7411 332.7773,290.4811" fill="none" id="Application-to-Library 3" style="stroke:#181818;stroke-width:1;"/><polygon fill="#181818" points="335.25,294.8269,334.2757,285.0263,332.7773,290.4811,327.3225,288.9827,335.25,294.8269" style="stroke:#181818;stroke-width:1;stroke-linejoin:miter;stroke-miterlimit:10;"/><text fill="#000000" font-family="sans-serif" font-size="13" lengthAdjust="spacing" textLength="29.7832" x="318.63" y="261.1638">uses</text></g><!--reverse link Log4j Core to Log4j API--><g class="link" data-entity-1="ent0014" data-entity-2="ent0003" data-link-type="dependency" data-source-line="16" id="lnk15"><path d="M964.5882,737.0301 C989.4682,728.8201 1013.06,718.2269 1035,700.9869 C1069.58,673.8069 1084.16,648.5969 1068,607.6869 C1005.51,449.5069 928.86,423.6169 767,371.3869 C689.56,346.3969 596.02,332.0269 538.78,324.9269" fill="none" id="Log4j Core-backto-Log4j API" style="stroke:#181818;stroke-width:1;stroke-dasharray:7,7;"/><polygon fill="#181818" points="959.84,738.5969,969.6402,739.5751,964.5882,737.0301,967.1332,731.9781,959.84,738.5969" style="stroke:#181818;stroke-width:1;stroke-linejoin:miter;stroke-miterlimit:10;"/><text fill="#000000" font-family="sans-serif" font-size="13" lengthAdjust="spacing" textLength="120.98" x="1055.79" y="573.7538">is implemented by</text></g><!--reverse link Log4j Core to log4j2.xml--><g class="link" data-entity-1="ent0014" data-entity-2="ent0016" data-link-type="dependency" data-source-line="17" id="lnk17"><path d="M902,782.6569 C902,805.3969 902,834.7869 902,853.8469" fill="none" id="Log4j Core-backto-log4j2.xml" style="stroke:#181818;stroke-width:1;stroke-dasharray:7,7;"/><polygon fill="#181818" points="902,777.6569,898,786.6569,902,782.6569,906,786.6569,902,777.6569" style="stroke:#181818;stroke-width:1;stroke-linejoin:miter;stroke-miterlimit:10;"/><text fill="#000000" font-family="sans-serif" font-size="13" lengthAdjust="spacing" textLength="89.0576" x="903" y="820.3438">is provided to</text></g><!--link JPL-to-Log4j to Log4j Core--><g class="link" data-entity-1="ent0018" data-entity-2="ent0014" data-link-type="dependency" data-source-line="20" id="lnk19"><path d="M972.84,654.3669 C957.21,676.1569 936.585,704.9145 920.985,726.6545" fill="none" id="JPL-to-Log4j-to-Log4j Core" style="stroke:#181818;stroke-width:1;stroke-dasharray:7,7;"/><polygon fill="#181818" points="918.07,730.7169,926.5669,725.7367,920.985,726.6545,920.0672,721.0726,918.07,730.7169" style="stroke:#181818;stroke-width:1;stroke-linejoin:miter;stroke-miterlimit:10;"/><text fill="#000000" font-family="sans-serif" font-size="13" lengthAdjust="spacing" textLength="74.0264" x="951.71" y="697.0538">forwards to</text></g><!--link SLF4J-to-Log4j to Log4j Core--><g class="link" data-entity-1="ent0020" data-entity-2="ent0014" data-link-type="dependency" data-source-line="23" id="lnk21"><path d="M687.86,654.1669 C704.74,669.0269 728.47,688.1169 752,700.9869 C780.91,716.7869 810.7275,727.7383 839.4175,736.4883" fill="none" id="SLF4J-to-Log4j-to-Log4j Core" style="stroke:#181818;stroke-width:1;stroke-dasharray:7,7;"/><polygon fill="#181818" points="844.2,737.9469,836.7583,731.4954,839.4175,736.4883,834.4246,739.1474,844.2,737.9469" style="stroke:#181818;stroke-width:1;stroke-linejoin:miter;stroke-miterlimit:10;"/><text fill="#000000" font-family="sans-serif" font-size="13" lengthAdjust="spacing" textLength="74.0264" x="753" y="697.0538">forwards to</text></g><!--link JUL-to-Log4j to Log4j Core--><g class="link" data-entity-1="ent0022" data-entity-2="ent0014" data-link-type="dependency" data-source-line="26" id="lnk23"><path d="M830.73,654.2769 C831.45,668.4569 834.1,686.7369 842,700.9869 C848.29,712.3269 854.2147,719.171 864.0447,727.341" fill="none" id="JUL-to-Log4j-to-Log4j Core" style="stroke:#181818;stroke-width:1;stroke-dasharray:7,7;"/><polygon fill="#181818" points="867.89,730.5369,863.5252,721.708,864.0447,727.341,858.4118,727.8604,867.89,730.5369" style="stroke:#181818;stroke-width:1;stroke-linejoin:miter;stroke-miterlimit:10;"/><text fill="#000000" font-family="sans-serif" font-size="13" lengthAdjust="spacing" textLength="74.0264" x="843" y="697.0538">forwards to</text></g><!--link Library 2 to JUL--><g class="link" data-entity-1="ent0009" data-entity-2="ent0026" data-link-type="dependency" data-source-line="36" id="lnk27"><path d="M262.42,336.6869 C267.99,338.3669 273.6,339.9769 279,341.3869 C399.58,372.9669 442.17,341.3569 554,396.3869 C596.8,417.4569 633.1885,453.3374 655.6385,478.3274" fill="none" id="Library 2-to-JUL" style="stroke:#181818;stroke-width:1;"/><polygon fill="#181818" points="658.98,482.0469,655.941,472.6786,655.6385,478.3274,649.9898,478.0249,658.98,482.0469" style="stroke:#181818;stroke-width:1;stroke-linejoin:miter;stroke-miterlimit:10;"/><text fill="#000000" font-family="sans-serif" font-size="13" lengthAdjust="spacing" textLength="43.7734" x="535.59" y="384.4538">logs to</text></g><!--link Library 3 to JPL--><g class="link" data-entity-1="ent0011" data-entity-2="ent0025" data-link-type="dependency" data-source-line="37" id="lnk28"><path d="M399.39,336.8169 C404.96,338.4669 410.58,340.0369 416,341.3869 C552.18,375.4269 616.8,309.4469 727,396.3869 C753.84,417.5669 764.6813,452.2336 769.6613,477.1836" fill="none" id="Library 3-to-JPL" style="stroke:#181818;stroke-width:1;"/><polygon fill="#181818" points="770.64,482.0869,772.801,472.478,769.6613,477.1836,764.9557,474.0439,770.64,482.0869" style="stroke:#181818;stroke-width:1;stroke-linejoin:miter;stroke-miterlimit:10;"/><text fill="#000000" font-family="sans-serif" font-size="13" lengthAdjust="spacing" textLength="43.7734" x="714.99" y="384.4538">logs to</text></g><!--link JPL to JPL-to-Log4j--><g class="link" data-entity-1="ent0025" data-entity-2="ent0018" data-link-type="dependency" data-source-line="39" id="lnk29"><path d="M804.35,523.9369 C842.43,545.7769 903.4826,580.7896 945.3526,604.7996" fill="none" id="JPL-to-JPL-to-Log4j" style="stroke:#181818;stroke-width:1;stroke-dasharray:7,7;"/><polygon fill="#181818" points="949.69,607.2869,943.8724,599.3398,945.3526,604.7996,939.8928,606.2797,949.69,607.2869" style="stroke:#181818;stroke-width:1;stroke-linejoin:miter;stroke-miterlimit:10;"/><text fill="#000000" font-family="sans-serif" font-size="13" lengthAdjust="spacing" textLength="120.98" x="895.37" y="573.7538">is implemented by</text></g><!--link JUL to JUL-to-Log4j--><g class="link" data-entity-1="ent0026" data-entity-2="ent0022" data-link-type="dependency" data-source-line="40" id="lnk30"><path d="M681.67,528.9469 C685.25,544.3769 692.12,564.4169 705,577.6869 C714.65,587.6269 737.0992,597.636 763.7392,607.466" fill="none" id="JUL-to-JUL-to-Log4j" style="stroke:#181818;stroke-width:1;stroke-dasharray:7,7;"/><polygon fill="#181818" points="768.43,609.1969,761.3712,602.3286,763.7392,607.466,758.6018,609.8339,768.43,609.1969" style="stroke:#181818;stroke-width:1;stroke-linejoin:miter;stroke-miterlimit:10;"/><text fill="#000000" font-family="sans-serif" font-size="13" lengthAdjust="spacing" textLength="120.98" x="706" y="573.7538">is implemented by</text></g><!--link SLF4J to SLF4J-to-Log4j--><g class="link" data-entity-1="ent0005" data-entity-2="ent0020" data-link-type="dependency" data-source-line="41" id="lnk31"><path d="M385.31,521.7769 C440.56,543.2069 536.9284,580.5587 600.9684,605.3987" fill="none" id="SLF4J-to-SLF4J-to-Log4j" style="stroke:#181818;stroke-width:1;stroke-dasharray:7,7;"/><polygon fill="#181818" points="605.63,607.2069,598.6856,600.2229,600.9684,605.3987,595.7926,607.6815,605.63,607.2069" style="stroke:#181818;stroke-width:1;stroke-linejoin:miter;stroke-miterlimit:10;"/><text fill="#000000" font-family="sans-serif" font-size="13" lengthAdjust="spacing" textLength="120.98" x="525.04" y="573.7538">is implemented by</text></g><?plantuml-src bPHDJuD048Rl_8f9Uz4OCCKUb12Ifgb6mg6fuT0q7AXiSSt2aeLQg_M_knzGbWO_cd3PcUSTzfqPsB0uGp2Oqgp01465CpI0JmDWDIaAWf_Z2jCy0jFqO1NGTFmAa_bZ10uGcfPGKKEWMc8utSUv33u5zsDV3mHupMAsXr5ThWRQKlqlRLKER4jK_exP_yDkZjYNOMna3nRRNBZdvbjBKyfG1AvbdPZ79U2i82X3UOKIME_x91T416phFIENIbCm-eOJBb1cTS4mmEbBzS0GKitovu5PKLCY4LYMryKTs52sYrdIDAxB3vU84Bfhvt1MhLE5NiqFpxnN-CEzLDFznKnkctBGR8iwXzgPJua_-fJbE2NJBf0-NfMVT_A62iXRTnlMDr9LNS7Xdt2zpH8_RM2Vm20eHRbOXGAOc3rtUG1NsmEFdtc15ETfAvRB38SQLktKmJN3IOgEW6YVdkRxs-HA_86SqQtdXbVswCxst6iH4N3zCp3bvx0juxPUHpFJDStNq-3ScZBu3G00?></g></svg>