<?xml version="1.0" encoding="us-ascii" standalone="no"?><svg xmlns="http://www.w3.org/2000/svg" xmlns:xlink="http://www.w3.org/1999/xlink" contentStyleType="text/css" height="278px" preserveAspectRatio="none" style="width:781px;height:278px;background:#FFFFFF;" version="1.1" viewBox="0 0 781 278" width="781px" zoomAndPan="magnify"><defs/><g><!--cluster LoggerContext--><g id="cluster_LoggerContext"><path d="M8.5,6 L127.5,6 A3.75,3.75 0 0 1 130,8.5 L137,28.2969 L621.5,28.2969 A2.5,2.5 0 0 1 624,30.7969 L624,268.5 A2.5,2.5 0 0 1 621.5,271 L8.5,271 A2.5,2.5 0 0 1 6,268.5 L6,8.5 A2.5,2.5 0 0 1 8.5,6 " fill="none" style="stroke:#000000;stroke-width:1.5;"/><line style="stroke:#000000;stroke-width:1.5;" x1="6" x2="137" y1="28.2969" y2="28.2969"/><text fill="#000000" font-family="sans-serif" font-size="14" font-weight="bold" lengthAdjust="spacing" textLength="118" x="10" y="20.9951">LoggerContext</text></g><!--cluster c2--><g id="cluster_c2"><path d="M130.5,160 L278.5,160 A3.75,3.75 0 0 1 281,162.5 L288,182.2969 L597.5,182.2969 A2.5,2.5 0 0 1 600,184.7969 L600,244.5 A2.5,2.5 0 0 1 597.5,247 L130.5,247 A2.5,2.5 0 0 1 128,244.5 L128,162.5 A2.5,2.5 0 0 1 130.5,160 " fill="none" style="stroke:#000000;stroke-width:1.5;"/><line style="stroke:#000000;stroke-width:1.5;" x1="128" x2="288" y1="182.2969" y2="182.2969"/><text fill="#000000" font-family="sans-serif" font-size="14" font-weight="bold" lengthAdjust="spacing" textLength="147" x="132" y="174.9951">New Configuration</text></g><!--cluster c1--><g id="cluster_c1"><path d="M130.5,49 L269.5,49 A3.75,3.75 0 0 1 272,51.5 L279,71.2969 L597.5,71.2969 A2.5,2.5 0 0 1 600,73.7969 L600,133.5 A2.5,2.5 0 0 1 597.5,136 L130.5,136 A2.5,2.5 0 0 1 128,133.5 L128,51.5 A2.5,2.5 0 0 1 130.5,49 " fill="none" style="stroke:#000000;stroke-width:1.5;"/><line style="stroke:#000000;stroke-width:1.5;" x1="128" x2="279" y1="71.2969" y2="71.2969"/><text fill="#000000" font-family="sans-serif" font-size="14" font-weight="bold" lengthAdjust="spacing" textLength="138" x="132" y="63.9951">Old Configuration</text></g><g id="elem_Logger"><rect fill="#F1F1F1" height="36.2969" style="stroke:#181818;stroke-width:0.5;" width="62" x="22" y="139.85"/><text fill="#000000" font-family="sans-serif" font-size="14" lengthAdjust="spacing" textLength="48" x="29" y="154.8451">Logger</text><line style="stroke:#181818;stroke-width:0.5;" x1="23" x2="83" y1="160.1469" y2="160.1469"/></g><g id="elem_lc2"><rect fill="#F1F1F1" height="36.2969" style="stroke:#181818;stroke-width:0.5;" width="106" x="144" y="194.85"/><text fill="#000000" font-family="sans-serif" font-size="14" lengthAdjust="spacing" textLength="92" x="151" y="209.8451">LoggerConfig</text><line style="stroke:#181818;stroke-width:0.5;" x1="145" x2="249" y1="215.1469" y2="215.1469"/></g><g id="elem_ac2"><rect fill="#F1F1F1" height="36.2969" style="stroke:#181818;stroke-width:0.5;" width="132" x="310" y="194.85"/><text fill="#000000" font-family="sans-serif" font-size="14" lengthAdjust="spacing" textLength="118" x="317" y="209.8451">AppenderControl</text><line style="stroke:#181818;stroke-width:0.5;" x1="311" x2="441" y1="215.1469" y2="215.1469"/></g><g id="elem_app2"><rect fill="#F1F1F1" height="36.2969" style="stroke:#181818;stroke-width:0.5;" width="82" x="502" y="194.85"/><text fill="#000000" font-family="sans-serif" font-size="14" lengthAdjust="spacing" textLength="68" x="509" y="209.8451">Appender</text><line style="stroke:#181818;stroke-width:0.5;" x1="503" x2="583" y1="215.1469" y2="215.1469"/></g><g id="elem_lc1"><rect fill="#F1F1F1" height="36.2969" style="stroke:#181818;stroke-width:0.5;" width="106" x="144" y="83.85"/><text fill="#000000" font-family="sans-serif" font-size="14" lengthAdjust="spacing" textLength="92" x="151" y="98.8451">LoggerConfig</text><line style="stroke:#181818;stroke-width:0.5;" x1="145" x2="249" y1="104.1469" y2="104.1469"/></g><g id="elem_ac1"><rect fill="#F1F1F1" height="36.2969" style="stroke:#181818;stroke-width:0.5;" width="132" x="310" y="83.85"/><text fill="#000000" font-family="sans-serif" font-size="14" lengthAdjust="spacing" textLength="118" x="317" y="98.8451">AppenderControl</text><line style="stroke:#181818;stroke-width:0.5;" x1="311" x2="441" y1="104.1469" y2="104.1469"/></g><g id="elem_app1"><rect fill="#F1F1F1" height="36.2969" style="stroke:#181818;stroke-width:0.5;" width="82" x="502" y="83.85"/><text fill="#000000" font-family="sans-serif" font-size="14" lengthAdjust="spacing" textLength="68" x="509" y="98.8451">Appender</text><line style="stroke:#181818;stroke-width:0.5;" x1="503" x2="583" y1="104.1469" y2="104.1469"/></g><g id="elem_AbstractManager"><rect fill="#F1F1F1" height="36.2969" style="stroke:#181818;stroke-width:0.5;" width="131" x="644" y="139.85"/><text fill="#000000" font-family="sans-serif" font-size="14" lengthAdjust="spacing" textLength="117" x="651" y="154.8451">AbstractManager</text><line style="stroke:#181818;stroke-width:0.5;" x1="645" x2="774" y1="160.1469" y2="160.1469"/></g><!--link Logger to lc1--><g id="link_Logger_lc1"><path codeLine="21" d="M84.46,145.99 C103.21,138.59 122.0383,131.1711 143.2383,122.8111 " fill="none" id="Logger-to-lc1" style="stroke:#181818;stroke-width:1.0;stroke-dasharray:7.0,7.0;"/><polygon fill="#181818" points="148.82,120.61,138.9801,120.1905,144.1686,122.4442,141.9149,127.6327,148.82,120.61" style="stroke:#181818;stroke-width:1.0;"/></g><!--link lc1 to ac1--><g id="link_lc1_ac1"><path codeLine="22" d="M250.15,102 C268.81,102 284.08,102 303.71,102 " fill="none" id="lc1-to-ac1" style="stroke:#181818;stroke-width:1.0;"/><polygon fill="#181818" points="309.71,102,300.71,98,304.71,102,300.71,106,309.71,102" style="stroke:#181818;stroke-width:1.0;"/></g><!--link ac1 to app1--><g id="link_ac1_app1"><path codeLine="23" d="M442.21,102 C462.39,102 478.01,102 495.95,102 " fill="none" id="ac1-to-app1" style="stroke:#181818;stroke-width:1.0;"/><polygon fill="#181818" points="501.95,102,492.95,98,496.95,102,492.95,106,501.95,102" style="stroke:#181818;stroke-width:1.0;"/></g><!--link app1 to AbstractManager--><g id="link_app1_AbstractManager"><path codeLine="24" d="M584.24,115.7 C605.17,122.82 625.3705,129.6952 648.0905,137.4352 " fill="none" id="app1-to-AbstractManager" style="stroke:#181818;stroke-width:1.0;"/><polygon fill="#181818" points="653.77,139.37,646.5407,132.6814,649.0371,137.7576,643.9609,140.2541,653.77,139.37" style="stroke:#181818;stroke-width:1.0;"/></g><!--link Logger to lc2--><g id="link_Logger_lc2"><path codeLine="26" d="M84.46,169.8 C102.96,176.96 121.3843,184.1047 142.3943,192.2347 " fill="none" id="Logger-to-lc2" style="stroke:#181818;stroke-width:1.0;"/><polygon fill="#181818" points="147.99,194.4,141.04,187.4216,143.3269,192.5956,138.153,194.8825,147.99,194.4" style="stroke:#181818;stroke-width:1.0;"/></g><!--link lc2 to ac2--><g id="link_lc2_ac2"><path codeLine="27" d="M250.15,213 C268.81,213 284.08,213 303.71,213 " fill="none" id="lc2-to-ac2" style="stroke:#181818;stroke-width:1.0;"/><polygon fill="#181818" points="309.71,213,300.71,209,304.71,213,300.71,217,309.71,213" style="stroke:#181818;stroke-width:1.0;"/></g><!--link ac2 to app2--><g id="link_ac2_app2"><path codeLine="28" d="M442.21,213 C462.39,213 478.01,213 495.95,213 " fill="none" id="ac2-to-app2" style="stroke:#181818;stroke-width:1.0;"/><polygon fill="#181818" points="501.95,213,492.95,209,496.95,213,492.95,217,501.95,213" style="stroke:#181818;stroke-width:1.0;"/></g><!--link app2 to AbstractManager--><g id="link_app2_AbstractManager"><path codeLine="29" d="M584.24,199.55 C604.88,192.64 624.6597,186.0327 647.1497,178.5127 " fill="none" id="app2-to-AbstractManager" style="stroke:#181818;stroke-width:1.0;"/><polygon fill="#181818" points="652.84,176.61,643.0361,175.6705,648.0981,178.1956,645.573,183.2576,652.84,176.61" style="stroke:#181818;stroke-width:1.0;"/></g><!--SRC=[ZP1R2i8m44N_kugX_oqa2oWKVtsiOPgciLgQ42CAujwTF2gYLHkOaCV9oMK6sJbm6colzWxQtahXUZrccK5nH2LXhPMITgL79wyERXdGqCs1i7ILXQC9pxVo0aHtlJfRzAeSy0I2fwSlp_Edck103O9_GBKnScnZ0gk7mE4FBWB6HEB-bcutj7FfsB9qR64wzZSTI-aeNqBgvkGi2hV14KDNu_zGbbNucGgAeWfsdDPUvAUm-sRmTxwpLCd0oS0d0_S6FcTu0000]--></g></svg>