<?xml version="1.0" encoding="us-ascii" standalone="no"?><svg xmlns="http://www.w3.org/2000/svg" xmlns:xlink="http://www.w3.org/1999/xlink" contentStyleType="text/css" height="442px" preserveAspectRatio="none" style="width:298px;height:442px;background:#FFFFFF;" version="1.1" viewBox="0 0 298 442" width="298px" zoomAndPan="magnify"><defs/><g><!--class LoggerContext--><g id="elem_LoggerContext"><rect codeLine="1" fill="#F1F1F1" height="96.8906" id="LoggerContext" rx="2.5" ry="2.5" style="stroke:#181818;stroke-width:0.5;" width="228" x="35" y="7"/><ellipse cx="93.75" cy="23" fill="#ADD1B2" rx="11" ry="11" style="stroke:#181818;stroke-width:1.0;"/><path d="M96.7188,28.6406 Q96.1406,28.9375 95.5,29.0781 Q94.8594,29.2344 94.1563,29.2344 Q91.6563,29.2344 90.3281,27.5938 Q89.0156,25.9375 89.0156,22.8125 Q89.0156,19.6875 90.3281,18.0313 Q91.6563,16.375 94.1563,16.375 Q94.8594,16.375 95.5,16.5313 Q96.1563,16.6875 96.7188,16.9844 L96.7188,19.7031 Q96.0938,19.125 95.5,18.8594 Q94.9063,18.5781 94.2813,18.5781 Q92.9375,18.5781 92.25,19.6563 Q91.5625,20.7188 91.5625,22.8125 Q91.5625,24.9063 92.25,25.9844 Q92.9375,27.0469 94.2813,27.0469 Q94.9063,27.0469 95.5,26.7813 Q96.0938,26.5 96.7188,25.9219 L96.7188,28.6406 Z " fill="#000000"/><text fill="#000000" font-family="sans-serif" font-size="14" lengthAdjust="spacing" textLength="102" x="114.25" y="27.8467">LoggerContext</text><line style="stroke:#181818;stroke-width:0.5;" x1="36" x2="262" y1="39" y2="39"/><text fill="#000000" font-family="sans-serif" font-size="14" lengthAdjust="spacing" textLength="138" x="41" y="55.9951">Configuration config</text><text fill="#000000" font-family="sans-serif" font-size="14" lengthAdjust="spacing" textLength="114" x="41" y="72.292">Logger[] loggers</text><line style="stroke:#181818;stroke-width:0.5;" x1="36" x2="262" y1="79.5938" y2="79.5938"/><text fill="#000000" font-family="sans-serif" font-size="14" lengthAdjust="spacing" textLength="216" x="41" y="96.5889">Logger getLogger(String name)</text></g><!--class Logger--><g id="elem_Logger"><rect codeLine="17" fill="#F1F1F1" height="64.2969" id="Logger" rx="2.5" ry="2.5" style="stroke:#181818;stroke-width:2.0;" width="284" x="7" y="164.89"/><ellipse cx="120.75" cy="180.89" fill="#ADD1B2" rx="11" ry="11" style="stroke:#181818;stroke-width:1.0;"/><path d="M123.7188,186.5306 Q123.1406,186.8275 122.5,186.9681 Q121.8594,187.1244 121.1563,187.1244 Q118.6563,187.1244 117.3281,185.4838 Q116.0156,183.8275 116.0156,180.7025 Q116.0156,177.5775 117.3281,175.9213 Q118.6563,174.265 121.1563,174.265 Q121.8594,174.265 122.5,174.4213 Q123.1563,174.5775 123.7188,174.8744 L123.7188,177.5931 Q123.0938,177.015 122.5,176.7494 Q121.9063,176.4681 121.2813,176.4681 Q119.9375,176.4681 119.25,177.5463 Q118.5625,178.6088 118.5625,180.7025 Q118.5625,182.7963 119.25,183.8744 Q119.9375,184.9369 121.2813,184.9369 Q121.9063,184.9369 122.5,184.6713 Q123.0938,184.39 123.7188,183.8119 L123.7188,186.5306 Z " fill="#000000"/><text fill="#000000" font-family="sans-serif" font-size="14" lengthAdjust="spacing" textLength="48" x="141.25" y="185.7367">Logger</text><line style="stroke:#181818;stroke-width:2.0;" x1="8" x2="290" y1="196.89" y2="196.89"/><line style="stroke:#181818;stroke-width:2.0;" x1="8" x2="290" y1="204.89" y2="204.89"/><text fill="#000000" font-family="sans-serif" font-size="14" lengthAdjust="spacing" textLength="272" x="13" y="221.8851">void log(Level level, Message message)</text></g><!--class LoggerConfig--><g id="elem_LoggerConfig"><rect codeLine="9" fill="#F1F1F1" height="129.4844" id="LoggerConfig" rx="2.5" ry="2.5" style="stroke:#181818;stroke-width:0.5;" width="269" x="14.5" y="306.19"/><ellipse cx="98.75" cy="322.19" fill="#ADD1B2" rx="11" ry="11" style="stroke:#181818;stroke-width:1.0;"/><path d="M101.7188,327.8306 Q101.1406,328.1275 100.5,328.2681 Q99.8594,328.4244 99.1563,328.4244 Q96.6563,328.4244 95.3281,326.7838 Q94.0156,325.1275 94.0156,322.0025 Q94.0156,318.8775 95.3281,317.2213 Q96.6563,315.565 99.1563,315.565 Q99.8594,315.565 100.5,315.7213 Q101.1563,315.8775 101.7188,316.1744 L101.7188,318.8931 Q101.0938,318.315 100.5,318.0494 Q99.9063,317.7681 99.2813,317.7681 Q97.9375,317.7681 97.25,318.8463 Q96.5625,319.9088 96.5625,322.0025 Q96.5625,324.0963 97.25,325.1744 Q97.9375,326.2369 99.2813,326.2369 Q99.9063,326.2369 100.5,325.9713 Q101.0938,325.69 101.7188,325.1119 L101.7188,327.8306 Z " fill="#000000"/><text fill="#000000" font-family="sans-serif" font-size="14" lengthAdjust="spacing" textLength="92" x="119.25" y="327.0367">LoggerConfig</text><line style="stroke:#181818;stroke-width:0.5;" x1="15.5" x2="282.5" y1="338.19" y2="338.19"/><text fill="#000000" font-family="sans-serif" font-size="14" lengthAdjust="spacing" textLength="203" x="20.5" y="355.1851">AppenderRef[] appenderRefs</text><text fill="#000000" font-family="sans-serif" font-size="14" lengthAdjust="spacing" textLength="257" x="20.5" y="371.482">AppenderControl[] appenderControls</text><text fill="#000000" font-family="sans-serif" font-size="14" lengthAdjust="spacing" textLength="70" x="20.5" y="387.7789">Level level</text><text fill="#000000" font-family="sans-serif" font-size="14" lengthAdjust="spacing" textLength="66" x="20.5" y="404.0757">Filter filter</text><line style="stroke:#181818;stroke-width:0.5;" x1="15.5" x2="282.5" y1="411.3775" y2="411.3775"/><text fill="#000000" font-family="sans-serif" font-size="14" lengthAdjust="spacing" textLength="127" x="20.5" y="428.3726">void log(LogEvent)</text></g><!--link LoggerContext to Logger--><g id="link_LoggerContext_Logger"><path codeLine="7" d="M149,104.09 C149,124.15 149,140.94 149,158.81 " fill="none" id="LoggerContext-to-Logger" style="stroke:#181818;stroke-width:1.0;"/><polygon fill="#181818" points="149,164.81,153,155.81,149,159.81,145,155.81,149,164.81" style="stroke:#181818;stroke-width:1.0;"/><text fill="#000000" font-family="sans-serif" font-size="13" lengthAdjust="spacing" textLength="23" x="123.6281" y="153.6966">0..*</text></g><!--link Logger to LoggerConfig--><g id="link_Logger_LoggerConfig"><path codeLine="21" d="M149,229.56 C149,250.89 149,273.8 149,299.85 " fill="none" id="Logger-to-LoggerConfig" style="stroke:#008000;stroke-width:6.0;"/><polygon fill="#008000" points="149,305.85,153,296.85,149,300.85,145,296.85,149,305.85" style="stroke:#008000;stroke-width:6.0;"/><text fill="#000000" font-family="sans-serif" font-size="13" lengthAdjust="spacing" textLength="110" x="150" y="272.2569">delegates `log()`</text></g><!--SRC=[LP31QiCm38RlVWhHNjhHX9rsA6nGndhgBjsn5EebYcUcoiNMGc7itQSufKakjdvP-lN95TcKO1USm_WQMF0gy6i0D6wy-ubMV62eij9qNtWu0kKWtLFWKFfeyI7HimEsProQFsEcvaNn0hF7idoOtJgDgQOCEYaZR2uNv1hZ7XiTQ0ULHe-TRGmqAhXbCXgsI43TgMhhIHIqoPVgDlYwssEXazzQPCcqOnYOasSiFmFLcMZe68nNy8ufMOTmxk_Hpb0SvYuYyag-VFNDMl3yTDGFcEowXXe9dHLCSEhSbwT_]--></g></svg>