<svg xmlns="http://www.w3.org/2000/svg" xmlns:xlink="http://www.w3.org/1999/xlink" contentStyleType="text/css" data-diagram-type="CLASS" height="442px" preserveAspectRatio="none" style="width:304px;height:442px;background:#FFFFFF;" version="1.1" viewBox="0 0 304 442" width="304px" zoomAndPan="magnify"><defs/><g><!--class LoggerContext--><g class="entity" data-entity="LoggerContext" data-source-line="1" data-uid="ent0002" id="entity_LoggerContext"><rect fill="#F1F1F1" height="96.8906" rx="2.5" ry="2.5" style="stroke:#181818;stroke-width:0.5;" width="233.3135" x="35.8" y="7"/><ellipse cx="96.4074" cy="23" fill="#ADD1B2" rx="11" ry="11" style="stroke:#181818;stroke-width:1;"/><path d="M99.3762,28.6406 Q98.798,28.9375 98.1574,29.0781 Q97.5168,29.2344 96.8137,29.2344 Q94.3137,29.2344 92.9855,27.5938 Q91.673,25.9375 91.673,22.8125 Q91.673,19.6875 92.9855,18.0313 Q94.3137,16.375 96.8137,16.375 Q97.5168,16.375 98.1574,16.5313 Q98.8137,16.6875 99.3762,16.9844 L99.3762,19.7031 Q98.7512,19.125 98.1574,18.8594 Q97.5637,18.5781 96.9387,18.5781 Q95.5949,18.5781 94.9074,19.6563 Q94.2199,20.7188 94.2199,22.8125 Q94.2199,24.9063 94.9074,25.9844 Q95.5949,27.0469 96.9387,27.0469 Q97.5637,27.0469 98.1574,26.7813 Q98.7512,26.5 99.3762,25.9219 L99.3762,28.6406 Z " fill="#000000"/><text fill="#000000" font-family="sans-serif" font-size="14" lengthAdjust="spacing" textLength="103.5986" x="116.9074" y="27.8467">LoggerContext</text><line style="stroke:#181818;stroke-width:0.5;" x1="36.8" x2="268.1135" y1="39" y2="39"/><text fill="#000000" font-family="sans-serif" font-size="14" lengthAdjust="spacing" textLength="142.2354" x="41.8" y="55.9951">Configuration config</text><text fill="#000000" font-family="sans-serif" font-size="14" lengthAdjust="spacing" textLength="115.7734" x="41.8" y="72.292">Logger[] loggers</text><line style="stroke:#181818;stroke-width:0.5;" x1="36.8" x2="268.1135" y1="79.5938" y2="79.5938"/><text fill="#000000" font-family="sans-serif" font-size="14" lengthAdjust="spacing" textLength="221.3135" x="41.8" y="96.5889">Logger getLogger(String name)</text></g><!--class Logger--><g class="entity" data-entity="Logger" data-source-line="7" data-uid="ent0003" id="entity_Logger"><rect fill="#F1F1F1" height="64.2969" rx="2.5" ry="2.5" style="stroke:#181818;stroke-width:2;" width="290.9131" x="7" y="164.89"/><ellipse cx="123.9526" cy="180.89" fill="#ADD1B2" rx="11" ry="11" style="stroke:#181818;stroke-width:1;"/><path d="M126.9214,186.5306 Q126.3433,186.8275 125.7026,186.9681 Q125.062,187.1244 124.3589,187.1244 Q121.8589,187.1244 120.5308,185.4838 Q119.2183,183.8275 119.2183,180.7025 Q119.2183,177.5775 120.5308,175.9213 Q121.8589,174.265 124.3589,174.265 Q125.062,174.265 125.7026,174.4213 Q126.3589,174.5775 126.9214,174.8744 L126.9214,177.5931 Q126.2964,177.015 125.7026,176.7494 Q125.1089,176.4681 124.4839,176.4681 Q123.1401,176.4681 122.4526,177.5463 Q121.7651,178.6088 121.7651,180.7025 Q121.7651,182.7963 122.4526,183.8744 Q123.1401,184.9369 124.4839,184.9369 Q125.1089,184.9369 125.7026,184.6713 Q126.2964,184.39 126.9214,183.8119 L126.9214,186.5306 Z " fill="#000000"/><text fill="#000000" font-family="sans-serif" font-size="14" lengthAdjust="spacing" textLength="48.5078" x="144.4526" y="185.7367">Logger</text><line style="stroke:#181818;stroke-width:2;" x1="8" x2="296.9131" y1="196.89" y2="196.89"/><line style="stroke:#181818;stroke-width:2;" x1="8" x2="296.9131" y1="204.89" y2="204.89"/><text fill="#000000" font-family="sans-serif" font-size="14" lengthAdjust="spacing" textLength="278.9131" x="13" y="221.8851">void log(Level level, Message message)</text></g><!--class LoggerConfig--><g class="entity" data-entity="LoggerConfig" data-source-line="9" data-uid="ent0005" id="entity_LoggerConfig"><rect fill="#F1F1F1" height="129.4844" rx="2.5" ry="2.5" style="stroke:#181818;stroke-width:0.5;" width="271.6836" x="16.61" y="306.19"/><ellipse cx="101.4884" cy="322.19" fill="#ADD1B2" rx="11" ry="11" style="stroke:#181818;stroke-width:1;"/><path d="M104.4572,327.8306 Q103.879,328.1275 103.2384,328.2681 Q102.5978,328.4244 101.8947,328.4244 Q99.3947,328.4244 98.0665,326.7838 Q96.754,325.1275 96.754,322.0025 Q96.754,318.8775 98.0665,317.2213 Q99.3947,315.565 101.8947,315.565 Q102.5978,315.565 103.2384,315.7213 Q103.8947,315.8775 104.4572,316.1744 L104.4572,318.8931 Q103.8322,318.315 103.2384,318.0494 Q102.6447,317.7681 102.0197,317.7681 Q100.6759,317.7681 99.9884,318.8463 Q99.3009,319.9088 99.3009,322.0025 Q99.3009,324.0963 99.9884,325.1744 Q100.6759,326.2369 102.0197,326.2369 Q102.6447,326.2369 103.2384,325.9713 Q103.8322,325.69 104.4572,325.1119 L104.4572,327.8306 Z " fill="#000000"/><text fill="#000000" font-family="sans-serif" font-size="14" lengthAdjust="spacing" textLength="93.4268" x="121.9884" y="327.0367">LoggerConfig</text><line style="stroke:#181818;stroke-width:0.5;" x1="17.61" x2="287.2936" y1="338.19" y2="338.19"/><text fill="#000000" font-family="sans-serif" font-size="14" lengthAdjust="spacing" textLength="204.3945" x="22.61" y="355.1851">AppenderRef[] appenderRefs</text><text fill="#000000" font-family="sans-serif" font-size="14" lengthAdjust="spacing" textLength="259.6836" x="22.61" y="371.482">AppenderControl[] appenderControls</text><text fill="#000000" font-family="sans-serif" font-size="14" lengthAdjust="spacing" textLength="74.9424" x="22.61" y="387.7789">Level level</text><text fill="#000000" font-family="sans-serif" font-size="14" lengthAdjust="spacing" textLength="72.707" x="22.61" y="404.0757">Filter filter</text><line style="stroke:#181818;stroke-width:0.5;" x1="17.61" x2="287.2936" y1="411.3775" y2="411.3775"/><text fill="#000000" font-family="sans-serif" font-size="14" lengthAdjust="spacing" textLength="131.7012" x="22.61" y="428.3726">void log(LogEvent)</text></g><!--link LoggerContext to Logger--><g class="link" data-entity-1="LoggerContext" data-entity-2="Logger" data-source-line="7" data-uid="lnk4" id="link_LoggerContext_Logger"><path codeLine="7" d="M152.46,104.09 C152.46,124.15 152.46,140.94 152.46,158.81" fill="none" id="LoggerContext-to-Logger" style="stroke:#181818;stroke-width:1;"/><polygon fill="#181818" points="152.46,164.81,156.46,155.81,152.46,159.81,148.46,155.81,152.46,164.81" style="stroke:#181818;stroke-width:1;"/><text fill="#000000" font-family="sans-serif" font-size="13" lengthAdjust="spacing" textLength="23.0356" x="127.0925" y="153.6966">0..*</text></g><!--link Logger to LoggerConfig--><g class="link" data-entity-1="Logger" data-entity-2="LoggerConfig" data-source-line="21" data-uid="lnk6" id="link_Logger_LoggerConfig"><path codeLine="21" d="M152.46,229.56 C152.46,250.89 152.46,273.8 152.46,299.85" fill="none" id="Logger-to-LoggerConfig" style="stroke:#008000;stroke-width:6;"/><polygon fill="#008000" points="152.46,305.85,156.46,296.85,152.46,300.85,148.46,296.85,152.46,305.85" style="stroke:#008000;stroke-width:6;"/><text fill="#000000" font-family="sans-serif" font-size="13" lengthAdjust="spacing" textLength="111.0396" x="153.46" y="272.2569">delegates `log()`</text></g><!--SRC=[LP31QiCm38RlVWhHNjhHX9rsA6nGndhgBjsn5EebYcUcoiNMGc7itQSufKakjdvP-lN95TcKO1USm_WQMF0gy6i0D6wy-ubMV62eij9qNtWu0kKWtLFWKFfeyI7HimEsProQFsEcvaNn0hF7idoOtJgDgQOCEYaZR2uNv1hZ7XiTQ0ULHe-TRGmqAhXbCXgsI43TgMhhIHIqoPVgDlYwssEXazzQPCcqOnYOasSiFmFLcMZe68nNy8ufMOTmxk_Hpb0SvYuYyag-VFNDMl3yTDGFcEowXXe9dHLCSEhSbwT_]--></g></svg>