<?xml version="1.0" encoding="us-ascii" standalone="no"?><svg xmlns="http://www.w3.org/2000/svg" xmlns:xlink="http://www.w3.org/1999/xlink" contentStyleType="text/css" height="754px" preserveAspectRatio="none" style="width:549px;height:754px;background:#FFFFFF;" version="1.1" viewBox="0 0 549 754" width="549px" zoomAndPan="magnify"><defs/><g><!--class Configuration--><g id="elem_Configuration"><rect codeLine="1" fill="#F1F1F1" height="129.4844" id="Configuration" rx="2.5" ry="2.5" style="stroke:#181818;stroke-width:0.5;" width="316" x="177.5" y="7"/><ellipse cx="285.25" cy="23" fill="#ADD1B2" rx="11" ry="11" style="stroke:#181818;stroke-width:1.0;"/><path d="M288.2188,28.6406 Q287.6406,28.9375 287,29.0781 Q286.3594,29.2344 285.6563,29.2344 Q283.1563,29.2344 281.8281,27.5938 Q280.5156,25.9375 280.5156,22.8125 Q280.5156,19.6875 281.8281,18.0313 Q283.1563,16.375 285.6563,16.375 Q286.3594,16.375 287,16.5313 Q287.6563,16.6875 288.2188,16.9844 L288.2188,19.7031 Q287.5938,19.125 287,18.8594 Q286.4063,18.5781 285.7813,18.5781 Q284.4375,18.5781 283.75,19.6563 Q283.0625,20.7188 283.0625,22.8125 Q283.0625,24.9063 283.75,25.9844 Q284.4375,27.0469 285.7813,27.0469 Q286.4063,27.0469 287,26.7813 Q287.5938,26.5 288.2188,25.9219 L288.2188,28.6406 Z " fill="#000000"/><text fill="#000000" font-family="sans-serif" font-size="14" lengthAdjust="spacing" textLength="92" x="305.75" y="27.8467">Configuration</text><line style="stroke:#181818;stroke-width:0.5;" x1="178.5" x2="492.5" y1="39" y2="39"/><text fill="#000000" font-family="sans-serif" font-size="14" lengthAdjust="spacing" textLength="157" x="183.5" y="55.9951">Appender[] appenders</text><text fill="#000000" font-family="sans-serif" font-size="14" lengthAdjust="spacing" textLength="66" x="183.5" y="72.292">Filter filter</text><text fill="#000000" font-family="sans-serif" font-size="14" lengthAdjust="spacing" textLength="202" x="183.5" y="88.5889">LoggerConfig[] loggerConfigs</text><text fill="#000000" font-family="sans-serif" font-size="14" lengthAdjust="spacing" textLength="174" x="183.5" y="104.8857">StrSubstitutor substitutor</text><line style="stroke:#181818;stroke-width:0.5;" x1="178.5" x2="492.5" y1="112.1875" y2="112.1875"/><text fill="#000000" font-family="sans-serif" font-size="14" lengthAdjust="spacing" textLength="304" x="183.5" y="129.1826">LoggerConfig getLoggerConfig(String name)</text></g><!--class Filter--><g id="elem_Filter"><rect codeLine="26" fill="#F1F1F1" height="64.2969" id="Filter" rx="2.5" ry="2.5" style="stroke:#181818;stroke-width:0.5;" width="163" x="288" y="551.01"/><ellipse cx="348.75" cy="567.01" fill="#ADD1B2" rx="11" ry="11" style="stroke:#181818;stroke-width:1.0;"/><path d="M351.7188,572.6506 Q351.1406,572.9475 350.5,573.0881 Q349.8594,573.2444 349.1563,573.2444 Q346.6563,573.2444 345.3281,571.6038 Q344.0156,569.9475 344.0156,566.8225 Q344.0156,563.6975 345.3281,562.0413 Q346.6563,560.385 349.1563,560.385 Q349.8594,560.385 350.5,560.5413 Q351.1563,560.6975 351.7188,560.9944 L351.7188,563.7131 Q351.0938,563.135 350.5,562.8694 Q349.9063,562.5881 349.2813,562.5881 Q347.9375,562.5881 347.25,563.6663 Q346.5625,564.7288 346.5625,566.8225 Q346.5625,568.9163 347.25,569.9944 Q347.9375,571.0569 349.2813,571.0569 Q349.9063,571.0569 350.5,570.7913 Q351.0938,570.51 351.7188,569.9319 L351.7188,572.6506 Z " fill="#000000"/><text fill="#000000" font-family="sans-serif" font-size="14" lengthAdjust="spacing" textLength="33" x="369.25" y="571.8567">Filter</text><line style="stroke:#181818;stroke-width:0.5;" x1="289" x2="450" y1="583.01" y2="583.01"/><line style="stroke:#181818;stroke-width:0.5;" x1="289" x2="450" y1="591.01" y2="591.01"/><text fill="#000000" font-family="sans-serif" font-size="14" lengthAdjust="spacing" textLength="151" x="294" y="608.0051">Result filter(LogEvent)</text></g><!--class Appender--><g id="elem_Appender"><rect codeLine="15" fill="#F1F1F1" height="80.5938" id="Appender" rx="2.5" ry="2.5" style="stroke:#181818;stroke-width:2.0;" width="171" x="13" y="542.86"/><ellipse cx="60.25" cy="558.86" fill="#ADD1B2" rx="11" ry="11" style="stroke:#181818;stroke-width:1.0;"/><path d="M63.2188,564.5006 Q62.6406,564.7975 62,564.9381 Q61.3594,565.0944 60.6563,565.0944 Q58.1563,565.0944 56.8281,563.4538 Q55.5156,561.7975 55.5156,558.6725 Q55.5156,555.5475 56.8281,553.8913 Q58.1563,552.235 60.6563,552.235 Q61.3594,552.235 62,552.3913 Q62.6563,552.5475 63.2188,552.8444 L63.2188,555.5631 Q62.5938,554.985 62,554.7194 Q61.4063,554.4381 60.7813,554.4381 Q59.4375,554.4381 58.75,555.5163 Q58.0625,556.5788 58.0625,558.6725 Q58.0625,560.7663 58.75,561.8444 Q59.4375,562.9069 60.7813,562.9069 Q61.4063,562.9069 62,562.6413 Q62.5938,562.36 63.2188,561.7819 L63.2188,564.5006 Z " fill="#000000"/><text fill="#000000" font-family="sans-serif" font-size="14" lengthAdjust="spacing" textLength="68" x="80.75" y="563.7067">Appender</text><line style="stroke:#181818;stroke-width:2.0;" x1="14" x2="183" y1="574.86" y2="574.86"/><text fill="#000000" font-family="sans-serif" font-size="14" lengthAdjust="spacing" textLength="90" x="19" y="591.8551">Layout layout</text><line style="stroke:#181818;stroke-width:2.0;" x1="14" x2="183" y1="599.1569" y2="599.1569"/><text fill="#000000" font-family="sans-serif" font-size="14" lengthAdjust="spacing" textLength="159" x="19" y="616.152">void append(LogEvent)</text></g><!--class LoggerConfig--><g id="elem_LoggerConfig"><rect codeLine="30" fill="#F1F1F1" height="129.4844" id="LoggerConfig" rx="2.5" ry="2.5" style="stroke:#181818;stroke-width:0.5;" width="269" x="201" y="196.48"/><ellipse cx="285.25" cy="212.48" fill="#ADD1B2" rx="11" ry="11" style="stroke:#181818;stroke-width:1.0;"/><path d="M288.2188,218.1206 Q287.6406,218.4175 287,218.5581 Q286.3594,218.7144 285.6563,218.7144 Q283.1563,218.7144 281.8281,217.0738 Q280.5156,215.4175 280.5156,212.2925 Q280.5156,209.1675 281.8281,207.5113 Q283.1563,205.855 285.6563,205.855 Q286.3594,205.855 287,206.0113 Q287.6563,206.1675 288.2188,206.4644 L288.2188,209.1831 Q287.5938,208.605 287,208.3394 Q286.4063,208.0581 285.7813,208.0581 Q284.4375,208.0581 283.75,209.1363 Q283.0625,210.1988 283.0625,212.2925 Q283.0625,214.3863 283.75,215.4644 Q284.4375,216.5269 285.7813,216.5269 Q286.4063,216.5269 287,216.2613 Q287.5938,215.98 288.2188,215.4019 L288.2188,218.1206 Z " fill="#000000"/><text fill="#000000" font-family="sans-serif" font-size="14" lengthAdjust="spacing" textLength="92" x="305.75" y="217.3267">LoggerConfig</text><line style="stroke:#181818;stroke-width:0.5;" x1="202" x2="469" y1="228.48" y2="228.48"/><text fill="#000000" font-family="sans-serif" font-size="14" lengthAdjust="spacing" textLength="203" x="207" y="245.4751">AppenderRef[] appenderRefs</text><text fill="#000000" font-family="sans-serif" font-size="14" lengthAdjust="spacing" textLength="257" x="207" y="261.772">AppenderControl[] appenderControls</text><text fill="#000000" font-family="sans-serif" font-size="14" lengthAdjust="spacing" textLength="70" x="207" y="278.0689">Level level</text><text fill="#000000" font-family="sans-serif" font-size="14" lengthAdjust="spacing" textLength="66" x="207" y="294.3657">Filter filter</text><line style="stroke:#181818;stroke-width:0.5;" x1="202" x2="469" y1="301.6675" y2="301.6675"/><text fill="#000000" font-family="sans-serif" font-size="14" lengthAdjust="spacing" textLength="127" x="207" y="318.6626">void log(LogEvent)</text></g><!--class Layout--><g id="elem_Layout"><rect codeLine="22" fill="#F1F1F1" height="64.2969" id="Layout" rx="2.5" ry="2.5" style="stroke:#181818;stroke-width:0.5;" width="183" x="7" y="683.45"/><ellipse cx="71.75" cy="699.45" fill="#ADD1B2" rx="11" ry="11" style="stroke:#181818;stroke-width:1.0;"/><path d="M74.7188,705.0906 Q74.1406,705.3875 73.5,705.5281 Q72.8594,705.6844 72.1563,705.6844 Q69.6563,705.6844 68.3281,704.0438 Q67.0156,702.3875 67.0156,699.2625 Q67.0156,696.1375 68.3281,694.4813 Q69.6563,692.825 72.1563,692.825 Q72.8594,692.825 73.5,692.9813 Q74.1563,693.1375 74.7188,693.4344 L74.7188,696.1531 Q74.0938,695.575 73.5,695.3094 Q72.9063,695.0281 72.2813,695.0281 Q70.9375,695.0281 70.25,696.1063 Q69.5625,697.1688 69.5625,699.2625 Q69.5625,701.3563 70.25,702.4344 Q70.9375,703.4969 72.2813,703.4969 Q72.9063,703.4969 73.5,703.2313 Q74.0938,702.95 74.7188,702.3719 L74.7188,705.0906 Z " fill="#000000"/><text fill="#000000" font-family="sans-serif" font-size="14" lengthAdjust="spacing" textLength="45" x="92.25" y="704.2967">Layout</text><line style="stroke:#181818;stroke-width:0.5;" x1="8" x2="189" y1="715.45" y2="715.45"/><line style="stroke:#181818;stroke-width:0.5;" x1="8" x2="189" y1="723.45" y2="723.45"/><text fill="#000000" font-family="sans-serif" font-size="14" lengthAdjust="spacing" textLength="171" x="13" y="740.4451">byte[] encode(LogEvent)</text></g><!--class AppenderRef--><g id="elem_AppenderRef"><rect codeLine="44" fill="#F1F1F1" height="96.8906" id="AppenderRef" rx="2.5" ry="2.5" style="stroke:#181818;stroke-width:0.5;" width="163" x="254" y="385.97"/><ellipse cx="287" cy="401.97" fill="#ADD1B2" rx="11" ry="11" style="stroke:#181818;stroke-width:1.0;"/><path d="M289.9688,407.6106 Q289.3906,407.9075 288.75,408.0481 Q288.1094,408.2044 287.4063,408.2044 Q284.9063,408.2044 283.5781,406.5638 Q282.2656,404.9075 282.2656,401.7825 Q282.2656,398.6575 283.5781,397.0013 Q284.9063,395.345 287.4063,395.345 Q288.1094,395.345 288.75,395.5013 Q289.4063,395.6575 289.9688,395.9544 L289.9688,398.6731 Q289.3438,398.095 288.75,397.8294 Q288.1563,397.5481 287.5313,397.5481 Q286.1875,397.5481 285.5,398.6263 Q284.8125,399.6888 284.8125,401.7825 Q284.8125,403.8763 285.5,404.9544 Q286.1875,406.0169 287.5313,406.0169 Q288.1563,406.0169 288.75,405.7513 Q289.3438,405.47 289.9688,404.8919 L289.9688,407.6106 Z " fill="#000000"/><text fill="#000000" font-family="sans-serif" font-size="14" lengthAdjust="spacing" textLength="91" x="305" y="406.8167">AppenderRef</text><line style="stroke:#181818;stroke-width:0.5;" x1="255" x2="416" y1="417.97" y2="417.97"/><text fill="#000000" font-family="sans-serif" font-size="14" lengthAdjust="spacing" textLength="151" x="260" y="434.9651">String appenderName</text><text fill="#000000" font-family="sans-serif" font-size="14" lengthAdjust="spacing" textLength="70" x="260" y="451.262">Level level</text><text fill="#000000" font-family="sans-serif" font-size="14" lengthAdjust="spacing" textLength="66" x="260" y="467.5589">Filter filter</text><line style="stroke:#181818;stroke-width:0.5;" x1="255" x2="416" y1="474.8606" y2="474.8606"/></g><!--class AppenderControl--><g id="elem_AppenderControl"><rect codeLine="52" fill="#F1F1F1" height="96.8906" id="AppenderControl" rx="2.5" ry="2.5" style="stroke:#181818;stroke-width:0.5;" width="171" x="48" y="385.97"/><ellipse cx="72.45" cy="401.97" fill="#ADD1B2" rx="11" ry="11" style="stroke:#181818;stroke-width:1.0;"/><path d="M75.4188,407.6106 Q74.8406,407.9075 74.2,408.0481 Q73.5594,408.2044 72.8563,408.2044 Q70.3563,408.2044 69.0281,406.5638 Q67.7156,404.9075 67.7156,401.7825 Q67.7156,398.6575 69.0281,397.0013 Q70.3563,395.345 72.8563,395.345 Q73.5594,395.345 74.2,395.5013 Q74.8563,395.6575 75.4188,395.9544 L75.4188,398.6731 Q74.7938,398.095 74.2,397.8294 Q73.6063,397.5481 72.9813,397.5481 Q71.6375,397.5481 70.95,398.6263 Q70.2625,399.6888 70.2625,401.7825 Q70.2625,403.8763 70.95,404.9544 Q71.6375,406.0169 72.9813,406.0169 Q73.6063,406.0169 74.2,405.7513 Q74.7938,405.47 75.4188,404.8919 L75.4188,407.6106 Z " fill="#000000"/><text fill="#000000" font-family="sans-serif" font-size="14" lengthAdjust="spacing" textLength="118" x="88.55" y="406.8167">AppenderControl</text><line style="stroke:#181818;stroke-width:0.5;" x1="49" x2="218" y1="417.97" y2="417.97"/><text fill="#000000" font-family="sans-serif" font-size="14" lengthAdjust="spacing" textLength="139" x="54" y="434.9651">Appender appender</text><text fill="#000000" font-family="sans-serif" font-size="14" lengthAdjust="spacing" textLength="66" x="54" y="451.262">Filter filter</text><line style="stroke:#181818;stroke-width:0.5;" x1="49" x2="218" y1="458.5638" y2="458.5638"/><text fill="#000000" font-family="sans-serif" font-size="14" lengthAdjust="spacing" textLength="159" x="54" y="475.5589">void append(LogEvent)</text></g><!--link Configuration to Filter--><g id="link_Configuration_Filter"><path codeLine="9" d="M440.35,136.96 C459.43,153.81 476.69,173.74 487.5,196.48 C542.32,311.8 520.55,368.13 464.5,482.86 C451.72,509.01 434.0108,528.7773 414.3008,546.5073 " fill="none" id="Configuration-to-Filter" style="stroke:#181818;stroke-width:1.0;"/><polygon fill="#181818" points="409.84,550.52,419.2063,547.4749,413.5573,547.1761,413.8561,541.5272,409.84,550.52" style="stroke:#181818;stroke-width:1.0;"/><text fill="#000000" font-family="sans-serif" font-size="13" lengthAdjust="spacing" textLength="23" x="392.3376" y="539.9482">0..*</text></g><!--link Configuration to Appender--><g id="link_Configuration_Appender"><path codeLine="11" d="M237.68,136.96 C163.37,192.51 67.8,280.41 30.5,385.97 C16.15,426.57 17.76,441.72 30.5,482.86 C37.17,504.42 46.6968,520.6775 59.6668,537.7975 " fill="none" id="Configuration-to-Appender" style="stroke:#181818;stroke-width:1.0;"/><polygon fill="#181818" points="63.29,542.58,61.0435,532.9908,60.2707,538.5946,54.6669,537.8217,63.29,542.58" style="stroke:#181818;stroke-width:1.0;"/><text fill="#000000" font-family="sans-serif" font-size="13" lengthAdjust="spacing" textLength="23" x="32.5537" y="531.6952">0..*</text></g><!--link Configuration to LoggerConfig--><g id="link_Configuration_LoggerConfig"><path codeLine="13" d="M335.5,136.74 C335.5,155.94 335.5,171 335.5,190.2 " fill="none" id="Configuration-to-LoggerConfig" style="stroke:#181818;stroke-width:1.0;"/><polygon fill="#181818" points="335.5,196.2,339.5,187.2,335.5,191.2,331.5,187.2,335.5,196.2" style="stroke:#181818;stroke-width:1.0;"/><text fill="#000000" font-family="sans-serif" font-size="13" lengthAdjust="spacing" textLength="23" x="311.2422" y="185.342">0..*</text></g><!--link Appender to Layout--><g id="link_Appender_Layout"><path codeLine="20" d="M98.5,623.65 C98.5,642.69 98.5,659.23 98.5,677.1 " fill="none" id="Appender-to-Layout" style="stroke:#008000;stroke-width:6.0;"/><polygon fill="#008000" points="98.5,683.1,102.5,674.1,98.5,678.1,94.5,674.1,98.5,683.1" style="stroke:#008000;stroke-width:6.0;"/></g><!--link LoggerConfig to AppenderRef--><g id="link_LoggerConfig_AppenderRef"><path codeLine="38" d="M335.5,326.46 C335.5,346.1 335.5,361.34 335.5,379.68 " fill="none" id="LoggerConfig-to-AppenderRef" style="stroke:#181818;stroke-width:1.0;"/><polygon fill="#181818" points="335.5,385.68,339.5,376.68,335.5,380.68,331.5,376.68,335.5,385.68" style="stroke:#181818;stroke-width:1.0;"/><text fill="#000000" font-family="sans-serif" font-size="13" lengthAdjust="spacing" textLength="23" x="310.8828" y="374.8481">0..*</text></g><!--link LoggerConfig to AppenderControl--><g id="link_LoggerConfig_AppenderControl"><path codeLine="40" d="M259.71,326.46 C236.53,346.1 216.0473,363.4607 194.4073,381.8007 " fill="none" id="LoggerConfig-to-AppenderControl" style="stroke:#008000;stroke-width:6.0;"/><polygon fill="#008000" points="189.83,385.68,199.2821,382.9126,193.6444,382.4473,194.1097,376.8096,189.83,385.68" style="stroke:#008000;stroke-width:6.0;"/><text fill="#000000" font-family="sans-serif" font-size="13" lengthAdjust="spacing" textLength="23" x="173.1342" y="374.8481">0..*</text></g><!--link LoggerConfig to Filter--><g id="link_LoggerConfig_Filter"><path codeLine="42" d="M399.93,326.18 C414.03,344.09 426.99,364.55 434.5,385.97 C448.75,426.6 446.81,441.59 434.5,482.86 C427.08,507.74 414.8845,527.4291 400.6845,545.8391 " fill="none" id="LoggerConfig-to-Filter" style="stroke:#181818;stroke-width:1.0;"/><polygon fill="#181818" points="397.02,550.59,405.684,545.9066,400.0737,546.6309,399.3495,541.0206,397.02,550.59" style="stroke:#181818;stroke-width:1.0;"/></g><!--link AppenderRef to Filter--><g id="link_AppenderRef_Filter"><path codeLine="50" d="M346.54,483.06 C351.7,505.32 356.3361,525.3548 360.9061,545.0848 " fill="none" id="AppenderRef-to-Filter" style="stroke:#181818;stroke-width:1.0;"/><polygon fill="#181818" points="362.26,550.93,364.126,541.2595,361.1317,546.059,356.3323,543.0647,362.26,550.93" style="stroke:#181818;stroke-width:1.0;"/></g><!--link AppenderControl to Appender--><g id="link_AppenderControl_Appender"><path codeLine="58" d="M122.14,483.06 C117.55,502.31 113.7037,518.4241 109.3237,536.7641 " fill="none" id="AppenderControl-to-Appender" style="stroke:#008000;stroke-width:6.0;"/><polygon fill="#008000" points="107.93,542.6,113.9112,534.7753,109.0914,537.7368,106.13,532.917,107.93,542.6" style="stroke:#008000;stroke-width:6.0;"/></g><!--link AppenderControl to Filter--><g id="link_AppenderControl_Filter"><path codeLine="60" d="M210.45,483.26 C245.96,505.34 282.0451,527.771 313.6051,547.401 " fill="none" id="AppenderControl-to-Filter" style="stroke:#181818;stroke-width:1.0;"/><polygon fill="#181818" points="318.7,550.57,313.1703,542.42,314.4543,547.9292,308.9451,549.2131,318.7,550.57" style="stroke:#181818;stroke-width:1.0;"/></g><!--SRC=[XLAnJiCm4Dtp5QTsQH6fcDX0GWYcYg4TgmvfSaajZ5tPbqeLuj-vk4vgXoGiSSv-llVytkKoinPUjIf5LPkCX5RmdG2yd4we2ZIxFMJ-r_Bskv241agtSBtMLONcUfsXCYXjxnWgfB1URCa8LO7Ald39M2wtzS6Ie9gq0NlxJtwI95QOfiymUrYjxcPUqGIWVSa499IL9BcpfBq6SoaKhWvQ5iwOTNRHDO5q2zTdBGflqOBxl9rHqR9Ht3L8T_FA8AfxEehyKw6rJuzx9hzsQlbytuRYS25aCr7bki2uwHNhKsYm6xIr91_843QA84nsWsKGBbSsE6Gy6Iq3WDzngU8P9SZcEp0IpX0UX5XC96CW7URlWqPiwrtqkWOOsic8ysGYPuEVllPv7po5_pmjoBHfCaxX9KLkTqHZZasDKDjmp9BRYF-vqOdy1G00]--></g></svg>