<svg xmlns="http://www.w3.org/2000/svg" xmlns:xlink="http://www.w3.org/1999/xlink" contentStyleType="text/css" data-diagram-type="ACTIVITY" height="424px" preserveAspectRatio="none" style="width:279px;height:424px;background:#FFFFFF;" version="1.1" viewBox="0 0 279 424" width="279px" zoomAndPan="magnify"><defs/><g><ellipse cx="127.0029" cy="20" fill="#222222" rx="10" ry="10" style="stroke:#222222;stroke-width:1;"/><rect fill="#F1F1F1" height="33.9688" rx="12.5" ry="12.5" style="stroke:#181818;stroke-width:0.5;" width="76.0215" x="88.9922" y="50"/><text fill="#000000" font-family="sans-serif" font-size="12" lengthAdjust="spacing" textLength="56.0215" x="98.9922" y="71.1387">LogEvent</text><rect fill="none" height="258.2344" style="stroke:#000000;stroke-width:1.5;" width="257.2212" x="11" y="93.9688"/><path d="M114.4268,93.9688 L114.4268,103.2656 L104.4268,113.2656 L11,113.2656" fill="none" style="stroke:#000000;stroke-width:1.5;"/><text fill="#000000" font-family="sans-serif" font-size="14" lengthAdjust="spacing" textLength="93.4268" x="14" y="107.9639">LoggerConfig</text><rect fill="#F1F1F1" height="33.9688" rx="12.5" ry="12.5" style="stroke:#181818;stroke-width:0.5;" width="137.791" x="58.1074" y="174.2656"/><text fill="#000000" font-family="sans-serif" font-size="12" lengthAdjust="spacing" textLength="117.791" x="68.1074" y="195.4043">LoggerConfig#log()</text><polygon fill="#F1F1F1" points="77.6641,228.2344,176.3418,228.2344,188.3418,240.2344,176.3418,252.2344,77.6641,252.2344,65.6641,240.2344,77.6641,228.2344" style="stroke:#181818;stroke-width:0.5;"/><text fill="#000000" font-family="sans-serif" font-size="11" lengthAdjust="spacing" textLength="98.6777" x="77.6641" y="244.0425">Apply logger filter</text><text fill="#000000" font-family="sans-serif" font-size="11" lengthAdjust="spacing" textLength="30.3682" x="35.2959" y="237.6401">DENY</text><text fill="#000000" font-family="sans-serif" font-size="11" lengthAdjust="spacing" textLength="51.8794" x="188.3418" y="237.6401">not DENY</text><rect fill="#FFC0CB" height="33.9688" rx="12.5" ry="12.5" style="stroke:#181818;stroke-width:0.5;" width="65.3281" x="23" y="262.2344"/><text fill="#000000" font-family="sans-serif" font-size="12" lengthAdjust="spacing" textLength="45.3281" x="33" y="283.373">Discard</text><polygon fill="#F1F1F1" points="127.0029,130.2656,139.0029,142.2656,127.0029,154.2656,115.0029,142.2656,127.0029,130.2656" style="stroke:#181818;stroke-width:0.5;"/><polygon fill="#F1F1F1" points="70.021,316.2031,183.9849,316.2031,195.9849,328.2031,183.9849,340.2031,70.021,340.2031,58.021,328.2031,70.021,316.2031" style="stroke:#181818;stroke-width:0.5;"/><text fill="#000000" font-family="sans-serif" font-size="11" lengthAdjust="spacing" textLength="113.9639" x="70.021" y="332.0112">Go to parent logger?</text><text fill="#000000" font-family="sans-serif" font-size="11" lengthAdjust="spacing" textLength="19.0083" x="195.9849" y="325.6089">yes</text><ellipse cx="127.0029" cy="402.4136" fill="none" rx="11" ry="11" style="stroke:#222222;stroke-width:1;"/><ellipse cx="127.0029" cy="402.4136" fill="#222222" rx="6" ry="6" style="stroke:#222222;stroke-width:1;"/><line style="stroke:#181818;stroke-width:1;" x1="127.0029" x2="127.0029" y1="30" y2="50"/><polygon fill="#181818" points="123.0029,40,127.0029,50,131.0029,40,127.0029,44" style="stroke:#181818;stroke-width:1;"/><line style="stroke:#181818;stroke-width:1;" x1="65.6641" x2="55.6641" y1="240.2344" y2="240.2344"/><line style="stroke:#181818;stroke-width:1;" x1="55.6641" x2="55.6641" y1="240.2344" y2="262.2344"/><polygon fill="#181818" points="51.6641,252.2344,55.6641,262.2344,59.6641,252.2344,55.6641,256.2344" style="stroke:#181818;stroke-width:1;"/><line style="stroke:#181818;stroke-width:1;" x1="188.3418" x2="198.3418" y1="240.2344" y2="240.2344"/><line style="stroke:#181818;stroke-width:1;" x1="198.3418" x2="198.3418" y1="240.2344" y2="301.2031"/><line style="stroke:#181818;stroke-width:1;" x1="198.3418" x2="127.0029" y1="301.2031" y2="301.2031"/><line style="stroke:#181818;stroke-width:1;" x1="127.0029" x2="127.0029" y1="301.2031" y2="316.2031"/><polygon fill="#181818" points="123.0029,306.2031,127.0029,316.2031,131.0029,306.2031,127.0029,310.2031" style="stroke:#181818;stroke-width:1;"/><line style="stroke:#181818;stroke-width:1;" x1="127.0029" x2="127.0029" y1="208.2344" y2="228.2344"/><polygon fill="#181818" points="123.0029,218.2344,127.0029,228.2344,131.0029,218.2344,127.0029,222.2344" style="stroke:#181818;stroke-width:1;"/><line style="stroke:#181818;stroke-width:1;" x1="127.0029" x2="127.0029" y1="154.2656" y2="174.2656"/><polygon fill="#181818" points="123.0029,164.2656,127.0029,174.2656,131.0029,164.2656,127.0029,168.2656" style="stroke:#181818;stroke-width:1;"/><line style="stroke:#181818;stroke-width:1;" x1="195.9849" x2="252.2212" y1="328.2031" y2="328.2031"/><polygon fill="#181818" points="248.2212,240.7344,252.2212,230.7344,256.2212,240.7344,252.2212,236.7344" style="stroke:#181818;stroke-width:1;"/><line style="stroke:#181818;stroke-width:1;" x1="252.2212" x2="252.2212" y1="142.2656" y2="328.2031"/><line style="stroke:#181818;stroke-width:1;" x1="252.2212" x2="139.0029" y1="142.2656" y2="142.2656"/><polygon fill="#181818" points="149.0029,138.2656,139.0029,142.2656,149.0029,146.2656,145.0029,142.2656" style="stroke:#181818;stroke-width:1;"/><line style="stroke:#181818;stroke-width:1;" x1="127.0029" x2="127.0029" y1="83.9688" y2="130.2656"/><polygon fill="#181818" points="123.0029,120.2656,127.0029,130.2656,131.0029,120.2656,127.0029,124.2656" style="stroke:#181818;stroke-width:1;"/><line style="stroke:#181818;stroke-width:1;" x1="127.0029" x2="127.0029" y1="340.2031" y2="391.4136"/><polygon fill="#181818" points="123.0029,381.4136,127.0029,391.4136,131.0029,381.4136,127.0029,385.4136" style="stroke:#181818;stroke-width:1;"/><text fill="#000000" font-family="sans-serif" font-size="11" lengthAdjust="spacing" textLength="13.7017" x="131.0029" y="369.9136">no</text><!--SRC=[HO-nJWGn34HxVyL8Lv0K5BIt4WXn9nf4HKCPThrPYn17YJbqVqy89t0vyyQQQHQgqVv9u_74sIQYMFMpe0kHwuFcLI9LBXoC1lQdxf96vtj0LhZxKj8PQTXO9HbN3ziumnsEpw-Uq6zN9B_l3zBcK9TfI0jRc3VYr1Wkg-6VliBBnaZXZHFaerGzSKChOPOS1_1hXHlYlCXwAOclJLB_zQWmHGcrZxhqklEG1dVcvkdw5bcddoJ6NcgcvHi0]--></g></svg>