<?xml version="1.0" encoding="UTF-8"?><svg xmlns="http://www.w3.org/2000/svg" width="890" height="672" version="1.0" shape-rendering="geometricPrecision"><defs><filter id="shadowBlur" x="0" y="0" width="200%" height="200%"><feOffset in="SourceGraphic" dx="3.0003002" dy="3.0003002" result="offOut"></feOffset><feGaussianBlur in="offOut" stdDeviation="3"></feGaussianBlur></filter></defs><g stroke-width="1" stroke-linecap="square" stroke-linejoin="round"><rect x="0" y="0" width="890" height="672" style="fill: #ffffff"></rect><path stroke="#969696" fill="#969696" filter="url(#shadowBlur)" d="M415.0 343.0 L565.0 343.0 L565.0 399.0 L415.0 399.0 z"></path><path stroke="#969696" fill="#969696" filter="url(#shadowBlur)" d="M265.0 343.0 L395.0 343.0 L395.0 399.0 L265.0 399.0 z"></path><path stroke="#969696" fill="#969696" filter="url(#shadowBlur)" d="M585.0 343.0 L715.0 343.0 L715.0 399.0 L585.0 399.0 z"></path><path stroke="#969696" fill="#969696" filter="url(#shadowBlur)" d="M45.0 105.0 L165.0 105.0 L165.0 161.0 L45.0 161.0 z"></path><path stroke="#969696" fill="#969696" filter="url(#shadowBlur)" d="M45.0 343.0 L155.0 343.0 L155.0 397.0 L45.0 397.0 z"></path><path stroke="#969696" fill="#969696" filter="url(#shadowBlur)" d="M425.0 105.0 L525.0 105.0 L525.0 161.0 L425.0 161.0 z"></path><path stroke="#969696" fill="#969696" filter="url(#shadowBlur)" d="M645.0 105.0 L745.0 105.0 L745.0 161.0 L645.0 161.0 z"></path><path stroke="#969696" fill="#969696" filter="url(#shadowBlur)" d="M185.0 105.0 L285.0 105.0 L285.0 161.0 Q251.0 154.0 235.0 161.0 Q219.0 168.0 185.0 161.0 z"></path><path stroke="#969696" fill="#969696" filter="url(#shadowBlur)" d="M305.0 105.0 L405.0 105.0 L405.0 161.0 L305.0 161.0 z"></path><path stroke="#969696" fill="#969696" filter="url(#shadowBlur)" d="M545.0 105.0 L625.0 105.0 L625.0 161.0 Q598.0 154.0 585.0 161.0 Q572.0 168.0 545.0 161.0 z"></path><path stroke="#969696" fill="#969696" filter="url(#shadowBlur)" d="M765.0 105.0 L845.0 105.0 L845.0 161.0 Q818.0 154.0 805.0 161.0 Q792.0 168.0 765.0 161.0 z"></path><path stroke="#969696" fill="#969696" filter="url(#shadowBlur)" d="M275.0 525.0 L355.0 525.0 L355.0 581.0 Q328.0 574.0 315.0 581.0 Q302.0 588.0 275.0 581.0 z"></path><path stroke="#969696" fill="#969696" filter="url(#shadowBlur)" d="M45.0 401.0 L155.0 401.0 L155.0 427.0 L45.0 427.0 z"></path><path stroke="#000000" stroke-width="1.0" stroke-linecap="round" stroke-linejoin="round" fill="none" d="M95.0 301.0 L30.0 301.0 Q25.0 301.0 25.0 308.0 L25.0 630.0 L25.0 630.0 Q25.0 637.0 30.0 637.0 L860.0 637.0 L860.0 637.0 Q865.0 637.0 865.0 630.0 L865.0 308.0 L865.0 308.0 Q865.0 301.0 860.0 301.0 L695.0 301.0 L695.0 301.0 "></path><path stroke="#000000" stroke-width="1.0" stroke-linecap="round" stroke-linejoin="round" fill="none" d="M205.0 217.0 L30.0 217.0 Q25.0 217.0 25.0 210.0 L25.0 42.0 L25.0 42.0 Q25.0 35.0 30.0 35.0 L860.0 35.0 L860.0 35.0 Q865.0 35.0 865.0 42.0 L865.0 210.0 L865.0 210.0 Q865.0 217.0 860.0 217.0 L815.0 217.0 L815.0 217.0 "></path><path stroke="#000000" stroke-width="1.0" stroke-linecap="round" stroke-linejoin="round" fill="none" d="M155.0 497.0 L45.0 497.0 L45.0 609.0 L845.0 609.0 L845.0 497.0 L335.0 497.0 "></path><path stroke="#000000" stroke-width="1.0" stroke-linecap="round" stroke-linejoin="round" fill="#ffff33" d="M415.0 343.0 L565.0 343.0 L565.0 399.0 L415.0 399.0 z"></path><path stroke="#000000" stroke-width="1.0" stroke-linecap="round" stroke-linejoin="round" fill="#ffff33" d="M265.0 343.0 L395.0 343.0 L395.0 399.0 L265.0 399.0 z"></path><path stroke="#000000" stroke-width="1.0" stroke-linecap="round" stroke-linejoin="round" fill="#ffff33" d="M585.0 343.0 L715.0 343.0 L715.0 399.0 L585.0 399.0 z"></path><path stroke="#000000" stroke-width="1.0" stroke-linecap="round" stroke-linejoin="round" fill="white" d="M45.0 105.0 L165.0 105.0 L165.0 161.0 L45.0 161.0 z"></path><path stroke="#000000" stroke-width="1.0" stroke-linecap="round" stroke-linejoin="round" fill="#99dd99" d="M45.0 343.0 L155.0 343.0 L155.0 397.0 L45.0 397.0 z"></path><path stroke="#000000" stroke-width="1.0" stroke-linecap="round" stroke-linejoin="round" fill="white" d="M425.0 105.0 L525.0 105.0 L525.0 161.0 L425.0 161.0 z"></path><path stroke="#000000" stroke-width="1.0" stroke-linecap="round" stroke-linejoin="round" fill="white" d="M645.0 105.0 L745.0 105.0 L745.0 161.0 L645.0 161.0 z"></path><path stroke="#000000" stroke-width="1.0" stroke-linecap="round" stroke-linejoin="round" fill="#11ffff" d="M185.0 105.0 L285.0 105.0 L285.0 161.0 Q251.0 154.0 235.0 161.0 Q219.0 168.0 185.0 161.0 z"></path><path stroke="#000000" stroke-width="1.0" stroke-linecap="round" stroke-linejoin="round" fill="white" d="M305.0 105.0 L405.0 105.0 L405.0 161.0 L305.0 161.0 z"></path><path stroke="#000000" stroke-width="1.0" stroke-linecap="round" stroke-linejoin="round" fill="none" d="M235.0 91.0 L235.0 63.0 L105.0 63.0 L105.0 105.0 "></path><path stroke="#000000" stroke-width="1.0" stroke-linecap="round" stroke-linejoin="round" fill="#11ffff" d="M545.0 105.0 L625.0 105.0 L625.0 161.0 Q598.0 154.0 585.0 161.0 Q572.0 168.0 545.0 161.0 z"></path><path stroke="#000000" stroke-width="1.0" stroke-linecap="round" stroke-linejoin="round" fill="#11ffff" d="M765.0 105.0 L845.0 105.0 L845.0 161.0 Q818.0 154.0 805.0 161.0 Q792.0 168.0 765.0 161.0 z"></path><path stroke="#000000" stroke-width="1.0" stroke-linecap="round" stroke-linejoin="round" fill="#11ffff" d="M275.0 525.0 L355.0 525.0 L355.0 581.0 Q328.0 574.0 315.0 581.0 Q302.0 588.0 275.0 581.0 z"></path><path stroke="#000000" stroke-width="1.0" stroke-linecap="round" stroke-linejoin="round" fill="none" d="M585.0 91.0 L585.0 63.0 L475.0 63.0 L475.0 105.0 "></path><path stroke="#000000" stroke-width="1.0" stroke-linecap="round" stroke-linejoin="round" fill="none" d="M805.0 91.0 L805.0 63.0 L695.0 63.0 L695.0 105.0 "></path><path stroke="#000000" stroke-width="1.0" stroke-dasharray="5.0,5.0" stroke-miterlimit="0" stroke-linecap="butt" stroke-linejoin="round" fill="none" d="M255.0 175.0 L255.0 266.0 Q255.0 273.0 260.0 273.0 L325.0 273.0 L325.0 273.0 "></path><path stroke="#000000" stroke-width="1.0" stroke-dasharray="5.0,5.0" stroke-miterlimit="0" stroke-linecap="butt" stroke-linejoin="round" fill="none" d="M535.0 273.0 L620.0 273.0 Q625.0 273.0 625.0 280.0 L625.0 343.0 L625.0 343.0 "></path><path stroke="#000000" stroke-width="1.0" stroke-dasharray="5.0,5.0" stroke-miterlimit="0" stroke-linecap="butt" stroke-linejoin="round" fill="none" d="M215.0 161.0 L215.0 266.0 Q215.0 273.0 210.0 273.0 L110.0 273.0 L110.0 273.0 Q105.0 273.0 105.0 280.0 L105.0 329.0 L105.0 329.0 "></path><path stroke="#000000" stroke-width="1.0" stroke-linecap="round" stroke-linejoin="round" fill="white" d="M45.0 401.0 L155.0 401.0 L155.0 427.0 L45.0 427.0 z"></path><path stroke="#000000" stroke-width="1.0" stroke-linecap="round" stroke-linejoin="round" fill="none" d="M295.0 469.0 L160.0 469.0 Q155.0 469.0 155.0 476.0 L155.0 497.0 L155.0 497.0 "></path><path stroke="#000000" stroke-width="1.0" stroke-linecap="round" stroke-linejoin="round" fill="none" d="M355.0 413.0 L355.0 462.0 Q355.0 469.0 350.0 469.0 L335.0 469.0 L335.0 469.0 "></path><path stroke="none" stroke-width="1.0" stroke-linecap="round" stroke-linejoin="round" fill="#000000" d="M230.0 84.0 L235.0 98.0 L240.0 84.0 z"></path><path stroke="none" stroke-width="1.0" stroke-linecap="round" stroke-linejoin="round" fill="#000000" d="M580.0 84.0 L585.0 98.0 L590.0 84.0 z"></path><path stroke="none" stroke-width="1.0" stroke-linecap="round" stroke-linejoin="round" fill="#000000" d="M800.0 84.0 L805.0 98.0 L810.0 84.0 z"></path><path stroke="none" stroke-width="1.0" stroke-linecap="round" stroke-linejoin="round" fill="#000000" d="M255.0 168.0 L250.0 182.0 L260.0 182.0 z"></path><path stroke="none" stroke-width="1.0" stroke-linecap="round" stroke-linejoin="round" fill="#000000" d="M100.0 322.0 L105.0 336.0 L110.0 322.0 z"></path><path stroke="none" stroke-width="1.0" stroke-linecap="round" stroke-linejoin="round" fill="#000000" d="M520.0 322.0 L525.0 336.0 L530.0 322.0 z"></path><path stroke="none" stroke-width="1.0" stroke-linecap="round" stroke-linejoin="round" fill="#000000" d="M680.0 322.0 L685.0 336.0 L690.0 322.0 z"></path><path stroke="none" stroke-width="1.0" stroke-linecap="round" stroke-linejoin="round" fill="#000000" d="M325.0 406.0 L320.0 420.0 L330.0 420.0 z"></path><path stroke="none" stroke-width="1.0" stroke-linecap="round" stroke-linejoin="round" fill="#000000" d="M290.0 504.0 L295.0 518.0 L300.0 504.0 z"></path><path stroke="#000000" stroke-width="1.0" stroke-linecap="round" stroke-linejoin="round" fill="none" d="M225.0 217.0 L245.0 217.0 "></path><path stroke="#000000" stroke-width="1.0" stroke-linecap="round" stroke-linejoin="round" fill="none" d="M265.0 217.0 L345.0 217.0 "></path><path stroke="#000000" stroke-width="1.0" stroke-linecap="round" stroke-linejoin="round" fill="none" d="M365.0 217.0 L575.0 217.0 "></path><path stroke="#000000" stroke-width="1.0" stroke-linecap="round" stroke-linejoin="round" fill="none" d="M595.0 217.0 L795.0 217.0 "></path><path stroke="#000000" stroke-width="1.0" stroke-linecap="round" stroke-linejoin="round" fill="none" d="M115.0 301.0 L315.0 301.0 "></path><path stroke="#000000" stroke-width="1.0" stroke-linecap="round" stroke-linejoin="round" fill="none" d="M335.0 301.0 L345.0 301.0 "></path><path stroke="#000000" stroke-width="1.0" stroke-linecap="round" stroke-linejoin="round" fill="none" d="M365.0 301.0 L455.0 301.0 "></path><path stroke="#000000" stroke-width="1.0" stroke-linecap="round" stroke-linejoin="round" fill="none" d="M475.0 301.0 L515.0 301.0 "></path><path stroke="#000000" stroke-width="1.0" stroke-linecap="round" stroke-linejoin="round" fill="none" d="M535.0 301.0 L615.0 301.0 "></path><path stroke="#000000" stroke-width="1.0" stroke-linecap="round" stroke-linejoin="round" fill="none" d="M635.0 301.0 L675.0 301.0 "></path><path stroke="#000000" stroke-width="1.0" stroke-linecap="round" stroke-linejoin="round" fill="none" d="M155.0 497.0 L285.0 497.0 "></path><path stroke="#000000" stroke-width="1.0" stroke-linecap="round" stroke-linejoin="round" fill="none" d="M295.0 469.0 L295.0 511.0 "></path><path stroke="#000000" stroke-width="1.0" stroke-linecap="round" stroke-linejoin="round" fill="none" d="M315.0 469.0 L295.0 469.0 "></path><path stroke="#000000" stroke-width="1.0" stroke-linecap="round" stroke-linejoin="round" fill="none" d="M305.0 497.0 L315.0 497.0 "></path><path stroke="#000000" stroke-width="1.0" stroke-linecap="round" stroke-linejoin="round" fill="none" d="M355.0 161.0 L355.0 329.0 "></path><path stroke="#000000" stroke-width="1.0" stroke-dasharray="5.0,5.0" stroke-miterlimit="0" stroke-linecap="butt" stroke-linejoin="round" fill="none" d="M585.0 161.0 L585.0 238.0 Q585.0 245.0 580.0 245.0 L530.0 245.0 L530.0 245.0 Q525.0 245.0 525.0 252.0 L525.0 329.0 L525.0 329.0 "></path><path stroke="#000000" stroke-width="1.0" stroke-dasharray="5.0,5.0" stroke-miterlimit="0" stroke-linecap="butt" stroke-linejoin="round" fill="none" d="M805.0 161.0 L805.0 238.0 Q805.0 245.0 800.0 245.0 L690.0 245.0 L690.0 245.0 Q685.0 245.0 685.0 252.0 L685.0 329.0 L685.0 329.0 "></path><path stroke="#000000" stroke-width="1.0" stroke-dasharray="5.0,5.0" stroke-miterlimit="0" stroke-linecap="butt" stroke-linejoin="round" fill="none" d="M325.0 273.0 L345.0 273.0 "></path><path stroke="#000000" stroke-width="1.0" stroke-dasharray="5.0,5.0" stroke-miterlimit="0" stroke-linecap="butt" stroke-linejoin="round" fill="none" d="M325.0 273.0 L325.0 343.0 "></path><path stroke="#000000" stroke-width="1.0" stroke-dasharray="5.0,5.0" stroke-miterlimit="0" stroke-linecap="butt" stroke-linejoin="round" fill="none" d="M465.0 273.0 L515.0 273.0 "></path><path stroke="#000000" stroke-width="1.0" stroke-dasharray="5.0,5.0" stroke-miterlimit="0" stroke-linecap="butt" stroke-linejoin="round" fill="none" d="M465.0 273.0 L465.0 343.0 "></path><path stroke="#000000" stroke-width="1.0" stroke-dasharray="5.0,5.0" stroke-miterlimit="0" stroke-linecap="butt" stroke-linejoin="round" fill="none" d="M365.0 273.0 L465.0 273.0 "></path><path stroke="#000000" stroke-width="1.0" stroke-dasharray="5.0,5.0" stroke-miterlimit="0" stroke-linecap="butt" stroke-linejoin="round" fill="none" d="M325.0 413.0 L325.0 525.0 "></path><text x="61" y="138" font-family="sans-serif" font-size="15" stroke="none" fill="#000000"><![CDATA[Application]]></text><text x="197" y="138" font-family="sans-serif" font-size="15" stroke="none" fill="#000000"><![CDATA[Log4j API]]></text><text x="319" y="138" font-family="sans-serif" font-size="15" stroke="none" fill="#000000"><![CDATA[Library 1]]></text><text x="439" y="138" font-family="sans-serif" font-size="15" stroke="none" fill="#000000"><![CDATA[Library 2]]></text><text x="562" y="138" font-family="sans-serif" font-size="15" stroke="none" fill="#000000"><![CDATA[SLF4J]]></text><text x="659" y="138" font-family="sans-serif" font-size="15" stroke="none" fill="#000000"><![CDATA[Library 3]]></text><text x="791" y="138" font-family="sans-serif" font-size="15" stroke="none" fill="#000000"><![CDATA[JUL]]></text><text x="47" y="208" font-family="sans-serif" font-size="15" stroke="none" fill="#000000"><![CDATA[Compile time]]></text><text x="781" y="320" font-family="sans-serif" font-size="15" stroke="none" fill="#000000"><![CDATA[Runtime]]></text><text x="57" y="376" font-family="sans-serif" font-size="15" stroke="none" fill="#000000"><![CDATA[Log4j Core]]></text><text x="281" y="376" font-family="sans-serif" font-size="15" stroke="none" fill="#000000"><![CDATA[JPL to Log4j]]></text><text x="431" y="376" font-family="sans-serif" font-size="15" stroke="none" fill="#000000"><![CDATA[SLF4J to Log4j]]></text><text x="601" y="376" font-family="sans-serif" font-size="15" stroke="none" fill="#000000"><![CDATA[JUL to Log4j]]></text><text x="58" y="418" font-family="sans-serif" font-size="15" stroke="none" fill="#000000"><![CDATA[log4j2.xml]]></text><text x="52" y="516" font-family="sans-serif" font-size="15" stroke="none" fill="#000000"><![CDATA[JRE]]></text><text x="302" y="558" font-family="sans-serif" font-size="15" stroke="none" fill="#000000"><![CDATA[JPL]]></text></g></svg>