<svg xmlns="http://www.w3.org/2000/svg" xmlns:xlink="http://www.w3.org/1999/xlink" contentStyleType="text/css" data-diagram-type="ACTIVITY" height="417px" preserveAspectRatio="none" style="width:431px;height:417px;background:#FFFFFF;" version="1.1" viewBox="0 0 431 417" width="431px" zoomAndPan="magnify"><defs/><g><ellipse cx="211.396" cy="20" fill="#222222" rx="10" ry="10" style="stroke:#222222;stroke-width:1;"/><rect fill="none" height="270.3628" style="stroke:#000000;stroke-width:1.5;" width="409.6099" x="11" y="40"/><path d="M69.5078,40 L69.5078,49.2969 L59.5078,59.2969 L11,59.2969" fill="none" style="stroke:#000000;stroke-width:1.5;"/><text fill="#000000" font-family="sans-serif" font-size="14" lengthAdjust="spacing" textLength="48.5078" x="14" y="53.9951">Logger</text><rect fill="#F1F1F1" height="33.9688" rx="12.5" ry="12.5" style="stroke:#181818;stroke-width:0.5;" width="123.7578" x="149.5171" y="76.2969"/><text fill="#000000" font-family="sans-serif" font-size="12" lengthAdjust="spacing" textLength="103.7578" x="159.5171" y="97.4355">A Logger method</text><polygon fill="#F1F1F1" points="162.8037,130.2656,259.9883,130.2656,271.9883,142.2656,259.9883,154.2656,162.8037,154.2656,150.8037,142.2656,162.8037,130.2656" style="stroke:#181818;stroke-width:0.5;"/><text fill="#000000" font-family="sans-serif" font-size="11" lengthAdjust="spacing" textLength="97.1846" x="162.8037" y="146.0737">Apply global filter</text><rect fill="#FFC0CB" height="33.9688" rx="12.5" ry="12.5" style="stroke:#181818;stroke-width:0.5;" width="65.3281" x="21" y="189.875"/><text fill="#000000" font-family="sans-serif" font-size="12" lengthAdjust="spacing" textLength="45.3281" x="31" y="211.0137">Discard</text><polygon fill="#F1F1F1" points="206.0649,189.875,382.9082,189.875,394.9082,201.875,382.9082,213.875,206.0649,213.875,194.0649,201.875,206.0649,189.875" style="stroke:#181818;stroke-width:0.5;"/><text fill="#000000" font-family="sans-serif" font-size="11" lengthAdjust="spacing" textLength="176.8433" x="206.0649" y="205.6831">Is less severe than logger level?</text><text fill="#000000" font-family="sans-serif" font-size="11" lengthAdjust="spacing" textLength="19.0083" x="175.0566" y="199.2808">yes</text><text fill="#000000" font-family="sans-serif" font-size="11" lengthAdjust="spacing" textLength="13.7017" x="394.9082" y="199.2808">no</text><rect fill="#FFC0CB" height="33.9688" rx="12.5" ry="12.5" style="stroke:#181818;stroke-width:0.5;" width="65.3281" x="151.4009" y="223.875"/><text fill="#000000" font-family="sans-serif" font-size="12" lengthAdjust="spacing" textLength="45.3281" x="161.4009" y="245.0137">Discard</text><polygon fill="#F1F1F1" points="211.396,274.3628,211.396,274.3628,223.396,286.3628,211.396,298.3628,211.396,298.3628,199.396,286.3628,211.396,274.3628" style="stroke:#181818;stroke-width:0.5;"/><rect fill="#F1F1F1" height="33.9688" rx="12.5" ry="12.5" style="stroke:#181818;stroke-width:0.5;" width="119.9727" x="151.4097" y="330.3628"/><text fill="#000000" font-family="sans-serif" font-size="12" lengthAdjust="spacing" textLength="99.9727" x="161.4097" y="351.5015">Create LogEvent</text><ellipse cx="211.396" cy="395.3315" fill="none" rx="11" ry="11" style="stroke:#222222;stroke-width:1;"/><ellipse cx="211.396" cy="395.3315" fill="#222222" rx="6" ry="6" style="stroke:#222222;stroke-width:1;"/><line style="stroke:#181818;stroke-width:1;" x1="194.0649" x2="184.0649" y1="201.875" y2="201.875"/><line style="stroke:#181818;stroke-width:1;" x1="184.0649" x2="184.0649" y1="201.875" y2="223.875"/><polygon fill="#181818" points="180.0649,213.875,184.0649,223.875,188.0649,213.875,184.0649,217.875" style="stroke:#181818;stroke-width:1;"/><line style="stroke:#181818;stroke-width:1;" x1="394.9082" x2="404.9082" y1="201.875" y2="201.875"/><line style="stroke:#181818;stroke-width:1;" x1="404.9082" x2="404.9082" y1="201.875" y2="286.3628"/><line style="stroke:#181818;stroke-width:1;" x1="404.9082" x2="223.396" y1="286.3628" y2="286.3628"/><polygon fill="#181818" points="233.396,282.3628,223.396,286.3628,233.396,290.3628,229.396,286.3628" style="stroke:#181818;stroke-width:1;"/><line style="stroke:#181818;stroke-width:1;" x1="150.8037" x2="53.6641" y1="142.2656" y2="142.2656"/><line style="stroke:#181818;stroke-width:1;" x1="53.6641" x2="53.6641" y1="142.2656" y2="189.875"/><polygon fill="#181818" points="49.6641,179.875,53.6641,189.875,57.6641,179.875,53.6641,183.875" style="stroke:#181818;stroke-width:1;"/><text fill="#000000" font-family="sans-serif" font-size="11" lengthAdjust="spacing" textLength="30.3682" x="53.6641" y="169.8784">DENY</text><line style="stroke:#181818;stroke-width:1;" x1="271.9883" x2="294.4866" y1="142.2656" y2="142.2656"/><line style="stroke:#181818;stroke-width:1;" x1="294.4866" x2="294.4866" y1="142.2656" y2="189.875"/><polygon fill="#181818" points="290.4866,179.875,294.4866,189.875,298.4866,179.875,294.4866,183.875" style="stroke:#181818;stroke-width:1;"/><text fill="#000000" font-family="sans-serif" font-size="11" lengthAdjust="spacing" textLength="51.2456" x="294.4866" y="169.8784">NEUTRAL</text><line style="stroke:#181818;stroke-width:1;" x1="96.3281" x2="96.3281" y1="142.2656" y2="286.3628"/><line style="stroke:#181818;stroke-width:1;" x1="96.3281" x2="199.396" y1="286.3628" y2="286.3628"/><polygon fill="#181818" points="189.396,282.3628,199.396,286.3628,189.396,290.3628,193.396,286.3628" style="stroke:#181818;stroke-width:1;"/><text fill="#000000" font-family="sans-serif" font-size="11" lengthAdjust="spacing" textLength="43.189" x="96.3281" y="262.8628">ACCEPT</text><line style="stroke:#181818;stroke-width:1;" x1="211.396" x2="211.396" y1="110.2656" y2="130.2656"/><polygon fill="#181818" points="207.396,120.2656,211.396,130.2656,215.396,120.2656,211.396,124.2656" style="stroke:#181818;stroke-width:1;"/><line style="stroke:#181818;stroke-width:1;" x1="211.396" x2="211.396" y1="30" y2="76.2969"/><polygon fill="#181818" points="207.396,66.2969,211.396,76.2969,215.396,66.2969,211.396,70.2969" style="stroke:#181818;stroke-width:1;"/><line style="stroke:#181818;stroke-width:1;" x1="211.396" x2="211.396" y1="298.3628" y2="330.3628"/><polygon fill="#181818" points="207.396,320.3628,211.396,330.3628,215.396,320.3628,211.396,324.3628" style="stroke:#181818;stroke-width:1;"/><line style="stroke:#181818;stroke-width:1;" x1="211.396" x2="211.396" y1="364.3315" y2="384.3315"/><polygon fill="#181818" points="207.396,374.3315,211.396,384.3315,215.396,374.3315,211.396,378.3315" style="stroke:#181818;stroke-width:1;"/><!--SRC=[TP0_QyCm4CLtVOg33hN7hivGZEEX448fxj3n8fzbaOiaTAfBldsbAlspL8DuFDtlddYIC2PbedyFSF36K5IgwsyIBfHMF- -KaW-Rz0fD7m9VmR0_8SDYEL5ibKOXQFRZyQrLaCzTiExSxQreZ1akram9zNgRx8TXV9w-kUFuEhtqXuhQ1Ped0IOH4Dee4gGL7N3z3sUB7zliaOFcIbAfVqB_11T9NEAS_sNkOLe964_4O2yX-eroR41jdVaPgi_uK7UusIugtxMGek2hFDKDaJ1HQMxSoAMTakJ39m00]--></g></svg>