<svg xmlns="http://www.w3.org/2000/svg" xmlns:xlink="http://www.w3.org/1999/xlink" contentStyleType="text/css" data-diagram-type="CLASS" height="408px" preserveAspectRatio="none" style="width:336px;height:408px;background:#FFFFFF;" version="1.1" viewBox="0 0 336 408" width="336px" zoomAndPan="magnify"><defs/><g><!--class StrSubstitutor--><g class="entity" data-entity="StrSubstitutor" data-source-line="1" data-uid="ent0002" id="entity_StrSubstitutor"><rect fill="#F1F1F1" height="96.8906" rx="2.5" ry="2.5" style="stroke:#181818;stroke-width:2;" width="322.0166" x="7" y="7"/><ellipse cx="114.9463" cy="23" fill="#ADD1B2" rx="11" ry="11" style="stroke:#181818;stroke-width:1;"/><path d="M117.915,28.6406 Q117.3369,28.9375 116.6963,29.0781 Q116.0557,29.2344 115.3525,29.2344 Q112.8525,29.2344 111.5244,27.5938 Q110.2119,25.9375 110.2119,22.8125 Q110.2119,19.6875 111.5244,18.0313 Q112.8525,16.375 115.3525,16.375 Q116.0557,16.375 116.6963,16.5313 Q117.3525,16.6875 117.915,16.9844 L117.915,19.7031 Q117.29,19.125 116.6963,18.8594 Q116.1025,18.5781 115.4775,18.5781 Q114.1338,18.5781 113.4463,19.6563 Q112.7588,20.7188 112.7588,22.8125 Q112.7588,24.9063 113.4463,25.9844 Q114.1338,27.0469 115.4775,27.0469 Q116.1025,27.0469 116.6963,26.7813 Q117.29,26.5 117.915,25.9219 L117.915,28.6406 Z " fill="#000000"/><text fill="#000000" font-family="sans-serif" font-size="14" lengthAdjust="spacing" textLength="97.624" x="135.4463" y="27.8467">StrSubstitutor</text><line style="stroke:#181818;stroke-width:2;" x1="8" x2="328.0166" y1="39" y2="39"/><text fill="#000000" font-family="sans-serif" font-size="14" lengthAdjust="spacing" textLength="169.3945" x="13" y="55.9951">Interpolator interpolator</text><line style="stroke:#181818;stroke-width:2;" x1="8" x2="328.0166" y1="63.2969" y2="63.2969"/><text fill="#000000" font-family="sans-serif" font-size="14" lengthAdjust="spacing" textLength="191.4336" x="13" y="80.292">String replace(String input)</text><text fill="#000000" font-family="sans-serif" font-size="14" lengthAdjust="spacing" textLength="310.0166" x="13" y="96.5889">String replace(LogEvent event, String input)</text></g><!--class Interpolator--><g class="entity" data-entity="Interpolator" data-source-line="7" data-uid="ent0003" id="entity_Interpolator"><rect fill="#F1F1F1" height="96.8906" rx="2.5" ry="2.5" style="stroke:#181818;stroke-width:0.5;" width="305.8633" x="15.08" y="163.9"/><ellipse cx="122.4657" cy="179.9" fill="#ADD1B2" rx="11" ry="11" style="stroke:#181818;stroke-width:1;"/><path d="M125.4345,185.5406 Q124.8564,185.8375 124.2157,185.9781 Q123.5751,186.1344 122.872,186.1344 Q120.372,186.1344 119.0439,184.4938 Q117.7314,182.8375 117.7314,179.7125 Q117.7314,176.5875 119.0439,174.9313 Q120.372,173.275 122.872,173.275 Q123.5751,173.275 124.2157,173.4313 Q124.872,173.5875 125.4345,173.8844 L125.4345,176.6031 Q124.8095,176.025 124.2157,175.7594 Q123.622,175.4781 122.997,175.4781 Q121.6532,175.4781 120.9657,176.5563 Q120.2782,177.6188 120.2782,179.7125 Q120.2782,181.8063 120.9657,182.8844 Q121.6532,183.9469 122.997,183.9469 Q123.622,183.9469 124.2157,183.6813 Q124.8095,183.4 125.4345,182.8219 L125.4345,185.5406 Z " fill="#000000"/><text fill="#000000" font-family="sans-serif" font-size="14" lengthAdjust="spacing" textLength="82.5918" x="142.9657" y="184.7467">Interpolator</text><line style="stroke:#181818;stroke-width:0.5;" x1="16.08" x2="319.9433" y1="195.9" y2="195.9"/><text fill="#000000" font-family="sans-serif" font-size="14" lengthAdjust="spacing" textLength="140.4854" x="21.08" y="212.8951">StrLookup[] lookups</text><line style="stroke:#181818;stroke-width:0.5;" x1="16.08" x2="319.9433" y1="220.1969" y2="220.1969"/><text fill="#000000" font-family="sans-serif" font-size="14" lengthAdjust="spacing" textLength="175.2803" x="21.08" y="237.192">String lookup(String key)</text><text fill="#000000" font-family="sans-serif" font-size="14" lengthAdjust="spacing" textLength="293.8633" x="21.08" y="253.4889">String lookup(LogEvent event, String key)</text></g><!--class StrLookup--><g class="entity" data-entity="StrLookup" data-source-line="15" data-uid="ent0005" id="entity_StrLookup"><rect fill="#F1F1F1" height="80.5938" rx="2.5" ry="2.5" style="stroke:#181818;stroke-width:0.5;" width="305.8633" x="15.08" y="320.79"/><ellipse cx="128.2968" cy="336.79" fill="#ADD1B2" rx="11" ry="11" style="stroke:#181818;stroke-width:1;"/><path d="M131.2655,342.4306 Q130.6874,342.7275 130.0468,342.8681 Q129.4062,343.0244 128.703,343.0244 Q126.203,343.0244 124.8749,341.3837 Q123.5624,339.7275 123.5624,336.6025 Q123.5624,333.4775 124.8749,331.8212 Q126.203,330.165 128.703,330.165 Q129.4062,330.165 130.0468,330.3212 Q130.703,330.4775 131.2655,330.7744 L131.2655,333.4931 Q130.6405,332.915 130.0468,332.6494 Q129.453,332.3681 128.828,332.3681 Q127.4843,332.3681 126.7968,333.4462 Q126.1093,334.5087 126.1093,336.6025 Q126.1093,338.6962 126.7968,339.7744 Q127.4843,340.8369 128.828,340.8369 Q129.453,340.8369 130.0468,340.5712 Q130.6405,340.29 131.2655,339.7119 L131.2655,342.4306 Z " fill="#000000"/><text fill="#000000" font-family="sans-serif" font-size="14" lengthAdjust="spacing" textLength="70.9297" x="148.7968" y="341.6367">StrLookup</text><line style="stroke:#181818;stroke-width:0.5;" x1="16.08" x2="319.9433" y1="352.79" y2="352.79"/><line style="stroke:#181818;stroke-width:0.5;" x1="16.08" x2="319.9433" y1="360.79" y2="360.79"/><text fill="#000000" font-family="sans-serif" font-size="14" lengthAdjust="spacing" textLength="186.2861" x="21.08" y="377.7851">String lookup(String input)</text><text fill="#000000" font-family="sans-serif" font-size="14" lengthAdjust="spacing" textLength="293.8633" x="21.08" y="394.082">String lookup(LogEvent event, String key)</text></g><!--link StrSubstitutor to Interpolator--><g class="link" data-entity-1="StrSubstitutor" data-entity-2="Interpolator" data-source-line="7" data-uid="lnk4" id="link_StrSubstitutor_Interpolator"><path codeLine="7" d="M168.01,104.19 C168.01,123.03 168.01,138.64 168.01,157.5" fill="none" id="StrSubstitutor-to-Interpolator" style="stroke:#181818;stroke-width:1;"/><polygon fill="#181818" points="168.01,163.5,172.01,154.5,168.01,158.5,164.01,154.5,168.01,163.5" style="stroke:#181818;stroke-width:1;"/></g><!--link Interpolator to StrLookup--><g class="link" data-entity-1="Interpolator" data-entity-2="StrLookup" data-source-line="15" data-uid="lnk6" id="link_Interpolator_StrLookup"><path codeLine="15" d="M168.01,260.98 C168.01,280.23 168.01,296.18 168.01,314.53" fill="none" id="Interpolator-to-StrLookup" style="stroke:#181818;stroke-width:1;"/><polygon fill="#181818" points="168.01,320.53,172.01,311.53,168.01,315.53,164.01,311.53,168.01,320.53" style="stroke:#181818;stroke-width:1;"/><text fill="#000000" font-family="sans-serif" font-size="13" lengthAdjust="spacing" textLength="23.0356" x="143.108" y="309.6485">0..*</text></g><!--SRC=[ZP312i8m38RlVOemBqvSyGcyUH1ssr4yR3ECijAMDXLa-EwkctDsG_0Iclm9tqThMJe71Td2Luu4UT8MDb8ev9MMD-WOm5aHMgDb6JBnrVHPVobK0nQDB6lSlbkXZATq7UUwETrH4M2eUuZNdumjHBBi6D4PgmVVoAWRERdMhJUNAyZXuMRwE9ZSMdoag-o7sB3RQqMy89KSEDybCtOI-mmcgpL_-JV_6Bm0]--></g></svg>